<svg width="24" height="24" viewBox="0 0 24 24" fill="none" xmlns="http://www.w3.org/2000/svg">
<path d="M20.625 4.3125H16.6875V2.8125C16.6875 2.70937 16.6031 2.625 16.5 2.625H15.1875C15.0844 2.625 15 2.70937 15 2.8125V4.3125H9V2.8125C9 2.70937 8.91563 2.625 8.8125 2.625H7.5C7.39687 2.625 7.3125 2.70937 7.3125 2.8125V4.3125H3.375C2.96016 4.3125 2.625 4.64766 2.625 5.0625V20.625C2.625 21.0398 2.96016 21.375 3.375 21.375H20.625C21.0398 21.375 21.375 21.0398 21.375 20.625V5.0625C21.375 4.64766 21.0398 4.3125 20.625 4.3125ZM19.6875 19.6875H4.3125V6H7.3125V7.125C7.3125 7.22813 7.39687 7.3125 7.5 7.3125H8.8125C8.91563 7.3125 9 7.22813 9 7.125V6H15V7.125C15 7.22813 15.0844 7.3125 15.1875 7.3125H16.5C16.6031 7.3125 16.6875 7.22813 16.6875 7.125V6H19.6875V19.6875ZM14.9883 9.70312H13.9336C13.8633 9.70312 13.7977 9.74297 13.7672 9.80625L12.0469 13.2141H11.9813L10.2609 9.80625C10.2454 9.7754 10.2216 9.74944 10.1923 9.73125C10.1629 9.71305 10.1291 9.70332 10.0945 9.70312H9.01641C8.98594 9.70312 8.95312 9.71016 8.92734 9.72656C8.83594 9.77578 8.80313 9.89062 8.85234 9.98203L10.9453 13.8258H9.80625C9.70312 13.8258 9.61875 13.9102 9.61875 14.0133V14.5125C9.61875 14.6156 9.70312 14.7 9.80625 14.7H11.332V15.4898H9.80625C9.70312 15.4898 9.61875 15.5742 9.61875 15.6773V16.1766C9.61875 16.2797 9.70312 16.3641 9.80625 16.3641H11.332V17.625C11.332 17.7281 11.4164 17.8125 11.5195 17.8125H12.4875C12.5906 17.8125 12.675 17.7281 12.675 17.625V16.3641H14.2078C14.3109 16.3641 14.3953 16.2797 14.3953 16.1766V15.6773C14.3953 15.5742 14.3109 15.4898 14.2078 15.4898H12.675V14.7H14.2078C14.3109 14.7 14.3953 14.6156 14.3953 14.5125V14.0133C14.3953 13.9102 14.3109 13.8258 14.2078 13.8258H13.057L15.15 9.97969C15.1641 9.95156 15.1734 9.92109 15.1734 9.89062C15.1758 9.7875 15.0938 9.70312 14.9883 9.70312Z" fill="#0D121A"/>
</svg>
