<svg width="24" height="24" viewBox="0 0 24 24" fill="none" xmlns="http://www.w3.org/2000/svg">
<path d="M4.5225 18.6562C4.5225 19.0711 4.85765 19.4062 5.2725 19.4062H18.7256C19.1405 19.4062 19.4756 19.0711 19.4756 18.6562V13.1953C19.4756 9.06563 16.1287 5.71875 11.9991 5.71875C7.86937 5.71875 4.5225 9.06563 4.5225 13.1953V18.6562ZM6.21 13.1953C6.21 9.99844 8.80219 7.40625 11.9991 7.40625C15.1959 7.40625 17.7881 9.99844 17.7881 13.1953V17.7188H9.46781V13.7109C9.46781 13.582 9.36234 13.4766 9.23344 13.4766H8.20219C8.07328 13.4766 7.96781 13.582 7.96781 13.7109V17.7188H6.21V13.1953ZM5.08265 7.27734L6.01078 6.34922C6.08344 6.27656 6.08344 6.15703 6.01078 6.08438L4.41937 4.49297C4.38413 4.45807 4.33654 4.4385 4.28695 4.4385C4.23736 4.4385 4.18977 4.45807 4.15453 4.49297L3.2264 5.42109C3.19151 5.45633 3.17194 5.50392 3.17194 5.55352C3.17194 5.60311 3.19151 5.6507 3.2264 5.68594L4.81781 7.27734C4.89047 7.35 5.00765 7.35 5.08265 7.27734ZM20.7764 5.42109L19.8483 4.49297C19.813 4.45807 19.7655 4.4385 19.7159 4.4385C19.6663 4.4385 19.6187 4.45807 19.5834 4.49297L17.992 6.08438C17.9571 6.11962 17.9376 6.1672 17.9376 6.2168C17.9376 6.26639 17.9571 6.31398 17.992 6.34922L18.9202 7.27734C18.9928 7.35 19.1123 7.35 19.185 7.27734L20.7764 5.68594C20.8491 5.61094 20.8491 5.49375 20.7764 5.42109ZM19.4991 20.9062H4.49906C4.08422 20.9062 3.74906 21.2414 3.74906 21.6562V22.2188C3.74906 22.3219 3.83344 22.4062 3.93656 22.4062H20.0616C20.1647 22.4062 20.2491 22.3219 20.2491 22.2188V21.6562C20.2491 21.2414 19.9139 20.9062 19.4991 20.9062ZM11.3428 4.21875H12.6553C12.7584 4.21875 12.8428 4.13438 12.8428 4.03125V1.78125C12.8428 1.67812 12.7584 1.59375 12.6553 1.59375H11.3428C11.2397 1.59375 11.1553 1.67812 11.1553 1.78125V4.03125C11.1553 4.13438 11.2397 4.21875 11.3428 4.21875Z" fill="#0D121A"/>
</svg>
