<svg width="24" height="24" viewBox="0 0 24 24" fill="none" xmlns="http://www.w3.org/2000/svg">
<path d="M21.5084 3.48787L20.5147 2.49412C20.4772 2.45662 20.4303 2.44022 20.3811 2.44022C20.3319 2.44022 20.285 2.45897 20.2475 2.49412L18.4639 4.27772C17.6885 3.75237 16.7731 3.47228 15.8366 3.47381C14.6366 3.47381 13.4366 3.93084 12.5201 4.84725L10.1319 7.23553C10.097 7.27077 10.0774 7.31836 10.0774 7.36795C10.0774 7.41754 10.097 7.46513 10.1319 7.50037L16.4998 13.8683C16.5373 13.9058 16.5842 13.9222 16.6334 13.9222C16.6803 13.9222 16.7295 13.9035 16.767 13.8683L19.1553 11.4801C20.7701 9.86287 20.96 7.36209 19.7248 5.53865L21.5084 3.75506C21.5811 3.68006 21.5811 3.56053 21.5084 3.48787ZM18.0256 10.3527L16.6334 11.7449L12.2553 7.36678L13.6475 5.97459C14.2311 5.391 15.0092 5.06756 15.8366 5.06756C16.6639 5.06756 17.4397 5.38865 18.0256 5.97459C18.6092 6.55818 18.9326 7.33631 18.9326 8.16365C18.9326 8.991 18.6092 9.76678 18.0256 10.3527ZM13.5678 12.8137C13.5326 12.7788 13.485 12.7592 13.4354 12.7592C13.3858 12.7592 13.3382 12.7788 13.303 12.8137L11.742 14.3746L9.62562 12.2582L11.1889 10.6949C11.2616 10.6222 11.2616 10.5027 11.1889 10.4301L10.3358 9.57693C10.3005 9.54204 10.2529 9.52247 10.2034 9.52247C10.1538 9.52247 10.1062 9.54204 10.0709 9.57693L8.50765 11.1402L7.49984 10.1324C7.48234 10.1149 7.46149 10.1011 7.43853 10.0918C7.41558 10.0826 7.39099 10.078 7.36624 10.0785C7.31937 10.0785 7.27015 10.0972 7.23265 10.1324L4.84671 12.5207C3.23187 14.1379 3.04202 16.6387 4.27718 18.4621L2.49359 20.2457C2.45869 20.2809 2.43912 20.3285 2.43912 20.3781C2.43912 20.4277 2.45869 20.4753 2.49359 20.5105L3.48734 21.5043C3.52484 21.5418 3.57171 21.5582 3.62093 21.5582C3.67015 21.5582 3.71702 21.5394 3.75452 21.5043L5.53812 19.7207C6.32796 20.2574 7.24671 20.5246 8.16546 20.5246C9.36546 20.5246 10.5655 20.0676 11.4819 19.1512L13.8701 16.7629C13.9428 16.6902 13.9428 16.5707 13.8701 16.498L12.8623 15.4902L14.4256 13.9269C14.4983 13.8543 14.4983 13.7347 14.4256 13.6621L13.5678 12.8137ZM10.3522 18.0262C10.0653 18.3145 9.72417 18.5431 9.34843 18.6988C8.9727 18.8545 8.56983 18.9341 8.16312 18.9332C7.33577 18.9332 6.55999 18.6121 5.97406 18.0262C5.68573 17.7393 5.45712 17.3981 5.30143 17.0224C5.14575 16.6467 5.06608 16.2438 5.06702 15.8371C5.06702 15.0097 5.38812 14.234 5.97406 13.648L7.36624 12.2558L11.7444 16.634L10.3522 18.0262Z" fill="#0D121A"/>
</svg>
