<svg width="24" height="24" viewBox="0 0 24 24" fill="none" xmlns="http://www.w3.org/2000/svg">
<path d="M2 19V3C2 2.44772 2.44772 2 3 2C3.55228 2 4 2.44772 4 3V19C4 19.2652 4.10543 19.5195 4.29297 19.707C4.48051 19.8946 4.73478 20 5 20H21C21.5523 20 22 20.4477 22 21C22 21.5523 21.5523 22 21 22H5C4.20435 22 3.44152 21.6837 2.87891 21.1211C2.3163 20.5585 2 19.7957 2 19ZM18 9.41504L14.5615 12.8535L14.5605 12.8525C14.4214 12.9918 14.257 13.1033 14.0752 13.1787C13.893 13.2543 13.6973 13.293 13.5 13.293C13.3027 13.293 13.107 13.2543 12.9248 13.1787C12.7428 13.1032 12.5777 12.992 12.4385 12.8525L9.5 9.91504L8 11.415V16H18V9.41504ZM20 16C20 16.5304 19.7891 17.039 19.4141 17.4141C19.039 17.7891 18.5304 18 18 18H8C7.46957 18 6.96101 17.7891 6.58594 17.4141C6.21087 17.039 6 16.5304 6 16V11.207C6.00008 10.81 6.15807 10.4286 6.43848 10.1475V10.1465L8.43848 8.14648C8.5776 8.00724 8.74301 7.89674 8.9248 7.82129C9.10704 7.74567 9.3027 7.70703 9.5 7.70703C9.64782 7.70703 9.79461 7.72873 9.93555 7.77148L10.0752 7.82129L10.208 7.88477C10.3375 7.9541 10.4563 8.04225 10.5605 8.14648L13.5 11.085L17.4385 7.14648C17.648 6.93683 17.9154 6.79444 18.2061 6.73633L18.3154 6.71875C18.5352 6.69149 18.7584 6.71301 18.9688 6.78223L19.0732 6.82129L19.1738 6.86719C19.3717 6.9667 19.5452 7.1087 19.6816 7.2832L19.7471 7.37305L19.8047 7.46777C19.9321 7.69265 19.9999 7.94731 20 8.20703V16Z" fill="#0D121A"/>
</svg>
