<svg viewBox="0 0 24 24" fill="none" xmlns="http://www.w3.org/2000/svg">
<path d="M2 19.5V5.5C2 4.94772 2.44772 4.5 3 4.5C3.55228 4.5 4 4.94772 4 5.5V19.5C4 20.0523 3.55228 20.5 3 20.5C2.44772 20.5 2 20.0523 2 19.5ZM12.293 5.79297C12.6835 5.40244 13.3165 5.40244 13.707 5.79297C14.0976 6.18349 14.0976 6.81651 13.707 7.20703L9.41406 11.5H21C21.5523 11.5 22 11.9477 22 12.5C22 13.0523 21.5523 13.5 21 13.5H9.41406L13.707 17.793C14.0976 18.1835 14.0976 18.8165 13.707 19.207C13.3165 19.5976 12.6835 19.5976 12.293 19.207L6.29297 13.207C5.90244 12.8165 5.90244 12.1835 6.29297 11.793L12.293 5.79297Z" fill="currentColor"/>
</svg>
