<svg viewBox="0 0 24 24" fill="none" xmlns="http://www.w3.org/2000/svg">
<path d="M20 19.5V5.5C20 4.94772 20.4477 4.5 21 4.5C21.5523 4.5 22 4.94772 22 5.5V19.5C22 20.0523 21.5523 20.5 21 20.5C20.4477 20.5 20 20.0523 20 19.5ZM10.293 5.79297C10.6835 5.40244 11.3165 5.40244 11.707 5.79297L17.707 11.793C18.0976 12.1835 18.0976 12.8165 17.707 13.207L11.707 19.207C11.3165 19.5976 10.6835 19.5976 10.293 19.207C9.90244 18.8165 9.90244 18.1835 10.293 17.793L14.5859 13.5H3C2.44772 13.5 2 13.0523 2 12.5C2 11.9477 2.44772 11.5 3 11.5H14.5859L10.293 7.20703C9.90244 6.81651 9.90244 6.18349 10.293 5.79297Z" fill="currentColor"/>
</svg>
