<svg width="24" height="24" viewBox="0 0 24 24" fill="none" xmlns="http://www.w3.org/2000/svg">
<path d="M15.9844 10.664V7.28904L14.2031 9.07028V10.664C14.2008 11.8523 13.2187 12.8226 12 12.8203C11.5523 12.8226 11.1375 12.6937 10.7812 12.4687L9.51562 13.7578C10.1977 14.2828 11.0602 14.6015 12 14.6015C14.1984 14.6015 15.9844 12.8414 15.9844 10.664Z" fill="#0D121A"/>
<path d="M19.5226 10.4535H18.1163C18.0132 10.4535 17.9288 10.5379 17.9288 10.641C17.9288 13.9293 15.264 16.5941 11.9757 16.5941C10.4991 16.5941 9.1468 16.0551 8.10851 15.1644L6.84289 16.4301C7.98898 17.4426 9.43976 18.1246 11.0382 18.3285V20.7191H7.63976C7.31398 20.7191 7.05617 21.0543 7.05383 21.4691V22.3129C7.05617 22.416 7.1218 22.5004 7.19445 22.5004H16.757C16.832 22.5004 16.8976 22.416 16.8976 22.3129V21.4691C16.8976 21.0543 16.6398 20.7191 16.3116 20.7191H12.8195V18.3285C16.6937 17.909 19.7101 14.6277 19.7101 10.641C19.7101 10.5379 19.6257 10.4535 19.5226 10.4535ZM19.8296 1.60116L18.8101 0.619126C18.7374 0.548813 18.6202 0.548813 18.5476 0.62147L15.5241 3.64491C14.8655 2.37225 13.5226 1.50038 11.9757 1.50038C9.77492 1.50038 7.99133 3.26522 7.99133 5.43788V10.6879C7.99133 10.8449 8.0007 10.9996 8.01945 11.1519L6.4257 12.7457C6.17961 12.0918 6.04367 11.3816 6.04601 10.641C6.04133 10.5379 5.95695 10.4535 5.85851 10.4535H4.45226C4.34914 10.4535 4.26476 10.5379 4.26476 10.641C4.26476 11.8832 4.55773 13.0551 5.0757 14.0957L1.86476 17.3066C1.79211 17.3793 1.79211 17.4988 1.86476 17.5715L2.86555 18.5723C2.9382 18.6449 3.05773 18.6449 3.13039 18.5723L19.8343 1.86834C19.907 1.79334 19.9046 1.67381 19.8296 1.60116ZM9.77258 9.39881V5.43788C9.77258 4.25194 10.7546 3.28163 11.9757 3.28163C13.0538 3.28163 13.9468 4.03866 14.139 5.03241L9.77258 9.39881Z" fill="#0D121A"/>
</svg>
