<svg width="16" height="16" viewBox="0 0 16 16" fill="none" xmlns="http://www.w3.org/2000/svg">
<path d="M13.998 3.33301C13.9979 2.96497 13.6991 2.66699 13.3311 2.66699H2.66406C2.29613 2.66717 1.99822 2.96508 1.99805 3.33301V10C1.99805 10.3681 2.29602 10.6668 2.66406 10.667H13.3311C13.6992 10.667 13.998 10.3682 13.998 10V3.33301ZM15.3311 10C15.3311 11.1046 14.4356 12 13.3311 12H8.66406V13.333H10.6641C11.0323 13.333 11.3311 13.6318 11.3311 14C11.3311 14.3682 11.0323 14.667 10.6641 14.667H5.33105C4.96286 14.667 4.66406 14.3682 4.66406 14C4.66406 13.6318 4.96286 13.333 5.33105 13.333H7.33105V12H2.66406C1.55964 11.9998 0.664062 11.1045 0.664062 10V3.33301C0.664238 2.2287 1.55975 1.33318 2.66406 1.33301H13.3311C14.4355 1.33301 15.3309 2.22859 15.3311 3.33301V10Z" fill="#4B4E57"/>
<path d="M4.33594 8.66699V7.5C4.33594 7.13181 4.63474 6.83301 5.00293 6.83301C5.37112 6.83301 5.66992 7.13181 5.66992 7.5V8.66699C5.66975 9.03503 5.37101 9.33301 5.00293 9.33301C4.63485 9.33301 4.33611 9.03503 4.33594 8.66699ZM7.33594 8.66699V5C7.33594 4.63181 7.63474 4.33301 8.00293 4.33301C8.3709 4.33326 8.66895 4.63197 8.66895 5V8.66699C8.66877 9.03487 8.37079 9.33275 8.00293 9.33301C7.63485 9.33301 7.33611 9.03503 7.33594 8.66699ZM10.3359 8.66699V6C10.3359 5.63181 10.6347 5.33301 11.0029 5.33301C11.3711 5.33301 11.6699 5.63181 11.6699 6V8.66699C11.6697 9.03503 11.371 9.33301 11.0029 9.33301C10.6348 9.33301 10.3361 9.03503 10.3359 8.66699Z" fill="#4B4E57"/>
</svg>
