<svg width="24" height="24" viewBox="0 0 24 24" fill="none" xmlns="http://www.w3.org/2000/svg">
<path d="M20.9534 10.8274C21.6776 10.8274 21.98 9.89691 21.3917 9.46801L12.4409 2.95707C12.3131 2.86342 12.1588 2.81293 12.0003 2.81293C11.8418 2.81293 11.6875 2.86342 11.5597 2.95707L2.6089 9.46801C2.02062 9.89457 2.32296 10.8274 3.04952 10.8274H4.50031V19.593H2.81281C2.70968 19.593 2.62531 19.6774 2.62531 19.7805V20.9993C2.62531 21.1024 2.70968 21.1868 2.81281 21.1868H21.1878C21.2909 21.1868 21.3753 21.1024 21.3753 20.9993V19.7805C21.3753 19.6774 21.2909 19.593 21.1878 19.593H19.5003V10.8274H20.9534ZM12.0003 4.60941L18.3542 9.23129H5.6464L12.0003 4.60941ZM6.1878 10.8274H8.92999V19.593H6.1878V10.8274ZM10.6175 10.8274H13.3597V19.593H10.6175V10.8274ZM17.8128 19.593H15.0472V10.8274H17.8128V19.593Z" fill="#0D121A"/>
</svg>
