<svg width="24" height="24" viewBox="0 0 24 24" fill="none" xmlns="http://www.w3.org/2000/svg">
<path d="M12.8232 20.5159C13.0893 20.0319 13.6977 19.8553 14.1816 20.1213C14.6655 20.3874 14.8421 20.9948 14.5762 21.4788C14.3225 21.9401 13.9493 22.325 13.4961 22.593C13.043 22.8609 12.5264 23.0022 12 23.0022C11.4736 23.0022 10.957 22.8609 10.5039 22.593C10.0507 22.325 9.67749 21.9401 9.42383 21.4788C9.15792 20.9948 9.33449 20.3874 9.81836 20.1213C10.3023 19.8553 10.9107 20.0319 11.1768 20.5159C11.2578 20.6631 11.3768 20.7857 11.5215 20.8713C11.6664 20.957 11.8317 21.0022 12 21.0022C12.1683 21.0022 12.3336 20.957 12.4785 20.8713C12.6232 20.7857 12.7422 20.6631 12.8232 20.5159ZM17 7.99731C17 6.67123 16.4728 5.39984 15.5352 4.46216C14.5975 3.52448 13.3261 2.99731 12 2.99731C10.6739 2.99731 9.40253 3.52448 8.46485 4.46216C7.52717 5.39984 7 6.67123 7 7.99731C7 11.6444 6.21705 14.0623 5.37793 15.6008C5.30167 15.7407 5.22372 15.8724 5.14746 15.9973H18.8525C18.7763 15.8724 18.6983 15.7407 18.6221 15.6008C17.783 14.0623 17 11.6444 17 7.99731ZM19 7.99731C19 11.35 19.7171 13.4323 20.3779 14.6438C20.7097 15.2519 21.0324 15.6511 21.2568 15.8879C21.3693 16.0067 21.4585 16.0848 21.5117 16.1292C21.5383 16.1513 21.5558 16.1654 21.5635 16.1711C21.5624 16.1704 21.561 16.1692 21.5596 16.1682L21.5557 16.1663C21.9215 16.4109 22.0846 16.866 21.957 17.2874C21.8293 17.709 21.4406 17.9973 21 17.9973H3C2.55942 17.9973 2.17075 17.709 2.04297 17.2874C1.9154 16.866 2.07847 16.4109 2.44434 16.1663L2.44043 16.1682C2.43905 16.1692 2.43756 16.1704 2.43653 16.1711C2.44422 16.1654 2.46172 16.1513 2.48828 16.1292C2.5415 16.0848 2.63069 16.0067 2.74317 15.8879C2.96756 15.6511 3.29036 15.2519 3.62207 14.6438C4.2829 13.4323 5 11.35 5 7.99731C5 6.1408 5.73705 4.35987 7.04981 3.04712C8.36256 1.73436 10.1435 0.997314 12 0.997314C13.8565 0.997314 15.6374 1.73436 16.9502 3.04712C18.263 4.35987 19 6.1408 19 7.99731Z" fill="#0D121A"/>
</svg>
