<svg width="24" height="24" viewBox="0 0 24 24" fill="none" xmlns="http://www.w3.org/2000/svg">
<path d="M21.0002 20C21.0002 19.5763 20.7918 19.2218 20.3205 18.6104C20.2245 18.4859 20.1146 18.3471 19.9992 18.1943C19.8841 18.3467 19.7756 18.4861 19.6799 18.6104C19.2086 19.2218 19.0002 19.5763 19.0002 20C19.0002 20.2652 19.1056 20.5195 19.2932 20.707C19.4807 20.8945 19.735 21 20.0002 21C20.2653 21 20.5197 20.8945 20.7072 20.707C20.8947 20.5195 21.0002 20.2652 21.0002 20ZM4.29315 1.29298C4.68368 0.902531 5.31672 0.902478 5.70721 1.29298L8.49921 4.08497L10.2932 2.29298L10.3693 2.22462C10.7621 1.90435 11.3411 1.92689 11.7072 2.29298L19.7072 10.293C20.0976 10.6835 20.0976 11.3165 19.7072 11.707L11.1076 20.3066C9.91708 21.4972 8.08329 21.4972 6.89276 20.3066L1.69257 15.1074L1.68573 15.0996C1.13622 14.5389 0.828308 13.7851 0.828308 13C0.828308 12.2149 1.13622 11.4612 1.68573 10.9004L1.69257 10.8926L7.08514 5.49903L4.29315 2.70704C3.90263 2.31651 3.90263 1.6835 4.29315 1.29298ZM8.30682 18.8926C8.71629 19.3021 9.28309 19.302 9.69257 18.8926L14.5861 14H3.41425L8.30682 18.8926ZM9.91425 5.50001L10.7072 6.29297C11.0976 6.68348 11.0976 7.31653 10.7072 7.70704C10.3167 8.09754 9.68368 8.09748 9.29315 7.70704L8.50018 6.91407L3.41425 12H16.5861L17.5851 10.999L11.0002 4.41407L9.91425 5.50001ZM23.0002 20C23.0002 20.7956 22.6838 21.5585 22.1213 22.1211C21.5587 22.6837 20.7958 23 20.0002 23C19.2046 23 18.4417 22.6837 17.8791 22.1211C17.3165 21.5585 17.0002 20.7957 17.0002 20C17.0002 18.8237 17.6422 17.9782 18.0959 17.3897C18.6052 16.7289 18.9202 16.3305 19.0168 15.8154C19.1055 15.3426 19.519 15 20.0002 15C20.4812 15.0001 20.8938 15.3427 20.9826 15.8154C21.0792 16.3305 21.3951 16.7289 21.9045 17.3897C22.3582 17.9782 23.0002 18.8238 23.0002 20Z" fill="#0D121A"/>
</svg>
