<svg width="24" height="24" viewBox="0 0 24 24" fill="none" xmlns="http://www.w3.org/2000/svg">
<path d="M18 16C18 15.2044 17.6837 14.4415 17.1211 13.8789C16.5585 13.3163 15.7956 13 15 13H7V19H15C15.7956 19 16.5585 18.6837 17.1211 18.1211C17.6837 17.5585 18 16.7956 18 16ZM20 16C20 17.3261 19.4728 18.5975 18.5352 19.5352C17.5975 20.4728 16.3261 21 15 21H7C6.46957 21 5.96101 20.7891 5.58594 20.4141C5.21087 20.039 5 19.5304 5 19V5C5 4.46957 5.21087 3.96101 5.58594 3.58594C5.96101 3.21087 6.46957 3 7 3H14C15.3261 3 16.5975 3.52716 17.5352 4.46484C18.4728 5.40253 19 6.67392 19 8C19 9.32608 18.4728 10.5975 17.5352 11.5352C17.5016 11.5688 17.4661 11.6003 17.4316 11.6328C17.8327 11.8561 18.2048 12.1345 18.5352 12.4648C19.4728 13.4025 20 14.6739 20 16ZM7 11H14C14.7956 11 15.5585 10.6837 16.1211 10.1211C16.6837 9.55848 17 8.79565 17 8C17 7.20435 16.6837 6.44152 16.1211 5.87891C15.5585 5.3163 14.7956 5 14 5H7V11Z" fill="#0D121A"/>
<path d="M18 16C18 15.2044 17.6837 14.4415 17.1211 13.8789C16.5585 13.3163 15.7956 13 15 13H7V19H15C15.7956 19 16.5585 18.6837 17.1211 18.1211C17.6837 17.5585 18 16.7956 18 16ZM20 16C20 17.3261 19.4728 18.5975 18.5352 19.5352C17.5975 20.4728 16.3261 21 15 21H7C6.46957 21 5.96101 20.7891 5.58594 20.4141C5.21087 20.039 5 19.5304 5 19V5C5 4.46957 5.21087 3.96101 5.58594 3.58594C5.96101 3.21087 6.46957 3 7 3H14C15.3261 3 16.5975 3.52716 17.5352 4.46484C18.4728 5.40253 19 6.67392 19 8C19 9.32608 18.4728 10.5975 17.5352 11.5352C17.5016 11.5688 17.4661 11.6003 17.4316 11.6328C17.8327 11.8561 18.2048 12.1345 18.5352 12.4648C19.4728 13.4025 20 14.6739 20 16ZM7 11H14C14.7956 11 15.5585 10.6837 16.1211 10.1211C16.6837 9.55848 17 8.79565 17 8C17 7.20435 16.6837 6.44152 16.1211 5.87891C15.5585 5.3163 14.7956 5 14 5H7V11Z" fill="#0D121A"/>
</svg>
