<svg viewBox="0 0 24 24" fill="none" xmlns="http://www.w3.org/2000/svg">
<path d="M17 3V10C17 10.4044 16.7564 10.769 16.3828 10.9238C16.0091 11.0786 15.579 10.993 15.293 10.707L13 8.41406L10.707 10.707C10.421 10.993 9.99086 11.0786 9.61719 10.9238C9.24359 10.769 9 10.4044 9 10V3H6.5C6.10218 3 5.72076 3.15815 5.43945 3.43945C5.15815 3.72076 5 4.10218 5 4.5V16.3379C5.46445 16.1176 5.97614 16 6.5 16H19V3H17ZM11 7.58594L12.293 6.29297L12.3691 6.22461C12.7619 5.90426 13.3409 5.92685 13.707 6.29297L15 7.58594V3H11V7.58594ZM5 19.5C5 19.8978 5.15815 20.2792 5.43945 20.5605C5.72076 20.8419 6.10218 21 6.5 21H19V18H6.5C6.10218 18 5.72076 18.1581 5.43945 18.4395C5.15815 18.7208 5 19.1022 5 19.5ZM21 21C21 21.5304 20.7891 22.039 20.4141 22.4141C20.039 22.7891 19.5304 23 19 23H6.5C5.57174 23 4.68177 22.631 4.02539 21.9746C3.36901 21.3182 3 20.4283 3 19.5V4.5C3 3.57174 3.36901 2.68177 4.02539 2.02539C4.68177 1.36901 5.57174 1 6.5 1H19C19.5304 1 20.039 1.21086 20.4141 1.58594C20.7891 1.96101 21 2.46957 21 3V21Z" fill="currentColor"/>
</svg>
