<svg width="24" height="24" viewBox="0 0 24 24" fill="none" xmlns="http://www.w3.org/2000/svg">
<path d="M20.4375 11.1562H12.8438V3.375H11.1562V11.1562H3.5625C3.45937 11.1562 3.375 11.2406 3.375 11.3438V12.6562C3.375 12.7594 3.45937 12.8438 3.5625 12.8438H11.1562V20.625H12.8438V12.8438H20.4375C20.5406 12.8438 20.625 12.7594 20.625 12.6562V11.3438C20.625 11.2406 20.5406 11.1562 20.4375 11.1562ZM20.4375 7.26562H19.125C19.0219 7.26562 18.9375 7.35 18.9375 7.45312V8.76562C18.9375 8.86875 19.0219 8.95312 19.125 8.95312H20.4375C20.5406 8.95312 20.625 8.86875 20.625 8.76562V7.45312C20.625 7.35 20.5406 7.26562 20.4375 7.26562ZM20.4375 18.9375H19.125C19.0219 18.9375 18.9375 19.0219 18.9375 19.125V20.4375C18.9375 20.5406 19.0219 20.625 19.125 20.625H20.4375C20.5406 20.625 20.625 20.5406 20.625 20.4375V19.125C20.625 19.0219 20.5406 18.9375 20.4375 18.9375ZM20.4375 3.375H19.125C19.0219 3.375 18.9375 3.45937 18.9375 3.5625V4.875C18.9375 4.97812 19.0219 5.0625 19.125 5.0625H20.4375C20.5406 5.0625 20.625 4.97812 20.625 4.875V3.5625C20.625 3.45937 20.5406 3.375 20.4375 3.375ZM20.4375 15.0469H19.125C19.0219 15.0469 18.9375 15.1313 18.9375 15.2344V16.5469C18.9375 16.65 19.0219 16.7344 19.125 16.7344H20.4375C20.5406 16.7344 20.625 16.65 20.625 16.5469V15.2344C20.625 15.1313 20.5406 15.0469 20.4375 15.0469ZM15.2344 5.0625H16.5469C16.65 5.0625 16.7344 4.97812 16.7344 4.875V3.5625C16.7344 3.45937 16.65 3.375 16.5469 3.375H15.2344C15.1313 3.375 15.0469 3.45937 15.0469 3.5625V4.875C15.0469 4.97812 15.1313 5.0625 15.2344 5.0625ZM16.5469 18.9375H15.2344C15.1313 18.9375 15.0469 19.0219 15.0469 19.125V20.4375C15.0469 20.5406 15.1313 20.625 15.2344 20.625H16.5469C16.65 20.625 16.7344 20.5406 16.7344 20.4375V19.125C16.7344 19.0219 16.65 18.9375 16.5469 18.9375ZM8.76562 18.9375H7.45312C7.35 18.9375 7.26562 19.0219 7.26562 19.125V20.4375C7.26562 20.5406 7.35 20.625 7.45312 20.625H8.76562C8.86875 20.625 8.95312 20.5406 8.95312 20.4375V19.125C8.95312 19.0219 8.86875 18.9375 8.76562 18.9375ZM7.45312 5.0625H8.76562C8.86875 5.0625 8.95312 4.97812 8.95312 4.875V3.5625C8.95312 3.45937 8.86875 3.375 8.76562 3.375H7.45312C7.35 3.375 7.26562 3.45937 7.26562 3.5625V4.875C7.26562 4.97812 7.35 5.0625 7.45312 5.0625ZM3.5625 5.0625H4.875C4.97812 5.0625 5.0625 4.97812 5.0625 4.875V3.5625C5.0625 3.45937 4.97812 3.375 4.875 3.375H3.5625C3.45937 3.375 3.375 3.45937 3.375 3.5625V4.875C3.375 4.97812 3.45937 5.0625 3.5625 5.0625ZM4.875 18.9375H3.5625C3.45937 18.9375 3.375 19.0219 3.375 19.125V20.4375C3.375 20.5406 3.45937 20.625 3.5625 20.625H4.875C4.97812 20.625 5.0625 20.5406 5.0625 20.4375V19.125C5.0625 19.0219 4.97812 18.9375 4.875 18.9375ZM3.5625 8.95312H4.875C4.97812 8.95312 5.0625 8.86875 5.0625 8.76562V7.45312C5.0625 7.35 4.97812 7.26562 4.875 7.26562H3.5625C3.45937 7.26562 3.375 7.35 3.375 7.45312V8.76562C3.375 8.86875 3.45937 8.95312 3.5625 8.95312ZM4.875 15.0469H3.5625C3.45937 15.0469 3.375 15.1313 3.375 15.2344V16.5469C3.375 16.65 3.45937 16.7344 3.5625 16.7344H4.875C4.97812 16.7344 5.0625 16.65 5.0625 16.5469V15.2344C5.0625 15.1313 4.97812 15.0469 4.875 15.0469Z" fill="#0D121A"/>
</svg>
