<svg width="24" height="24" viewBox="0 0 24 24" fill="none" xmlns="http://www.w3.org/2000/svg">
<path d="M20.4375 18.9375H3.5625C3.45937 18.9375 3.375 19.0219 3.375 19.125V20.4375C3.375 20.5406 3.45937 20.625 3.5625 20.625H20.4375C20.5406 20.625 20.625 20.5406 20.625 20.4375V19.125C20.625 19.0219 20.5406 18.9375 20.4375 18.9375ZM3.5625 16.7344H4.875C4.97812 16.7344 5.0625 16.65 5.0625 16.5469V15.2344C5.0625 15.1313 4.97812 15.0469 4.875 15.0469H3.5625C3.45937 15.0469 3.375 15.1313 3.375 15.2344V16.5469C3.375 16.65 3.45937 16.7344 3.5625 16.7344ZM3.5625 5.0625H4.875C4.97812 5.0625 5.0625 4.97812 5.0625 4.875V3.5625C5.0625 3.45937 4.97812 3.375 4.875 3.375H3.5625C3.45937 3.375 3.375 3.45937 3.375 3.5625V4.875C3.375 4.97812 3.45937 5.0625 3.5625 5.0625ZM3.5625 12.8438H4.875C4.97812 12.8438 5.0625 12.7594 5.0625 12.6562V11.3438C5.0625 11.2406 4.97812 11.1562 4.875 11.1562H3.5625C3.45937 11.1562 3.375 11.2406 3.375 11.3438V12.6562C3.375 12.7594 3.45937 12.8438 3.5625 12.8438ZM3.5625 8.95312H4.875C4.97812 8.95312 5.0625 8.86875 5.0625 8.76562V7.45312C5.0625 7.35 4.97812 7.26562 4.875 7.26562H3.5625C3.45937 7.26562 3.375 7.35 3.375 7.45312V8.76562C3.375 8.86875 3.45937 8.95312 3.5625 8.95312ZM7.45312 12.8438H8.76562C8.86875 12.8438 8.95312 12.7594 8.95312 12.6562V11.3438C8.95312 11.2406 8.86875 11.1562 8.76562 11.1562H7.45312C7.35 11.1562 7.26562 11.2406 7.26562 11.3438V12.6562C7.26562 12.7594 7.35 12.8438 7.45312 12.8438ZM7.45312 5.0625H8.76562C8.86875 5.0625 8.95312 4.97812 8.95312 4.875V3.5625C8.95312 3.45937 8.86875 3.375 8.76562 3.375H7.45312C7.35 3.375 7.26562 3.45937 7.26562 3.5625V4.875C7.26562 4.97812 7.35 5.0625 7.45312 5.0625ZM15.2344 5.0625H16.5469C16.65 5.0625 16.7344 4.97812 16.7344 4.875V3.5625C16.7344 3.45937 16.65 3.375 16.5469 3.375H15.2344C15.1313 3.375 15.0469 3.45937 15.0469 3.5625V4.875C15.0469 4.97812 15.1313 5.0625 15.2344 5.0625ZM15.2344 12.8438H16.5469C16.65 12.8438 16.7344 12.7594 16.7344 12.6562V11.3438C16.7344 11.2406 16.65 11.1562 16.5469 11.1562H15.2344C15.1313 11.1562 15.0469 11.2406 15.0469 11.3438V12.6562C15.0469 12.7594 15.1313 12.8438 15.2344 12.8438ZM20.4375 11.1562H19.125C19.0219 11.1562 18.9375 11.2406 18.9375 11.3438V12.6562C18.9375 12.7594 19.0219 12.8438 19.125 12.8438H20.4375C20.5406 12.8438 20.625 12.7594 20.625 12.6562V11.3438C20.625 11.2406 20.5406 11.1562 20.4375 11.1562ZM11.3438 12.8438H12.6562C12.7594 12.8438 12.8438 12.7594 12.8438 12.6562V11.3438C12.8438 11.2406 12.7594 11.1562 12.6562 11.1562H11.3438C11.2406 11.1562 11.1562 11.2406 11.1562 11.3438V12.6562C11.1562 12.7594 11.2406 12.8438 11.3438 12.8438ZM20.4375 3.375H19.125C19.0219 3.375 18.9375 3.45937 18.9375 3.5625V4.875C18.9375 4.97812 19.0219 5.0625 19.125 5.0625H20.4375C20.5406 5.0625 20.625 4.97812 20.625 4.875V3.5625C20.625 3.45937 20.5406 3.375 20.4375 3.375ZM11.3438 5.0625H12.6562C12.7594 5.0625 12.8438 4.97812 12.8438 4.875V3.5625C12.8438 3.45937 12.7594 3.375 12.6562 3.375H11.3438C11.2406 3.375 11.1562 3.45937 11.1562 3.5625V4.875C11.1562 4.97812 11.2406 5.0625 11.3438 5.0625ZM20.4375 15.0469H19.125C19.0219 15.0469 18.9375 15.1313 18.9375 15.2344V16.5469C18.9375 16.65 19.0219 16.7344 19.125 16.7344H20.4375C20.5406 16.7344 20.625 16.65 20.625 16.5469V15.2344C20.625 15.1313 20.5406 15.0469 20.4375 15.0469ZM11.3438 16.7344H12.6562C12.7594 16.7344 12.8438 16.65 12.8438 16.5469V15.2344C12.8438 15.1313 12.7594 15.0469 12.6562 15.0469H11.3438C11.2406 15.0469 11.1562 15.1313 11.1562 15.2344V16.5469C11.1562 16.65 11.2406 16.7344 11.3438 16.7344ZM20.4375 7.26562H19.125C19.0219 7.26562 18.9375 7.35 18.9375 7.45312V8.76562C18.9375 8.86875 19.0219 8.95312 19.125 8.95312H20.4375C20.5406 8.95312 20.625 8.86875 20.625 8.76562V7.45312C20.625 7.35 20.5406 7.26562 20.4375 7.26562ZM11.3438 8.95312H12.6562C12.7594 8.95312 12.8438 8.86875 12.8438 8.76562V7.45312C12.8438 7.35 12.7594 7.26562 12.6562 7.26562H11.3438C11.2406 7.26562 11.1562 7.35 11.1562 7.45312V8.76562C11.1562 8.86875 11.2406 8.95312 11.3438 8.95312Z" fill="#0D121A"/>
</svg>
