<svg width="24" height="24" viewBox="0 0 24 24" fill="none" xmlns="http://www.w3.org/2000/svg">
<path d="M17 22V19H7V22C7 22.5523 6.55228 23 6 23C5.44772 23 5 22.5523 5 22V19H2C1.44772 19 1 18.5523 1 18C1 17.4477 1.44772 17 2 17H5V7H2C1.44772 7 1 6.55228 1 6C1 5.44772 1.44772 5 2 5H5V2C5 1.44772 5.44772 1 6 1C6.55228 1 7 1.44772 7 2V5H17V2C17 1.44772 17.4477 1 18 1C18.5523 1 19 1.44772 19 2V5H22C22.5523 5 23 5.44772 23 6C23 6.55228 22.5523 7 22 7H19V17H22C22.5523 17 23 17.4477 23 18C23 18.5523 22.5523 19 22 19H19V22C19 22.5523 18.5523 23 18 23C17.4477 23 17 22.5523 17 22ZM7 17H17V7H7V17Z" fill="#0D121A"/>
</svg>
