<svg width="24" height="24" viewBox="0 0 24 24" fill="none" xmlns="http://www.w3.org/2000/svg">
<path d="M20.625 2.625H3.375C2.96016 2.625 2.625 2.96016 2.625 3.375V20.625C2.625 21.0398 2.96016 21.375 3.375 21.375H20.625C21.0398 21.375 21.375 21.0398 21.375 20.625V3.375C21.375 2.96016 21.0398 2.625 20.625 2.625ZM19.6875 19.6875H4.3125V4.3125H19.6875V19.6875ZM11.3438 8.57812H12.6562C12.7594 8.57812 12.8438 8.49375 12.8438 8.39062V7.07812C12.8438 6.975 12.7594 6.89062 12.6562 6.89062H11.3438C11.2406 6.89062 11.1562 6.975 11.1562 7.07812V8.39062C11.1562 8.49375 11.2406 8.57812 11.3438 8.57812ZM7.07812 12.8438H8.39062C8.49375 12.8438 8.57812 12.7594 8.57812 12.6562V11.3438C8.57812 11.2406 8.49375 11.1562 8.39062 11.1562H7.07812C6.975 11.1562 6.89062 11.2406 6.89062 11.3438V12.6562C6.89062 12.7594 6.975 12.8438 7.07812 12.8438ZM15.6094 12.8438H16.9219C17.025 12.8438 17.1094 12.7594 17.1094 12.6562V11.3438C17.1094 11.2406 17.025 11.1562 16.9219 11.1562H15.6094C15.5063 11.1562 15.4219 11.2406 15.4219 11.3438V12.6562C15.4219 12.7594 15.5063 12.8438 15.6094 12.8438ZM11.3438 12.8438H12.6562C12.7594 12.8438 12.8438 12.7594 12.8438 12.6562V11.3438C12.8438 11.2406 12.7594 11.1562 12.6562 11.1562H11.3438C11.2406 11.1562 11.1562 11.2406 11.1562 11.3438V12.6562C11.1562 12.7594 11.2406 12.8438 11.3438 12.8438ZM11.3438 17.1094H12.6562C12.7594 17.1094 12.8438 17.025 12.8438 16.9219V15.6094C12.8438 15.5063 12.7594 15.4219 12.6562 15.4219H11.3438C11.2406 15.4219 11.1562 15.5063 11.1562 15.6094V16.9219C11.1562 17.025 11.2406 17.1094 11.3438 17.1094Z" fill="#0D121A"/>
</svg>
