<svg width="24" height="24" viewBox="0 0 24 24" fill="none" xmlns="http://www.w3.org/2000/svg">
<path d="M8 18C8 17.4696 7.78913 16.961 7.41406 16.5859C7.03899 16.2109 6.53043 16 6 16C5.46957 16 4.96101 16.2109 4.58594 16.5859C4.21087 16.961 4 17.4696 4 18C4 18.5304 4.21086 19.039 4.58594 19.4141C4.96101 19.7891 5.46957 20 6 20C6.53043 20 7.03899 19.7891 7.41406 19.4141C7.78913 19.039 8 18.5304 8 18ZM20 6C20 5.46957 19.7891 4.96101 19.4141 4.58594C19.039 4.21086 18.5304 4 18 4C17.4696 4 16.961 4.21087 16.5859 4.58594C16.2109 4.96101 16 5.46957 16 6C16 6.53043 16.2109 7.03899 16.5859 7.41406C16.961 7.78913 17.4696 8 18 8C18.5304 8 19.039 7.78913 19.4141 7.41406C19.7891 7.03899 20 6.53043 20 6ZM22 6C22 7.06087 21.5783 8.07798 20.8281 8.82812C20.078 9.57827 19.0609 10 18 10C16.9391 10 15.922 9.57827 15.1719 8.82812C14.674 8.33029 14.3218 7.71473 14.1406 7.04688C12.3349 7.24194 10.6391 8.04646 9.34277 9.34277C8.04646 10.6391 7.24194 12.3349 7.04688 14.1406C7.71473 14.3218 8.33029 14.674 8.82812 15.1719C9.57827 15.922 10 16.9391 10 18C10 19.0609 9.57827 20.078 8.82812 20.8281C8.07798 21.5783 7.06087 22 6 22C4.93913 22 3.92202 21.5783 3.17188 20.8281C2.42173 20.078 2 19.0609 2 18C2 16.9391 2.42173 15.922 3.17188 15.1719C3.68136 14.6624 4.31406 14.3051 5 14.1279V3C5 2.44772 5.44772 2 6 2C6.55228 2 7 2.44772 7 3V9.00098C7.28242 8.62437 7.59195 8.26547 7.92871 7.92871C9.59481 6.26261 11.7887 5.24734 14.1172 5.04102C14.2905 4.33926 14.6522 3.69152 15.1719 3.17188C15.922 2.42173 16.9391 2 18 2C19.0609 2 20.078 2.42173 20.8281 3.17188C21.5783 3.92202 22 4.93913 22 6Z" fill="#0D121A"/>
</svg>
