<svg width="24" height="24" viewBox="0 0 24 24" fill="none" xmlns="http://www.w3.org/2000/svg">
<path d="M5.8875 9.07031H7.5V10.6828C7.5 10.725 7.54219 10.7578 7.59375 10.7578H8.71875C8.77031 10.7578 8.8125 10.725 8.8125 10.6805V9.07031H10.425C10.4672 9.07031 10.5 9.02812 10.5 8.97656V7.85156C10.5 7.8 10.4672 7.75781 10.4227 7.75781H8.8125V6.14531C8.8125 6.10313 8.77031 6.07031 8.71875 6.07031H7.59375C7.54219 6.07031 7.5 6.10313 7.5 6.14531V7.75781H5.8875C5.84531 7.75781 5.8125 7.8 5.8125 7.85156V8.97656C5.8125 9.02812 5.84531 9.07031 5.8875 9.07031ZM13.575 9.07031H18.1125C18.1547 9.07031 18.1875 9.02812 18.1875 8.97656V7.85156C18.1875 7.8 18.1547 7.75781 18.1102 7.75781H13.575C13.5328 7.75781 13.5 7.8 13.5 7.85156V8.97656C13.5 9.02812 13.5328 9.07031 13.575 9.07031ZM13.575 15.2812H18.1125C18.1547 15.2812 18.1875 15.2391 18.1875 15.1875V14.0625C18.1875 14.0109 18.1547 13.9688 18.1102 13.9688H13.575C13.5328 13.9688 13.5 14.0109 13.5 14.0625V15.1875C13.5 15.2391 13.5328 15.2812 13.575 15.2812ZM13.575 17.7188H18.1125C18.1547 17.7188 18.1875 17.6766 18.1875 17.625V16.5C18.1875 16.4484 18.1547 16.4062 18.1102 16.4062H13.575C13.5328 16.4062 13.5 16.4484 13.5 16.5V17.625C13.5 17.6766 13.5328 17.7188 13.575 17.7188ZM8.98828 15.8203L10.4227 14.0648C10.5234 13.943 10.4391 13.7578 10.2844 13.7578H9.09375C9.03984 13.7578 8.98828 13.7813 8.95547 13.8258L8.15859 14.8008L7.36172 13.8258C7.34495 13.8051 7.32391 13.7884 7.30004 13.7766C7.27616 13.7649 7.25003 13.7585 7.22344 13.7578H6.03047C5.87578 13.7578 5.79141 13.943 5.89219 14.0648L7.32656 15.8203L5.85703 17.6203C5.75391 17.7422 5.83828 17.9273 5.99297 17.9273H7.18359C7.2375 17.9273 7.28906 17.9039 7.32187 17.8594L8.15391 16.8398L8.98594 17.8594C9.02109 17.9016 9.07266 17.9273 9.12422 17.9273H10.3148C10.4695 17.9273 10.5539 17.7422 10.4531 17.6203L8.98828 15.8203ZM20.625 2.625H3.375C2.96016 2.625 2.625 2.96016 2.625 3.375V20.625C2.625 21.0398 2.96016 21.375 3.375 21.375H20.625C21.0398 21.375 21.375 21.0398 21.375 20.625V3.375C21.375 2.96016 21.0398 2.625 20.625 2.625ZM19.7812 19.7812H4.21875V4.21875H19.7812V19.7812Z" fill="#0D121A"/>
</svg>
