<svg width="24" height="24" viewBox="0 0 24 24" fill="none" xmlns="http://www.w3.org/2000/svg">
<path d="M8.90608 16.5004H15.0936C15.1967 16.5004 15.2811 16.416 15.2811 16.3129V14.3441C15.2811 14.241 15.1967 14.1566 15.0936 14.1566H14.1561C14.053 14.1566 13.9686 14.241 13.9686 14.3441V15.1879H10.0311V14.3441C10.0311 14.241 9.9467 14.1566 9.84358 14.1566H8.90608C8.80295 14.1566 8.71858 14.241 8.71858 14.3441V16.3129C8.71858 16.416 8.80295 16.5004 8.90608 16.5004ZM16.8748 13.6176C16.8748 13.8662 16.9736 14.1047 17.1494 14.2805C17.3252 14.4563 17.5637 14.5551 17.8123 14.5551C18.061 14.5551 18.2994 14.4563 18.4752 14.2805C18.6511 14.1047 18.7498 13.8662 18.7498 13.6176C18.7498 13.3689 18.6511 13.1305 18.4752 12.9546C18.2994 12.7788 18.061 12.6801 17.8123 12.6801C17.5637 12.6801 17.3252 12.7788 17.1494 12.9546C16.9736 13.1305 16.8748 13.3689 16.8748 13.6176ZM22.4764 9.68944L21.9209 8.71912C21.896 8.67635 21.8551 8.64519 21.8072 8.63246C21.7593 8.61972 21.7084 8.62644 21.6655 8.65115L20.4772 9.3449L18.642 4.27772C18.5451 3.97536 18.3547 3.71162 18.0981 3.52457C17.8415 3.33752 17.5322 3.23685 17.2147 3.23709H7.0592C6.24592 3.23709 5.52405 3.76209 5.27327 4.53787L3.52483 9.34725L2.3342 8.6535C2.29128 8.62879 2.24032 8.62207 2.19245 8.6348C2.14459 8.64754 2.10371 8.67869 2.07873 8.72147L1.52327 9.68944C1.4717 9.7785 1.50217 9.891 1.59123 9.94256L3.00686 10.7676L2.66702 11.7051C2.63889 11.7801 2.62483 11.8597 2.62483 11.9394V20.1004C2.62483 20.4683 2.90139 20.766 3.24124 20.766H4.82561C5.11389 20.766 5.36467 20.548 5.42561 20.2433L5.60608 19.3597H18.3936L18.574 20.2433C18.6373 20.548 18.8858 20.766 19.174 20.766H20.7584C21.0983 20.766 21.3748 20.4683 21.3748 20.1004V11.9394C21.3748 11.8597 21.3608 11.7801 21.3326 11.7051L20.9928 10.7676L22.4061 9.94256C22.4486 9.91799 22.4798 9.87771 22.493 9.83037C22.5061 9.78303 22.5002 9.73243 22.4764 9.68944ZM19.6873 12.1176V17.6722H4.31233V12.1176L4.67795 11.1097H19.3217L19.6873 12.1176ZM6.85998 5.11209L6.8717 5.08162L6.88108 5.05115C6.90686 4.97381 6.97717 4.92225 7.0592 4.92225H17.0811L18.8483 9.79725H5.15608L6.85998 5.11209ZM5.24983 13.6176C5.24983 13.8662 5.3486 14.1047 5.52442 14.2805C5.70023 14.4563 5.93869 14.5551 6.18733 14.5551C6.43597 14.5551 6.67443 14.4563 6.85024 14.2805C7.02606 14.1047 7.12483 13.8662 7.12483 13.6176C7.12483 13.3689 7.02606 13.1305 6.85024 12.9546C6.67443 12.7788 6.43597 12.6801 6.18733 12.6801C5.93869 12.6801 5.70023 12.7788 5.52442 12.9546C5.3486 13.1305 5.24983 13.3689 5.24983 13.6176Z" fill="#0D121A"/>
</svg>
