<svg width="24" height="24" viewBox="0 0 24 24" fill="none" xmlns="http://www.w3.org/2000/svg">
<path d="M20 5C20 4.44771 19.5523 4 19 4H5C4.44772 4 4 4.44772 4 5V19C4 19.5523 4.44771 20 5 20H19C19.5523 20 20 19.5523 20 19V5ZM14.293 9.29297C14.6835 8.90244 15.3165 8.90244 15.707 9.29297C16.0976 9.68349 16.0976 10.3165 15.707 10.707L11.707 14.707C11.3165 15.0976 10.6835 15.0976 10.293 14.707L8.29297 12.707C7.90244 12.3165 7.90244 11.6835 8.29297 11.293C8.68349 10.9024 9.31651 10.9024 9.70703 11.293L11 12.5859L14.293 9.29297ZM22 19C22 20.6569 20.6569 22 19 22H5C3.34315 22 2 20.6569 2 19V5C2 3.34315 3.34315 2 5 2H19C20.6569 2 22 3.34315 22 5V19Z" fill="#0D121A"/>
</svg>
