<svg width="24" height="24" viewBox="0 0 24 24" fill="none" xmlns="http://www.w3.org/2000/svg">
<path d="M12 1.5C6.20156 1.5 1.5 6.20156 1.5 12C1.5 17.7984 6.20156 22.5 12 22.5C17.7984 22.5 22.5 17.7984 22.5 12C22.5 6.20156 17.7984 1.5 12 1.5ZM12 20.7188C7.18594 20.7188 3.28125 16.8141 3.28125 12C3.28125 7.18594 7.18594 3.28125 12 3.28125C16.8141 3.28125 20.7188 7.18594 20.7188 12C20.7188 16.8141 16.8141 20.7188 12 20.7188ZM17.1094 7.31016H15.9281C15.825 7.31016 15.7406 7.39453 15.7406 7.49766V16.5023C15.7406 16.6055 15.825 16.6898 15.9281 16.6898H17.1094C17.2125 16.6898 17.2969 16.6055 17.2969 16.5023V7.49766C17.2969 7.39453 17.2125 7.31016 17.1094 7.31016ZM10.5141 8.47266C11.6742 8.47266 12.4617 9.21094 12.5531 10.2914C12.5625 10.3898 12.6422 10.4648 12.7406 10.4648H13.9734C14.0297 10.4648 14.0766 10.418 14.0766 10.3617C14.0766 8.45859 12.5766 7.125 10.507 7.125C8.09531 7.125 6.70312 8.75391 6.70312 11.4469V12.5953C6.70312 15.2672 8.09531 16.875 10.507 16.875C12.5695 16.875 14.0766 15.5836 14.0766 13.7695C14.0766 13.7133 14.0297 13.6664 13.9734 13.6664H12.7383C12.6398 13.6664 12.5602 13.7414 12.5508 13.8375C12.4523 14.8453 11.6672 15.5344 10.5117 15.5344C9.07969 15.5344 8.27109 14.482 8.27109 12.6V11.4445C8.27344 9.53672 9.08203 8.47266 10.5141 8.47266Z" fill="#0D121A"/>
</svg>
