<svg viewBox="0 0 24 24" fill="none" xmlns="http://www.w3.org/2000/svg">
<path d="M8.32181 14.6283C8.87409 14.6283 9.32181 15.076 9.32181 15.6283C9.32181 16.1806 8.87409 16.6283 8.32181 16.6283H8.31204C7.75976 16.6283 7.31204 16.1806 7.31204 15.6283C7.31204 15.076 7.75976 14.6283 8.31204 14.6283H8.32181ZM16.312 14.6283C16.8643 14.6283 17.312 15.076 17.312 15.6283C17.312 16.1806 16.8643 16.6283 16.312 16.6283H12.312C11.7598 16.6283 11.312 16.1806 11.312 15.6283C11.312 15.076 11.7598 14.6283 12.312 14.6283H16.312ZM8.32181 9.6283C8.87409 9.6283 9.32181 10.076 9.32181 10.6283C9.32181 11.1806 8.87409 11.6283 8.32181 11.6283H8.31204C7.75976 11.6283 7.31204 11.1806 7.31204 10.6283C7.31204 10.076 7.75976 9.6283 8.31204 9.6283H8.32181ZM16.312 9.6283C16.8643 9.6283 17.312 10.076 17.312 10.6283C17.312 11.1806 16.8643 11.6283 16.312 11.6283H12.312C11.7598 11.6283 11.312 11.1806 11.312 10.6283C11.312 10.076 11.7598 9.6283 12.312 9.6283H16.312ZM15.312 2.6283H9.31204V4.6283H15.312V2.6283ZM17.312 4.6283C17.312 5.73287 16.4166 6.6283 15.312 6.6283H9.31204C8.20747 6.6283 7.31204 5.73287 7.31204 4.6283H6.31204C6.04683 4.6283 5.79255 4.73373 5.60501 4.92126C5.41747 5.1088 5.31204 5.36308 5.31204 5.6283V19.6283C5.31204 19.8935 5.41747 20.1478 5.60501 20.3353C5.79255 20.5229 6.04683 20.6283 6.31204 20.6283H18.312C18.5773 20.6283 18.8315 20.5229 19.0191 20.3353C19.2066 20.1478 19.312 19.8935 19.312 19.6283V5.6283C19.312 5.36308 19.2066 5.1088 19.0191 4.92126C18.8315 4.73373 18.5773 4.6283 18.312 4.6283H17.312ZM18.312 2.6283C19.1077 2.6283 19.8705 2.94459 20.4331 3.5072C20.9957 4.06981 21.312 4.83265 21.312 5.6283V19.6283C21.312 20.4239 20.9957 21.1868 20.4331 21.7494C19.8705 22.312 19.1077 22.6283 18.312 22.6283H6.31204C5.51639 22.6283 4.75356 22.312 4.19095 21.7494C3.62834 21.1868 3.31204 20.4239 3.31204 19.6283V5.6283C3.31204 4.83265 3.62834 4.06981 4.19095 3.5072C4.75356 2.94459 5.51639 2.6283 6.31204 2.6283H7.31204C7.31204 1.52373 8.20747 0.628296 9.31204 0.628296H15.312C16.4166 0.628296 17.312 1.52373 17.312 2.6283H18.312Z" fill="currentColor"/>
</svg>
