<svg width="24" height="24" viewBox="0 0 24 24" fill="none" xmlns="http://www.w3.org/2000/svg">
<path d="M16.5 10.4531H7.50001C7.39688 10.4531 7.31251 10.5375 7.31251 10.6406V20.0625C7.31251 20.1656 7.39688 20.25 7.50001 20.25H16.5C16.6031 20.25 16.6875 20.1656 16.6875 20.0625V10.6406C16.6875 10.5375 16.6031 10.4531 16.5 10.4531ZM8.81251 11.9531H15.1875V14.6953H8.81251V11.9531ZM15.1875 18.75H8.81251V16.0078H15.1875V18.75Z" fill="#0D121A"/>
<path d="M9.93751 17.5312C9.93751 17.7301 10.0165 17.9209 10.1572 18.0616C10.2978 18.2022 10.4886 18.2812 10.6875 18.2812C10.8864 18.2812 11.0772 18.2022 11.2178 18.0616C11.3585 17.9209 11.4375 17.7301 11.4375 17.5312C11.4375 17.3323 11.3585 17.1416 11.2178 17.0009C11.0772 16.8603 10.8864 16.7812 10.6875 16.7812C10.4886 16.7812 10.2978 16.8603 10.1572 17.0009C10.0165 17.1416 9.93751 17.3323 9.93751 17.5312ZM9.93751 13.3594C9.93751 13.5583 10.0165 13.749 10.1572 13.8897C10.2978 14.0303 10.4886 14.1094 10.6875 14.1094C10.8864 14.1094 11.0772 14.0303 11.2178 13.8897C11.3585 13.749 11.4375 13.5583 11.4375 13.3594C11.4375 13.1604 11.3585 12.9697 11.2178 12.829C11.0772 12.6884 10.8864 12.6094 10.6875 12.6094C10.4886 12.6094 10.2978 12.6884 10.1572 12.829C10.0165 12.9697 9.93751 13.1604 9.93751 13.3594Z" fill="#0D121A"/>
<path d="M19.0181 8.64608C17.9447 5.81248 15.2095 3.79686 12.0056 3.79686C8.80174 3.79686 6.06658 5.81014 4.99314 8.64373C2.97517 9.17577 1.48924 11.0203 1.50095 13.2094C1.51502 15.6562 3.41345 17.6461 5.80408 17.8594C5.91424 17.8687 6.00798 17.782 6.00798 17.6719V16.2562C6.00798 16.1625 5.93767 16.0828 5.84392 16.0711C5.21111 15.9914 4.61345 15.7148 4.15408 15.2625C3.59158 14.7117 3.2822 13.9711 3.2822 13.1859C3.2822 12.5297 3.49549 11.9109 3.89627 11.3953C4.28767 10.8937 4.83845 10.5305 5.44549 10.3711L6.33377 10.1367L6.65955 9.27655C6.86111 8.74217 7.14236 8.24061 7.49627 7.78827C7.84548 7.33827 8.26033 6.94452 8.72439 6.61639C9.68767 5.93905 10.822 5.58045 12.0056 5.58045C13.1892 5.58045 14.3236 5.93905 15.2869 6.61873C15.7533 6.94686 16.1658 7.34061 16.515 7.79061C16.8689 8.24295 17.1502 8.74452 17.3517 9.27889L17.6752 10.1367L18.5611 10.3711C19.8314 10.7086 20.7197 11.864 20.7197 13.1836C20.7197 13.9711 20.4103 14.7094 19.8478 15.2601C19.3908 15.7101 18.7955 15.989 18.1627 16.0687C18.0689 16.0805 18.001 16.1601 18.001 16.2539V17.6719C18.001 17.782 18.097 17.8687 18.2072 17.8594C20.5908 17.6437 22.4845 15.6562 22.501 13.214C22.515 11.025 21.0314 9.18045 19.0181 8.64608Z" fill="#0D121A"/>
</svg>
