<svg width="24" height="24" viewBox="0 0 24 24" fill="none" xmlns="http://www.w3.org/2000/svg">
<path d="M10.9996 11.9997C10.9998 11.4477 11.4476 10.9999 11.9996 10.9997C12.5518 10.9997 12.9995 11.4475 12.9996 11.9997V18.5857L15.2926 16.2927C15.683 15.9023 16.3161 15.9025 16.7067 16.2927C17.0972 16.6832 17.0972 17.3162 16.7067 17.7067L12.7067 21.7067C12.3161 22.0972 11.6831 22.0973 11.2926 21.7067L7.2926 17.7067C6.90239 17.3162 6.90222 16.6831 7.2926 16.2927C7.68303 15.9023 8.31612 15.9025 8.70667 16.2927L10.9996 18.5857V11.9997ZM8.36975 2.02803C9.57985 1.93206 10.7965 2.11273 11.9264 2.55635C13.0562 2.99998 14.0707 3.69503 14.8922 4.58858C15.5422 5.29563 16.0556 6.11338 16.4147 6.99971H17.4996C18.6797 6.99958 19.8291 7.37882 20.777 8.08174C21.7247 8.78455 22.4207 9.77401 22.7633 10.903C23.1058 12.0323 23.076 13.2422 22.6783 14.3532C22.2807 15.4643 21.5366 16.4185 20.5553 17.0739C20.0961 17.3804 19.4753 17.2566 19.1686 16.7976C18.8618 16.3383 18.9857 15.7176 19.4449 15.4108C20.0693 14.9938 20.5425 14.3864 20.7955 13.6794C21.0486 12.9724 21.0681 12.2027 20.8502 11.4841C20.6322 10.7655 20.1888 10.1355 19.5856 9.68819C18.9824 9.2409 18.2506 8.99963 17.4996 8.99971H15.7096C15.2677 8.99955 14.878 8.70934 14.7516 8.28585C14.4911 7.41364 14.0356 6.61222 13.4196 5.9421C12.8034 5.27187 12.0424 4.7504 11.1949 4.41768C10.3476 4.08505 9.43543 3.94923 8.52795 4.0212C7.62046 4.0932 6.74101 4.37062 5.95667 4.83272C5.17226 5.29486 4.50344 5.9302 4.00061 6.68917C3.49791 7.44803 3.17402 8.31122 3.05432 9.21358C2.93462 10.1161 3.02258 11.0343 3.31018 11.8982C3.59779 12.7619 4.07771 13.5493 4.71448 14.1999C5.10065 14.5946 5.09445 15.2277 4.69983 15.614C4.30519 16.0002 3.67209 15.9929 3.28577 15.5983C2.43667 14.7308 1.79521 13.6817 1.41174 12.53C1.02829 11.3783 0.912314 10.1542 1.0719 8.95089C1.23149 7.74761 1.66326 6.59658 2.33362 5.58467C3.00406 4.57271 3.89613 3.72625 4.94202 3.11006C5.98775 2.494 7.15984 2.12404 8.36975 2.02803Z" fill="#0D121A"/>
</svg>
