<svg width="24" height="24" viewBox="0 0 24 24" fill="none" xmlns="http://www.w3.org/2000/svg">
<path d="M19.0181 8.64608C17.9447 5.81248 15.2095 3.79686 12.0056 3.79686C8.80174 3.79686 6.06658 5.81014 4.99314 8.64373C2.97517 9.17577 1.48924 11.0203 1.50095 13.2094C1.51502 15.6562 3.41345 17.6461 5.80408 17.8594C5.91424 17.8687 6.00798 17.782 6.00798 17.6719V16.2562C6.00798 16.1625 5.93767 16.0828 5.84392 16.0711C5.21111 15.9914 4.61345 15.7148 4.15408 15.2625C3.59158 14.7117 3.2822 13.9711 3.2822 13.1859C3.2822 12.5297 3.49549 11.9109 3.89627 11.3953C4.28767 10.8937 4.83845 10.5305 5.44549 10.3711L6.33377 10.1367L6.65955 9.27655C6.86111 8.74217 7.14236 8.24061 7.49627 7.78827C7.84548 7.33827 8.26033 6.94452 8.72439 6.61639C9.68767 5.93905 10.822 5.58045 12.0056 5.58045C13.1892 5.58045 14.3236 5.93905 15.2869 6.61873C15.7533 6.94686 16.1658 7.34061 16.515 7.79061C16.8689 8.24295 17.1502 8.74452 17.3517 9.27889L17.6752 10.1367L18.5611 10.3711C19.8314 10.7086 20.7197 11.864 20.7197 13.1836C20.7197 13.9711 20.4103 14.7094 19.8478 15.2601C19.3908 15.7101 18.7955 15.989 18.1627 16.0687C18.0689 16.0805 18.001 16.1601 18.001 16.2539V17.6719C18.001 17.782 18.097 17.8687 18.2072 17.8594C20.5908 17.6437 22.4845 15.6562 22.501 13.214C22.515 11.025 21.0314 9.18045 19.0181 8.64608Z" fill="#0D121A"/>
<path d="M8.83387 15.3847C8.87606 14.5996 9.20184 13.8683 9.75965 13.3082C10.355 12.7105 11.1659 12.3754 12.0097 12.3754C12.8581 12.3754 13.6573 12.7058 14.2597 13.3082C14.2925 13.341 14.3229 13.3738 14.3557 13.409L13.7698 13.8683C13.7419 13.8899 13.7206 13.919 13.7085 13.9521C13.6963 13.9852 13.6938 14.0211 13.7011 14.0557C13.7085 14.0902 13.7254 14.1219 13.75 14.1472C13.7746 14.1726 13.8058 14.1904 13.8401 14.1988L16.1417 14.7613C16.2589 14.7894 16.3737 14.7004 16.3737 14.5808L16.3854 12.2066C16.3854 12.0496 16.2073 11.9605 16.0831 12.059L15.5393 12.4855C14.6815 11.5012 13.4206 10.8777 12.012 10.8777C9.49481 10.8777 7.44168 12.8722 7.33856 15.3707C7.33387 15.4761 7.41825 15.5652 7.52606 15.5652H8.64871C8.74715 15.5629 8.82918 15.4855 8.83387 15.3847ZM16.4768 15.5629H15.3542C15.2557 15.5629 15.1737 15.6402 15.1667 15.741C15.1245 16.5261 14.7987 17.2574 14.2409 17.8175C13.6456 18.4152 12.8347 18.7503 11.9909 18.7503C11.1425 18.7503 10.3432 18.4199 9.7409 17.8175C9.70809 17.7847 9.67762 17.7519 9.64481 17.7168L10.2307 17.2574C10.2587 17.2358 10.2799 17.2068 10.2921 17.1736C10.3042 17.1405 10.3068 17.1046 10.2994 17.0701C10.2921 17.0355 10.2751 17.0038 10.2505 16.9785C10.226 16.9531 10.1947 16.9353 10.1604 16.9269L7.85887 16.3644C7.74168 16.3363 7.62684 16.4254 7.62684 16.5449L7.61746 18.9214C7.61746 19.0785 7.79559 19.1675 7.91981 19.0691L8.46356 18.6425C9.32137 19.6269 10.5823 20.2503 11.9909 20.2503C14.5081 20.2503 16.5612 18.2558 16.6643 15.7574C16.669 15.6519 16.5847 15.5629 16.4768 15.5629Z" fill="#0D121A"/>
</svg>
