<svg width="24" height="24" viewBox="0 0 24 24" fill="none" xmlns="http://www.w3.org/2000/svg">
<path d="M20.9998 14.5C20.9998 13.5717 20.6308 12.6818 19.9744 12.0254C19.3181 11.3691 18.428 11 17.4998 11H15.7098C15.2678 10.9999 14.8782 10.7096 14.7518 10.2861C14.4339 9.21981 13.8254 8.26203 12.9949 7.52147C12.1646 6.78108 11.1441 6.28598 10.0486 6.09178C8.95319 5.89768 7.82509 6.01194 6.79083 6.42186C5.75646 6.83184 4.85628 7.52202 4.19122 8.41405C3.52632 9.30602 3.12282 10.3654 3.02521 11.4736C2.92759 12.582 3.1396 13.6959 3.63849 14.6904C4.13739 15.685 4.90361 16.521 5.8504 17.1055C6.79705 17.6898 7.88736 17.9996 8.99982 18H17.4998C18.428 18 19.3181 17.6309 19.9744 16.9746C20.6308 16.3182 20.9998 15.4282 20.9998 14.5ZM22.9998 14.5C22.9998 15.9585 22.4207 17.3572 21.3895 18.3887C20.358 19.4201 18.9585 20 17.4998 20H8.99982C7.51632 19.9996 6.06199 19.5868 4.79962 18.8076C3.53723 18.0283 2.51658 16.913 1.85138 15.5869C1.18618 14.2608 0.902851 12.7757 1.03302 11.2978C1.16321 9.82028 1.70122 8.40796 2.58771 7.21874C3.47447 6.02934 4.6753 5.10912 6.0545 4.56249C7.43359 4.01599 8.93761 3.8641 10.3983 4.12303C11.859 4.382 13.2188 5.04196 14.326 6.02928C15.2442 6.84813 15.9579 7.86572 16.4168 8.99999H17.4998C18.9585 8.99999 20.358 9.57986 21.3895 10.6113C22.4207 11.6427 22.9998 13.0415 22.9998 14.5Z" fill="#0D121A"/>
</svg>
