<svg viewBox="0 0 24 24" fill="none" xmlns="http://www.w3.org/2000/svg">
<path d="M7.29295 5.29297C7.68348 4.90245 8.31649 4.90245 8.70702 5.29297C9.09754 5.68349 9.09754 6.31651 8.70702 6.70703L3.41405 12L8.70702 17.293C9.09754 17.6835 9.09754 18.3165 8.70702 18.707C8.31649 19.0976 7.68348 19.0976 7.29295 18.707L1.29295 12.707C0.90243 12.3165 0.90243 11.6835 1.29295 11.293L7.29295 5.29297ZM15.293 5.29297C15.6835 4.90245 16.3165 4.90245 16.707 5.29297L22.707 11.293C23.0975 11.6835 23.0975 12.3165 22.707 12.707L16.707 18.707C16.3165 19.0976 15.6835 19.0976 15.293 18.707C14.9024 18.3165 14.9024 17.6835 15.293 17.293L20.5859 12L15.293 6.70703C14.9024 6.31651 14.9024 5.68349 15.293 5.29297Z" fill="currentColor"/>
</svg>
