<svg width="24" height="24" viewBox="0 0 24 24" fill="none" xmlns="http://www.w3.org/2000/svg">
<path d="M20 5C20 4.44771 19.5523 4 19 4H5C4.44772 4 4 4.44772 4 5V19C4 19.5523 4.44771 20 5 20H19C19.5523 20 20 19.5523 20 19V5ZM9.21875 8.875C9.56376 8.44374 10.1937 8.37374 10.625 8.71875C11.0563 9.06376 11.1263 9.69374 10.7812 10.125L9.28125 12L10.7812 13.875C11.1263 14.3063 11.0563 14.9362 10.625 15.2812C10.1937 15.6263 9.56376 15.5563 9.21875 15.125L7.21875 12.625C6.92658 12.2598 6.92658 11.7402 7.21875 11.375L9.21875 8.875ZM13.375 8.71875C13.8063 8.37374 14.4362 8.44374 14.7812 8.875L16.7812 11.375C17.0734 11.7402 17.0734 12.2598 16.7812 12.625L14.7812 15.125C14.4362 15.5563 13.8063 15.6263 13.375 15.2812C12.9437 14.9362 12.8737 14.3063 13.2188 13.875L14.7188 12L13.2188 10.125C12.8737 9.69374 12.9437 9.06376 13.375 8.71875ZM22 19C22 20.6569 20.6569 22 19 22H5C3.34315 22 2 20.6569 2 19V5C2 3.34315 3.34315 2 5 2H19C20.6569 2 22 3.34315 22 5V19Z" fill="#0D121A"/>
</svg>
