<svg width="24" height="24" viewBox="0 0 24 24" fill="none" xmlns="http://www.w3.org/2000/svg">
<path d="M4.21875 4.125H2.8125C2.70937 4.125 2.625 4.20937 2.625 4.3125V19.6875C2.625 19.7906 2.70937 19.875 2.8125 19.875H4.21875C4.32187 19.875 4.40625 19.7906 4.40625 19.6875V4.3125C4.40625 4.20937 4.32187 4.125 4.21875 4.125ZM21.1875 4.125H19.7812C19.6781 4.125 19.5938 4.20937 19.5938 4.3125V19.6875C19.5938 19.7906 19.6781 19.875 19.7812 19.875H21.1875C21.2906 19.875 21.375 19.7906 21.375 19.6875V4.3125C21.375 4.20937 21.2906 4.125 21.1875 4.125ZM18.4055 11.8195L15.4148 9.45938C15.3898 9.43969 15.3598 9.42746 15.3281 9.42407C15.2965 9.42068 15.2645 9.42628 15.2359 9.44022C15.2072 9.45417 15.1831 9.47589 15.1663 9.5029C15.1494 9.52992 15.1405 9.56113 15.1406 9.59297V11.1562H8.85938V9.68438C8.85938 9.54375 8.69531 9.46406 8.58516 9.55078L5.59453 11.9133C5.57429 11.9289 5.55791 11.949 5.54664 11.9719C5.53536 11.9949 5.5295 12.0201 5.5295 12.0457C5.5295 12.0713 5.53536 12.0965 5.54664 12.1195C5.55791 12.1424 5.57429 12.1625 5.59453 12.1781L8.58281 14.5406C8.69297 14.6273 8.85703 14.55 8.85703 14.407V12.8438H15.1383V14.3156C15.1383 14.4562 15.3023 14.5359 15.4125 14.4492L18.4008 12.0867C18.4898 12.0188 18.4898 11.8875 18.4055 11.8195Z" fill="#0D121A"/>
</svg>
