<svg width="24" height="24" viewBox="0 0 24 24" fill="none" xmlns="http://www.w3.org/2000/svg">
<path d="M19.6875 19.5938H4.3125C4.20937 19.5938 4.125 19.6781 4.125 19.7812V21.1875C4.125 21.2906 4.20937 21.375 4.3125 21.375H19.6875C19.7906 21.375 19.875 21.2906 19.875 21.1875V19.7812C19.875 19.6781 19.7906 19.5938 19.6875 19.5938ZM19.6875 2.625H4.3125C4.20937 2.625 4.125 2.70937 4.125 2.8125V4.21875C4.125 4.32187 4.20937 4.40625 4.3125 4.40625H19.6875C19.7906 4.40625 19.875 4.32187 19.875 4.21875V2.8125C19.875 2.70937 19.7906 2.625 19.6875 2.625ZM14.3156 8.85938C14.4562 8.85938 14.5359 8.69531 14.4492 8.58516L12.0867 5.59453C12.0711 5.57429 12.051 5.55791 12.0281 5.54664C12.0051 5.53536 11.9799 5.5295 11.9543 5.5295C11.9287 5.5295 11.9035 5.53536 11.8805 5.54664C11.8576 5.55791 11.8375 5.57429 11.8219 5.59453L9.45938 8.58516C9.43969 8.61018 9.42746 8.64024 9.42407 8.67189C9.42068 8.70355 9.42628 8.73552 9.44022 8.76414C9.45417 8.79276 9.47589 8.81687 9.5029 8.83371C9.52992 8.85056 9.56113 8.85945 9.59297 8.85938H11.1562V15.1406H9.68438C9.54375 15.1406 9.46406 15.3047 9.55078 15.4148L11.9133 18.4031C11.9812 18.4898 12.1125 18.4898 12.1781 18.4031L14.5406 15.4148C14.6273 15.3047 14.55 15.1406 14.407 15.1406H12.8438V8.85938H14.3156Z" fill="#0D121A"/>
</svg>
