<svg width="24" height="24" viewBox="0 0 24 24" fill="none" xmlns="http://www.w3.org/2000/svg">
<path d="M13.4297 9.86717C12.8883 9.86717 12.4687 10.2867 12.4687 10.8047C12.4687 11.3226 12.8883 11.7422 13.4297 11.7422C13.9242 11.7422 14.3437 11.3226 14.3437 10.8047C14.3437 10.2867 13.9242 9.86717 13.4297 9.86717ZM6.86719 9.86717C6.32578 9.86717 5.90625 10.2867 5.90625 10.8047C5.90625 11.3226 6.32578 11.7422 6.86719 11.7422C7.36172 11.7422 7.78125 11.3226 7.78125 10.8047C7.78125 10.2867 7.36172 9.86717 6.86719 9.86717Z" fill="#0D121A"/>
<path d="M20.9537 8.08511C19.8264 6.53823 18.2514 5.50464 16.524 5.03823V5.04058C16.1232 4.59527 15.6709 4.18511 15.1646 3.81948C11.3279 1.03042 5.94198 1.8812 3.1412 5.71792C0.884166 8.83511 0.98026 13.0281 3.28182 16.007L3.30057 19.1148C3.30057 19.1898 3.31229 19.2648 3.33573 19.3351C3.45995 19.7312 3.88182 19.9492 4.27557 19.825L7.24276 18.8898C8.02792 19.1687 8.83885 19.3281 9.6451 19.3726L9.63338 19.382C11.7217 20.9031 14.4592 21.3601 16.9693 20.5304L19.9482 21.5007C20.0232 21.5242 20.1006 21.5382 20.1803 21.5382C20.5951 21.5382 20.9303 21.2031 20.9303 20.7882V17.6476C22.9951 14.8445 23.049 10.9703 20.9537 8.08511ZM7.57088 17.2257L7.28963 17.1085L4.96932 17.8351L4.94588 15.3976L4.75838 15.1867C2.77557 12.7679 2.64432 9.28277 4.50057 6.72573C6.75995 3.6273 11.0912 2.94292 14.1803 5.17886C17.2787 7.4312 17.9654 11.7554 15.7271 14.8351C13.8498 17.4109 10.4889 18.3625 7.57088 17.2257ZM19.4068 16.8273L19.2193 17.0617L19.2428 19.4992L16.9459 18.7257L16.6646 18.8429C15.3521 19.3304 13.9529 19.3703 12.6568 19.007L12.6521 19.0046C14.3842 18.4726 15.9545 17.3945 17.0865 15.8429C18.8771 13.375 19.1678 10.2742 18.1271 7.63042L18.1412 7.6398C18.6803 8.02652 19.1748 8.50933 19.5943 9.09292C21.2959 11.4273 21.1998 14.6054 19.4068 16.8273Z" fill="#0D121A"/>
<path d="M10.1484 9.86717C9.60703 9.86717 9.1875 10.2867 9.1875 10.8047C9.1875 11.3226 9.60703 11.7422 10.1484 11.7422C10.643 11.7422 11.0625 11.3226 11.0625 10.8047C11.0625 10.2867 10.643 9.86717 10.1484 9.86717Z" fill="#0D121A"/>
</svg>
