<svg width="24" height="24" viewBox="0 0 24 24" fill="none" xmlns="http://www.w3.org/2000/svg">
<path d="M7.64062 15.5625H2.4375C2.23125 15.5625 2.0625 15.7312 2.0625 15.9375V17.0625C2.0625 17.2688 2.23125 17.4375 2.4375 17.4375H6.51562V21.5625C6.51562 21.7687 6.68437 21.9375 6.89062 21.9375H8.01562C8.22188 21.9375 8.39062 21.7687 8.39062 21.5625V16.3125C8.39062 15.8977 8.05547 15.5625 7.64062 15.5625ZM8.01562 2.0625H6.89062C6.68437 2.0625 6.51562 2.23125 6.51562 2.4375V6.5625H2.4375C2.23125 6.5625 2.0625 6.73125 2.0625 6.9375V8.0625C2.0625 8.26875 2.23125 8.4375 2.4375 8.4375H7.64062C8.05547 8.4375 8.39062 8.10234 8.39062 7.6875V2.4375C8.39062 2.23125 8.22188 2.0625 8.01562 2.0625ZM21.5625 15.5625H16.3594C15.9445 15.5625 15.6094 15.8977 15.6094 16.3125V21.5625C15.6094 21.7687 15.7781 21.9375 15.9844 21.9375H17.1094C17.3156 21.9375 17.4844 21.7687 17.4844 21.5625V17.4375H21.5625C21.7687 17.4375 21.9375 17.2688 21.9375 17.0625V15.9375C21.9375 15.7312 21.7687 15.5625 21.5625 15.5625ZM21.5625 6.5625H17.4844V2.4375C17.4844 2.23125 17.3156 2.0625 17.1094 2.0625H15.9844C15.7781 2.0625 15.6094 2.23125 15.6094 2.4375V7.6875C15.6094 8.10234 15.9445 8.4375 16.3594 8.4375H21.5625C21.7687 8.4375 21.9375 8.26875 21.9375 8.0625V6.9375C21.9375 6.73125 21.7687 6.5625 21.5625 6.5625Z" fill="#0D121A"/>
</svg>
