<svg width="24" height="24" viewBox="0 0 24 24" fill="none" xmlns="http://www.w3.org/2000/svg">
<path d="M7.06172 11.6414C6.50391 11.6414 6.11953 11.3953 6.08672 11.0109H4.80469C4.82578 12.0281 5.66953 12.6586 7.00547 12.6586C8.39062 12.6586 9.23203 11.993 9.23203 10.8891C9.23203 10.05 8.76328 9.57889 7.72031 9.37733L7.03828 9.24608C6.48047 9.13592 6.24609 8.96717 6.24609 8.67889C6.24609 8.32733 6.55781 8.10467 7.02891 8.10467C7.5 8.10467 7.85625 8.36483 7.88672 8.73749H9.12891C9.10781 7.76014 8.25 7.08983 7.0125 7.08983C5.7375 7.08983 4.91016 7.76717 4.91016 8.80077C4.91016 9.6328 5.40703 10.1601 6.375 10.343L7.07109 10.4812C7.67578 10.6031 7.90547 10.7601 7.90547 11.0531C7.90781 11.3976 7.56562 11.6414 7.06172 11.6414Z" fill="#0D121A"/>
<path d="M21.75 3.28123H2.25C1.83516 3.28123 1.5 3.61639 1.5 4.03123V15.6562C1.5 16.0711 1.83516 16.4062 2.25 16.4062H11.1562V19.0312H7.125C6.91875 19.0312 6.75 19.2 6.75 19.4062V20.5312C6.75 20.6344 6.83437 20.7187 6.9375 20.7187H17.0625C17.1656 20.7187 17.25 20.6344 17.25 20.5312V19.4062C17.25 19.2 17.0813 19.0312 16.875 19.0312H12.8438V16.4062H21.75C22.1648 16.4062 22.5 16.0711 22.5 15.6562V4.03123C22.5 3.61639 22.1648 3.28123 21.75 3.28123ZM20.8125 14.7187H3.1875V4.96873H20.8125V14.7187Z" fill="#0D121A"/>
<path d="M19.4179 11.407H17.1726V7.23045H15.8273V12.5156H19.4179V11.407ZM12.4195 12.6586C12.75 12.6586 13.057 12.6117 13.3359 12.5226L13.6476 12.9984H14.8968L14.2476 11.9766C14.7422 11.5078 15.0211 10.7789 15.0211 9.87186C15.0211 8.15389 14.0062 7.08748 12.4218 7.08748C10.8375 7.08748 9.81559 8.1492 9.81559 9.87186C9.81325 11.5992 10.8234 12.6586 12.4195 12.6586ZM12.4195 8.20545C13.1601 8.20545 13.6547 8.85467 13.6547 9.87186C13.6547 10.2633 13.5703 10.589 13.4203 10.8211L13.2984 10.6594H12.1547L12.7031 11.5078C12.6117 11.5289 12.5156 11.5406 12.4172 11.5406C11.6742 11.5406 11.1797 10.8961 11.1797 9.87186C11.182 8.84999 11.6765 8.20545 12.4195 8.20545Z" fill="#0D121A"/>
</svg>
