<svg width="24" height="24" viewBox="0 0 24 24" fill="none" xmlns="http://www.w3.org/2000/svg">
<path d="M20 6C20 5.44771 19.5523 5 19 5H5C4.44772 5 4 5.44772 4 6V20C4 20.5523 4.44771 21 5 21H19C19.5523 21 20 20.5523 20 20V6ZM16 18C16 17.7348 15.8946 17.4805 15.707 17.293C15.5195 17.1054 15.2652 17 15 17H9C8.73478 17 8.48051 17.1054 8.29297 17.293C8.10543 17.4805 8 17.7348 8 18C8 18.5523 7.55228 19 7 19C6.44772 19 6 18.5523 6 18C6 17.2043 6.3163 16.4415 6.87891 15.8789C7.44151 15.3163 8.20435 15 9 15H15C15.7957 15 16.5585 15.3163 17.1211 15.8789C17.6837 16.4415 18 17.2043 18 18C18 18.5523 17.5523 19 17 19C16.4477 19 16 18.5523 16 18ZM13 10C13 9.44772 12.5523 9 12 9C11.4477 9 11 9.44772 11 10C11 10.5523 11.4477 11 12 11C12.5523 11 13 10.5523 13 10ZM15 10C15 11.6569 13.6569 13 12 13C10.3431 13 9 11.6569 9 10C9 8.34315 10.3431 7 12 7C13.6569 7 15 8.34315 15 10ZM22 20C22 21.6569 20.6569 23 19 23H5C3.34315 23 2 21.6569 2 20V6C2 4.34315 3.34315 3 5 3H7V2C7 1.44772 7.44772 1 8 1C8.55228 1 9 1.44772 9 2V3H15V2C15 1.44772 15.4477 1 16 1C16.5523 1 17 1.44772 17 2V3H19C20.6569 3 22 4.34315 22 6V20Z" fill="#0D121A"/>
</svg>
