<svg width="24" height="24" viewBox="0 0 24 24" fill="none" xmlns="http://www.w3.org/2000/svg">
<path d="M21.0841 6.48036L16.5232 9.29052L12.1497 3.45693C12.1322 3.43345 12.1093 3.41439 12.0831 3.40126C12.0569 3.38814 12.0279 3.3813 11.9986 3.3813C11.9692 3.3813 11.9403 3.38814 11.9141 3.40126C11.8878 3.41439 11.865 3.43345 11.8474 3.45693L7.47631 9.29052L2.91303 6.48036C2.77943 6.39833 2.606 6.50849 2.62709 6.66552L4.41772 20.2733C4.4435 20.4585 4.60287 20.6015 4.79272 20.6015H19.2091C19.3966 20.6015 19.5583 20.4608 19.5818 20.2733L21.3724 6.66552C21.3912 6.50849 21.2201 6.39833 21.0841 6.48036ZM18.131 18.9983H5.86615L4.60522 9.40302L7.88178 11.421L11.9997 5.92724L16.1177 11.421L19.3943 9.40302L18.131 18.9983ZM11.9997 11.9296C10.5443 11.9296 9.36069 13.1132 9.36069 14.5686C9.36069 16.0241 10.5443 17.2077 11.9997 17.2077C13.4552 17.2077 14.6388 16.0241 14.6388 14.5686C14.6388 13.1132 13.4552 11.9296 11.9997 11.9296ZM11.9997 15.7007C11.3763 15.7007 10.8701 15.1944 10.8701 14.5686C10.8701 13.9452 11.3763 13.4366 11.9997 13.4366C12.6232 13.4366 13.1294 13.9429 13.1294 14.5686C13.1294 15.1921 12.6232 15.7007 11.9997 15.7007Z" fill="#0D121A"/>
</svg>
