<svg width="16" height="16" viewBox="0 0 16 16" fill="none" xmlns="http://www.w3.org/2000/svg">
<path d="M8.0752 1.33301C10.4704 1.33301 12.2347 1.61651 13.3467 2.72852C14.4587 3.84052 14.7422 5.60476 14.7422 8C14.7422 8.5632 14.7254 9.08442 14.6885 9.56543C14.6686 9.82492 14.4999 10.0492 14.2559 10.1396C14.0118 10.23 13.7368 10.1703 13.5527 9.98633L12.0381 8.47168C11.7777 8.21133 11.7777 7.78867 12.0381 7.52832C12.2984 7.26804 12.7211 7.26799 12.9814 7.52832L13.4082 7.9541C13.4042 5.57948 13.0869 4.35548 12.4033 3.67187C11.7153 2.98388 10.48 2.66699 8.0752 2.66699C6.24333 2.66699 5.0757 2.84886 4.31445 3.25586C3.98985 3.4292 3.5857 3.30692 3.41211 2.98242C3.23851 2.65773 3.36183 2.25368 3.68652 2.08008C4.76025 1.50611 6.21833 1.33301 8.0752 1.33301Z" fill="#4B4E57"/>
<path d="M8.00293 14.667C5.60769 14.667 3.84345 14.3835 2.73145 13.2715C1.61944 12.1595 1.33594 10.3952 1.33594 8C1.33594 7.4368 1.35276 6.91558 1.38965 6.43457C1.40955 6.17508 1.57826 5.9508 1.82227 5.86035C2.06636 5.77002 2.34127 5.82973 2.52539 6.01367L4.04004 7.52832C4.30039 7.78867 4.30039 8.21133 4.04004 8.47168C3.77968 8.73196 3.35701 8.73201 3.09668 8.47168L2.66992 8.0459C2.67394 10.4205 2.9912 11.6445 3.6748 12.3281C4.3628 13.0161 5.59816 13.333 8.00293 13.333C9.83479 13.333 11.0024 13.1511 11.7637 12.7441C12.0883 12.5708 12.4924 12.6931 12.666 13.0176C12.8396 13.3423 12.7163 13.7463 12.3916 13.9199C11.3179 14.4939 9.85979 14.667 8.00293 14.667Z" fill="#4B4E57"/>
<path d="M6.9145 5.81284C7.202 5.58305 7.62108 5.6299 7.85102 5.91733L9.18403 7.58335C9.37881 7.82683 9.37881 8.17288 9.18403 8.41636L7.85102 10.0833C7.62101 10.3707 7.20195 10.4168 6.9145 10.1869C6.62701 9.95687 6.58004 9.53785 6.81001 9.25034L7.80903 7.99936L6.81001 6.74936C6.58022 6.46186 6.62707 6.04278 6.9145 5.81284Z" fill="#4B4E57"/>
</svg>
