<svg width="24" height="24" viewBox="0 0 24 24" fill="none" xmlns="http://www.w3.org/2000/svg">
<path d="M20.8191 16.2469C19.8231 15.6703 18.609 15.825 17.791 16.5469L16.5488 15.8273V12.2719C16.5488 11.9039 16.352 11.5617 16.0332 11.3789L12.8457 9.54375V7.97109C13.8816 7.61953 14.627 6.63984 14.627 5.48438C14.627 4.03359 13.4527 2.85938 12.002 2.85938C10.5512 2.85938 9.37696 4.03359 9.37696 5.48438C9.37696 6.63984 10.1223 7.61953 11.1582 7.97109V9.54375L7.97071 11.3789C7.65196 11.5617 7.45508 11.9039 7.45508 12.2719V15.825L6.21289 16.5445C5.39493 15.8227 4.17852 15.668 3.18477 16.2445C1.93086 16.9711 1.5043 18.5742 2.22383 19.8281C2.94571 21.082 4.5418 21.5133 5.79102 20.7891C6.78711 20.2125 7.26055 19.0781 7.04727 18.0047L8.18867 17.3414L11.484 19.2398C11.6434 19.3313 11.8215 19.3781 11.9996 19.3781C12.1777 19.3781 12.3559 19.3313 12.5152 19.2398L15.8082 17.3438L16.9496 18.007C16.7363 19.0781 17.2121 20.2148 18.2059 20.7914C19.4551 21.5156 21.0535 21.0867 21.7731 19.8305C22.4949 18.5742 22.0684 16.9711 20.8191 16.2469ZM5.04571 19.4906C4.9184 19.5644 4.77778 19.6122 4.63192 19.6313C4.48606 19.6505 4.33785 19.6406 4.19582 19.6023C4.05379 19.564 3.92075 19.4979 3.80435 19.408C3.68795 19.318 3.59049 19.2059 3.51758 19.0781C3.20821 18.5414 3.39102 17.8523 3.92774 17.543C4.05504 17.4692 4.19567 17.4214 4.34153 17.4022C4.48738 17.3831 4.63559 17.3929 4.77762 17.4313C4.91965 17.4696 5.05269 17.5357 5.1691 17.6256C5.2855 17.7156 5.38296 17.8277 5.45586 17.9555C5.76524 18.4922 5.58243 19.1812 5.04571 19.4906ZM10.8746 5.48438C10.8806 5.18998 11.0018 4.90968 11.2121 4.7036C11.4224 4.49753 11.7052 4.38211 11.9996 4.38211C12.2941 4.38211 12.5768 4.49753 12.7871 4.7036C12.9974 4.90968 13.1186 5.18998 13.1246 5.48438C13.1186 5.77877 12.9974 6.05907 12.7871 6.26515C12.5768 6.47122 12.2941 6.58664 11.9996 6.58664C11.7052 6.58664 11.4224 6.47122 11.2121 6.26515C11.0018 6.05907 10.8806 5.77877 10.8746 5.48438ZM14.859 15.9422L11.9996 17.5898L9.14024 15.9422V12.6516L11.9996 11.0039L14.859 12.6516V15.9422ZM20.4816 19.0805C20.1723 19.6172 19.4879 19.8023 18.9535 19.493C18.4191 19.1836 18.234 18.4945 18.5434 17.9578C18.8527 17.4211 19.5371 17.2359 20.0715 17.5453C20.6082 17.8547 20.791 18.5414 20.4816 19.0805Z" fill="#0D121A"/>
</svg>
