<svg viewBox="0 0 24 24" fill="none" xmlns="http://www.w3.org/2000/svg">
<path d="M20.9972 12.0059C20.9972 11.8207 20.9607 11.6369 20.8898 11.4658C20.8366 11.3374 20.7648 11.2174 20.6769 11.1104L20.5831 11.0078L12.9923 3.41699C12.8615 3.28613 12.7062 3.18222 12.5353 3.11133C12.3642 3.04041 12.1805 3.00393 11.9952 3.00391C11.81 3.00391 11.6263 3.0404 11.4552 3.11133C11.2841 3.18227 11.1281 3.28593 10.9972 3.41699V3.41797L3.40735 11.0078H3.40637C3.27531 11.1388 3.17165 11.2947 3.10071 11.4658C3.02978 11.637 2.99329 11.8206 2.99329 12.0059C2.99331 12.1911 3.02978 12.3748 3.10071 12.5459C3.1716 12.7168 3.27551 12.8721 3.40637 13.0029L10.9972 20.5938C11.1281 20.7248 11.284 20.8294 11.4552 20.9004C11.6263 20.9713 11.81 21.0078 11.9952 21.0078C12.1805 21.0078 12.3642 20.9713 12.5353 20.9004C12.7064 20.8295 12.8614 20.7248 12.9923 20.5938H12.9933L20.5831 13.0039V13.0029C20.7142 12.872 20.8188 12.717 20.8898 12.5459C20.9607 12.3748 20.9972 12.1911 20.9972 12.0059ZM22.9972 12.0059C22.9972 12.4539 22.908 12.8976 22.7365 13.3115C22.5863 13.6737 22.3753 14.0071 22.1124 14.2969L21.9972 14.418L14.4073 22.0078C14.0908 22.3246 13.7146 22.5755 13.3009 22.7471C12.887 22.9186 12.4433 23.0078 11.9952 23.0078C11.5472 23.0078 11.1035 22.9186 10.6896 22.7471C10.2756 22.5755 9.89885 22.3248 9.58215 22.0078V22.0068L1.99329 14.418C1.67632 14.1013 1.42462 13.7254 1.25305 13.3115C1.08149 12.8976 0.993313 12.4539 0.993286 12.0059C0.993286 11.5579 1.08155 11.1141 1.25305 10.7002C1.42464 10.2862 1.67627 9.90947 1.99329 9.59277L9.58215 2.00391C9.89885 1.68689 10.2756 1.43526 10.6896 1.26367C11.1034 1.09217 11.5472 1.00391 11.9952 1.00391C12.4433 1.00393 12.887 1.09211 13.3009 1.26367C13.7148 1.43525 14.0907 1.68694 14.4073 2.00391L21.9962 9.59277C22.3132 9.90947 22.5649 10.2862 22.7365 10.7002C22.908 11.1141 22.9972 11.5578 22.9972 12.0059Z" fill="currentColor"/>
</svg>
