<svg viewBox="0 0 24 24" fill="none" xmlns="http://www.w3.org/2000/svg">
<path d="M22.9972 12.0059C22.9972 12.4539 22.908 12.8976 22.7365 13.3115C22.5863 13.6737 22.3753 14.0071 22.1124 14.2969L21.9972 14.418L14.4073 22.0078C14.0908 22.3246 13.7146 22.5755 13.3009 22.7471C12.887 22.9186 12.4433 23.0078 11.9952 23.0078C11.5472 23.0078 11.1035 22.9186 10.6896 22.7471C10.2756 22.5755 9.89885 22.3248 9.58215 22.0078L1.99329 14.418C1.67632 14.1013 1.42462 13.7254 1.25305 13.3115C1.08149 12.8976 0.993313 12.4539 0.993286 12.0059C0.993286 11.5579 1.08155 11.1141 1.25305 10.7002C1.42464 10.2862 1.67627 9.90947 1.99329 9.59277L9.58215 2.00391C9.89885 1.68689 10.2756 1.43526 10.6896 1.26367C11.1034 1.09217 11.5472 1.00391 11.9952 1.00391C12.4433 1.00393 12.887 1.09211 13.3009 1.26367C13.7148 1.43525 14.0907 1.68694 14.4073 2.00391L21.9962 9.59277C22.3132 9.90947 22.5649 10.2862 22.7365 10.7002C22.908 11.1141 22.9972 11.5578 22.9972 12.0059Z" fill="currentColor"/>
</svg>
