<svg width="24" height="24" viewBox="0 0 24 24" fill="none" xmlns="http://www.w3.org/2000/svg">
<path d="M1 12C1 10.4087 1.63259 8.88302 2.75781 7.7578C3.38336 7.13225 4.13256 6.65916 4.94824 6.36229L1.29297 2.70702C0.902444 2.31649 0.902444 1.68348 1.29297 1.29295C1.68349 0.90243 2.31651 0.90243 2.70703 1.29295L22.707 21.293C23.0976 21.6835 23.0976 22.3165 22.707 22.707C22.3165 23.0975 21.6835 23.0975 21.293 22.707L11.5859 13H8C7.44772 13 7 12.5523 7 12C7 11.4477 7.44772 11 8 11H9.58594L6.60449 8.01854C5.68882 8.10947 4.82824 8.5155 4.17188 9.17186C3.42173 9.92201 3 10.9391 3 12C3 13.0609 3.42173 14.078 4.17188 14.8281C4.92202 15.5783 5.93913 16 7 16H9C9.55228 16 10 16.4477 10 17C10 17.5523 9.55228 18 9 18H7C5.4087 18 3.88303 17.3674 2.75781 16.2422C1.63259 15.117 1 13.5913 1 12ZM17 5.99999C18.1143 5.99999 19.2064 6.31066 20.1543 6.89647C21.102 7.4822 21.8679 8.31997 22.3662 9.31639C22.8645 10.313 23.0757 11.4293 22.9756 12.539C22.8755 13.6487 22.4683 14.7083 21.7998 15.5996C21.4685 16.0414 20.8422 16.131 20.4004 15.7998C19.9586 15.4685 19.869 14.8422 20.2002 14.4004C20.6459 13.8061 20.9167 13.0991 20.9834 12.3594C21.0501 11.6195 20.9103 10.8753 20.5781 10.2109C20.2459 9.5465 19.7344 8.98818 19.1025 8.59764C18.4707 8.20717 17.7428 7.99999 17 7.99999H15C14.4477 7.99999 14 7.55227 14 6.99999C14 6.4477 14.4477 5.99999 15 5.99999H17Z" fill="#0D121A"/>
</svg>
