<svg width="24" height="24" viewBox="0 0 24 24" fill="none" xmlns="http://www.w3.org/2000/svg">
<path d="M20.7633 11.491C20.8477 11.2097 20.8898 10.9191 20.8898 10.6238C20.8898 9.9605 20.6719 9.32301 20.2781 8.80269C20.3625 8.52144 20.4047 8.23082 20.4047 7.93551C20.4047 7.27222 20.1867 6.63472 19.793 6.11441C19.8773 5.83316 19.9195 5.54254 19.9195 5.24722C19.9195 4.03785 19.2 2.94801 18.0844 2.47222C17.8883 2.38768 17.6768 2.34459 17.4633 2.34566H3.375C2.96016 2.34566 2.625 2.68082 2.625 3.09566V11.6269C2.625 12.0418 2.96016 12.3769 3.375 12.3769H6.40547L8.41641 19.6613C8.73984 20.8355 9.81797 21.6558 11.0367 21.6558C11.7328 21.6558 12.382 21.3793 12.8625 20.873C13.343 20.3691 13.5891 19.7082 13.5539 19.0121L13.4133 16.1316H19.0359C19.3195 16.1316 19.5961 16.0566 19.8398 15.9136C20.7867 15.3628 21.375 14.3644 21.375 13.3121C21.375 12.6488 21.157 12.0113 20.7633 11.491ZM4.3125 10.6871V4.03082H6.21094V10.6871H4.3125ZM19.0125 14.4464H11.6437L11.8687 19.0964C11.8828 19.3753 11.7586 19.6378 11.5266 19.8113C11.3836 19.9168 11.2078 19.9707 11.032 19.9683C10.8075 19.9661 10.5896 19.8912 10.4113 19.7547C10.233 19.6182 10.1037 19.4275 10.043 19.2113L7.71094 10.7621V4.03082H17.4469C17.6811 4.13581 17.8801 4.30624 18.0198 4.52162C18.1595 4.737 18.234 4.98816 18.2344 5.24488C18.2344 5.47222 18.1805 5.68785 18.0727 5.88472L17.7469 6.48004L18.2602 6.92535C18.4046 7.05048 18.5204 7.20526 18.5997 7.37918C18.679 7.55309 18.7199 7.74204 18.7195 7.93316C18.7195 8.16051 18.6656 8.37613 18.5578 8.573L18.232 9.16832L18.7453 9.61363C18.8898 9.73876 19.0056 9.89355 19.0849 10.0675C19.1641 10.2414 19.205 10.4303 19.2047 10.6214C19.2047 10.8488 19.1508 11.0644 19.043 11.2613L18.7148 11.8589L19.2281 12.3043C19.3726 12.4294 19.4884 12.5842 19.5677 12.7581C19.647 12.932 19.6878 13.1209 19.6875 13.3121C19.6875 13.7597 19.4297 14.191 19.0125 14.4464Z" fill="#0D121A"/>
</svg>
