<svg width="24" height="24" viewBox="0 0 24 24" fill="none" xmlns="http://www.w3.org/2000/svg">
<path d="M10.293 6.79302C10.6835 6.40249 11.3165 6.40249 11.707 6.79302C12.0976 7.18354 12.0976 7.81655 11.707 8.20708L7.41406 12.5L11.707 16.793C12.0976 17.1835 12.0976 17.8166 11.707 18.2071C11.3165 18.5976 10.6835 18.5976 10.293 18.2071L5.29297 13.2071C4.90245 12.8166 4.90245 12.1835 5.29297 11.793L10.293 6.79302ZM17.293 6.79302C17.6835 6.40249 18.3165 6.40249 18.707 6.79302C19.0976 7.18354 19.0976 7.81655 18.707 8.20708L14.4141 12.5L18.707 16.793C19.0976 17.1835 19.0976 17.8166 18.707 18.2071C18.3165 18.5976 17.6835 18.5976 17.293 18.2071L12.293 13.2071C11.9024 12.8166 11.9024 12.1835 12.293 11.793L17.293 6.79302Z" fill="#0D121A"/>
</svg>
