<svg width="24" height="24" viewBox="0 0 24 24" fill="none" xmlns="http://www.w3.org/2000/svg">
<path d="M9 15V5C9 4.73478 8.89457 4.48051 8.70703 4.29297C8.51949 4.10543 8.26522 4 8 4H5C4.73478 4 4.4805 4.10543 4.29297 4.29297C4.10543 4.4805 4 4.73478 4 5V11C4 11.2652 4.10543 11.5195 4.29297 11.707C4.45711 11.8712 4.67237 11.9724 4.90137 11.9951L5.19727 12.0098C5.65526 12.0551 6.08578 12.2577 6.41406 12.5859C6.78913 12.961 7 13.4696 7 14V15C7 15.7956 6.6837 16.5585 6.12109 17.1211C5.55848 17.6837 4.79565 18 4 18V20C5.32608 20 6.59747 19.4728 7.53516 18.5352C8.47284 17.5975 9 16.3261 9 15ZM20 15V5C20 4.73478 19.8946 4.48051 19.707 4.29297C19.5195 4.10543 19.2652 4 19 4H16C15.7348 4 15.4805 4.10543 15.293 4.29297C15.1054 4.48051 15 4.73478 15 5V11C15 11.2652 15.1054 11.5195 15.293 11.707C15.4571 11.8712 15.6724 11.9724 15.9014 11.9951L16.1973 12.0098C16.6553 12.0551 17.0858 12.2577 17.4141 12.5859C17.7891 12.961 18 13.4696 18 14V15C18 15.7957 17.6837 16.5585 17.1211 17.1211C16.5585 17.6837 15.7957 18 15 18V20C16.3261 20 17.5975 19.4728 18.5352 18.5352C19.4728 17.5975 20 16.3261 20 15ZM11 15C11 16.8565 10.2629 18.6374 8.9502 19.9502C7.63744 21.2629 5.85652 22 4 22C3.46957 22 2.96101 21.7891 2.58594 21.4141C2.21086 21.039 2 20.5304 2 20V18C2 17.4696 2.21086 16.961 2.58594 16.5859C2.91422 16.2577 3.34474 16.0551 3.80273 16.0098L4.09863 15.9951C4.32763 15.9724 4.54289 15.8712 4.70703 15.707C4.89457 15.5195 5 15.2652 5 15V14C4.20435 14 3.44151 13.6837 2.87891 13.1211C2.3163 12.5585 2 11.7956 2 11V5C2 4.20435 2.3163 3.44152 2.87891 2.87891C3.44152 2.3163 4.20435 2 5 2H8C8.79565 2 9.55849 2.3163 10.1211 2.87891C10.6837 3.44151 11 4.20435 11 5V15ZM22 15C22 16.8565 21.2629 18.6374 19.9502 19.9502C18.6374 21.2629 16.8565 22 15 22C14.4696 22 13.961 21.7891 13.5859 21.4141C13.2109 21.039 13 20.5304 13 20V18C13 17.4696 13.2109 16.961 13.5859 16.5859C13.9142 16.2577 14.3447 16.0551 14.8027 16.0098L15.0986 15.9951C15.3276 15.9724 15.5429 15.8712 15.707 15.707C15.8946 15.5195 16 15.2652 16 15V14C15.2043 14 14.4415 13.6837 13.8789 13.1211C13.3163 12.5585 13 11.7957 13 11V5C13 4.20435 13.3163 3.44151 13.8789 2.87891C14.4415 2.3163 15.2044 2 16 2H19C19.7957 2 20.5585 2.3163 21.1211 2.87891C21.6837 3.44152 22 4.20435 22 5V15Z" fill="#0D121A"/>
</svg>
