<svg width="24" height="24" viewBox="0 0 24 24" fill="none" xmlns="http://www.w3.org/2000/svg">
<path d="M5.29297 6.79302C5.68349 6.40249 6.31651 6.40249 6.70703 6.79302L11.707 11.793C12.0976 12.1835 12.0976 12.8166 11.707 13.2071L6.70703 18.2071C6.31651 18.5976 5.68349 18.5976 5.29297 18.2071C4.90245 17.8166 4.90245 17.1835 5.29297 16.793L9.58594 12.5L5.29297 8.20708C4.90245 7.81655 4.90245 7.18354 5.29297 6.79302ZM12.293 6.79302C12.6835 6.40249 13.3165 6.40249 13.707 6.79302L18.707 11.793C19.0976 12.1835 19.0976 12.8166 18.707 13.2071L13.707 18.2071C13.3165 18.5976 12.6835 18.5976 12.293 18.2071C11.9024 17.8166 11.9024 17.1835 12.293 16.793L16.5859 12.5L12.293 8.20708C11.9024 7.81655 11.9024 7.18354 12.293 6.79302Z" fill="#0D121A"/>
</svg>
