<svg width="24" height="24" viewBox="0 0 24 24" fill="none" xmlns="http://www.w3.org/2000/svg">
<path d="M2 19V15C2 14.4477 2.44772 14 3 14C3.55228 14 4 14.4477 4 15V19C4 19.2652 4.10543 19.5195 4.29297 19.707C4.48051 19.8946 4.73478 20 5 20H19C19.2652 20 19.5195 19.8946 19.707 19.707C19.8946 19.5195 20 19.2652 20 19V15C20 14.4477 20.4477 14 21 14C21.5523 14 22 14.4477 22 15V19C22 19.7957 21.6837 20.5585 21.1211 21.1211C20.5585 21.6837 19.7957 22 19 22H5C4.20435 22 3.44152 21.6837 2.87891 21.1211C2.3163 20.5585 2 19.7957 2 19ZM11 3C11 2.44772 11.4477 2 12 2C12.5523 2 13 2.44772 13 3V12.5859L16.293 9.29297C16.6835 8.90244 17.3165 8.90244 17.707 9.29297C18.0976 9.68349 18.0976 10.3165 17.707 10.707L12.707 15.707C12.3165 16.0976 11.6835 16.0976 11.293 15.707L6.29297 10.707C5.90244 10.3165 5.90244 9.68349 6.29297 9.29297C6.68349 8.90244 7.31651 8.90244 7.70703 9.29297L11 12.5859V3Z" fill="#0D121A"/>
</svg>
