<svg width="24" height="24" viewBox="0 0 24 24" fill="none" xmlns="http://www.w3.org/2000/svg">
<path d="M20 5C20 4.44771 19.5523 4 19 4H5C4.44772 4 4 4.44772 4 5V19C4 19.5523 4.44771 20 5 20H19C19.5523 20 20 19.5523 20 19V5ZM15.293 9.29297C15.6835 8.90244 16.3165 8.90244 16.707 9.29297C17.0976 9.68349 17.0976 10.3165 16.707 10.707L12.707 14.707C12.3165 15.0976 11.6835 15.0976 11.293 14.707L7.29297 10.707C6.90244 10.3165 6.90244 9.68349 7.29297 9.29297C7.68349 8.90244 8.31651 8.90244 8.70703 9.29297L12 12.5859L15.293 9.29297ZM22 19C22 20.6569 20.6569 22 19 22H5C3.34315 22 2 20.6569 2 19V5C2 3.34315 3.34315 2 5 2H19C20.6569 2 22 3.34315 22 5V19Z" fill="#0D121A"/>
</svg>
