<svg width="24" height="24" viewBox="0 0 24 24" fill="none" xmlns="http://www.w3.org/2000/svg">
<path d="M11.3691 1.22462C11.7619 0.904269 12.3409 0.926863 12.707 1.29298L15.707 4.29298C16.0975 4.6835 16.0975 5.31652 15.707 5.70704C15.3165 6.09757 14.6835 6.09757 14.293 5.70704L13 4.41407V11H19.5859L18.293 9.70704C17.9024 9.31652 17.9024 8.6835 18.293 8.29298C18.6835 7.90245 19.3165 7.90245 19.707 8.29298L22.707 11.293C23.0975 11.6835 23.0975 12.3165 22.707 12.707L19.707 15.707C19.3165 16.0976 18.6835 16.0976 18.293 15.707C17.9024 15.3165 17.9024 14.6835 18.293 14.293L19.5859 13H13V19.5859L14.293 18.293C14.6835 17.9025 15.3165 17.9025 15.707 18.293C16.0975 18.6835 16.0975 19.3165 15.707 19.707L12.707 22.707C12.3165 23.0976 11.6835 23.0976 11.293 22.707L8.29295 19.707C7.90243 19.3165 7.90243 18.6835 8.29295 18.293C8.68348 17.9025 9.31649 17.9025 9.70702 18.293L11 19.5859V13H4.41405L5.70702 14.293C6.09754 14.6835 6.09754 15.3165 5.70702 15.707C5.31649 16.0976 4.68348 16.0976 4.29295 15.707L1.29295 12.707C0.90243 12.3165 0.90243 11.6835 1.29295 11.293L4.29295 8.29298C4.68348 7.90245 5.31649 7.90245 5.70702 8.29298C6.09754 8.6835 6.09754 9.31652 5.70702 9.70704L4.41405 11H11V4.41407L9.70702 5.70704C9.31649 6.09757 8.68348 6.09757 8.29295 5.70704C7.90243 5.31652 7.90243 4.6835 8.29295 4.29298L11.293 1.29298L11.3691 1.22462Z" fill="#0D121A"/>
</svg>
