<svg width="24" height="24" viewBox="0 0 24 24" fill="none" xmlns="http://www.w3.org/2000/svg">
<path d="M20.1821 5.47158C20.1821 5.03303 20.0074 4.61249 19.6973 4.30235C19.3874 3.99235 18.9674 3.81778 18.529 3.81761C18.0906 3.81755 17.6699 3.99165 17.3598 4.30146L16.0192 5.64204L18.3576 7.98051L19.6973 6.64082L19.8074 6.51919C20.0484 6.22505 20.182 5.85519 20.1821 5.47158ZM5.22528 16.4386C5.11984 16.5438 5.04166 16.6735 4.998 16.8159L4.0445 19.9534L7.18732 19.0008L7.29119 18.9626C7.39272 18.9176 7.48553 18.8541 7.56463 18.7753L17.0721 9.26605L14.7336 6.92758L5.22528 16.4386ZM22.0003 5.47158C22.0002 6.33487 21.6787 7.16525 21.1018 7.80206L20.9829 7.92636L19.0848 9.82359C19.0606 9.85506 19.0354 9.88622 19.0066 9.91503C18.9776 9.94407 18.946 9.96976 18.9143 9.99405L8.84839 20.0626C8.53229 20.3777 8.14347 20.611 7.71645 20.7409L3.75863 21.9412L3.75596 21.9421C3.5204 22.0128 3.27005 22.018 3.03152 21.9581C2.79292 21.8981 2.57445 21.7749 2.40029 21.6012C2.22608 21.4272 2.10202 21.2086 2.04162 20.9699C1.98133 20.7315 1.98634 20.4812 2.05671 20.2455L2.05849 20.2419L3.25879 16.285L3.25968 16.2823C3.39076 15.855 3.62495 15.466 3.94151 15.1504L14.0083 5.08095C14.0317 5.05069 14.0569 5.02083 14.0847 4.99306C14.1126 4.96509 14.142 4.93938 14.1725 4.91582L16.0733 3.01592C16.7245 2.36492 17.6082 1.99927 18.529 1.99939C19.4497 1.99956 20.3328 2.36569 20.9838 3.01681C21.6346 3.66795 22.0004 4.55092 22.0003 5.47158Z" fill="#0D121A"/>
</svg>
