<svg width="24" height="24" viewBox="0 0 24 24" fill="none" xmlns="http://www.w3.org/2000/svg">
<path d="M4 12.3125C4 12.4849 4.03395 12.6555 4.09991 12.8148C4.16587 12.974 4.26255 13.1187 4.38442 13.2406C4.5063 13.3625 4.65099 13.4591 4.81023 13.5251C4.96947 13.5911 5.14014 13.625 5.3125 13.625C5.48486 13.625 5.65553 13.5911 5.81477 13.5251C5.97401 13.4591 6.1187 13.3625 6.24058 13.2406C6.36245 13.1187 6.45913 12.974 6.52509 12.8148C6.59105 12.6555 6.625 12.4849 6.625 12.3125C6.625 12.1401 6.59105 11.9695 6.52509 11.8102C6.45913 11.651 6.36245 11.5063 6.24058 11.3844C6.1187 11.2625 5.97401 11.1659 5.81477 11.0999C5.65553 11.0339 5.48486 11 5.3125 11C5.14014 11 4.96947 11.0339 4.81023 11.0999C4.65099 11.1659 4.5063 11.2625 4.38442 11.3844C4.26255 11.5063 4.16587 11.651 4.09991 11.8102C4.03395 11.9695 4 12.1401 4 12.3125ZM10.5625 12.3125C10.5625 12.6606 10.7008 12.9944 10.9469 13.2406C11.1931 13.4867 11.5269 13.625 11.875 13.625C12.2231 13.625 12.5569 13.4867 12.8031 13.2406C13.0492 12.9944 13.1875 12.6606 13.1875 12.3125C13.1875 11.9644 13.0492 11.6306 12.8031 11.3844C12.5569 11.1383 12.2231 11 11.875 11C11.5269 11 11.1931 11.1383 10.9469 11.3844C10.7008 11.6306 10.5625 11.9644 10.5625 12.3125ZM17.125 12.3125C17.125 12.6606 17.2633 12.9944 17.5094 13.2406C17.7556 13.4867 18.0894 13.625 18.4375 13.625C18.7856 13.625 19.1194 13.4867 19.3656 13.2406C19.6117 12.9944 19.75 12.6606 19.75 12.3125C19.75 11.9644 19.6117 11.6306 19.3656 11.3844C19.1194 11.1383 18.7856 11 18.4375 11C18.0894 11 17.7556 11.1383 17.5094 11.3844C17.2633 11.6306 17.125 11.9644 17.125 12.3125Z" fill="#0D121A"/>
</svg>
