<svg width="24" height="24" viewBox="0 0 24 24" fill="none" xmlns="http://www.w3.org/2000/svg">
<path d="M19 9.50008C19 10.0909 18.8833 10.6759 18.6572 11.2218C18.4311 11.7677 18.0995 12.2639 17.6816 12.6817C17.2638 13.0996 16.7676 13.4312 16.2217 13.6573C15.6758 13.8834 15.0908 14.0001 14.5 14.0001H6.41405L9.70702 10.7071C10.0975 10.3166 10.0975 9.68357 9.70702 9.29304C9.31649 8.90252 8.68348 8.90252 8.29295 9.29304L3.29295 14.293C2.90243 14.6836 2.90243 15.3166 3.29295 15.7071L8.29295 20.7071C8.68348 21.0976 9.31649 21.0976 9.70702 20.7071C10.0975 20.3166 10.0975 19.6836 9.70702 19.293L6.41405 16.0001H14.5C15.3536 16.0001 16.1987 15.8316 16.9873 15.505C17.7759 15.1783 18.4931 14.7003 19.0967 14.0968C19.7002 13.4932 20.1782 12.776 20.5049 11.9874C20.8315 11.1988 21 10.3537 21 9.50008C21 8.64648 20.8315 7.80139 20.5049 7.01277C20.1782 6.22416 19.7002 5.50698 19.0967 4.9034C18.4931 4.29982 17.7759 3.82185 16.9873 3.49519C16.1987 3.16854 15.3536 3.00008 14.5 3.00008H11C10.4477 3.00008 9.99999 3.44779 9.99999 4.00008C9.99999 4.55236 10.4477 5.00008 11 5.00008H14.5C15.0908 5.00008 15.6758 5.11677 16.2217 5.34285C16.7676 5.569 17.2638 5.90057 17.6816 6.31843C18.0995 6.7363 18.4311 7.23243 18.6572 7.7784C18.8833 8.32429 19 8.90922 19 9.50008Z" fill="#0D121A"/>
</svg>
