<svg width="24" height="24" viewBox="0 0 24 24" fill="none" xmlns="http://www.w3.org/2000/svg">
<path d="M12 1.5C6.20156 1.5 1.5 6.20156 1.5 12C1.5 17.7984 6.20156 22.5 12 22.5C17.7984 22.5 22.5 17.7984 22.5 12C22.5 6.20156 17.7984 1.5 12 1.5ZM12 20.7188C7.18594 20.7188 3.28125 16.8141 3.28125 12C3.28125 7.18594 7.18594 3.28125 12 3.28125C16.8141 3.28125 20.7188 7.18594 20.7188 12C20.7188 16.8141 16.8141 20.7188 12 20.7188ZM14.7586 6.92344C14.3859 6.84141 13.9523 6.79688 13.4625 6.79688C10.9617 6.79688 9.26953 8.10234 8.80781 10.3102H8.0625C7.95937 10.3102 7.875 10.3945 7.875 10.4977V11.1352C7.875 11.2383 7.95937 11.3227 8.0625 11.3227H8.68125C8.67422 11.4187 8.67422 11.5195 8.67422 11.6227V12.4875H8.0625C7.95937 12.4875 7.875 12.5719 7.875 12.675V13.3125C7.875 13.4156 7.95937 13.5 8.0625 13.5H8.77031C9.17344 15.825 10.8891 17.2031 13.4625 17.2031C13.9523 17.2031 14.3859 17.1633 14.7586 17.0836C14.8453 17.0648 14.9086 16.9898 14.9086 16.9008V15.8977C14.9086 15.7805 14.8008 15.6914 14.6859 15.7148C14.3414 15.7805 13.9383 15.8109 13.4719 15.8109C11.8664 15.8109 10.7883 14.9531 10.4297 13.5H13.4906C13.5937 13.5 13.6781 13.4156 13.6781 13.3125V12.675C13.6781 12.5719 13.5937 12.4875 13.4906 12.4875H10.2938V11.6437C10.2938 11.5336 10.2937 11.4234 10.3008 11.3203H13.4859C13.5891 11.3203 13.6734 11.2359 13.6734 11.1328V10.4953C13.6734 10.3922 13.5891 10.3078 13.4859 10.3078H10.4789C10.882 8.97422 11.9391 8.18906 13.4695 8.18906C13.9359 8.18906 14.3391 8.22422 14.6813 8.29219C14.7084 8.29773 14.7365 8.29718 14.7634 8.29058C14.7903 8.28398 14.8155 8.27148 14.837 8.254C14.8585 8.23651 14.8759 8.21447 14.8879 8.18946C14.8998 8.16446 14.9061 8.1371 14.9062 8.10938V7.10625C14.9062 7.01719 14.8453 6.94219 14.7586 6.92344Z" fill="#0D121A"/>
</svg>
