<svg width="24" height="24" viewBox="0 0 24 24" fill="none" xmlns="http://www.w3.org/2000/svg">
<path d="M8.01562 2.0625H2.8125C2.39766 2.0625 2.0625 2.39766 2.0625 2.8125V8.0625C2.0625 8.26875 2.23125 8.4375 2.4375 8.4375H3.5625C3.76875 8.4375 3.9375 8.26875 3.9375 8.0625V3.9375H8.01562C8.22188 3.9375 8.39062 3.76875 8.39062 3.5625V2.4375C8.39062 2.23125 8.22188 2.0625 8.01562 2.0625ZM21.5625 15.5625H20.4375C20.2313 15.5625 20.0625 15.7312 20.0625 15.9375V20.0625H15.9844C15.7781 20.0625 15.6094 20.2313 15.6094 20.4375V21.5625C15.6094 21.7687 15.7781 21.9375 15.9844 21.9375H21.1875C21.6023 21.9375 21.9375 21.6023 21.9375 21.1875V15.9375C21.9375 15.7312 21.7687 15.5625 21.5625 15.5625ZM8.01562 20.0625H3.9375V15.9375C3.9375 15.7312 3.76875 15.5625 3.5625 15.5625H2.4375C2.23125 15.5625 2.0625 15.7312 2.0625 15.9375V21.1875C2.0625 21.6023 2.39766 21.9375 2.8125 21.9375H8.01562C8.22188 21.9375 8.39062 21.7687 8.39062 21.5625V20.4375C8.39062 20.2313 8.22188 20.0625 8.01562 20.0625ZM21.1875 2.0625H15.9844C15.7781 2.0625 15.6094 2.23125 15.6094 2.4375V3.5625C15.6094 3.76875 15.7781 3.9375 15.9844 3.9375H20.0625V8.0625C20.0625 8.26875 20.2313 8.4375 20.4375 8.4375H21.5625C21.7687 8.4375 21.9375 8.26875 21.9375 8.0625V2.8125C21.9375 2.39766 21.6023 2.0625 21.1875 2.0625Z" fill="#0D121A"/>
</svg>
