<svg width="24" height="24" viewBox="0 0 24 24" fill="none" xmlns="http://www.w3.org/2000/svg">
<path d="M9.29297 13.793C9.68349 13.4024 10.3165 13.4024 10.707 13.793C11.0976 14.1835 11.0976 14.8165 10.707 15.207L5.41406 20.5H9C9.55228 20.5 10 20.9477 10 21.5C10 22.0523 9.55228 22.5 9 22.5H3C2.44772 22.5 2 22.0523 2 21.5V15.5C2 14.9477 2.44772 14.5 3 14.5C3.55228 14.5 4 14.9477 4 15.5V19.0859L9.29297 13.793ZM22 9.5C22 10.0523 21.5523 10.5 21 10.5C20.4477 10.5 20 10.0523 20 9.5V5.91406L14.707 11.207C14.3165 11.5976 13.6835 11.5976 13.293 11.207C12.9024 10.8165 12.9024 10.1835 13.293 9.79297L18.5859 4.5H15C14.4477 4.5 14 4.05228 14 3.5C14 2.94772 14.4477 2.5 15 2.5H21C21.5523 2.5 22 2.94772 22 3.5V9.5Z" fill="#0D121A"/>
</svg>
