<svg width="24" height="24" viewBox="0 0 24 24" fill="none" xmlns="http://www.w3.org/2000/svg">
<path d="M15.4997 1C16.052 1 16.4997 1.44772 16.4997 2C16.4997 2.55228 16.052 3 15.4997 3H14.9997V9.52832C14.9997 9.68354 15.0359 9.83671 15.1052 9.97559L20.1745 20.1025C20.328 20.4079 20.4006 20.7474 20.3855 21.0889C20.3703 21.431 20.2672 21.7637 20.0867 22.0547C19.906 22.3457 19.6532 22.5855 19.3533 22.751C19.0552 22.9154 18.72 23.0003 18.3796 22.999L5.61986 23C5.27974 23.0012 4.94508 22.9153 4.6472 22.751C4.3472 22.5855 4.09449 22.3458 3.9138 22.0547C3.73315 21.7636 3.63019 21.4311 3.61498 21.0889C3.59978 20.7466 3.6727 20.4056 3.82689 20.0996L8.89427 9.97559C8.96368 9.83665 8.99983 9.68362 8.99974 9.52832V3H8.49974C7.94758 2.99986 7.49974 2.5522 7.49974 2C7.49974 1.4478 7.94758 1.00014 8.49974 1H15.4997ZM5.61302 21H18.3874L18.3855 20.998L16.3845 17H7.61498L5.61302 21ZM10.9997 9.52637L10.9949 9.7002C10.9749 10.0488 10.8943 10.3911 10.7566 10.7119L10.6833 10.8701L8.61595 15H15.3835L13.3171 10.8701C13.1086 10.4529 12.9994 9.99274 12.9997 9.52637V3H10.9997V9.52637Z" fill="#0D121A"/>
</svg>
