<svg width="24" height="24" viewBox="0 0 24 24" fill="none" xmlns="http://www.w3.org/2000/svg">
<path d="M2.1637 19V5C2.1637 4.20435 2.47999 3.44152 3.0426 2.87891C3.60521 2.3163 4.36805 2 5.1637 2H11.1637C11.716 2 12.1637 2.44772 12.1637 3C12.1637 3.55228 11.716 4 11.1637 4H5.1637C4.89848 4 4.6442 4.10543 4.45667 4.29297C4.26913 4.4805 4.1637 4.73478 4.1637 5V19C4.1637 19.2652 4.26913 19.5195 4.45667 19.707C4.6442 19.8946 4.89848 20 5.1637 20H19.1637C19.4289 20 19.6832 19.8946 19.8707 19.707C20.0583 19.5195 20.1637 19.2652 20.1637 19V13C20.1637 12.4477 20.6114 12 21.1637 12C21.716 12 22.1637 12.4477 22.1637 13V19C22.1637 19.7957 21.8474 20.5585 21.2848 21.1211C20.7222 21.6837 19.9593 22 19.1637 22H5.1637C4.36805 22 3.60521 21.6837 3.0426 21.1211C2.47999 20.5585 2.1637 19.7957 2.1637 19ZM22.1637 9C22.1637 9.55228 21.716 10 21.1637 10C20.6114 10 20.1637 9.55228 20.1637 9V5.41406L12.8707 12.707C12.4802 13.0976 11.8472 13.0976 11.4567 12.707C11.0661 12.3165 11.0661 11.6835 11.4567 11.293L18.7496 4H15.1637C14.6114 4 14.1637 3.55228 14.1637 3C14.1637 2.44772 14.6114 2 15.1637 2H21.1637C21.716 2 22.1637 2.44772 22.1637 3V9Z" fill="black"/>
</svg>
