<svg width="24" height="24" viewBox="0 0 24 24" fill="none" xmlns="http://www.w3.org/2000/svg">
<path d="M1.29248 1.29295C1.683 0.90243 2.31699 0.90243 2.70752 1.29295L22.7075 21.293C23.0977 21.6834 23.0977 22.3165 22.7075 22.707C22.317 23.0975 21.683 23.0975 21.2925 22.707L17.313 18.7275C16.043 19.3715 14.6657 19.7822 13.2456 19.9336C11.5699 20.1121 9.87516 19.9285 8.27685 19.3945C6.67856 18.8605 5.21372 17.9888 3.98193 16.8389C2.75014 15.6889 1.77963 14.2874 1.1372 12.7295C1.1327 12.7186 1.12862 12.7073 1.12451 12.6963C0.957826 12.2472 0.957826 11.7527 1.12451 11.3037L1.1372 11.2705C1.94421 9.3135 3.26285 7.6197 4.94287 6.35741L1.29248 2.70702C0.902289 2.31656 0.902289 1.68341 1.29248 1.29295ZM6.37353 7.78807C4.87962 8.84378 3.70803 10.3014 3.00048 11.999C3.53358 13.2787 4.33268 14.4307 5.34619 15.3769C6.36833 16.3312 7.58435 17.0539 8.91064 17.4971C10.2369 17.9402 11.6432 18.0935 13.0337 17.9453C13.9915 17.8432 14.9248 17.596 15.8071 17.2217L14.0298 15.4443C13.4093 15.81 12.6972 16.0063 11.9653 16C10.9165 15.9909 9.91302 15.5697 9.17138 14.8281C8.42997 14.0866 8.00967 13.0837 8.00048 12.0351C7.99412 11.303 8.18829 10.5894 8.55419 9.96874L6.37353 7.78807ZM10.6147 4.08299C13.1608 3.77959 15.7363 4.31763 17.9478 5.61522C20.0211 6.83183 21.6677 8.6537 22.6704 10.8301L22.8628 11.2695L22.8755 11.3027C23.0422 11.7518 23.0422 12.2463 22.8755 12.6953C22.8714 12.7064 22.8673 12.7176 22.8628 12.7285C22.4611 13.7024 21.9295 14.6179 21.2837 15.4502C20.9451 15.8862 20.3176 15.9653 19.8813 15.6269C19.445 15.2884 19.3651 14.66 19.7036 14.2236C20.2319 13.5426 20.6669 12.7945 20.9985 11.999C20.1856 10.0468 18.7604 8.41143 16.936 7.34081C15.1011 6.26408 12.9636 5.81756 10.8511 6.06932C10.3028 6.13449 9.80508 5.74262 9.73974 5.19432C9.67441 4.64593 10.0663 4.14835 10.6147 4.08299ZM10.0688 11.4834C10.0226 11.6562 9.99793 11.8356 9.99951 12.0176C10.0041 12.5418 10.2148 13.0433 10.5854 13.414C10.9563 13.7849 11.4585 13.9954 11.9829 14C12.1646 14.0015 12.3436 13.9768 12.5161 13.9306L10.0688 11.4834Z" fill="#0D121A"/>
</svg>
