<svg width="24" height="24" viewBox="0 0 24 24" fill="none" xmlns="http://www.w3.org/2000/svg">
<path d="M12.0005 4.00061C14.3273 4.0007 16.6019 4.69176 18.5357 5.98596C20.3485 7.1993 21.7854 8.89154 22.689 10.8707L22.8628 11.2711L22.8755 11.3043C23.0421 11.7533 23.0421 12.247 22.8755 12.6959C22.8714 12.707 22.8673 12.7182 22.8628 12.7291C21.9756 14.8803 20.4695 16.72 18.5357 18.0143C16.6019 19.3085 14.3273 19.9995 12.0005 19.9996C9.6735 19.9996 7.3982 19.3086 5.46436 18.0143C3.53057 16.72 2.02441 14.8803 1.13721 12.7291C1.13271 12.7182 1.12863 12.707 1.12452 12.6959C0.957897 12.247 0.957952 11.7533 1.12452 11.3043L1.13721 11.2711C2.02439 9.11997 3.53062 7.28025 5.46436 5.98596C7.3982 4.69167 9.6735 4.00061 12.0005 4.00061ZM12.0005 6.00061C10.0696 6.00061 8.18134 6.57408 6.57667 7.64807C4.98223 8.71529 3.73842 10.2291 3.00049 11.9996C3.73841 13.7704 4.98199 15.2848 6.57667 16.3522C8.18134 17.4262 10.0696 17.9996 12.0005 17.9996C13.9312 17.9995 15.8188 17.4261 17.4233 16.3522C19.0179 15.2849 20.2606 13.7703 20.9985 11.9996C20.2606 10.2293 19.0177 8.71522 17.4233 7.64807C15.8188 6.57417 13.9312 6.0007 12.0005 6.00061ZM14.0005 11.9996C14.0003 10.8954 13.1047 9.99989 12.0005 9.99963C10.896 9.99963 10.0007 10.8952 10.0005 11.9996C10.0005 13.1042 10.8959 13.9996 12.0005 13.9996C13.1048 13.9994 14.0005 13.104 14.0005 11.9996ZM16.0005 11.9996C16.0005 14.2086 14.2094 15.9994 12.0005 15.9996C9.79136 15.9996 8.00049 14.2088 8.00049 11.9996C8.00069 9.79066 9.79148 7.99963 12.0005 7.99963C14.2093 7.99989 16.0003 9.79082 16.0005 11.9996Z" fill="#0D121A"/>
</svg>
