<svg width="24" height="24" viewBox="0 0 24 24" fill="none" xmlns="http://www.w3.org/2000/svg">
<path d="M1.29297 6.29295C1.68349 5.90243 2.31651 5.90243 2.70703 6.29295L8.5 12.0859L12.793 7.79295L12.8691 7.72459C13.2619 7.40424 13.8409 7.42684 14.207 7.79295L21 14.5859V11C21 10.4477 21.4477 9.99999 22 9.99999C22.5523 9.99999 23 10.4477 23 11V17C23 17.5523 22.5523 18 22 18H16C15.4477 18 15 17.5523 15 17C15 16.4477 15.4477 16 16 16H19.5859L13.5 9.91405L9.20703 14.207C8.81651 14.5975 8.18349 14.5975 7.79297 14.207L1.29297 7.70702C0.902445 7.31649 0.902445 6.68348 1.29297 6.29295Z" fill="#0D121A"/>
</svg>
