<svg width="24" height="24" viewBox="0 0 24 24" fill="none" xmlns="http://www.w3.org/2000/svg">
<path d="M12.1312 6.42236L5.39531 11.7146C5.35019 11.7499 5.3137 11.7951 5.28861 11.8467C5.26352 11.8983 5.25048 11.9549 5.25048 12.0122C5.25048 12.0696 5.26352 12.1262 5.28861 12.1777C5.3137 12.2293 5.35019 12.2745 5.39531 12.3099L12.1312 17.6021C12.382 17.7989 12.75 17.6208 12.75 17.3044V6.72002C12.75 6.40361 12.382 6.22549 12.1312 6.42236ZM19.6312 6.42236L12.8953 11.7146C12.8502 11.7499 12.8137 11.7951 12.7886 11.8467C12.7635 11.8983 12.7505 11.9549 12.7505 12.0122C12.7505 12.0696 12.7635 12.1262 12.7886 12.1777C12.8137 12.2293 12.8502 12.2745 12.8953 12.3099L19.6312 17.6021C19.882 17.7989 20.25 17.6208 20.25 17.3044V6.72002C20.25 6.40361 19.882 6.22549 19.6312 6.42236ZM5.1 5.82471H3.9C3.81797 5.82471 3.75 5.88799 3.75 5.96533V18.0591C3.75 18.1364 3.81797 18.1997 3.9 18.1997H5.1C5.18203 18.1997 5.25 18.1364 5.25 18.0591V5.96533C5.25 5.88799 5.18203 5.82471 5.1 5.82471Z" fill="#0D121A"/>
</svg>
