<svg width="24" height="24" viewBox="0 0 24 24" fill="none" xmlns="http://www.w3.org/2000/svg">
<path d="M18.6047 11.7146L11.8687 6.42236C11.618 6.22549 11.25 6.40361 11.25 6.72002V17.3044C11.25 17.6208 11.618 17.7989 11.8687 17.6021L18.6047 12.3099C18.6498 12.2745 18.6863 12.2293 18.7114 12.1777C18.7365 12.1262 18.7495 12.0696 18.7495 12.0122C18.7495 11.9549 18.7365 11.8983 18.7114 11.8467C18.6863 11.7951 18.6498 11.7499 18.6047 11.7146ZM11.1047 11.7146L4.36875 6.42236C4.11797 6.22549 3.75 6.40361 3.75 6.72002V17.3021C3.75 17.6185 4.11797 17.7966 4.36875 17.5997L11.1047 12.3075C11.2008 12.2325 11.25 12.12 11.25 12.0099C11.25 11.9021 11.2008 11.7896 11.1047 11.7146ZM20.1 5.82471H18.9C18.818 5.82471 18.75 5.88799 18.75 5.96533V18.0591C18.75 18.1364 18.818 18.1997 18.9 18.1997H20.1C20.182 18.1997 20.25 18.1364 20.25 18.0591V5.96533C20.25 5.88799 20.182 5.82471 20.1 5.82471Z" fill="#0D121A"/>
</svg>
