<svg width="24" height="24" viewBox="0 0 24 24" fill="none" xmlns="http://www.w3.org/2000/svg">
<path d="M14.0625 9.26719H16.1953V15.2109H18.0469V6.25781C18.0469 6.15469 17.9625 6.07031 17.8594 6.07031H16.7297C16.643 6.07031 16.5656 6.13125 16.5492 6.21797C16.4883 6.50156 16.3875 6.74063 16.2469 6.94219C16.0781 7.17891 15.8742 7.36875 15.6305 7.51406C15.3891 7.65938 15.1148 7.76016 14.8102 7.81641C14.5664 7.86094 14.318 7.88672 14.0602 7.88906C13.957 7.89141 13.875 7.97344 13.875 8.07656V9.07969C13.875 9.18281 13.9594 9.26719 14.0625 9.26719ZM20.4141 16.4531H13.2891C13.1859 16.4531 13.1016 16.5375 13.1016 16.6406V17.7656C13.1016 17.8687 13.1859 17.9531 13.2891 17.9531H20.4141C20.5172 17.9531 20.6016 17.8687 20.6016 17.7656V16.6406C20.6016 16.5375 20.5172 16.4531 20.4141 16.4531ZM10.4039 7.32891C10.0266 6.88359 9.59766 6.56953 9.11016 6.38203C8.61094 6.18984 8.07656 6.09375 7.50703 6.09375C6.94687 6.09375 6.41953 6.18984 5.92031 6.38203C5.43281 6.56953 5.00625 6.88359 4.63594 7.32656C4.26328 7.77422 3.96328 8.37422 3.73828 9.13125C3.51328 9.89297 3.39844 10.8422 3.39844 11.9789C3.39844 13.1484 3.51328 14.1211 3.73828 14.8945C3.96328 15.6633 4.26328 16.2703 4.63594 16.7156C5.00625 17.1586 5.43281 17.4727 5.92031 17.6602C6.41953 17.8523 6.94687 17.9484 7.50703 17.9484C8.07891 17.9484 8.61328 17.8523 9.11016 17.6602C9.59766 17.4727 10.0289 17.1586 10.4039 16.7133C10.7812 16.268 11.0836 15.6609 11.3086 14.8922C11.5336 14.1188 11.6484 13.1461 11.6484 11.9766C11.6484 10.8422 11.5336 9.89297 11.3086 9.12891C11.0859 8.37656 10.7836 7.77656 10.4039 7.32891ZM9.7125 13.2281C9.68906 13.7297 9.61406 14.2125 9.48984 14.6789C9.36094 15.1641 9.15 15.5813 8.85703 15.9305C8.53828 16.3125 8.07891 16.5 7.50703 16.5C6.94453 16.5 6.49453 16.3102 6.17813 15.9281C5.89219 15.5812 5.68359 15.1641 5.55469 14.6789C5.43047 14.2125 5.35547 13.7273 5.33203 13.2281C5.30859 12.7406 5.29688 12.3258 5.29688 11.9813C5.29688 11.775 5.29922 11.5266 5.30625 11.2359C5.31094 10.9383 5.33203 10.6313 5.36719 10.3172C5.40234 9.99844 5.46094 9.68203 5.54531 9.36797C5.63203 9.04453 5.75156 8.75156 5.90625 8.49141C6.06797 8.21953 6.27656 7.99688 6.53203 7.82812C6.79922 7.65 7.125 7.56328 7.50469 7.56328C7.88203 7.56328 8.21016 7.65 8.48203 7.82578C8.74219 7.99453 8.95781 8.21484 9.12422 8.48672C9.28594 8.74922 9.40781 9.04453 9.48984 9.37031C9.56719 9.67969 9.62578 9.99375 9.66562 10.3102C9.70781 10.6266 9.73125 10.9336 9.73594 11.2336C9.74062 11.5242 9.74531 11.7727 9.74531 11.9789C9.74766 12.3258 9.73594 12.7406 9.7125 13.2281Z" fill="#0D121A"/>
</svg>
