<svg width="24" height="24" viewBox="0 0 24 24" fill="none" xmlns="http://www.w3.org/2000/svg">
<path d="M20.5219 12.0914C20.5711 12.1101 20.625 12.0844 20.6437 12.0351C20.6484 12.0258 20.6484 12.014 20.6484 12.0023V10.6359C20.6484 10.5937 20.6227 10.5586 20.5828 10.5469C20.4422 10.5047 20.1797 10.4765 19.9453 10.4765C19.1742 10.4765 18.4992 10.868 18.2227 11.4422V10.7719C18.2227 10.6687 18.1383 10.5844 18.0352 10.5844H16.8047C16.7016 10.5844 16.6172 10.6687 16.6172 10.7719V17.0859C16.6172 17.189 16.7016 17.2734 16.8047 17.2734H18.0891C18.1922 17.2734 18.2766 17.189 18.2766 17.0859V13.4226C18.2766 12.5742 18.8883 12.0117 19.8023 12.0117C20.0461 12.014 20.4258 12.0539 20.5219 12.0914ZM7.93594 11.1422L6.65391 10.8469C5.21953 10.514 4.59844 10.0312 4.59844 9.18983C4.59844 8.14452 5.51484 7.46717 6.86953 7.46717C8.10703 7.46717 9.01172 8.08827 9.21094 9.08202H10.8516C10.6852 7.30311 9.08437 6.0703 6.87656 6.0703C4.45547 6.0703 2.86875 7.37108 2.86875 9.32811C2.86875 10.9359 3.77344 11.8945 5.73281 12.3398L7.17656 12.675C8.66719 13.0242 9.32344 13.5445 9.32344 14.4351C9.32344 15.4687 8.30391 16.1976 6.92109 16.1976C5.50078 16.1976 4.47187 15.5601 4.27734 14.5453H2.60156C2.77031 16.418 4.37344 17.6015 6.79922 17.6015C9.42891 17.6015 11.0391 16.2937 11.0391 14.1867C11.0391 12.5414 10.1344 11.6437 7.93594 11.1422Z" fill="#0D121A"/>
<path d="M19.7109 17.0859C19.7109 17.3097 19.7998 17.5243 19.9581 17.6825C20.1163 17.8408 20.3309 17.9297 20.5547 17.9297C20.7785 17.9297 20.9931 17.8408 21.1513 17.6825C21.3095 17.5243 21.3984 17.3097 21.3984 17.0859C21.3984 16.8621 21.3095 16.6475 21.1513 16.4893C20.9931 16.3311 20.7785 16.2422 20.5547 16.2422C20.3309 16.2422 20.1163 16.3311 19.9581 16.4893C19.7998 16.6475 19.7109 16.8621 19.7109 17.0859Z" fill="#0D121A"/>
<path d="M15.3047 10.7297H14.1V9.28123C14.1 9.17811 14.0156 9.09373 13.9125 9.09373H12.6305C12.5273 9.09373 12.443 9.17811 12.443 9.28123V10.7297H11.6016C11.4984 10.7297 11.4141 10.814 11.4141 10.9172V11.9086C11.4141 12.0117 11.4984 12.0961 11.6016 12.0961H12.443V15.5531C12.443 16.8703 13.0852 17.414 14.625 17.414C14.8992 17.414 15.1781 17.3859 15.4172 17.3414C15.4617 17.3344 15.4922 17.2945 15.4922 17.25V16.0945C15.4922 16.043 15.45 16.0008 15.3984 16.0008H15.3891C15.2742 16.0125 15.2437 16.0148 15.1945 16.0195C15.0984 16.0265 15.0117 16.0312 14.8992 16.0312C14.3344 16.0312 14.1 15.7898 14.1 15.1969V12.0961H15.3047C15.4078 12.0961 15.4922 12.0117 15.4922 11.9086V10.9172C15.4922 10.814 15.4078 10.7297 15.3047 10.7297Z" fill="#0D121A"/>
</svg>
