<svg width="24" height="24" viewBox="0 0 24 24" fill="none" xmlns="http://www.w3.org/2000/svg">
<path d="M22.1484 9.65623H16.1484C16.0453 9.65623 15.9609 9.74061 15.9609 9.84373V10.9687C15.9609 11.0719 16.0453 11.1562 16.1484 11.1562H22.1484C22.2516 11.1562 22.3359 11.0719 22.3359 10.9687V9.84373C22.3359 9.74061 22.2516 9.65623 22.1484 9.65623ZM19.0078 12.8437H16.1484C16.0453 12.8437 15.9609 12.9281 15.9609 13.0312V14.1562C15.9609 14.2594 16.0453 14.3437 16.1484 14.3437H19.0078C19.1109 14.3437 19.1953 14.2594 19.1953 14.1562V13.0312C19.1953 12.9281 19.1109 12.8437 19.0078 12.8437ZM11.1867 7.55858H10.1719C10.0266 7.55858 9.90939 7.67577 9.90939 7.82108V13.6336C9.90939 13.7179 9.94923 13.7953 10.0172 13.8445L13.507 16.3898C13.6242 16.4742 13.7883 16.4508 13.8727 16.3336L14.475 15.5109V15.5086C14.5594 15.3914 14.5336 15.2273 14.4164 15.1429L11.4469 12.9961V7.82108C11.4492 7.67577 11.3297 7.55858 11.1867 7.55858Z" fill="#0D121A"/>
<path d="M18.8624 15.7944H17.5077C17.3765 15.7944 17.2522 15.8624 17.1819 15.9749C16.8843 16.446 16.5374 16.8819 16.139 17.2804C15.4522 17.9671 14.653 18.5061 13.7647 18.8811C12.8436 19.2702 11.8663 19.4671 10.8585 19.4671C9.84833 19.4671 8.87099 19.2702 7.95224 18.8811C7.06396 18.5061 6.26474 17.9671 5.57802 17.2804C4.8913 16.5936 4.35224 15.7944 3.97724 14.9061C3.58818 13.9874 3.3913 13.0101 3.3913 11.9999C3.3913 10.9897 3.58818 10.0147 3.97724 9.09365C4.35224 8.20537 4.8913 7.40615 5.57802 6.71943C6.26474 6.03271 7.06396 5.49365 7.95224 5.11865C8.87099 4.72958 9.85067 4.53271 10.8585 4.53271C11.8686 4.53271 12.846 4.72958 13.7647 5.11865C14.653 5.49365 15.4522 6.03271 16.139 6.71943C16.5374 7.11787 16.8843 7.5538 17.1819 8.0249C17.2522 8.1374 17.3765 8.20537 17.5077 8.20537H18.8624C19.0241 8.20537 19.1272 8.03662 19.0546 7.89365C17.5265 4.8538 14.428 2.87802 10.9686 2.83818C5.9038 2.7749 1.69677 6.92099 1.68739 11.9811C1.67802 17.0507 5.78661 21.164 10.8561 21.164C14.36 21.164 17.51 19.1811 19.0546 16.1061C19.1272 15.9632 19.0218 15.7944 18.8624 15.7944Z" fill="#0D121A"/>
</svg>
