<svg width="24" height="24" viewBox="0 0 24 24" fill="none" xmlns="http://www.w3.org/2000/svg">
<path d="M20.0297 6.76406L14.9859 1.72031C14.8453 1.57969 14.6555 1.5 14.4562 1.5H4.5C4.08516 1.5 3.75 1.83516 3.75 2.25V21.75C3.75 22.1648 4.08516 22.5 4.5 22.5H19.5C19.9148 22.5 20.25 22.1648 20.25 21.75V7.29609C20.25 7.09687 20.1703 6.90469 20.0297 6.76406ZM18.5203 7.64062H14.1094V3.22969L18.5203 7.64062ZM18.5625 20.8125H5.4375V3.1875H12.5156V8.25C12.5156 8.51107 12.6193 8.76145 12.8039 8.94606C12.9885 9.13066 13.2389 9.23438 13.5 9.23438H18.5625V20.8125ZM10.0547 11.2781C10.0102 11.175 9.90938 11.1094 9.79688 11.1094H8.97656C8.82188 11.1094 8.69531 11.2359 8.69531 11.3906V17.7656C8.69531 17.9203 8.82188 18.0469 8.97656 18.0469H9.61172C9.76641 18.0469 9.89297 17.9203 9.89297 17.7656V13.643L11.4586 17.1633C11.4808 17.213 11.517 17.2552 11.5628 17.2847C11.6086 17.3143 11.6619 17.3299 11.7164 17.3297H12.2812C12.3914 17.3297 12.4922 17.2641 12.5391 17.1633L14.1047 13.6336V17.7656C14.1047 17.9203 14.2312 18.0469 14.3859 18.0469H15.0234C15.1781 18.0469 15.3047 17.9203 15.3047 17.7656V11.3906C15.3047 11.2359 15.1781 11.1094 15.0234 11.1094H14.2102C14.0977 11.1094 13.9969 11.175 13.9523 11.2781L12.0047 15.7547L10.0547 11.2781Z" fill="#0D121A"/>
</svg>
