<svg width="24" height="24" viewBox="0 0 24 24" fill="none" xmlns="http://www.w3.org/2000/svg">
<path d="M3 20V4C3 3.20435 3.3163 2.44152 3.87891 1.87891C4.44152 1.3163 5.20435 1 6 1H15C15.2652 1 15.5195 1.10543 15.707 1.29297L20.707 6.29297C20.8946 6.4805 21 6.73478 21 7V20C21 20.7957 20.6837 21.5585 20.1211 22.1211C19.5585 22.6837 18.7957 23 18 23H6C5.20435 23 4.44152 22.6837 3.87891 22.1211C3.3163 21.5585 3 20.7957 3 20ZM12.0098 16C12.5621 16 13.0098 16.4477 13.0098 17C13.0098 17.5523 12.5621 18 12.0098 18H12C11.4477 18 11 17.5523 11 17C11 16.4477 11.4477 16 12 16H12.0098ZM9.91113 6.56445C10.7222 6.09336 11.6732 5.92222 12.5977 6.08105C13.5221 6.23994 14.3615 6.7187 14.9688 7.43359C15.576 8.14851 15.9126 9.05418 15.9199 9.99219V10C15.9199 11.5309 14.785 12.5418 13.9746 13.082C13.539 13.3724 13.1106 13.5863 12.7949 13.7266C12.6359 13.7973 12.5019 13.8509 12.4053 13.8877C12.357 13.9061 12.3176 13.9205 12.2891 13.9307C12.2748 13.9357 12.2627 13.9394 12.2539 13.9424C12.2496 13.9439 12.2461 13.9453 12.2432 13.9463C12.2418 13.9467 12.2403 13.9469 12.2393 13.9473L12.2373 13.9482C12.237 13.9483 12.2361 13.9487 11.9199 13L12.2363 13.9482C11.7125 14.1229 11.1464 13.8402 10.9717 13.3164C10.7971 12.7926 11.0798 12.2265 11.6035 12.0518L11.6191 12.0459C11.6346 12.0404 11.6601 12.0312 11.6934 12.0186C11.7608 11.9929 11.8607 11.9525 11.9824 11.8984C12.2292 11.7887 12.5509 11.6275 12.8652 11.418C13.551 10.9608 13.9159 10.4746 13.9199 10.0078L13.9111 9.83301C13.8724 9.42717 13.7101 9.04136 13.4443 8.72852C13.1407 8.37104 12.7211 8.13119 12.2588 8.05176C11.7965 7.97234 11.3206 8.05834 10.915 8.29395C10.5097 8.52952 10.2 8.90013 10.04 9.34082C9.85166 9.85998 9.27795 10.1288 8.75879 9.94043C8.23969 9.75207 7.9719 9.1783 8.16016 8.65918C8.48013 7.77735 9.09999 7.03567 9.91113 6.56445ZM5 20C5 20.2652 5.10543 20.5195 5.29297 20.707C5.48051 20.8946 5.73478 21 6 21H18C18.2652 21 18.5195 20.8946 18.707 20.707C18.8946 20.5195 19 20.2652 19 20V7.41406L14.5859 3H6C5.73478 3 5.4805 3.10543 5.29297 3.29297C5.10543 3.4805 5 3.73478 5 4V20Z" fill="#0D121A"/>
</svg>
