<svg width="24" height="24" viewBox="0 0 24 24" fill="none" xmlns="http://www.w3.org/2000/svg">
<path d="M9.9375 11.1562C9.83437 11.1562 9.75 11.2406 9.75 11.3438V17.8125C9.75 17.9156 9.83437 18 9.9375 18H10.6992C10.8023 18 10.8867 17.9156 10.8867 17.8125V15.5742H12.3703C13.7625 15.5742 14.625 14.6625 14.625 13.3688C14.625 12.0914 13.7742 11.1586 12.375 11.1586H9.9375V11.1562ZM13.4672 13.3664C13.4672 14.3836 12.8461 14.6391 11.7984 14.6391H10.8867V12.0984H12.2039C12.9961 12.0984 13.4672 12.5602 13.4672 13.3664ZM20.0297 6.76406L14.9859 1.72031C14.8453 1.57969 14.6555 1.5 14.4562 1.5H4.5C4.08516 1.5 3.75 1.83516 3.75 2.25V21.75C3.75 22.1648 4.08516 22.5 4.5 22.5H19.5C19.9148 22.5 20.25 22.1648 20.25 21.75V7.29609C20.25 7.09687 20.1703 6.90469 20.0297 6.76406ZM18.5203 7.64062H14.1094V3.22969L18.5203 7.64062ZM18.5625 20.8125H5.4375V3.1875H12.5156V8.25C12.5156 8.51107 12.6193 8.76145 12.8039 8.94606C12.9885 9.13066 13.2389 9.23438 13.5 9.23438H18.5625V20.8125Z" fill="#0D121A"/>
</svg>
