<svg viewBox="0 0 24 24" fill="none" xmlns="http://www.w3.org/2000/svg">
<path d="M3 20.2554V4.25537C3 3.45972 3.3163 2.69689 3.87891 2.13428C4.44152 1.57167 5.20435 1.25537 6 1.25537H15C15.2652 1.25537 15.5195 1.3608 15.707 1.54834L20.707 6.54834C20.8946 6.73588 21 6.99015 21 7.25537V20.2554C21 21.051 20.6837 21.8139 20.1211 22.3765C19.5585 22.9391 18.7957 23.2554 18 23.2554H6C5.20435 23.2554 4.44152 22.9391 3.87891 22.3765C3.3163 21.8139 3 21.051 3 20.2554ZM15 6.25537C15 6.52059 15.1054 6.77487 15.293 6.9624C15.4805 7.14994 15.7348 7.25537 16 7.25537H18.5859L15 3.66943V6.25537ZM5 20.2554C5 20.5206 5.10543 20.7749 5.29297 20.9624C5.48051 21.1499 5.73478 21.2554 6 21.2554H18C18.2652 21.2554 18.5195 21.1499 18.707 20.9624C18.8946 20.7749 19 20.5206 19 20.2554V9.25537H16C15.2044 9.25537 14.4415 8.93907 13.8789 8.37646C13.3163 7.81386 13 7.05102 13 6.25537V3.25537H6C5.73478 3.25537 5.4805 3.3608 5.29297 3.54834C5.10543 3.73588 5 3.99015 5 4.25537V20.2554Z" fill="currentColor"/>
</svg>
