<svg width="24" height="24" viewBox="0 0 24 24" fill="none" xmlns="http://www.w3.org/2000/svg">
<path d="M19 17.4141L17.9971 16.4111C17.7326 16.1468 17.3739 15.998 17 15.998C16.6728 15.998 16.3573 16.1119 16.1064 16.3174L16.0029 16.4111L11.4141 21H18C18.2652 21 18.5195 20.8946 18.707 20.707C18.8946 20.5195 19 20.2652 19 20V17.4141ZM11 12C11 11.4477 10.5523 11 10 11C9.44772 11 9 11.4477 9 12C9 12.5523 9.44772 13 10 13C10.5523 13 11 12.5523 11 12ZM21 20C21 20.7957 20.6837 21.5585 20.1211 22.1211C19.5585 22.6837 18.7957 23 18 23H6C5.20435 23 4.44152 22.6837 3.87891 22.1211C3.3163 21.5585 3 20.7957 3 20V4C3 3.20435 3.3163 2.44152 3.87891 1.87891C4.44152 1.3163 5.20435 1 6 1H15C15.2652 1 15.5195 1.10543 15.707 1.29297L20.707 6.29297C20.8946 6.4805 21 6.73478 21 7V20ZM13 12C13 13.6569 11.6569 15 10 15C8.34315 15 7 13.6569 7 12C7 10.3431 8.34315 9 10 9C11.6569 9 13 10.3431 13 12ZM15 6C15 6.26522 15.1054 6.51949 15.293 6.70703C15.4805 6.89457 15.7348 7 16 7H18.5859L15 3.41406V6ZM5 20C5 20.2652 5.10543 20.5195 5.29297 20.707C5.48051 20.8946 5.73478 21 6 21H8.58594L14.5889 14.9971C15.2284 14.3577 16.0957 13.998 17 13.998C17.7228 13.998 18.4219 14.2278 19 14.6465V9H16C15.2044 9 14.4415 8.6837 13.8789 8.12109C13.3163 7.55849 13 6.79565 13 6V3H6C5.73478 3 5.4805 3.10543 5.29297 3.29297C5.10543 3.4805 5 3.73478 5 4V20Z" fill="#0D121A"/>
</svg>
