<svg width="24" height="24" viewBox="0 0 24 24" fill="none" xmlns="http://www.w3.org/2000/svg">
<path d="M20.4984 7.07344L13.9875 0.499219C13.882 0.39375 13.7672 0.304688 13.643 0.229688C13.6102 0.210938 13.5773 0.192188 13.5422 0.175781C13.5211 0.164062 13.4977 0.154687 13.4766 0.145312C13.2656 0.0515625 13.0336 0 12.7969 0H4.71094C3.77813 0 3 0.754688 3 1.6875V22.3125C3 23.2453 3.77813 24 4.71094 24H19.3125C20.2453 24 20.9766 23.2453 20.9766 22.3125V8.26172C20.9766 7.81641 20.8125 7.38984 20.4984 7.07344ZM13.6641 2.5875L18.3703 7.3125H13.6641V2.5875ZM19.2891 22.3125H4.6875V1.6875H11.9766V7.3125C11.9766 8.24531 12.7547 9 13.6875 9H19.2891V22.3125ZM8.20312 16.3242C8.20312 16.8914 8.02734 17.0602 7.68984 17.0602C7.47891 17.0602 7.25859 16.9242 7.10859 16.6266L6.39609 17.1562C6.71016 17.693 7.15313 17.9578 7.83281 17.9578C8.80781 17.9578 9.25781 17.257 9.25781 16.4062V13.5234H8.20312V16.3242ZM11.7492 13.5234H10.2422V17.8828H11.2734V16.4297H11.7797C12.6961 16.4297 13.493 15.9703 13.493 14.9391C13.493 13.8656 12.7078 13.5234 11.7492 13.5234ZM11.7305 15.6094H11.2734V14.3672H11.7C12.2039 14.3672 12.4828 14.5125 12.4828 14.9508C12.4828 15.375 12.2367 15.6094 11.7305 15.6094ZM16.0078 15.3984V16.2422H16.7109V16.9477C16.6172 17.0156 16.4531 17.0578 16.2961 17.0578C15.4922 17.0578 15.1078 16.5562 15.1078 15.6937C15.1078 14.8477 15.5695 14.3484 16.2117 14.3484C16.5703 14.3484 16.7977 14.4937 17.0086 14.6859L17.5641 14.0227C17.2664 13.7227 16.8117 13.4555 16.1766 13.4555C15.0141 13.4555 14.0414 14.2828 14.0414 15.7289C14.0414 17.1984 14.9789 17.9578 16.1859 17.9578C16.793 17.9578 17.3391 17.7188 17.6273 17.4281V15.3984H16.0078Z" fill="#0D121A"/>
</svg>
