<svg width="16" height="16" viewBox="0 0 16 16" fill="none" xmlns="http://www.w3.org/2000/svg">
<path d="M13.3359 13.3333C13.6896 13.3333 14.0287 13.1929 14.2787 12.9428C14.5288 12.6928 14.6693 12.3536 14.6693 12V5.33333C14.6693 4.97971 14.5288 4.64057 14.2787 4.39052C14.0287 4.14048 13.6896 4 13.3359 4H8.06927C7.84628 4.00219 7.6263 3.94841 7.42947 3.84359C7.23264 3.73877 7.06524 3.58625 6.9426 3.4L6.4026 2.6C6.2812 2.41565 6.11592 2.26432 5.9216 2.1596C5.72729 2.05488 5.51001 2.00004 5.28927 2H2.66927C2.31565 2 1.97651 2.14048 1.72646 2.39052C1.47641 2.64057 1.33594 2.97971 1.33594 3.33333V12C1.33594 12.3536 1.47641 12.6928 1.72646 12.9428C1.97651 13.1929 2.31565 13.3333 2.66927 13.3333H13.3359Z" stroke="#1D2027" stroke-width="1.33333" stroke-linecap="round" stroke-linejoin="round"/>
</svg>
