<svg viewBox="0 0 24 24" fill="none" xmlns="http://www.w3.org/2000/svg">
<path d="M8.29297 12.293C8.68349 11.9024 9.31651 11.9024 9.70703 12.293C10.0976 12.6835 10.0976 13.3165 9.70703 13.707L5.70703 17.707C5.31651 18.0976 4.68349 18.0976 4.29297 17.707L2.29297 15.707C1.90245 15.3165 1.90245 14.6835 2.29297 14.293C2.68349 13.9024 3.31651 13.9024 3.70703 14.293L5 15.5859L8.29297 12.293ZM3 8V4C3 3.20435 3.3163 2.44152 3.87891 1.87891C4.44152 1.3163 5.20435 1 6 1H15C15.2652 1 15.5195 1.10543 15.707 1.29297L20.707 6.29297C20.8946 6.4805 21 6.73478 21 7V20C21 20.7957 20.6837 21.5585 20.1211 22.1211C19.5585 22.6837 18.7957 23 18 23H4C3.44772 23 3 22.5523 3 22C3 21.4477 3.44772 21 4 21H18C18.2652 21 18.5195 20.8946 18.707 20.707C18.8946 20.5195 19 20.2652 19 20V9H16C15.2044 9 14.4415 8.6837 13.8789 8.12109C13.3163 7.55849 13 6.79565 13 6V3H6C5.73478 3 5.48051 3.10543 5.29297 3.29297C5.10543 3.4805 5 3.73478 5 4V8C5 8.55228 4.55229 9 4 9C3.44772 9 3 8.55228 3 8ZM15 6C15 6.26522 15.1054 6.51949 15.293 6.70703C15.4805 6.89457 15.7348 7 16 7H18.5859L15 3.41406V6Z" fill="currentColor"/>
</svg>
