<svg width="24" height="24" viewBox="0 0 24 24" fill="none" xmlns="http://www.w3.org/2000/svg">
<path d="M3 20V4C3 3.20435 3.3163 2.44152 3.87891 1.87891C4.44152 1.3163 5.20435 1 6 1H15C15.2652 1 15.5195 1.10543 15.707 1.29297L20.707 6.29297C20.8946 6.4805 21 6.73478 21 7V20C21 20.7957 20.6837 21.5585 20.1211 22.1211C19.5585 22.6837 18.7957 23 18 23H6C5.20435 23 4.44152 22.6837 3.87891 22.1211C3.3163 21.5585 3 20.7957 3 20ZM13.793 11.793C14.1835 11.4024 14.8165 11.4024 15.207 11.793C15.5976 12.1835 15.5976 12.8165 15.207 13.207L13.4141 15L15.207 16.793C15.5976 17.1835 15.5976 17.8165 15.207 18.207C14.8165 18.5976 14.1835 18.5976 13.793 18.207L12 16.4141L10.207 18.207C9.81651 18.5976 9.18349 18.5976 8.79297 18.207C8.40244 17.8165 8.40244 17.1835 8.79297 16.793L10.5859 15L8.79297 13.207C8.40244 12.8165 8.40244 12.1835 8.79297 11.793C9.18349 11.4024 9.81651 11.4024 10.207 11.793L12 13.5859L13.793 11.793ZM15 6C15 6.26522 15.1054 6.51949 15.293 6.70703C15.4805 6.89457 15.7348 7 16 7H18.5859L15 3.41406V6ZM5 20C5 20.2652 5.10543 20.5195 5.29297 20.707C5.48051 20.8946 5.73478 21 6 21H18C18.2652 21 18.5195 20.8946 18.707 20.707C18.8946 20.5195 19 20.2652 19 20V9H16C15.2044 9 14.4415 8.6837 13.8789 8.12109C13.3163 7.55849 13 6.79565 13 6V3H6C5.73478 3 5.4805 3.10543 5.29297 3.29297C5.10543 3.4805 5 3.73478 5 4V20Z" fill="#0D121A"/>
</svg>
