<svg width="24" height="24" viewBox="0 0 24 24" fill="none" xmlns="http://www.w3.org/2000/svg">
<path d="M20.0297 6.76406L14.9859 1.72031C14.8453 1.57969 14.6555 1.5 14.4562 1.5H4.5C4.08516 1.5 3.75 1.83516 3.75 2.25V21.75C3.75 22.1648 4.08516 22.5 4.5 22.5H19.5C19.9148 22.5 20.25 22.1648 20.25 21.75V7.29609C20.25 7.09687 20.1703 6.90469 20.0297 6.76406ZM18.5203 7.64062H14.1094V3.22969L18.5203 7.64062ZM18.5625 20.8125H5.4375V3.1875H12.5156V8.25C12.5156 8.51107 12.6193 8.76145 12.8039 8.94606C12.9885 9.13066 13.2389 9.23438 13.5 9.23438H18.5625V20.8125ZM12.3773 11.0625H11.6227C11.4937 11.0625 11.3812 11.1492 11.3508 11.2758L10.1859 15.9375L9.10547 11.2805C9.075 11.1539 8.9625 11.0625 8.83125 11.0625H8.00156C7.95845 11.0626 7.91593 11.0725 7.87727 11.0916C7.83862 11.1107 7.80486 11.1384 7.77859 11.1726C7.75233 11.2068 7.73426 11.2465 7.72578 11.2888C7.71731 11.3311 7.71864 11.3747 7.72969 11.4164L9.46875 17.8852C9.50156 18.007 9.61406 18.0938 9.74063 18.0938H10.4906C10.6172 18.0938 10.7297 18.0094 10.7625 17.8852L12 13.268L13.2375 17.8852C13.2703 18.007 13.3828 18.0938 13.5094 18.0938H14.2547C14.3813 18.0938 14.4937 18.0094 14.5266 17.8852L16.2703 11.4164C16.2813 11.3747 16.2825 11.3311 16.274 11.2889C16.2655 11.2467 16.2474 11.2069 16.2212 11.1728C16.1949 11.1386 16.1612 11.1109 16.1226 11.0918C16.084 11.0727 16.0415 11.0627 15.9984 11.0625H15.1641C15.0328 11.0625 14.9203 11.1539 14.8898 11.2805L13.8164 15.9469L12.6492 11.2758C12.6188 11.1492 12.5062 11.0625 12.3773 11.0625Z" fill="#0D121A"/>
</svg>
