<svg width="24" height="24" viewBox="0 0 24 24" fill="none" xmlns="http://www.w3.org/2000/svg">
<path d="M7 14C7 12.8954 6.10457 12 5 12C3.89543 12 3 12.8954 3 14C3 15.1046 3.89543 16 5 16C6.10457 16 7 15.1046 7 14ZM3 7V4C3 3.20435 3.3163 2.44152 3.87891 1.87891C4.44152 1.3163 5.20435 1 6 1H15C15.2652 1 15.5195 1.10543 15.707 1.29297L20.707 6.29297C20.8946 6.4805 21 6.73478 21 7V20C21 20.7957 20.6837 21.5585 20.1211 22.1211C19.5585 22.6837 18.7957 23 18 23H5.99219C5.46697 22.9986 4.9516 22.8589 4.49707 22.5957C4.04251 22.3325 3.665 21.9549 3.40234 21.5C3.12625 21.0218 3.28947 20.41 3.76758 20.1338C4.24584 19.8577 4.85762 20.0218 5.13379 20.5C5.22134 20.6516 5.3475 20.7775 5.49902 20.8652C5.65043 20.9529 5.82212 20.9995 5.99707 21H18C18.2652 21 18.5195 20.8946 18.707 20.707C18.8946 20.5195 19 20.2652 19 20V9H16C15.2044 9 14.4415 8.6837 13.8789 8.12109C13.3163 7.55849 13 6.79565 13 6V3H6C5.73478 3 5.4805 3.10543 5.29297 3.29297C5.10543 3.4805 5 3.73478 5 4V7C5 7.55228 4.55228 8 4 8C3.44772 8 3 7.55228 3 7ZM9 14C9 14.7417 8.79715 15.4358 8.44531 16.0312L9.70703 17.293C10.0976 17.6835 10.0976 18.3165 9.70703 18.707C9.31651 19.0976 8.68349 19.0976 8.29297 18.707L7.03125 17.4453C6.43577 17.7971 5.74175 18 5 18C2.79086 18 1 16.2091 1 14C1 11.7909 2.79086 10 5 10C7.20914 10 9 11.7909 9 14ZM15 6C15 6.26522 15.1054 6.51949 15.293 6.70703C15.4805 6.89457 15.7348 7 16 7H18.5859L15 3.41406V6Z" fill="#0D121A"/>
</svg>
