<svg width="24" height="24" viewBox="0 0 24 24" fill="none" xmlns="http://www.w3.org/2000/svg">
<path d="M1 4.9999C1.00003 4.20429 1.31632 3.4414 1.87891 2.87881C2.44151 2.31623 3.20437 1.9999 4 1.9999H7.90039V2.00088C8.39863 1.99769 8.89021 2.11819 9.33008 2.35244C9.76929 2.58644 10.1427 2.92626 10.418 3.34072H10.4189L11.2285 4.54092L11.2354 4.54971C11.3264 4.68797 11.45 4.80222 11.5957 4.88076C11.7414 4.9593 11.9048 4.99988 12.0703 4.9999H18C18.7956 4.9999 19.5585 5.31623 20.1211 5.87881C20.6837 6.4414 21 7.20429 21 7.9999V9.16983C21.1091 9.20823 21.2159 9.25358 21.3203 9.30459C21.7321 9.50581 22.0931 9.79897 22.374 10.161C22.6548 10.523 22.8488 10.9448 22.9414 11.3935C23.0341 11.8422 23.0228 12.3062 22.9082 12.7499L21.3682 18.7489V18.7499C21.2011 19.3971 20.8228 19.9702 20.293 20.3778C19.7649 20.7841 19.1163 21.0019 18.4502 20.9989V20.9999H4C3.20435 20.9999 2.44152 20.6836 1.87891 20.121C1.31633 19.5584 1 18.7955 1 17.9999V4.9999ZM3 17.9999C3 18.2651 3.10546 18.5194 3.29297 18.7069C3.48051 18.8945 3.73478 18.9999 4 18.9999H18.457C18.6797 19.0013 18.8967 18.9287 19.0732 18.7929C19.2499 18.657 19.3759 18.4657 19.4316 18.2499L20.9717 12.2519V12.2499C21.0099 12.102 21.0133 11.9473 20.9824 11.7978C20.9515 11.6482 20.8876 11.5073 20.7939 11.3866C20.7003 11.2659 20.5796 11.1685 20.4424 11.1015C20.3052 11.0345 20.1546 10.9997 20.002 10.9999H9.2627L9.12793 11.0116C8.99472 11.033 8.86678 11.0816 8.75195 11.1542C8.59877 11.251 8.47509 11.3879 8.39355 11.5497L8.38867 11.5595L6.88867 14.4599C6.63498 14.9501 6.03142 15.1419 5.54102 14.8886C5.05062 14.6349 4.85795 14.0314 5.11133 13.5409L6.61133 10.6405C6.85599 10.1589 7.22688 9.7525 7.68359 9.46377C8.14327 9.17322 8.67314 9.01251 9.2168 8.9999H19V7.9999C19 7.73472 18.8945 7.48039 18.707 7.29287C18.5195 7.10537 18.2652 6.9999 18 6.9999H12.0703C11.5737 6.99982 11.0846 6.87611 10.6475 6.64053C10.2103 6.40491 9.83762 6.06508 9.56445 5.6503V5.64932L8.76074 4.45987L8.75488 4.4501C8.6629 4.31041 8.53727 4.19571 8.38965 4.11709C8.24215 4.03856 8.07725 3.99833 7.91016 3.9999H4C3.73481 3.9999 3.4805 4.10537 3.29297 4.29287C3.10545 4.48039 3.00003 4.73472 3 4.9999V17.9999Z" fill="#0D121A"/>
</svg>
