<svg width="24" height="24" viewBox="0 0 24 24" fill="none" xmlns="http://www.w3.org/2000/svg">
<path d="M21 11H3V18C3 18.2652 3.10543 18.5195 3.29297 18.707C3.48051 18.8946 3.73478 19 4 19H20C20.2652 19 20.5195 18.8946 20.707 18.707C20.8946 18.5195 21 18.2652 21 18V11ZM23 18C23 18.7957 22.6837 19.5585 22.1211 20.1211C21.5585 20.6837 20.7957 21 20 21H4C3.20435 21 2.44152 20.6837 1.87891 20.1211C1.3163 19.5585 1 18.7956 1 18V5C1 4.20435 1.3163 3.44152 1.87891 2.87891C2.44152 2.3163 3.20435 2 4 2H7.92969C8.42628 2.00008 8.91537 2.12381 9.35254 2.35938C9.78972 2.59498 10.1624 2.93486 10.4355 3.34961H10.4346L11.2393 4.54004L11.2451 4.5498C11.3371 4.68949 11.4627 4.8042 11.6104 4.88281C11.7579 4.96136 11.9227 5.00158 12.0898 5H20C20.7957 5 21.5585 5.3163 22.1211 5.87891C22.6837 6.44151 23 7.20435 23 8V18ZM3 9H21V8C21 7.73478 20.8946 7.48051 20.707 7.29297C20.5195 7.10543 20.2652 7 20 7H12.0996V6.99902C11.6014 7.00222 11.1098 6.88269 10.6699 6.64844C10.2304 6.41434 9.85641 6.07399 9.58105 5.65918L8.77148 4.45996L8.76465 4.4502C8.67366 4.31204 8.54989 4.19865 8.4043 4.12012C8.25856 4.04158 8.09524 4.00003 7.92969 4H4C3.73478 4 3.4805 4.10543 3.29297 4.29297C3.10543 4.4805 3 4.73478 3 5V9Z" fill="#0D121A"/>
</svg>
