<svg width="24" height="24" viewBox="0 0 24 24" fill="none" xmlns="http://www.w3.org/2000/svg">
<path d="M20 19C20.5523 19 21 19.4477 21 20C21 20.5523 20.5523 21 20 21H4C3.44772 21 3 20.5523 3 20C3 19.4477 3.44772 19 4 19H20ZM12 3C12.3788 3 12.7251 3.21395 12.8945 3.55273L18.8945 15.5527C19.1415 16.0467 18.9412 16.6475 18.4473 16.8945C17.9533 17.1415 17.3525 16.9412 17.1055 16.4473L15.3818 13H8.61816L6.89453 16.4473C6.64754 16.9412 6.04671 17.1415 5.55273 16.8945C5.05876 16.6475 4.85848 16.0467 5.10547 15.5527L11.1055 3.55273L11.1768 3.43164C11.3617 3.16367 11.6685 3 12 3ZM9.61816 11H14.3818L12 6.23633L9.61816 11Z" fill="#0D121A"/>
</svg>
