<svg width="24" height="24" viewBox="0 0 24 24" fill="none" xmlns="http://www.w3.org/2000/svg">
<path d="M17.625 2.34375C16.1766 2.34375 15 3.52031 15 4.96875C15 6.08672 15.7008 7.04297 16.6875 7.42031V8.06719L12 14.0953L7.3125 8.06719V7.42031C8.29922 7.04297 9 6.08672 9 4.96875C9 3.52031 7.82344 2.34375 6.375 2.34375C4.92656 2.34375 3.75 3.52031 3.75 4.96875C3.75 6.15469 4.54219 7.16016 5.625 7.48359V8.28984C5.625 8.51719 5.70234 8.74219 5.84297 8.92266L11.1562 15.757V16.5445C10.1203 16.8961 9.375 17.8781 9.375 19.0312C9.375 20.4797 10.5516 21.6562 12 21.6562C13.4484 21.6562 14.625 20.4797 14.625 19.0312C14.625 17.8781 13.8797 16.8984 12.8438 16.5445V15.757L18.157 8.92266C18.2977 8.74219 18.375 8.51719 18.375 8.28984V7.48359C19.4578 7.16016 20.25 6.15469 20.25 4.96875C20.25 3.52031 19.0734 2.34375 17.625 2.34375ZM5.25 4.96875C5.25601 4.67436 5.37718 4.39405 5.5875 4.18798C5.79782 3.9819 6.08055 3.86648 6.375 3.86648C6.66945 3.86648 6.95218 3.9819 7.1625 4.18798C7.37282 4.39405 7.49399 4.67436 7.5 4.96875C7.49399 5.26314 7.37282 5.54345 7.1625 5.74952C6.95218 5.9556 6.66945 6.07102 6.375 6.07102C6.08055 6.07102 5.79782 5.9556 5.5875 5.74952C5.37718 5.54345 5.25601 5.26314 5.25 4.96875ZM13.125 19.0312C13.119 19.3256 12.9978 19.6059 12.7875 19.812C12.5772 20.0181 12.2945 20.1335 12 20.1335C11.7055 20.1335 11.4228 20.0181 11.2125 19.812C11.0022 19.6059 10.881 19.3256 10.875 19.0312C10.881 18.7369 11.0022 18.4566 11.2125 18.2505C11.4228 18.0444 11.7055 17.929 12 17.929C12.2945 17.929 12.5772 18.0444 12.7875 18.2505C12.9978 18.4566 13.119 18.7369 13.125 19.0312ZM17.625 6.09375C17.3306 6.08774 17.0503 5.96657 16.8442 5.75625C16.6382 5.54593 16.5227 5.2632 16.5227 4.96875C16.5227 4.6743 16.6382 4.39157 16.8442 4.18125C17.0503 3.97093 17.3306 3.84976 17.625 3.84375C17.9194 3.84976 18.1997 3.97093 18.4058 4.18125C18.6118 4.39157 18.7273 4.6743 18.7273 4.96875C18.7273 5.2632 18.6118 5.54593 18.4058 5.75625C18.1997 5.96657 17.9194 6.08774 17.625 6.09375Z" fill="#0D121A"/>
</svg>
