<svg width="24" height="24" viewBox="0 0 24 24" fill="none" xmlns="http://www.w3.org/2000/svg">
<path d="M13 14.124C13 13.9764 12.9715 13.8297 12.915 13.6934C12.8585 13.5571 12.7752 13.4334 12.6709 13.3291C12.5666 13.2248 12.4429 13.1415 12.3066 13.085C12.1703 13.0285 12.0236 13 11.876 13C11.7286 13 11.5825 13.0286 11.4463 13.085C11.344 13.1273 11.2483 13.1849 11.1631 13.2549L11.0811 13.3291L6.07129 18.3408C5.95241 18.4596 5.86547 18.6072 5.81836 18.7686L5.23633 20.7617L7.23047 20.1807C7.39177 20.1336 7.53842 20.0466 7.65723 19.9277H7.6582L12.6709 14.9189L12.7451 14.8369C12.8151 14.7517 12.8727 14.656 12.915 14.5537C12.9714 14.4175 13 14.2714 13 14.124ZM9 3V5H15V3H9ZM15 14.124C15 14.5342 14.9196 14.9404 14.7627 15.3193C14.6254 15.6509 14.4318 15.9563 14.1914 16.2217L14.085 16.333L9.07227 21.3428L9.07129 21.3418C8.75953 21.6536 8.3839 21.8925 7.9707 22.042L7.79102 22.1006L4.9209 22.9385C4.66288 23.0137 4.38926 23.0178 4.12891 22.9512C3.86842 22.8844 3.63057 22.7487 3.44043 22.5586C3.25029 22.3685 3.11459 22.1306 3.04785 21.8701C2.98118 21.6098 2.98534 21.3361 3.06055 21.0781L3.89844 18.208L3.95703 18.0283C4.10656 17.6149 4.34521 17.2386 4.65723 16.9268L9.66699 11.915C9.9571 11.6249 10.3016 11.3943 10.6807 11.2373C11.0596 11.0804 11.4658 11 11.876 11C12.2861 11 12.6924 11.0804 13.0713 11.2373C13.4503 11.3943 13.7949 11.6249 14.085 11.915C14.3751 12.2051 14.6057 12.5497 14.7627 12.9287C14.9196 13.3077 15 13.7139 15 14.124ZM18 3C18.7956 3 19.5585 3.3163 20.1211 3.87891C20.6837 4.44152 21 5.20435 21 6V20C21 20.7957 20.6837 21.5585 20.1211 22.1211C19.5585 22.6837 18.7957 23 18 23H12.5C11.9477 23 11.5 22.5523 11.5 22C11.5 21.4477 11.9477 21 12.5 21H18C18.2652 21 18.5195 20.8946 18.707 20.707C18.8946 20.5195 19 20.2652 19 20V6C19 5.73478 18.8946 5.48051 18.707 5.29297C18.5195 5.10543 18.2652 5 18 5H17C17 6.10457 16.1046 7 15 7H9C7.89543 7 7 6.10457 7 5H6C5.73478 5 5.4805 5.10543 5.29297 5.29297C5.10543 5.4805 5 5.73478 5 6V13.5C5 14.0523 4.55228 14.5 4 14.5C3.44772 14.5 3 14.0523 3 13.5V6C3 5.20435 3.3163 4.44152 3.87891 3.87891C4.44152 3.3163 5.20435 3 6 3H7C7 1.89543 7.89543 1 9 1H15C16.1046 1 17 1.89543 17 3H18Z" fill="#0D121A"/>
</svg>
