<svg width="24" height="24" viewBox="0 0 24 24" fill="none" xmlns="http://www.w3.org/2000/svg">
<path d="M6.75 9.86719C6.75 10.1656 6.86853 10.4517 7.0795 10.6627C7.29048 10.8737 7.57663 10.9922 7.875 10.9922C8.17337 10.9922 8.45952 10.8737 8.6705 10.6627C8.88147 10.4517 9 10.1656 9 9.86719C9 9.56882 8.88147 9.28267 8.6705 9.07169C8.45952 8.86071 8.17337 8.74219 7.875 8.74219C7.57663 8.74219 7.29048 8.86071 7.0795 9.07169C6.86853 9.28267 6.75 9.56882 6.75 9.86719ZM15 9.86719C15 10.1656 15.1185 10.4517 15.3295 10.6627C15.5405 10.8737 15.8266 10.9922 16.125 10.9922C16.4234 10.9922 16.7095 10.8737 16.9205 10.6627C17.1315 10.4517 17.25 10.1656 17.25 9.86719C17.25 9.56882 17.1315 9.28267 16.9205 9.07169C16.7095 8.86071 16.4234 8.74219 16.125 8.74219C15.8266 8.74219 15.5405 8.86071 15.3295 9.07169C15.1185 9.28267 15 9.56882 15 9.86719ZM12 1.5C6.20156 1.5 1.5 6.20156 1.5 12C1.5 17.7984 6.20156 22.5 12 22.5C17.7984 22.5 22.5 17.7984 22.5 12C22.5 6.20156 17.7984 1.5 12 1.5ZM18.1641 18.1641C17.3625 18.9656 16.4297 19.5938 15.3914 20.0344C14.3203 20.4891 13.1789 20.7188 12 20.7188C10.8211 20.7188 9.67969 20.4891 8.60625 20.0344C7.56954 19.5965 6.62785 18.9613 5.83359 18.1641C5.03203 17.3625 4.40391 16.4297 3.96328 15.3914C3.51094 14.3203 3.28125 13.1789 3.28125 12C3.28125 10.8211 3.51094 9.67969 3.96562 8.60625C4.40346 7.56954 5.03868 6.62785 5.83594 5.83359C6.6375 5.03203 7.57031 4.40391 8.60859 3.96328C9.67969 3.51094 10.8211 3.28125 12 3.28125C13.1789 3.28125 14.3203 3.51094 15.3937 3.96562C16.4305 4.40346 17.3721 5.03868 18.1664 5.83594C18.968 6.6375 19.5961 7.57031 20.0367 8.60859C20.4891 9.67969 20.7188 10.8211 20.7188 12C20.7188 13.1789 20.4891 14.3203 20.0344 15.3937C19.5971 16.4301 18.9618 17.3711 18.1641 18.1641ZM12 12.4922C9.99609 12.4922 8.35313 14.0695 8.25 16.0453C8.24873 16.0707 8.25264 16.0961 8.26149 16.1199C8.27034 16.1438 8.28395 16.1656 8.30149 16.184C8.31903 16.2024 8.34013 16.2171 8.36351 16.2271C8.3869 16.2371 8.41207 16.2422 8.4375 16.2422H9.56484C9.66328 16.2422 9.74766 16.1672 9.75469 16.0687C9.84375 14.9086 10.8164 13.9922 12 13.9922C13.1836 13.9922 14.1586 14.9086 14.2453 16.0687C14.2523 16.1672 14.3367 16.2422 14.4352 16.2422H15.5625C15.5879 16.2422 15.6131 16.2371 15.6365 16.2271C15.6599 16.2171 15.681 16.2024 15.6985 16.184C15.716 16.1656 15.7297 16.1438 15.7385 16.1199C15.7474 16.0961 15.7513 16.0707 15.75 16.0453C15.6469 14.0695 14.0039 12.4922 12 12.4922Z" fill="#0D121A"/>
</svg>
