<svg width="24" height="24" viewBox="0 0 24 24" fill="none" xmlns="http://www.w3.org/2000/svg">
<path d="M8.29297 14.793C8.68349 14.4024 9.31651 14.4024 9.70703 14.793C10.0976 15.1835 10.0976 15.8165 9.70703 16.207L5.41406 20.5H7.7998C8.35209 20.5 8.7998 20.9477 8.7998 21.5C8.7998 22.0523 8.35209 22.5 7.7998 22.5H3C2.44772 22.5 2 22.0523 2 21.5V16.7002C2 16.1479 2.44772 15.7002 3 15.7002C3.55228 15.7002 4 16.1479 4 16.7002V19.0859L8.29297 14.793ZM14.293 14.793C14.6835 14.4024 15.3165 14.4024 15.707 14.793L20 19.0859V16.7002C20 16.1479 20.4477 15.7002 21 15.7002C21.5523 15.7002 22 16.1479 22 16.7002V21.5C22 22.0523 21.5523 22.5 21 22.5H16.2002C15.6479 22.5 15.2002 22.0523 15.2002 21.5C15.2002 20.9477 15.6479 20.5 16.2002 20.5H18.5859L14.293 16.207C13.9024 15.8165 13.9024 15.1835 14.293 14.793ZM2 8.2998V3.5C2 2.94772 2.44772 2.5 3 2.5H7.7998C8.35209 2.5 8.7998 2.94772 8.7998 3.5C8.7998 4.05228 8.35209 4.5 7.7998 4.5H5.41406L9.70703 8.79297C10.0976 9.18349 10.0976 9.81651 9.70703 10.207C9.31651 10.5976 8.68349 10.5976 8.29297 10.207L4 5.91406V8.2998C4 8.85209 3.55228 9.2998 3 9.2998C2.44772 9.2998 2 8.85209 2 8.2998ZM22 8.2998C22 8.85209 21.5523 9.2998 21 9.2998C20.4477 9.2998 20 8.85209 20 8.2998V5.91406L15.707 10.207C15.3165 10.5976 14.6835 10.5976 14.293 10.207C13.9024 9.81651 13.9024 9.18349 14.293 8.79297L18.5859 4.5H16.2002C15.6479 4.5 15.2002 4.05228 15.2002 3.5C15.2002 2.94772 15.6479 2.5 16.2002 2.5H21C21.5523 2.5 22 2.94772 22 3.5V8.2998Z" fill="#0D121A"/>
</svg>
