<svg width="24" height="24" viewBox="0 0 24 24" fill="none" xmlns="http://www.w3.org/2000/svg">
<path d="M9.16351 5.64556C9.14476 5.49087 8.95492 5.42525 8.84476 5.5354L7.82054 6.55962L4.68695 3.42837C4.65171 3.39348 4.60412 3.3739 4.55453 3.3739C4.50493 3.3739 4.45734 3.39348 4.4221 3.42837L3.42835 4.41978C3.39346 4.45502 3.37389 4.50261 3.37389 4.5522C3.37389 4.60179 3.39346 4.64938 3.42835 4.68462L6.56195 7.81821L5.53304 8.84712C5.50826 8.87203 5.49096 8.90339 5.48312 8.93764C5.47528 8.97189 5.4772 9.00765 5.48868 9.04086C5.50016 9.07407 5.52072 9.10339 5.54804 9.12549C5.57536 9.14759 5.60833 9.16158 5.6432 9.16587L9.39789 9.60884C9.51742 9.6229 9.62054 9.52212 9.60648 9.40025L9.16351 5.64556ZM9.40023 14.3924L5.6432 14.8354C5.48851 14.8542 5.42289 15.044 5.53304 15.1542L6.56195 16.1831L3.42835 19.312C3.39346 19.3472 3.37389 19.3948 3.37389 19.4444C3.37389 19.494 3.39346 19.5416 3.42835 19.5768L4.4221 20.5682C4.49476 20.6409 4.61429 20.6409 4.68695 20.5682L7.82054 17.437L8.84476 18.4612C8.86967 18.486 8.90103 18.5033 8.93528 18.5111C8.96953 18.5189 9.00529 18.517 9.0385 18.5055C9.07171 18.4941 9.10103 18.4735 9.12313 18.4462C9.14523 18.4189 9.15922 18.3859 9.16351 18.351L9.60648 14.5987C9.62054 14.4792 9.51976 14.3784 9.40023 14.3924ZM14.5987 9.6065L18.3557 9.16353C18.5104 9.14478 18.576 8.95493 18.4659 8.84478L17.4369 7.81821L20.5705 4.68696C20.6432 4.61431 20.6432 4.49478 20.5705 4.42212L19.5768 3.43071C19.5416 3.39582 19.494 3.37625 19.4444 3.37625C19.3948 3.37625 19.3472 3.39582 19.3119 3.43071L16.1784 6.55962L15.1541 5.5354C15.1292 5.51062 15.0979 5.49332 15.0636 5.48548C15.0294 5.47764 14.9936 5.47956 14.9604 5.49104C14.9272 5.50252 14.8979 5.52308 14.8758 5.5504C14.8537 5.57771 14.8397 5.61068 14.8354 5.64556L14.3924 9.3979C14.3784 9.51978 14.4791 9.62056 14.5987 9.6065ZM17.4369 16.1807L18.4659 15.1518C18.4906 15.1269 18.5079 15.0955 18.5158 15.0613C18.5236 15.027 18.5217 14.9913 18.5102 14.9581C18.4987 14.9249 18.4782 14.8955 18.4509 14.8734C18.4235 14.8513 18.3906 14.8373 18.3557 14.8331L14.601 14.3901C14.4815 14.376 14.3784 14.4768 14.3924 14.5987L14.8354 18.3534C14.8541 18.5081 15.044 18.5737 15.1541 18.4635L16.1784 17.4393L19.3119 20.5706C19.3846 20.6432 19.5041 20.6432 19.5768 20.5706L20.5705 19.5792C20.6432 19.5065 20.6432 19.387 20.5705 19.3143L17.4369 16.1807Z" fill="#0D121A"/>
</svg>
