<svg width="24" height="24" viewBox="0 0 24 24" fill="none" xmlns="http://www.w3.org/2000/svg">
<path d="M19.7112 8.67188C19.7815 8.59454 19.7745 8.47735 19.6972 8.40704C19.662 8.37657 19.6175 8.35782 19.5729 8.35782H17.8714C17.8151 8.35782 17.7636 8.38126 17.7284 8.42344L14.8479 11.8266C14.78 11.9063 14.6628 11.9156 14.5831 11.8477C14.562 11.8289 14.5456 11.8078 14.5339 11.782L13.0456 8.47032C13.0151 8.40235 12.9495 8.36016 12.8745 8.36016H8.92294L8.94403 8.25001L9.13153 7.2586C9.37762 5.96016 10.0222 5.35079 11.1425 5.35079C11.5784 5.35079 11.9745 5.39063 12.2862 5.46094L12.6167 3.89532C12.087 3.78516 11.7917 3.75235 11.33 3.75235C8.90887 3.75235 7.66434 4.79063 7.20731 7.20469L6.987 8.36251H4.6995C4.61043 8.36251 4.53309 8.42579 4.51668 8.51251L4.26356 9.72657C4.24247 9.82735 4.30809 9.92813 4.40887 9.94923C4.42059 9.95157 4.43465 9.95391 4.44637 9.95391H6.65653L4.57059 20.0297C4.5495 20.1305 4.61512 20.2313 4.7159 20.2524C4.72762 20.2547 4.74168 20.257 4.7534 20.257H6.30497C6.39403 20.257 6.47137 20.1938 6.48778 20.107L8.59012 9.95626H11.7729L13.3714 13.2164C13.4042 13.2844 13.3948 13.3664 13.3432 13.4227L9.11044 18.1805C9.04247 18.2578 9.0495 18.3774 9.12684 18.4453C9.162 18.4758 9.20653 18.4922 9.25106 18.4922H10.955C11.0112 18.4922 11.0628 18.4688 11.0979 18.4266L13.9972 14.9883C14.0628 14.9086 14.1823 14.8992 14.262 14.9649C14.2831 14.9836 14.2995 15.0047 14.3112 15.0305L15.8534 18.375C15.8839 18.4406 15.9495 18.4852 16.0245 18.4852H17.5386C17.6417 18.4852 17.7261 18.4008 17.7261 18.2977C17.7261 18.2695 17.719 18.2414 17.7073 18.2156L15.4761 13.5539C15.4432 13.4859 15.455 13.4039 15.5065 13.3477L19.7112 8.67188Z" fill="#0D121A"/>
</svg>
