<svg width="24" height="24" viewBox="0 0 24 24" fill="none" xmlns="http://www.w3.org/2000/svg">
<path d="M22.4062 16.0898L22.4016 16.0851C21.368 13.8984 19.7672 12.7734 17.6367 12.7734C15.5062 12.7734 13.9055 13.9008 12.8695 16.0851V16.0875C12.743 16.357 12.743 16.6711 12.8695 16.9406C13.9055 19.125 15.5062 20.25 17.6367 20.25C19.7672 20.25 21.368 19.1226 22.4039 16.9383C22.5305 16.6687 22.5305 16.357 22.4062 16.0898ZM17.6367 18.75C16.1812 18.75 15.1195 18.0469 14.3297 16.5117C15.1172 14.9765 16.1812 14.2734 17.6367 14.2734C19.0922 14.2734 20.1539 14.9765 20.9437 16.5117C20.1562 18.0469 19.0922 18.75 17.6367 18.75Z" fill="#0D121A"/>
<path d="M16.3359 16.5234C16.3359 16.8715 16.4742 17.2054 16.7204 17.4515C16.9665 17.6976 17.3003 17.8359 17.6484 17.8359C17.9965 17.8359 18.3304 17.6976 18.5765 17.4515C18.8227 17.2054 18.9609 16.8715 18.9609 16.5234C18.9609 16.1753 18.8227 15.8415 18.5765 15.5953C18.3304 15.3492 17.9965 15.2109 17.6484 15.2109C17.3003 15.2109 16.9665 15.3492 16.7204 15.5953C16.4742 15.8415 16.3359 16.1753 16.3359 16.5234Z" fill="#0D121A"/>
<path d="M3.1875 5.43748H19.6875V11.3672H21.375V4.49998C21.375 4.08514 21.0398 3.74998 20.625 3.74998H2.25C1.83516 3.74998 1.5 4.08514 1.5 4.49998V16.6875C1.5 17.1023 1.83516 17.4375 2.25 17.4375H10.5V15.75H3.1875V5.43748Z" fill="#0D121A"/>
<path d="M16.989 7.92334L16.1265 7.06084C16.0538 6.98818 15.9343 6.98818 15.8616 7.06084L11.5538 11.3733L9.53586 9.35303C9.4632 9.28037 9.34367 9.28037 9.27102 9.35303L5.88898 12.7351C5.81633 12.8077 5.81633 12.9272 5.88898 12.9999L6.75148 13.8624C6.82414 13.9351 6.94367 13.9351 7.01633 13.8624L9.40227 11.4765L11.4202 13.4968C11.4929 13.5694 11.6124 13.5694 11.6851 13.4968L16.989 8.18818C17.064 8.11553 17.064 7.99599 16.989 7.92334Z" fill="#0D121A"/>
</svg>
