<svg width="24" height="24" viewBox="0 0 24 24" fill="none" xmlns="http://www.w3.org/2000/svg">
<path d="M7.3157 13.8624C7.38836 13.9351 7.50789 13.9351 7.58054 13.8624L9.96648 11.4765L11.9845 13.4968C12.0571 13.5694 12.1766 13.5694 12.2493 13.4968L17.5532 8.18818C17.6259 8.11553 17.6259 7.99599 17.5532 7.92334L16.6907 7.06084C16.6181 6.98818 16.4985 6.98818 16.4259 7.06084L12.118 11.3733L10.1001 9.35303C10.0274 9.28037 9.90789 9.28037 9.83523 9.35303L6.4532 12.7351C6.38054 12.8077 6.38054 12.9272 6.4532 12.9999L7.3157 13.8624Z" fill="#0D121A"/>
<path d="M21.1875 3.74998H12.8438V2.24998C12.8438 2.14686 12.7594 2.06248 12.6562 2.06248H11.3438C11.2406 2.06248 11.1562 2.14686 11.1562 2.24998V3.74998H2.8125C2.39766 3.74998 2.0625 4.08514 2.0625 4.49998V16.6875C2.0625 17.1023 2.39766 17.4375 2.8125 17.4375H11.1656V18.1875L7.30313 20.7211C7.21641 20.7773 7.19297 20.8922 7.24922 20.9789L7.95938 22.0851V22.0875C8.01562 22.1742 8.13281 22.1976 8.21953 22.1414L12 19.6617L15.7805 22.1414C15.8672 22.1976 15.9844 22.1742 16.0406 22.0875V22.0851L16.7508 20.9789C16.807 20.8922 16.7813 20.7773 16.6969 20.7211L12.8438 18.1945V17.4375H21.1875C21.6023 17.4375 21.9375 17.1023 21.9375 16.6875V4.49998C21.9375 4.08514 21.6023 3.74998 21.1875 3.74998ZM20.25 15.75H3.75V5.43748H20.25V15.75Z" fill="#0D121A"/>
</svg>
