<svg width="24" height="24" viewBox="0 0 24 24" fill="none" xmlns="http://www.w3.org/2000/svg">
<path d="M20.6273 3.60938H3.37258C2.79836 3.60938 2.43977 4.23516 2.72805 4.73438L8.17961 14.2359V19.6406C8.17961 20.0555 8.51243 20.3906 8.92493 20.3906H15.0749C15.4874 20.3906 15.8202 20.0555 15.8202 19.6406V14.2359L21.2741 4.73438C21.5601 4.23516 21.2015 3.60938 20.6273 3.60938ZM14.1421 18.7031H9.85774V15.2344H14.1445V18.7031H14.1421ZM14.3671 13.3922L14.1702 13.7344H9.82727L9.6304 13.3922L7.83743 10.2656H16.1624L14.3671 13.3922ZM17.0226 8.76562H6.97727L4.98508 5.29688H19.0148L17.0226 8.76562Z" fill="#0D121A"/>
</svg>
