<svg width="24" height="24" viewBox="0 0 24 24" fill="none" xmlns="http://www.w3.org/2000/svg">
<path d="M22.125 7.00781H16.2188C16.1156 7.00781 16.0312 7.09218 16.0312 7.19531V16.7109C16.0312 16.8141 16.1156 16.8984 16.2188 16.8984H17.6063C17.7094 16.8984 17.7938 16.8141 17.7938 16.7109V12.8883H21.7359C21.8391 12.8883 21.9234 12.8039 21.9234 12.7008V11.6016C21.9234 11.4984 21.8391 11.4141 21.7359 11.4141H17.7938V8.53593H22.125C22.2281 8.53593 22.3125 8.45156 22.3125 8.34843V7.19531C22.3125 7.09218 22.2281 7.00781 22.125 7.00781ZM13.7812 7.03124H12.4688C12.3656 7.03124 12.2812 7.11562 12.2812 7.21874V16.7344C12.2812 16.8375 12.3656 16.9219 12.4688 16.9219H13.7812C13.8844 16.9219 13.9688 16.8375 13.9688 16.7344V7.21874C13.9688 7.11562 13.8844 7.03124 13.7812 7.03124ZM10.5938 11.7398H6.80859C6.70547 11.7398 6.62109 11.8242 6.62109 11.9273V12.9516C6.62109 13.0547 6.70547 13.1391 6.80859 13.1391H9.03281L9.02578 13.3476C8.99766 14.7258 7.95703 15.6562 6.42656 15.6562C4.64063 15.6562 3.52266 14.257 3.52266 11.9836C3.52266 9.73827 4.61953 8.34609 6.37031 8.34609C7.65469 8.34609 8.55234 8.97656 8.91328 10.1133H10.6992C10.3805 8.06952 8.68359 6.75234 6.37031 6.75234C3.51562 6.74999 1.6875 8.79374 1.6875 11.9976C1.6875 15.2391 3.49453 17.25 6.39844 17.25C9.07266 17.25 10.7812 15.593 10.7812 12.9937V11.9273C10.7812 11.8242 10.6969 11.7398 10.5938 11.7398Z" fill="#0D121A"/>
</svg>
