<svg width="16" height="16" viewBox="0 0 16 16" fill="none" xmlns="http://www.w3.org/2000/svg">
<path d="M4.66406 12C4.66406 11.2636 4.06743 10.667 3.33105 10.667C2.59468 10.667 1.99805 11.2636 1.99805 12C1.99805 12.7364 2.59468 13.333 3.33105 13.333C4.06743 13.333 4.66406 12.7364 4.66406 12ZM7.33105 14V2C7.33105 1.63181 7.62986 1.33301 7.99805 1.33301C8.36609 1.33318 8.66406 1.63192 8.66406 2V14C8.66406 14.3681 8.36609 14.6668 7.99805 14.667C7.62986 14.667 7.33105 14.3682 7.33105 14ZM13.998 4C13.998 3.26362 13.4004 2.66699 12.6641 2.66699C11.9278 2.66717 11.3311 3.26373 11.3311 4C11.3311 4.73627 11.9278 5.33283 12.6641 5.33301C13.4004 5.33301 13.998 4.73638 13.998 4ZM4.66406 4C4.66406 3.26362 4.06743 2.66699 3.33105 2.66699C2.59468 2.66699 1.99805 3.26362 1.99805 4C1.99805 4.73638 2.59468 5.33301 3.33105 5.33301C4.06743 5.33301 4.66406 4.73638 4.66406 4ZM5.99805 4C5.99805 5.24205 5.14749 6.28161 3.99805 6.57812V9.4209C5.14761 9.71733 5.99805 10.7579 5.99805 12C5.99805 13.4728 4.80381 14.667 3.33105 14.667C1.8583 14.667 0.664062 13.4728 0.664062 12C0.664062 10.7579 1.5145 9.71733 2.66406 9.4209V6.57812C1.51462 6.28161 0.664062 5.24205 0.664062 4C0.664062 2.52724 1.8583 1.33301 3.33105 1.33301C4.80381 1.33301 5.99805 2.52724 5.99805 4ZM15.3311 4C15.3311 5.25242 14.4668 6.29956 13.3027 6.58594C13.2372 7.32137 13.0518 8.04239 12.749 8.71875C12.3661 9.57389 11.8068 10.3392 11.1084 10.9639C10.834 11.2089 10.4133 11.1852 10.168 10.9111C9.92254 10.6367 9.94539 10.2152 10.2197 9.96973C10.7784 9.47002 11.2259 8.85794 11.5322 8.17383C11.7604 7.66426 11.9058 7.12303 11.9658 6.57031C10.8324 6.263 9.99805 5.23069 9.99805 4C9.99805 2.52735 11.1915 1.33318 12.6641 1.33301C14.1368 1.33301 15.3311 2.52724 15.3311 4Z" fill="#4B4E57"/>
</svg>
