<svg width="16" height="16" viewBox="0 0 16 16" fill="none" xmlns="http://www.w3.org/2000/svg">
<path d="M3.33594 6C4.44051 6 5.33594 5.10457 5.33594 4C5.33594 2.89543 4.44051 2 3.33594 2C2.23137 2 1.33594 2.89543 1.33594 4C1.33594 5.10457 2.23137 6 3.33594 6ZM3.33594 6V10M3.33594 10C2.23137 10 1.33594 10.8954 1.33594 12C1.33594 13.1046 2.23137 14 3.33594 14C4.44051 14 5.33594 13.1046 5.33594 12C5.33594 10.8954 4.44051 10 3.33594 10ZM8.0026 2V14M12.6693 6C13.7738 6 14.6693 5.10457 14.6693 4C14.6693 2.89543 13.7738 2 12.6693 2C11.5647 2 10.6693 2.89543 10.6693 4C10.6693 5.10457 11.5647 6 12.6693 6ZM12.6693 6C12.6685 6.84326 12.49 7.67689 12.1454 8.44652C11.8008 9.21615 11.2978 9.90449 10.6693 10.4667" stroke="#4B4E57" stroke-width="1.33333" stroke-linecap="round" stroke-linejoin="round"/>
</svg>
