<svg width="24" height="24" viewBox="0 0 24 24" fill="none" xmlns="http://www.w3.org/2000/svg">
<path d="M19 14.5C19 13.9091 18.8833 13.3242 18.6572 12.7783C18.4311 12.2323 18.0995 11.7362 17.6816 11.3183C17.2638 10.9005 16.7676 10.5689 16.2217 10.3428C15.6758 10.1167 15.0908 9.99999 14.5 9.99999H6.41405L9.70702 13.293C10.0975 13.6835 10.0975 14.3165 9.70702 14.707C9.31649 15.0975 8.68348 15.0975 8.29295 14.707L3.29295 9.70702C2.90243 9.31649 2.90243 8.68348 3.29295 8.29295L8.29295 3.29295C8.68348 2.90243 9.31649 2.90243 9.70702 3.29295C10.0975 3.68348 10.0975 4.31649 9.70702 4.70702L6.41405 7.99999H14.5C15.3536 7.99999 16.1987 8.16845 16.9873 8.4951C17.7759 8.82176 18.4931 9.29972 19.0967 9.90331C19.7002 10.5069 20.1782 11.2241 20.5049 12.0127C20.8315 12.8013 21 13.6464 21 14.5C21 15.3536 20.8315 16.1987 20.5049 16.9873C20.1782 17.7759 19.7002 18.4931 19.0967 19.0967C18.4931 19.7002 17.7759 20.1782 16.9873 20.5049C16.1987 20.8315 15.3536 21 14.5 21H11C10.4477 21 9.99999 20.5523 9.99999 20C9.99999 19.4477 10.4477 19 11 19H14.5C15.0908 19 15.6758 18.8833 16.2217 18.6572C16.7676 18.4311 17.2638 18.0995 17.6816 17.6816C18.0995 17.2638 18.4311 16.7676 18.6572 16.2217C18.8833 15.6758 19 15.0908 19 14.5Z" fill="#0D121A"/>
</svg>
