<svg viewBox="0 0 24 24" fill="none" xmlns="http://www.w3.org/2000/svg">
<path d="M3 14.5C3 12.7761 3.68433 11.1223 4.90332 9.90331C6.12231 8.68432 7.77609 7.99999 9.5 7.99999H17.5859L14.293 4.70702C13.9024 4.31649 13.9024 3.68348 14.293 3.29295C14.6835 2.90243 15.3165 2.90243 15.707 3.29295L20.707 8.29295C21.0976 8.68348 21.0976 9.31649 20.707 9.70702L15.707 14.707C15.3165 15.0975 14.6835 15.0975 14.293 14.707C13.9024 14.3165 13.9024 13.6835 14.293 13.293L17.5859 9.99999H9.5C8.30653 9.99999 7.16227 10.4744 6.31836 11.3183C5.47445 12.1623 5 13.3065 5 14.5C5 15.0908 5.1167 15.6758 5.34277 16.2217C5.56892 16.7676 5.9005 17.2638 6.31836 17.6816C7.16227 18.5255 8.30653 19 9.5 19H13C13.5523 19 14 19.4477 14 20C14 20.5523 13.5523 21 13 21H9.5C7.77609 21 6.12231 20.3157 4.90332 19.0967C4.29974 18.4931 3.82177 17.7759 3.49512 16.9873C3.16846 16.1987 3 15.3536 3 14.5Z" fill="currentColor"/>
</svg>
