<svg width="24" height="24" viewBox="0 0 24 24" fill="none" xmlns="http://www.w3.org/2000/svg">
<path d="M21.6328 6.64619C21.3187 5.91878 20.8657 5.2596 20.2992 4.70556C19.7323 4.14988 19.064 3.70828 18.3305 3.40478C17.5699 3.08883 16.7541 2.92711 15.9305 2.929C14.775 2.929 13.6477 3.24541 12.668 3.84306C12.4336 3.98603 12.2109 4.14306 12 4.31416C11.7891 4.14306 11.5664 3.98603 11.332 3.84306C10.3523 3.24541 9.225 2.929 8.06953 2.929C7.2375 2.929 6.43125 3.08838 5.66953 3.40478C4.93359 3.70947 4.27031 4.14775 3.70078 4.70556C3.13359 5.25898 2.68049 5.91831 2.36719 6.64619C2.04141 7.40322 1.875 8.20713 1.875 9.03447C1.875 9.81494 2.03438 10.6282 2.35078 11.4556C2.61563 12.147 2.99531 12.8642 3.48047 13.5884C4.24922 14.7345 5.30625 15.9298 6.61875 17.1415C8.79375 19.1501 10.9477 20.5376 11.0391 20.5938L11.5945 20.9501C11.8406 21.1071 12.157 21.1071 12.4031 20.9501L12.9586 20.5938C13.05 20.5353 15.2016 19.1501 17.3789 17.1415C18.6914 15.9298 19.7484 14.7345 20.5172 13.5884C21.0023 12.8642 21.3844 12.147 21.6469 11.4556C21.9633 10.6282 22.1227 9.81494 22.1227 9.03447C22.125 8.20713 21.9586 7.40322 21.6328 6.64619ZM12 19.0962C12 19.0962 3.65625 13.7501 3.65625 9.03447C3.65625 6.64619 5.63203 4.71025 8.06953 4.71025C9.78281 4.71025 11.2687 5.6665 12 7.06338C12.7312 5.6665 14.2172 4.71025 15.9305 4.71025C18.368 4.71025 20.3437 6.64619 20.3437 9.03447C20.3437 13.7501 12 19.0962 12 19.0962Z" fill="#0D121A"/>
</svg>
