<svg width="24" height="24" viewBox="0 0 24 24" fill="none" xmlns="http://www.w3.org/2000/svg">
<path d="M22.3993 20.0625L12.6493 3.1875C12.504 2.93672 12.2532 2.8125 12 2.8125C11.7469 2.8125 11.4938 2.93672 11.3508 3.1875L1.60083 20.0625C1.31254 20.5641 1.67348 21.1875 2.25004 21.1875H21.75C22.3266 21.1875 22.6875 20.5641 22.3993 20.0625ZM3.87426 19.5023L12 5.43516L20.1258 19.5H3.87426V19.5023ZM11.3508 8.39062L6.00708 17.625C5.71879 18.1242 6.07973 18.75 6.65629 18.75H17.3391C17.918 18.75 18.2789 18.1242 17.9883 17.625L12.6493 8.39062C12.504 8.13984 12.2508 8.01562 12 8.01562C11.7469 8.01562 11.4938 8.13984 11.3508 8.39062ZM16.3664 17.4375H7.63364L12 9.89062L16.3664 17.4375ZM11.3508 12.8883L10.0149 15.1945C9.72661 15.6914 10.0875 16.3125 10.6641 16.3125H13.336C13.9125 16.3125 14.2711 15.6914 13.9852 15.1945L12.6493 12.8883C12.5063 12.6398 12.2532 12.5156 12 12.5156C11.7469 12.5156 11.4961 12.6398 11.3508 12.8883ZM12.6891 15.1945H11.3133L12.0024 14.0062L12.6891 15.1945Z" fill="#0D121A"/>
</svg>
