<svg width="24" height="24" viewBox="0 0 24 24" fill="none" xmlns="http://www.w3.org/2000/svg">
<path d="M7.82812 9.99999C7.82812 9.21489 8.13608 8.46113 8.68555 7.90038L8.69238 7.89256H8.69336L13.293 3.29295C13.6835 2.90243 14.3165 2.90243 14.707 3.29295C15.0976 3.68348 15.0976 4.31649 14.707 4.70702L10.1143 9.29979L10.0488 9.37303C9.90655 9.5499 9.82812 9.77105 9.82812 9.99999C9.82812 10.2617 9.93103 10.5133 10.1143 10.7002L15.2998 15.8857C15.4867 16.069 15.7382 16.1719 16 16.1719C16.2618 16.1719 16.5133 16.069 16.7002 15.8857L21.293 11.293C21.6835 10.9024 22.3165 10.9024 22.707 11.293C23.0976 11.6835 23.0976 12.3165 22.707 12.707L18.0996 17.3144C17.5389 17.8639 16.7851 18.1719 16 18.1719C15.7698 18.1719 15.543 18.1421 15.3223 18.0908L12.707 20.707C12.5195 20.8946 12.2652 21 12 21H3C2.44772 21 2 20.5523 2 20V17C2 16.7348 2.10543 16.4805 2.29297 16.293L7.9082 10.6767C7.85712 10.4564 7.82812 10.2298 7.82812 9.99999ZM4 17.414V19H11.5859L13.5859 17L9 12.414L4 17.414Z" fill="#0D121A"/>
</svg>
