<svg width="24" height="24" viewBox="0 0 24 24" fill="none" xmlns="http://www.w3.org/2000/svg">
<path d="M11.9987 1.99988C13.9765 1.99988 15.9099 2.58661 17.5544 3.68542C19.1988 4.78421 20.4811 6.34554 21.2379 8.17273C21.9948 9.99999 22.1922 12.0112 21.8063 13.951C21.4204 15.8907 20.4684 17.6727 19.07 19.0712C17.6715 20.4696 15.8896 21.4216 13.9499 21.8075C12.01 22.1933 9.9988 21.996 8.17154 21.2391C6.34435 20.4823 4.78302 19.2 3.68423 17.5555C2.58542 15.911 1.99869 13.9777 1.99869 11.9999C1.99869 11.4476 2.4464 10.9999 2.99869 10.9999C3.55097 10.9999 3.99869 11.4476 3.99869 11.9999C3.99869 13.5821 4.46827 15.1286 5.34732 16.4442C6.22633 17.7597 7.47545 18.785 8.93716 19.3905C10.3989 19.996 12.0075 20.1552 13.5592 19.8466C15.1111 19.5379 16.5371 18.7759 17.6559 17.6571C18.7747 16.5383 19.5367 15.1123 19.8454 13.5604C20.154 12.0087 19.9948 10.4001 19.3893 8.93835C18.7838 7.47664 17.7585 6.22752 16.443 5.34851C15.128 4.46982 13.5822 4.00026 12.0006 3.99988C9.7433 4.00884 7.57677 4.88987 5.95377 6.45886L5.41275 6.99988H7.99869C8.55097 6.99988 8.99869 7.44759 8.99869 7.99988C8.99869 8.55216 8.55097 8.99988 7.99869 8.99988H2.99869C2.4464 8.99988 1.99869 8.55216 1.99869 7.99988V2.99988C1.99869 2.44759 2.4464 1.99988 2.99869 1.99988C3.55097 1.99988 3.99869 2.44759 3.99869 2.99988V5.58582L4.55142 5.03308L4.94498 4.6698C6.89111 2.96191 9.39393 2.0097 11.9948 1.99988H11.9987ZM10.9987 6.99988C10.9987 6.44759 11.4464 5.99988 11.9987 5.99988C12.551 5.99988 12.9987 6.44759 12.9987 6.99988V11.3817L16.446 13.1053C16.9399 13.3523 17.1402 13.9532 16.8932 14.4471C16.6462 14.9411 16.0454 15.1414 15.5514 14.8944L11.5514 12.8944C11.2126 12.725 10.9987 12.3786 10.9987 11.9999V6.99988Z" fill="black"/>
</svg>
