<svg viewBox="0 0 24 24" fill="none" xmlns="http://www.w3.org/2000/svg">
<path d="M10 12.9995V19.9995H14V12.9995H10ZM22 18.9995C22 19.7952 21.6837 20.559 21.1211 21.1216C20.5585 21.6841 19.7955 21.9995 19 21.9995H5C4.20447 21.9995 3.44149 21.6841 2.87891 21.1216C2.3163 20.559 2 19.7952 2 18.9995V9.99954C2 9.56344 2.09479 9.13245 2.27832 8.73685C2.46197 8.34105 2.73025 7.9902 3.06348 7.70853L10.0586 1.71341L10.0635 1.7095C10.605 1.25187 11.291 1.00052 12 1.00052C12.6202 1.00052 13.2229 1.19286 13.7266 1.54739L13.9365 1.7095L13.9414 1.71341L20.9365 7.70853L21.0586 7.81693C21.3356 8.07823 21.561 8.39048 21.7217 8.73685C21.9052 9.13245 22 9.56344 22 9.99954V18.9995ZM16 19.9995H19C19.2651 19.9995 19.5195 19.8949 19.707 19.7076C19.8946 19.52 20 19.2648 20 18.9995V9.99954C20 9.85417 19.9684 9.71051 19.9072 9.57864C19.846 9.44671 19.7566 9.32976 19.6455 9.23587L19.6406 9.23099L12.6455 3.23587V3.23685C12.465 3.0843 12.2363 3.00052 12 3.00052C11.7637 3.00052 11.535 3.0843 11.3545 3.23685L11.3535 3.23587L4.35938 9.23099L4.35449 9.23587C4.24342 9.32976 4.15399 9.44671 4.09277 9.57864C4.0316 9.71051 4 9.85418 4 9.99954V18.9995C4 19.2648 4.10543 19.52 4.29297 19.7076C4.48048 19.8949 4.73491 19.9995 5 19.9995H8V12.9995C8.00012 12.4693 8.21097 11.9604 8.58594 11.5855C8.96099 11.2105 9.46967 10.9995 10 10.9995H14C14.5303 10.9995 15.039 11.2105 15.4141 11.5855C15.789 11.9604 15.9999 12.4693 16 12.9995V19.9995Z" fill="currentColor"/>
</svg>
