<svg width="24" height="24" viewBox="0 0 24 24" fill="none" xmlns="http://www.w3.org/2000/svg">
<path d="M17.3906 7.45312V4.3125H19.4062C19.5094 4.3125 19.5938 4.22812 19.5938 4.125V2.8125C19.5938 2.70937 19.5094 2.625 19.4062 2.625H4.59375C4.49062 2.625 4.40625 2.70937 4.40625 2.8125V4.125C4.40625 4.22812 4.49062 4.3125 4.59375 4.3125H6.60938V7.45312C6.60938 9.36328 7.60312 11.0437 9.10312 12C7.60312 12.9563 6.60938 14.6367 6.60938 16.5469V19.6875H4.59375C4.49062 19.6875 4.40625 19.7719 4.40625 19.875V21.1875C4.40625 21.2906 4.49062 21.375 4.59375 21.375H19.4062C19.5094 21.375 19.5938 21.2906 19.5938 21.1875V19.875C19.5938 19.7719 19.5094 19.6875 19.4062 19.6875H17.3906V16.5469C17.3906 14.6367 16.3969 12.9563 14.8969 12C16.3969 11.0437 17.3906 9.36328 17.3906 7.45312ZM15.7031 16.5469V19.6875H8.29688V16.5469C8.29688 15.5578 8.68125 14.6273 9.38203 13.9289C10.0805 13.2281 11.0109 12.8438 12 12.8438C12.9891 12.8438 13.9195 13.2281 14.618 13.9289C15.3188 14.6273 15.7031 15.5578 15.7031 16.5469ZM15.7031 7.45312C15.7031 8.44219 15.3188 9.37266 14.618 10.0711C13.9195 10.7719 12.9891 11.1562 12 11.1562C11.0109 11.1562 10.0805 10.7719 9.38203 10.0711C9.0367 9.7284 8.76293 9.32048 8.57664 8.87105C8.39035 8.42161 8.29525 7.93963 8.29688 7.45312V4.3125H15.7031V7.45312Z" fill="#0D121A"/>
</svg>
