<svg width="24" height="24" viewBox="0 0 24 24" fill="none" xmlns="http://www.w3.org/2000/svg">
<path d="M21 13H16.5352L14.832 15.5547C14.6466 15.8329 14.3344 16 14 16H10C9.66565 16 9.35343 15.8329 9.16797 15.5547L7.46484 13H3V18C3 18.2652 3.10543 18.5195 3.29297 18.707C3.48051 18.8946 3.73478 19 4 19H20C20.2652 19 20.5195 18.8946 20.707 18.707C20.8946 18.5195 21 18.2652 21 18V13ZM7.10156 5.00977C6.96455 5.02907 6.83232 5.07694 6.71387 5.15039C6.55597 5.24837 6.42845 5.38831 6.3457 5.55469L6.34375 5.55762L3.61914 11H8C8.33435 11 8.64657 11.1671 8.83203 11.4453L10.5352 14H13.4648L15.168 11.4453L15.2432 11.3467C15.4318 11.1282 15.7073 11 16 11H20.3809L17.6562 5.55762L17.6543 5.55469C17.5715 5.38831 17.444 5.24837 17.2861 5.15039C17.1677 5.07694 17.0355 5.02907 16.8984 5.00977L16.7598 5H7.24023L7.10156 5.00977ZM23 18C23 18.7957 22.6837 19.5585 22.1211 20.1211C21.5585 20.6837 20.7957 21 20 21H4C3.20435 21 2.44152 20.6837 1.87891 20.1211C1.3163 19.5585 1 18.7956 1 18V12C1 11.8448 1.03604 11.6916 1.10547 11.5527L4.55566 4.66211C4.80407 4.16352 5.18671 3.74378 5.66016 3.4502C6.13438 3.15617 6.68128 3.00034 7.23926 3H16.7607L16.9688 3.00781C17.4539 3.04183 17.9247 3.19282 18.3398 3.4502C18.8132 3.74371 19.195 4.16369 19.4434 4.66211L22.8945 11.5527C22.964 11.6916 23 11.8448 23 12V18Z" fill="#0D121A"/>
</svg>
