<svg width="24" height="24" viewBox="0 0 24 24" fill="none" xmlns="http://www.w3.org/2000/svg">
<path d="M10.35 7.19062L9.44531 6.76406C9.42685 6.75545 9.40677 6.75087 9.3864 6.75065C9.36603 6.75043 9.34585 6.75456 9.32721 6.76277C9.30857 6.77098 9.2919 6.78308 9.27831 6.79826C9.26473 6.81344 9.25454 6.83135 9.24844 6.85078C8.83828 8.22187 8.18906 9.43125 7.32187 10.4508C7.30671 10.4686 7.29621 10.49 7.2913 10.5129C7.28639 10.5358 7.28723 10.5595 7.29375 10.582L7.60312 11.6016C7.63359 11.7047 7.76719 11.7352 7.84219 11.6578C8.02266 11.468 8.20313 11.2617 8.38359 11.0484V15.375C8.38359 15.4781 8.46797 15.5625 8.57109 15.5625H9.44531C9.54844 15.5625 9.63281 15.4781 9.63281 15.375V9.21328C9.95653 8.62396 10.2204 8.00367 10.4203 7.36172C10.4438 7.29375 10.4133 7.22109 10.35 7.19062ZM10.9781 7.40625V10.3875C10.9781 10.4906 11.0625 10.575 11.1656 10.575H12.7102V11.0109H10.4859C10.3828 11.0109 10.2984 11.0953 10.2984 11.1984V12.0328C10.2984 12.1359 10.3828 12.2203 10.4859 12.2203H11.7773C11.3297 12.9422 10.7836 13.5258 10.1133 14.0016C10.0839 14.0224 10.0637 14.0537 10.0567 14.089C10.0497 14.1243 10.0565 14.161 10.0758 14.1914L10.6102 15.0469C10.6547 15.1195 10.7555 15.1359 10.8188 15.0797C11.5594 14.4516 12.1945 13.6055 12.7078 12.5578V15.3703C12.7078 15.4734 12.7922 15.5578 12.8953 15.5578H13.7438C13.8469 15.5578 13.9313 15.4734 13.9313 15.3703V12.5625C14.4305 13.5398 15.0445 14.3789 15.7617 15.068C15.8227 15.1266 15.9211 15.1172 15.9703 15.0516L16.5867 14.2242C16.6336 14.1609 16.6195 14.0719 16.5586 14.0273C15.8438 13.4977 15.2883 12.907 14.8641 12.225H16.2469C16.35 12.225 16.4344 12.1406 16.4344 12.0375V11.2031C16.4344 11.1 16.35 11.0156 16.2469 11.0156H13.9313V10.5797H15.4945C15.5977 10.5797 15.682 10.4953 15.682 10.3922V7.40625C15.682 7.30312 15.5977 7.21875 15.4945 7.21875H11.1656C11.0625 7.21875 10.9781 7.30312 10.9781 7.40625ZM12.1852 8.40937H14.4797V9.38437H12.1852V8.40937ZM20.318 3.98203L12.3539 1.26797C12.2578 1.23516 12.1289 1.21875 12 1.21875C11.8711 1.21875 11.7422 1.23516 11.6461 1.26797L3.68203 3.98203C3.4875 4.04766 3.32812 4.27266 3.32812 4.47891V15.7852C3.32812 15.9914 3.46172 16.2633 3.62344 16.3922L11.7023 22.6875C11.7844 22.7508 11.8898 22.7836 11.9977 22.7836C12.1055 22.7836 12.2133 22.7508 12.293 22.6875L20.3719 16.3922C20.5336 16.2656 20.6672 15.9937 20.6672 15.7852V4.47891C20.6719 4.27266 20.5125 4.05 20.318 3.98203ZM18.9844 15.3352L12 20.7773L5.01562 15.3352V5.31328L12 2.93203L18.9844 5.31328V15.3352Z" fill="#0D121A"/>
</svg>
