<svg width="24" height="24" viewBox="0 0 24 24" fill="none" xmlns="http://www.w3.org/2000/svg">
<path d="M10.8741 16.1265C10.8741 16.4249 10.9926 16.711 11.2036 16.922C11.4145 17.133 11.7007 17.2515 11.9991 17.2515C12.2974 17.2515 12.5836 17.133 12.7945 16.922C13.0055 16.711 13.1241 16.4249 13.1241 16.1265C13.1241 15.8281 13.0055 15.542 12.7945 15.331C12.5836 15.12 12.2974 15.0015 11.9991 15.0015C11.7007 15.0015 11.4145 15.12 11.2036 15.331C10.9926 15.542 10.8741 15.8281 10.8741 16.1265ZM12.5616 13.5015C12.6647 13.5015 12.7491 13.4171 12.7491 13.314V6.93899C12.7491 6.83587 12.6647 6.75149 12.5616 6.75149H11.4366C11.3334 6.75149 11.2491 6.83587 11.2491 6.93899V13.314C11.2491 13.4171 11.3334 13.5015 11.4366 13.5015H12.5616ZM21.9366 9.09524H20.5467C20.4858 9.09524 20.4295 9.12336 20.3944 9.17258L17.8983 12.6132L16.7287 11.0007C16.7114 10.9766 16.6885 10.9569 16.662 10.9435C16.6355 10.93 16.6061 10.9231 16.5764 10.9234H15.1866C15.0342 10.9234 14.9451 11.0968 15.0342 11.221L17.5936 14.7531C17.6286 14.801 17.6745 14.84 17.7274 14.8669C17.7804 14.8938 17.8389 14.9078 17.8983 14.9078C17.9577 14.9078 18.0162 14.8938 18.0691 14.8669C18.1221 14.84 18.1679 14.801 18.203 14.7531L22.0889 9.3929C22.178 9.26868 22.0889 9.09524 21.9366 9.09524ZM20.9053 16.2671H19.4006C19.2717 16.2671 19.1522 16.3351 19.0819 16.4429C18.7492 16.9714 18.3576 17.4605 17.9147 17.9007C17.1533 18.6627 16.2515 19.2699 15.2592 19.689C14.2305 20.1229 13.1249 20.3452 12.0084 20.3429C10.8811 20.3429 9.78655 20.1226 8.75765 19.689C7.76534 19.2699 6.86357 18.6627 6.10218 17.9007C5.33832 17.1413 4.73006 16.2401 4.31155 15.2476C3.87562 14.221 3.6553 13.1265 3.6553 12.0015C3.6553 10.8765 3.87562 9.78196 4.31155 8.7554C4.73109 7.76165 5.33343 6.86868 6.10218 6.10227C6.87093 5.33587 7.7639 4.73352 8.75765 4.31399C9.78639 3.88012 10.8919 3.65774 12.0084 3.66008C13.1358 3.66008 14.2303 3.8804 15.2592 4.31399C16.253 4.73352 17.1459 5.33587 17.9147 6.10227C18.36 6.54758 18.7491 7.03508 19.0819 7.56008C19.1498 7.67024 19.2717 7.73587 19.4006 7.73587H20.9053C21.0459 7.73587 21.135 7.58821 21.0741 7.46399C19.4241 4.18508 16.0467 1.92337 12.1326 1.87649C6.53577 1.81087 1.88577 6.38821 1.87405 11.9827C1.86233 17.582 6.40452 22.1265 12.0084 22.1265C15.9741 22.1265 19.4053 19.8531 21.0717 16.539C21.0861 16.5105 21.0929 16.4788 21.0916 16.4469C21.0903 16.415 21.0809 16.384 21.0642 16.3567C21.0475 16.3295 21.0242 16.307 20.9964 16.2913C20.9686 16.2756 20.9372 16.2673 20.9053 16.2671Z" fill="#0D121A"/>
</svg>
