<svg width="24" height="24" viewBox="0 0 24 24" fill="none" xmlns="http://www.w3.org/2000/svg">
<path d="M14.2491 2.625C10.3139 2.625 7.12406 5.81484 7.12406 9.75C7.12406 11.3977 7.68422 12.9141 8.62172 14.1211L7.65844 15.0844L6.19828 13.6242C6.16258 13.5893 6.11463 13.5697 6.06469 13.5697C6.01474 13.5697 5.96679 13.5893 5.93109 13.6242L4.99828 14.557C4.96335 14.5927 4.94379 14.6407 4.94379 14.6906C4.94379 14.7406 4.96335 14.7885 4.99828 14.8242L6.45844 16.2844L5.40609 17.3367L3.94594 15.8766C3.91024 15.8416 3.86228 15.8221 3.81234 15.8221C3.7624 15.8221 3.71444 15.8416 3.67875 15.8766L2.74594 16.8094C2.71101 16.8451 2.69145 16.893 2.69145 16.943C2.69145 16.9929 2.71101 17.0409 2.74594 17.0766L4.20609 18.5367L2.67562 20.0672C2.64073 20.1024 2.62115 20.15 2.62115 20.1996C2.62115 20.2492 2.64073 20.2968 2.67562 20.332L3.66703 21.3234C3.73969 21.3961 3.85922 21.3961 3.93187 21.3234L9.87562 15.3797C11.1268 16.3502 12.6656 16.8763 14.2491 16.875C18.1842 16.875 21.3741 13.6852 21.3741 9.75C21.3741 5.81484 18.1842 2.625 14.2491 2.625ZM18.0272 13.5281C17.0194 14.5383 15.6764 15.0938 14.2491 15.0938C12.8217 15.0938 11.4787 14.5383 10.4709 13.5281C9.46078 12.5203 8.90531 11.1773 8.90531 9.75C8.90531 8.32266 9.46078 6.97969 10.4709 5.97188C11.4787 4.96172 12.8217 4.40625 14.2491 4.40625C15.6764 4.40625 17.0194 4.96172 18.0272 5.97188C19.0373 6.97969 19.5928 8.32266 19.5928 9.75C19.5928 11.1773 19.0373 12.5203 18.0272 13.5281Z" fill="#0D121A"/>
</svg>
