<svg viewBox="0 0 24 24" fill="none" xmlns="http://www.w3.org/2000/svg">
<path d="M20 12C20 11.4477 19.5523 11 19 11H5C4.44772 11 4 11.4477 4 12V20C4 20.5523 4.44772 21 5 21H19C19.5523 21 20 20.5523 20 20V12ZM10 16C10 14.8954 10.8954 14 12 14C13.1046 14 14 14.8954 14 16C14 17.1046 13.1046 18 12 18C10.8954 18 10 17.1046 10 16ZM16 7C16 5.93913 15.5783 4.92202 14.8281 4.17188C14.078 3.42173 13.0609 3 12 3C10.9391 3 9.92202 3.42173 9.17188 4.17188C8.42173 4.92202 8 5.93913 8 7V9H16V7ZM18 9H19C20.6569 9 22 10.3431 22 12V20C22 21.6569 20.6569 23 19 23H5C3.34315 23 2 21.6569 2 20V12C2 10.3431 3.34315 9 5 9H6V7C6 5.4087 6.63259 3.88303 7.75781 2.75781C8.88303 1.63259 10.4087 1 12 1C13.5913 1 15.117 1.63259 16.2422 2.75781C17.3674 3.88303 18 5.4087 18 7V9Z" fill="currentColor"/>
</svg>
