<svg width="24" height="24" viewBox="0 0 24 24" fill="none" xmlns="http://www.w3.org/2000/svg">
<path d="M18.9998 7C18.9998 6.73478 18.8943 6.48051 18.7068 6.29297C18.5193 6.10551 18.2649 6 17.9998 6H5.99976C5.73464 6.00007 5.4802 6.10549 5.29273 6.29297C5.10527 6.48049 4.99976 6.73485 4.99976 7V15H18.9998V7ZM3.61401 18.999L3.61304 19H20.3875L20.3865 18.999L19.3835 17H4.61694L3.61401 18.999ZM20.9998 15.7637L22.1726 18.0996C22.3268 18.4056 22.4007 18.7466 22.3855 19.0889C22.3703 19.431 22.2673 19.7637 22.0867 20.0547C21.906 20.3457 21.6532 20.5855 21.3533 20.751C21.0552 20.9154 20.72 21.0003 20.3796 20.999V21H3.61987V20.999C3.27976 21.0002 2.94509 20.9153 2.64722 20.751C2.34722 20.5855 2.09451 20.3458 1.91382 20.0547C1.73317 19.7636 1.63021 19.4311 1.61499 19.0889C1.5998 18.7466 1.67271 18.4056 1.8269 18.0996L2.99976 15.7637V7C2.99976 6.20441 3.31614 5.4415 3.87866 4.87891C4.44121 4.31636 5.2042 4.00007 5.99976 4H17.9998C18.7954 4 19.5592 4.3163 20.1218 4.87891C20.6842 5.44148 20.9998 6.20452 20.9998 7V15.7637Z" fill="#0D121A"/>
</svg>
