<svg width="24" height="24" viewBox="0 0 24 24" fill="none" xmlns="http://www.w3.org/2000/svg">
<path d="M20 5C20 4.44771 19.5523 4 19 4H5C4.44772 4 4 4.44772 4 5V19C4 19.5523 4.44771 20 5 20H19C19.5523 20 20 19.5523 20 19V5ZM13.293 7.29297C13.6835 6.90244 14.3165 6.90244 14.707 7.29297C15.0976 7.68349 15.0976 8.31651 14.707 8.70703L11.4141 12L14.707 15.293C15.0976 15.6835 15.0976 16.3165 14.707 16.707C14.3165 17.0976 13.6835 17.0976 13.293 16.707L9.29297 12.707C8.90244 12.3165 8.90244 11.6835 9.29297 11.293L13.293 7.29297ZM22 19C22 20.6569 20.6569 22 19 22H5C3.34315 22 2 20.6569 2 19V5C2 3.34315 3.34315 2 5 2H19C20.6569 2 22 3.34315 22 5V19Z" fill="#0D121A"/>
</svg>
