<svg width="24" height="24" viewBox="0 0 24 24" fill="none" xmlns="http://www.w3.org/2000/svg">
<path d="M2 19V3C2 2.44772 2.44772 2 3 2C3.55228 2 4 2.44772 4 3V19C4 19.2652 4.10543 19.5195 4.29297 19.707C4.48051 19.8946 4.73478 20 5 20H21C21.5523 20 22 20.4477 22 21C22 21.5523 21.5523 22 21 22H5C4.20435 22 3.44152 21.6837 2.87891 21.1211C2.3163 20.5585 2 19.7957 2 19ZM18.293 8.29297C18.6835 7.90244 19.3165 7.90244 19.707 8.29297C20.0976 8.68349 20.0976 9.31651 19.707 9.70703L14.707 14.707C14.3165 15.0976 13.6835 15.0976 13.293 14.707L10 11.4141L7.70703 13.707C7.31651 14.0976 6.68349 14.0976 6.29297 13.707C5.90244 13.3165 5.90244 12.6835 6.29297 12.293L9.29297 9.29297L9.36914 9.22461C9.76191 8.90426 10.3409 8.92685 10.707 9.29297L14 12.5859L18.293 8.29297Z" fill="#0D121A"/>
</svg>
