<svg width="24" height="24" viewBox="0 0 24 24" fill="none" xmlns="http://www.w3.org/2000/svg">
<path d="M15.1875 3.75H2.4375C2.33437 3.75 2.25 3.83437 2.25 3.9375V6.9375C2.25 7.04063 2.33437 7.125 2.4375 7.125H3.75C3.85312 7.125 3.9375 7.04063 3.9375 6.9375V5.4375H7.875V18.5625H5.71875C5.61562 18.5625 5.53125 18.6469 5.53125 18.75V20.0625C5.53125 20.1656 5.61562 20.25 5.71875 20.25H11.9062C12.0094 20.25 12.0938 20.1656 12.0938 20.0625V18.75C12.0938 18.6469 12.0094 18.5625 11.9062 18.5625H9.75V5.4375H13.6875V6.9375C13.6875 7.04063 13.7719 7.125 13.875 7.125H15.1875C15.2906 7.125 15.375 7.04063 15.375 6.9375V3.9375C15.375 3.83437 15.2906 3.75 15.1875 3.75ZM21.5812 16.5469H20.0625V7.45312H21.5812C21.7219 7.45312 21.8016 7.28906 21.7148 7.17891L19.3523 4.18828C19.3367 4.16804 19.3166 4.15166 19.2937 4.14039C19.2707 4.12911 19.2455 4.12325 19.2199 4.12325C19.1943 4.12325 19.1691 4.12911 19.1462 4.14039C19.1232 4.15166 19.1031 4.16804 19.0875 4.18828L16.725 7.17891C16.7053 7.20393 16.6931 7.23399 16.6897 7.26564C16.6863 7.2973 16.6919 7.32927 16.7058 7.35789C16.7198 7.38651 16.7415 7.41062 16.7685 7.42746C16.7955 7.44431 16.8268 7.4532 16.8586 7.45312H18.375V16.5469H16.8563C16.7156 16.5469 16.6359 16.7109 16.7227 16.8211L19.0852 19.8094C19.1531 19.8961 19.2844 19.8961 19.35 19.8094L21.7125 16.8211C21.7323 16.7963 21.7448 16.7664 21.7484 16.7349C21.752 16.7033 21.7467 16.6714 21.733 16.6428C21.7193 16.6141 21.6978 16.5899 21.6709 16.573C21.6441 16.556 21.613 16.547 21.5812 16.5469Z" fill="#0D121A"/>
</svg>
