<svg width="24" height="24" viewBox="0 0 24 24" fill="none" xmlns="http://www.w3.org/2000/svg">
<path d="M1 12C1 10.4087 1.63259 8.88303 2.75781 7.75781C3.88303 6.63259 5.4087 6 7 6H9C9.55228 6 10 6.44772 10 7C10 7.55228 9.55228 8 9 8H7C5.93913 8 4.92202 8.42173 4.17188 9.17188C3.42173 9.92202 3 10.9391 3 12C3 13.0609 3.42173 14.078 4.17188 14.8281C4.92202 15.5783 5.93913 16 7 16H9C9.55228 16 10 16.4477 10 17C10 17.5523 9.55228 18 9 18H7C5.4087 18 3.88303 17.3674 2.75781 16.2422C1.63259 15.117 1 13.5913 1 12ZM21 12C21 10.9391 20.5783 9.92202 19.8281 9.17188C19.078 8.42173 18.0609 8 17 8H15C14.4477 8 14 7.55228 14 7C14 6.44772 14.4477 6 15 6H17C18.5913 6 20.117 6.63259 21.2422 7.75781C22.3674 8.88303 23 10.4087 23 12C23 13.5913 22.3674 15.117 21.2422 16.2422C20.117 17.3674 18.5913 18 17 18H15C14.4477 18 14 17.5523 14 17C14 16.4477 14.4477 16 15 16H17C18.0609 16 19.078 15.5783 19.8281 14.8281C20.5783 14.078 21 13.0609 21 12ZM16 11C16.5523 11 17 11.4477 17 12C17 12.5523 16.5523 13 16 13H8C7.44772 13 7 12.5523 7 12C7 11.4477 7.44772 11 8 11H16Z" fill="#0D121A"/>
</svg>
