<svg width="24" height="24" viewBox="0 0 24 24" fill="none" xmlns="http://www.w3.org/2000/svg">
<path d="M12.2278 1.92038C8.65357 1.91101 5.50826 3.76023 3.7106 6.55398C3.63092 6.6782 3.71998 6.84226 3.86763 6.84226H5.51529C5.62779 6.84226 5.73326 6.79304 5.80357 6.70632C5.96764 6.5071 6.14342 6.31492 6.32857 6.1321C7.09264 5.37038 7.98092 4.77038 8.96998 4.3532C9.99185 3.92195 11.0794 3.70163 12.202 3.70163C13.3247 3.70163 14.4122 3.9196 15.434 4.3532C16.4231 4.77038 17.3114 5.37038 18.0754 6.1321C18.8395 6.89382 19.4372 7.7821 19.8567 8.76882C20.2903 9.7907 20.5083 10.8759 20.5083 11.9985C20.5083 13.1212 20.2879 14.2063 19.8567 15.2282C19.4395 16.2149 18.8395 17.1032 18.0754 17.8649C17.3114 18.6266 16.4231 19.2266 15.434 19.6438C14.4114 20.0758 13.3122 20.2974 12.202 20.2954C11.0794 20.2954 9.99185 20.0751 8.96998 19.6438C7.98286 19.2271 7.08585 18.623 6.32857 17.8649C6.14342 17.6798 5.96998 17.4876 5.80357 17.2907C5.73326 17.204 5.62545 17.1548 5.51529 17.1548H3.86763C3.71998 17.1548 3.62857 17.3188 3.7106 17.443C5.50592 20.2298 8.63717 22.0766 12.202 22.0766C17.7379 22.0766 22.2333 17.6212 22.2895 12.1016C22.3458 6.49304 17.8434 1.93445 12.2278 1.92038ZM9.25873 14.6235V12.8423H1.89935C1.79623 12.8423 1.71185 12.7579 1.71185 12.6548V11.3423C1.71185 11.2391 1.79623 11.1548 1.89935 11.1548H9.25873V9.37351C9.25873 9.21648 9.44154 9.12742 9.56342 9.22585L12.8892 11.8509C12.9116 11.8684 12.9297 11.8908 12.9422 11.9164C12.9547 11.942 12.9611 11.9701 12.9611 11.9985C12.9611 12.027 12.9547 12.0551 12.9422 12.0806C12.9297 12.1062 12.9116 12.1286 12.8892 12.1462L9.56342 14.7712C9.44154 14.8673 9.25873 14.7805 9.25873 14.6235Z" fill="#0D121A"/>
</svg>
