<svg width="24" height="24" viewBox="0 0 24 24" fill="none" xmlns="http://www.w3.org/2000/svg">
<path d="M20.343 17.1548H18.6953C18.5828 17.1548 18.4774 17.204 18.4071 17.2907C18.243 17.4899 18.0672 17.6821 17.8821 17.8649C17.1248 18.623 16.2278 19.2271 15.2406 19.6438C14.218 20.0758 13.1188 20.2974 12.0086 20.2954C10.886 20.2954 9.79846 20.0751 8.77658 19.6438C7.78946 19.2271 6.89246 18.623 6.13518 17.8649C5.37654 17.1094 4.77162 16.214 4.35393 15.2282C3.92033 14.2063 3.70236 13.1212 3.70236 11.9985C3.70236 10.8759 3.92268 9.7907 4.35393 8.76882C4.77111 7.7821 5.37111 6.89382 6.13518 6.1321C6.89924 5.37038 7.78752 4.77038 8.77658 4.3532C9.79846 3.92195 10.886 3.70163 12.0086 3.70163C13.1313 3.70163 14.2188 3.9196 15.2406 4.3532C16.2297 4.77038 17.118 5.37038 17.8821 6.1321C18.0672 6.31726 18.2406 6.50945 18.4071 6.70632C18.4774 6.79304 18.5852 6.84226 18.6953 6.84226H20.343C20.4906 6.84226 20.5821 6.6782 20.5 6.55398C18.7024 3.76023 15.5571 1.91101 11.9828 1.92038C6.36721 1.93445 1.86486 6.49304 1.92111 12.1016C1.97736 17.6212 6.47268 22.0766 12.0086 22.0766C15.5735 22.0766 18.7047 20.2298 20.5 17.443C20.5797 17.3188 20.4906 17.1548 20.343 17.1548ZM22.4266 11.8509L19.1008 9.22585C18.9766 9.12742 18.7961 9.21648 18.7961 9.37351V11.1548H11.4367C11.3336 11.1548 11.2492 11.2391 11.2492 11.3423V12.6548C11.2492 12.7579 11.3336 12.8423 11.4367 12.8423H18.7961V14.6235C18.7961 14.7805 18.9789 14.8696 19.1008 14.7712L22.4266 12.1462C22.449 12.1286 22.4671 12.1062 22.4796 12.0806C22.492 12.0551 22.4985 12.027 22.4985 11.9985C22.4985 11.9701 22.492 11.942 22.4796 11.9164C22.4671 11.8908 22.449 11.8684 22.4266 11.8509Z" fill="#0D121A"/>
</svg>
