<svg viewBox="0 0 24 24" fill="none" xmlns="http://www.w3.org/2000/svg">
<path d="M20 4.61693L16.3418 6.44701L16.3408 6.44798C16.2301 6.50327 16.116 6.5505 16 6.59154V19.3826L20 17.3826V4.61693ZM4.00001 6.6179V19.3835L7.65919 17.5535L7.81739 17.4802C7.87753 17.4544 7.93845 17.4307 8.00001 17.4089V4.6179L4.00001 6.6179ZM10 17.4089C10.1162 17.45 10.23 17.4981 10.3408 17.5535L14 19.3826V6.59154C13.884 6.5505 13.7699 6.50327 13.6592 6.44798V6.44701L10 4.61693V17.4089ZM22 17.3835C21.9998 17.7547 21.8964 18.1186 21.7012 18.4343C21.5058 18.7501 21.2257 19.0047 20.8936 19.1706L20.8945 19.1716L16.3408 21.448V21.449C15.9245 21.6569 15.4654 21.7654 15 21.7654C14.5346 21.7654 14.0755 21.6569 13.6592 21.449V21.448L9.44727 19.3425C9.30847 19.2732 9.15517 19.237 9.00001 19.237C8.84491 19.237 8.69149 19.2722 8.55274 19.3415L4.89454 21.1726H4.89356C4.58837 21.325 4.249 21.3972 3.90821 21.3816C3.56746 21.3659 3.23624 21.2634 2.94629 21.0837C2.65621 20.9039 2.41661 20.6526 2.25098 20.3542C2.08538 20.0559 1.99918 19.7199 2.00001 19.3786V6.6179L2.00489 6.47826C2.02757 6.15566 2.12798 5.84235 2.29883 5.56615C2.49406 5.25057 2.77359 4.9958 3.10547 4.82982L7.65919 2.55247L7.81739 2.47923C8.19052 2.31917 8.59278 2.23607 9.00001 2.23607C9.46545 2.23607 9.92446 2.34445 10.3408 2.55247L14.5527 4.65892C14.6915 4.72828 14.8448 4.76439 15 4.76439C15.1549 4.76439 15.3077 4.72803 15.4463 4.65892L19.1055 2.82884H19.1065C19.4115 2.67645 19.7502 2.60437 20.0908 2.61986C20.4315 2.63537 20.7628 2.73727 21.0527 2.91673C21.3427 3.09626 21.5823 3.34723 21.7481 3.64525C21.9136 3.94292 22.0002 4.27831 22 4.61888V17.3835Z" fill="currentColor"/>
</svg>
