<svg width="24" height="24" viewBox="0 0 24 24" fill="none" xmlns="http://www.w3.org/2000/svg">
<path d="M21 17C21.5523 17 22 17.4477 22 18C22 18.5523 21.5523 19 21 19H11C10.4477 19 9.99999 18.5523 9.99999 18C9.99999 17.4477 10.4477 17 11 17H21ZM6.29295 7.29297C6.68348 6.90244 7.31649 6.90244 7.70702 7.29297C8.09754 7.68349 8.09754 8.31651 7.70702 8.70703L4.41405 12L7.70702 15.293C8.09754 15.6835 8.09754 16.3165 7.70702 16.707C7.31649 17.0976 6.68348 17.0976 6.29295 16.707L2.29295 12.707C1.90243 12.3165 1.90243 11.6835 2.29295 11.293L6.29295 7.29297ZM21 11C21.5523 11 22 11.4477 22 12C22 12.5523 21.5523 13 21 13H11C10.4477 13 9.99999 12.5523 9.99999 12C9.99999 11.4477 10.4477 11 11 11H21ZM21 5C21.5523 5 22 5.44772 22 6C22 6.55228 21.5523 7 21 7H11C10.4477 7 9.99999 6.55228 9.99999 6C9.99999 5.44772 10.4477 5 11 5H21Z" fill="#0D121A"/>
</svg>
