<svg viewBox="0 0 24 24" fill="none" xmlns="http://www.w3.org/2000/svg">
<path d="M11.2812 20.2554V15.2554C11.2812 14.7249 11.4921 14.2164 11.8672 13.8413C12.2423 13.4662 12.7508 13.2554 13.2812 13.2554H15.1611C15.5503 13.2547 15.9308 13.368 16.2568 13.5806C16.5706 13.7852 16.8199 14.0735 16.9775 14.4126L17.3945 15.2554H20.2812C20.8117 15.2554 21.3202 15.4662 21.6953 15.8413C22.0704 16.2164 22.2812 16.7249 22.2812 17.2554V20.2554C22.2812 20.7858 22.0704 21.2944 21.6953 21.6694C21.3202 22.0445 20.8117 22.2554 20.2812 22.2554H13.2812C12.7508 22.2554 12.2423 22.0445 11.8672 21.6694C11.4921 21.2944 11.2812 20.7858 11.2812 20.2554ZM2.28125 16.2554V3.25537C2.28125 2.70309 2.72897 2.25537 3.28125 2.25537C3.83353 2.25537 4.28125 2.70309 4.28125 3.25537V5.25537C4.28125 5.52059 4.38668 5.77487 4.57422 5.9624C4.76175 6.14994 5.01603 6.25537 5.28125 6.25537H8.28125C8.83353 6.25537 9.28125 6.70309 9.28125 7.25537C9.28125 7.80766 8.83353 8.25537 8.28125 8.25537H5.28125C4.93683 8.25537 4.59984 8.1924 4.28125 8.07959V16.2554C4.28125 16.5206 4.38668 16.7749 4.57422 16.9624C4.76176 17.1499 5.01603 17.2554 5.28125 17.2554H8.28125C8.83353 17.2554 9.28125 17.7031 9.28125 18.2554C9.28125 18.8077 8.83353 19.2554 8.28125 19.2554H5.28125C4.4856 19.2554 3.72276 18.9391 3.16016 18.3765C2.59755 17.8139 2.28125 17.051 2.28125 16.2554ZM11.2812 9.25537V4.25537C11.2812 3.72494 11.4921 3.21638 11.8672 2.84131C12.2423 2.46624 12.7508 2.25537 13.2812 2.25537H15.2812C15.5917 2.25537 15.8981 2.32745 16.1758 2.46631C16.4534 2.60511 16.6946 2.80693 16.8809 3.05518L17.7812 4.25537H20.2812C20.8117 4.25537 21.3202 4.46624 21.6953 4.84131C22.0704 5.21638 22.2812 5.72494 22.2812 6.25537V9.25537C22.2812 9.7858 22.0704 10.2944 21.6953 10.6694C21.3202 11.0445 20.8117 11.2554 20.2812 11.2554H13.2812C12.7508 11.2554 12.2423 11.0445 11.8672 10.6694C11.4921 10.2944 11.2812 9.7858 11.2812 9.25537ZM13.2812 20.2554H20.2812V17.2554H17.3682C17.0022 17.2506 16.6443 17.1456 16.334 16.9517C16.0239 16.7578 15.773 16.4823 15.6084 16.1558L15.6045 16.1479L15.1846 15.2983C15.1776 15.2842 15.1713 15.2698 15.165 15.2554H13.2812V20.2554ZM13.2812 9.25537H20.2812V6.25537H17.7812C17.4708 6.25537 17.1644 6.18329 16.8867 6.04443C16.6091 5.90563 16.3679 5.70381 16.1816 5.45557L15.2812 4.25537H13.2812V9.25537Z" fill="currentColor"/>
</svg>
