<svg width="24" height="24" viewBox="0 0 24 24" fill="none" xmlns="http://www.w3.org/2000/svg">
<path d="M11.3016 11.9156L7.76484 9.11719C7.69453 9.06094 7.59375 9.1125 7.59375 9.20156V11.2031H4.3125V4.3125H9.09375V7.3125C9.09375 7.36406 9.13594 7.40625 9.1875 7.40625H10.5938C10.6453 7.40625 10.6875 7.36406 10.6875 7.3125V3.375C10.6875 3.01172 10.3945 2.71875 10.0312 2.71875H3.375C3.01172 2.71875 2.71875 3.01172 2.71875 3.375V20.625C2.71875 20.9883 3.01172 21.2812 3.375 21.2812H10.0312C10.3945 21.2812 10.6875 20.9883 10.6875 20.625V16.6875C10.6875 16.6359 10.6453 16.5938 10.5938 16.5938H9.1875C9.13594 16.5938 9.09375 16.6359 9.09375 16.6875V19.6875H4.3125V12.7969H7.59375V14.7984C7.59375 14.8875 7.69687 14.9391 7.76484 14.8828L11.3016 12.0844C11.3578 12.0422 11.3578 11.9578 11.3016 11.9156ZM20.625 2.71875H13.9688C13.6055 2.71875 13.3125 3.01172 13.3125 3.375V7.3125C13.3125 7.36406 13.3547 7.40625 13.4062 7.40625H14.8125C14.8641 7.40625 14.9062 7.36406 14.9062 7.3125V4.3125H19.6875V11.2031H16.4062V9.20156C16.4062 9.1125 16.3055 9.06094 16.2352 9.11719L12.6961 11.9156C12.6422 11.9578 12.6422 12.0398 12.6961 12.082L16.2352 14.8828C16.3031 14.9367 16.4062 14.8875 16.4062 14.7984V12.7969H19.6875V19.6875H14.9062V16.6875C14.9062 16.6359 14.8641 16.5938 14.8125 16.5938H13.4062C13.3547 16.5938 13.3125 16.6359 13.3125 16.6875V20.625C13.3125 20.9883 13.6055 21.2812 13.9688 21.2812H20.625C20.9883 21.2812 21.2812 20.9883 21.2812 20.625V3.375C21.2812 3.01172 20.9883 2.71875 20.625 2.71875Z" fill="#0D121A"/>
</svg>
