<svg width="24" height="24" viewBox="0 0 24 24" fill="none" xmlns="http://www.w3.org/2000/svg">
<path d="M6.11915 3.91009C8.04529 2.50667 10.4092 1.83715 12.7852 2.02239C15.1613 2.20776 17.3938 3.23554 19.0791 4.92083C20.7644 6.60614 21.7922 8.83861 21.9776 11.2148C22.1628 13.5908 21.4933 15.9546 20.0899 17.8808C18.6863 19.8071 16.6409 21.169 14.3223 21.7206C12.1442 22.2388 9.85988 22.0094 7.83302 21.0781L2.3213 22.9472C1.96085 23.0694 1.56211 22.9761 1.29298 22.707C1.02387 22.4378 0.930563 22.0391 1.05275 21.6786L2.92091 16.1659C1.99002 14.1394 1.76124 11.8553 2.27931 9.67767C2.83094 7.359 4.19287 5.31364 6.11915 3.91009ZM12.6299 4.01653C10.7291 3.86828 8.83784 4.40357 7.29689 5.5263C5.75586 6.64914 4.66593 8.28562 4.22462 10.1406C3.78336 11.9954 4.01945 13.947 4.88966 15.6435C5.01312 15.8841 5.03405 16.1647 4.94728 16.4208L3.59767 20.4013L7.57911 19.0527L7.67579 19.0253C7.90451 18.9727 8.14574 19.0022 8.35646 19.1103C10.0529 19.9805 12.0045 20.2166 13.8594 19.7753C15.7143 19.334 17.3508 18.2441 18.4736 16.7031C19.5964 15.1621 20.1317 13.2709 19.9834 11.37C19.8351 9.46912 19.0133 7.68314 17.6651 6.33489C16.3168 4.98666 14.5308 4.16483 12.6299 4.01653ZM8.00978 10.9999C8.56205 10.9999 9.00975 11.4477 9.00978 11.9999C9.00978 12.5522 8.56206 12.9999 8.00978 12.9999H8.00001C7.44773 12.9999 7.00001 12.5522 7.00001 11.9999C7.00004 11.4477 7.44774 10.9999 8.00001 10.9999H8.00978ZM12.0098 10.9999C12.562 10.9999 13.0098 11.4477 13.0098 11.9999C13.0098 12.5522 12.5621 12.9999 12.0098 12.9999H12C11.4477 12.9999 11 12.5522 11 11.9999C11 11.4477 11.4477 10.9999 12 10.9999H12.0098ZM16.0098 10.9999C16.562 10.9999 17.0098 11.4477 17.0098 11.9999C17.0098 12.5522 16.5621 12.9999 16.0098 12.9999H16C15.4477 12.9999 15 12.5522 15 11.9999C15 11.4477 15.4477 10.9999 16 10.9999H16.0098Z" fill="#0D121A"/>
</svg>
