<svg width="24" height="24" viewBox="0 0 24 24" fill="none" xmlns="http://www.w3.org/2000/svg">
<path d="M21.3633 16.4227C21.3549 16.3994 21.342 16.3779 21.3253 16.3596C21.3086 16.3414 21.2885 16.3266 21.266 16.3161C21.2436 16.3056 21.2193 16.2997 21.1945 16.2987C21.1698 16.2977 21.1451 16.3016 21.1219 16.3102L19.6875 16.8328V4.21875C19.6875 3.3375 18.975 2.625 18.0938 2.625H5.90625C5.025 2.625 4.3125 3.3375 4.3125 4.21875V16.8328L2.87578 16.3102C2.85469 16.3031 2.83359 16.2984 2.8125 16.2984C2.70937 16.2984 2.625 16.3828 2.625 16.4859V17.8828C2.625 17.9602 2.67422 18.0305 2.74922 18.0586L11.7422 21.3305C11.9086 21.3914 12.0891 21.3914 12.2555 21.3305L21.2508 18.0609C21.3258 18.0328 21.375 17.9625 21.375 17.8852V16.4883C21.375 16.4648 21.3703 16.4438 21.3633 16.4227ZM12 19.6289L6 17.4469V4.3125H18V17.4469L12 19.6289ZM15.4828 7.3125H14.2055C14.1352 7.3125 14.0695 7.35234 14.0391 7.41562L12.0539 11.3719H11.9766L9.99141 7.41562C9.97586 7.38477 9.9521 7.35882 9.92273 7.34062C9.89337 7.32242 9.85955 7.31269 9.825 7.3125H8.51953C8.48906 7.3125 8.45859 7.31953 8.43047 7.33594C8.33906 7.38516 8.30625 7.5 8.35547 7.58906L10.7906 12.0797H9.45469C9.35156 12.0797 9.26719 12.1641 9.26719 12.2672V12.9023C9.26719 13.0055 9.35156 13.0898 9.45469 13.0898H11.2359V14.0039H9.45469C9.35156 14.0039 9.26719 14.0883 9.26719 14.1914V14.8266C9.26719 14.9297 9.35156 15.0141 9.45469 15.0141H11.2359V16.5C11.2359 16.6031 11.3203 16.6875 11.4234 16.6875H12.593C12.6961 16.6875 12.7805 16.6031 12.7805 16.5V15.0117H14.5687C14.6719 15.0117 14.7562 14.9273 14.7562 14.8242V14.1891C14.7562 14.0859 14.6719 14.0016 14.5687 14.0016H12.7805V13.0875H14.5687C14.6719 13.0875 14.7562 13.0031 14.7562 12.9V12.2648C14.7562 12.1617 14.6719 12.0773 14.5687 12.0773H13.2188L15.6492 7.58672C15.6633 7.55859 15.6727 7.52812 15.6727 7.49766C15.6703 7.39687 15.5859 7.3125 15.4828 7.3125Z" fill="#0D121A"/>
</svg>
