<svg width="24" height="24" viewBox="0 0 24 24" fill="none" xmlns="http://www.w3.org/2000/svg">
<path d="M16.237 9.67266L16.2417 9.66797L15.4307 8.62969C15.4157 8.61027 15.3969 8.59401 15.3756 8.58185C15.3542 8.56969 15.3307 8.56186 15.3063 8.55881C15.2819 8.55576 15.2571 8.55755 15.2334 8.56409C15.2098 8.57062 15.1876 8.58176 15.1682 8.59688L13.987 9.51797L12.3346 7.40625C12.3196 7.38683 12.3008 7.37057 12.2795 7.35841C12.2581 7.34625 12.2346 7.33842 12.2102 7.33537C12.1858 7.33232 12.161 7.33412 12.1374 7.34065C12.1137 7.34718 12.0915 7.35832 12.0721 7.37344L11.1838 8.06953C11.1644 8.08459 11.1482 8.10334 11.136 8.12469C11.1238 8.14604 11.116 8.16959 11.113 8.19397C11.1099 8.21836 11.1117 8.2431 11.1182 8.2668C11.1248 8.29049 11.1359 8.31265 11.151 8.33203L12.8034 10.4461L12.7987 10.4484L13.6096 11.4867C13.6729 11.5688 13.7901 11.5828 13.8721 11.5195L15.0534 10.5984L16.5557 12.5203C16.619 12.6023 16.7362 12.6164 16.8182 12.5531L17.7065 11.8594C17.7885 11.7961 17.8026 11.6789 17.7393 11.5969L16.237 9.67266ZM14.2495 2.625C10.3143 2.625 7.12446 5.81484 7.12446 9.75C7.12446 11.3977 7.68462 12.9141 8.62212 14.1211L2.67837 20.0648C2.64348 20.1001 2.6239 20.1477 2.6239 20.1973C2.6239 20.2469 2.64348 20.2944 2.67837 20.3297L3.66978 21.3211C3.74243 21.3938 3.86196 21.3938 3.93462 21.3211L9.87837 15.3773C11.0854 16.3148 12.6018 16.875 14.2495 16.875C18.1846 16.875 21.3745 13.6852 21.3745 9.75C21.3745 5.81484 18.1846 2.625 14.2495 2.625ZM18.0276 13.5281C17.0198 14.5383 15.6768 15.0938 14.2495 15.0938C12.8221 15.0938 11.4792 14.5383 10.4713 13.5281C9.46118 12.5203 8.90571 11.1773 8.90571 9.75C8.90571 8.32266 9.46118 6.97969 10.4713 5.97188C11.4792 4.96172 12.8221 4.40625 14.2495 4.40625C15.6768 4.40625 17.0198 4.96172 18.0276 5.97188C19.0377 6.97969 19.5932 8.32266 19.5932 9.75C19.5932 11.1773 19.0377 12.5203 18.0276 13.5281Z" fill="#0D121A"/>
</svg>
