<svg width="24" height="24" viewBox="0 0 24 24" fill="none" xmlns="http://www.w3.org/2000/svg">
<path fill-rule="evenodd" clip-rule="evenodd" d="M11.4678 2.6217C12.1863 2.5797 12.5457 3.47577 11.9972 3.94191C10.7257 5.02257 9.97964 6.60057 9.97964 8.30159C9.97964 11.46 12.54 14.0203 15.6984 14.0203C17.3994 14.0203 18.9774 13.2743 20.0581 12.0028C20.5238 11.4549 21.419 11.8129 21.3784 12.5308C21.0984 17.4849 16.9908 21.3797 12.007 21.3797C6.82285 21.3797 2.62027 17.1771 2.62027 11.993C2.62027 7.03855 6.47075 2.94556 11.3905 2.62623L11.3954 2.62592L11.4678 2.6217ZM9.56597 4.49084L9.4696 4.52277C6.34918 5.58151 4.12027 8.53813 4.12027 11.993C4.12027 16.3487 7.65127 19.8797 12.007 19.8797C15.4823 19.8797 18.4508 17.6252 19.4942 14.4795L19.5088 14.4342L19.5062 14.4358C18.4005 15.1233 17.1127 15.5082 15.7627 15.52L15.6984 15.5203C11.7116 15.5203 8.47964 12.2884 8.47964 8.30159C8.47964 6.92827 8.8658 5.61706 9.56417 4.49377L9.56597 4.49084Z" fill="#0D121A"/>
</svg>
