<svg width="24" height="24" viewBox="0 0 24 24" fill="none" xmlns="http://www.w3.org/2000/svg">
<path d="M19.7689 17.282C19.4782 15.5195 17.9126 14.2562 16.129 14.3429C14.3454 14.4297 12.911 15.8429 12.7962 17.6242C9.19854 17.5117 7.9212 16.6703 8.12979 14.9593C8.20713 14.3195 8.59385 13.9773 9.30401 13.8109C9.73526 13.7101 10.2134 13.6961 10.647 13.7359C10.6868 13.7406 10.729 13.7429 10.7689 13.7476C11.0337 13.8109 11.3032 13.8648 11.5728 13.907C12.372 14.0383 13.1853 14.1039 13.9587 14.0617C16.1337 13.9445 17.6149 12.9859 17.6899 10.9515C17.7626 8.98044 16.4079 7.58356 14.2235 6.64841C13.5228 6.34841 12.7798 6.11638 12.0368 5.9406C11.7017 5.86091 11.4204 5.807 11.2118 5.77185C11.0267 3.99294 9.53604 2.63591 7.74776 2.62185C5.95948 2.60778 4.44542 3.93669 4.22979 5.71325C4.01417 7.48981 5.16729 9.14216 6.90635 9.55466C8.64542 9.96716 10.4196 9.00856 11.0243 7.32575C11.2446 7.3656 11.4626 7.41013 11.6806 7.46169C12.3415 7.61638 13.0024 7.82263 13.6118 8.08513C15.2689 8.79294 16.1735 9.72809 16.1314 10.8953C16.0939 11.9406 15.3439 12.4234 13.8767 12.5031C13.2321 12.5383 12.5267 12.482 11.8306 12.3672C11.636 12.3343 11.4579 12.3015 11.3009 12.2664C11.2095 12.2476 11.1462 12.2312 11.1181 12.2242L11.0454 12.2101C10.9939 12.2031 10.9071 12.1914 10.7946 12.1797C10.2087 12.1258 9.57354 12.1445 8.95479 12.2875C7.66104 12.5898 6.75401 13.3937 6.58526 14.7672C6.21729 17.725 8.42745 19.0961 13.054 19.1945C13.736 20.8445 15.5478 21.7234 17.2634 21.2336C18.9814 20.7437 20.0595 19.0445 19.7689 17.282ZM7.7126 8.08981C6.63448 8.08981 5.76026 7.2156 5.76026 6.13747C5.76026 5.05935 6.63448 4.18513 7.7126 4.18513C8.79073 4.18513 9.66495 5.05935 9.66495 6.13747C9.66495 7.2156 8.79073 8.08981 7.7126 8.08981ZM16.3024 19.8039C15.2243 19.8039 14.3501 18.9297 14.3501 17.8515C14.3501 16.7734 15.2243 15.8992 16.3024 15.8992C17.3806 15.8992 18.2548 16.7734 18.2548 17.8515C18.2548 18.9297 17.3806 19.8039 16.3024 19.8039Z" fill="#0D121A"/>
</svg>
