<svg width="16" height="16" viewBox="0 0 16 16" fill="none" xmlns="http://www.w3.org/2000/svg">
<path d="M8.00293 5.33301C9.24507 5.33301 10.2856 6.18345 10.582 7.33301H14.0029C14.3711 7.33301 14.6699 7.63181 14.6699 8C14.6699 8.36819 14.3711 8.66699 14.0029 8.66699H10.582C10.2856 9.81655 9.24507 10.667 8.00293 10.667C6.76079 10.667 5.72026 9.81655 5.42383 8.66699H2.00293C1.63474 8.66699 1.33594 8.36819 1.33594 8C1.33594 7.63181 1.63474 7.33301 2.00293 7.33301H5.42383C5.72026 6.18345 6.76079 5.33301 8.00293 5.33301ZM8.00293 6.66699C7.26655 6.66699 6.66992 7.26362 6.66992 8C6.66992 8.73638 7.26655 9.33301 8.00293 9.33301C8.73931 9.33301 9.33594 8.73638 9.33594 8C9.33594 7.26362 8.73931 6.66699 8.00293 6.66699Z" fill="#4B4E57"/>
</svg>
