<svg width="24" height="24" viewBox="0 0 24 24" fill="none" xmlns="http://www.w3.org/2000/svg">
<path d="M22.3125 14.3436C22.4156 14.3436 22.5 14.2593 22.5 14.1561V12.8436C22.5 12.7405 22.4156 12.6561 22.3125 12.6561H6.98438C6.65156 11.8311 5.84297 11.2499 4.89844 11.2499C3.65625 11.2499 2.64844 12.2577 2.64844 13.4999C2.64844 14.7421 3.65625 15.7499 4.89844 15.7499C5.84297 15.7499 6.65156 15.1686 6.98438 14.3436H10.507V17.9061C10.507 19.1999 11.557 20.2499 12.8508 20.2499H22.3125C22.4156 20.2499 22.5 20.1655 22.5 20.0624V18.7499C22.5 18.6468 22.4156 18.5624 22.3125 18.5624H12.8508C12.4875 18.5624 12.1945 18.2694 12.1945 17.9061V14.3436H22.3125ZM10.5867 7.35222L14.6297 10.5444C14.7773 10.6639 15 10.5561 15 10.3639V8.06238H21.1875C21.2906 8.06238 21.375 7.978 21.375 7.87488V6.46863C21.375 6.3655 21.2906 6.28113 21.1875 6.28113H15V3.97956C15 3.78972 14.7797 3.67956 14.6297 3.79909L10.5867 6.99128C10.4719 7.08269 10.4719 7.26081 10.5867 7.35222Z" fill="#0D121A"/>
</svg>
