<svg width="24" height="24" viewBox="0 0 24 24" fill="none" xmlns="http://www.w3.org/2000/svg">
<path d="M22.3125 14.344C22.4156 14.344 22.5 14.2596 22.5 14.1565V12.844C22.5 12.7409 22.4156 12.6565 22.3125 12.6565H6.98438C6.65156 11.8315 5.84297 11.2503 4.89844 11.2503C3.65625 11.2503 2.64844 12.2581 2.64844 13.5003C2.64844 14.7424 3.65625 15.7503 4.89844 15.7503C5.84297 15.7503 6.65156 15.169 6.98438 14.344H10.507V17.9065C10.507 19.2003 11.557 20.2503 12.8508 20.2503H22.3125C22.4156 20.2503 22.5 20.1659 22.5 20.0628V18.7503C22.5 18.6471 22.4156 18.5628 22.3125 18.5628H12.8508C12.4875 18.5628 12.1945 18.2698 12.1945 17.9065V14.344H22.3125ZM10.6875 8.06276H16.875V10.3643C16.875 10.5542 17.0977 10.6643 17.2453 10.5448L21.2883 7.3526C21.4055 7.2612 21.4055 7.08542 21.2883 6.99401L17.2453 3.79948C17.0953 3.67995 16.875 3.78776 16.875 3.97995V6.28151H10.6875C10.5844 6.28151 10.5 6.36589 10.5 6.46901V7.87526C10.5 7.97839 10.5844 8.06276 10.6875 8.06276Z" fill="#0D121A"/>
</svg>
