<svg width="24" height="24" viewBox="0 0 24 24" fill="none" xmlns="http://www.w3.org/2000/svg">
<path d="M20.4375 9.23438C20.5406 9.23438 20.625 9.15 20.625 9.04688V7.64062C20.625 7.5375 20.5406 7.45312 20.4375 7.45312H16.5938V3.5625C16.5938 3.45937 16.5094 3.375 16.4062 3.375H14.9062C14.8031 3.375 14.7188 3.45937 14.7188 3.5625V7.45312H9.375V3.5625C9.375 3.45937 9.29063 3.375 9.1875 3.375H7.6875C7.58437 3.375 7.5 3.45937 7.5 3.5625V7.45312H3.5625C3.45937 7.45312 3.375 7.5375 3.375 7.64062V9.04688C3.375 9.15 3.45937 9.23438 3.5625 9.23438H7.5V14.7656H3.5625C3.45937 14.7656 3.375 14.85 3.375 14.9531V16.3594C3.375 16.4625 3.45937 16.5469 3.5625 16.5469H7.5V20.4375C7.5 20.5406 7.58437 20.625 7.6875 20.625H9.1875C9.29063 20.625 9.375 20.5406 9.375 20.4375V16.5469H14.7188V20.4375C14.7188 20.5406 14.8031 20.625 14.9062 20.625H16.4062C16.5094 20.625 16.5938 20.5406 16.5938 20.4375V16.5469H20.4375C20.5406 16.5469 20.625 16.4625 20.625 16.3594V14.9531C20.625 14.85 20.5406 14.7656 20.4375 14.7656H16.5938V9.23438H20.4375ZM14.7188 14.7656H9.375V9.23438H14.7188V14.7656Z" fill="#0D121A"/>
</svg>
