<svg width="24" height="24" viewBox="0 0 24 24" fill="none" xmlns="http://www.w3.org/2000/svg">
<path d="M7.40625 15.75H8.8125C8.91563 15.75 9 15.6656 9 15.5625V8.43748C9 8.33436 8.91563 8.24998 8.8125 8.24998H7.40625C7.30312 8.24998 7.21875 8.33436 7.21875 8.43748V15.5625C7.21875 15.6656 7.30312 15.75 7.40625 15.75ZM12 14.5781C12.518 14.5781 12.9375 14.1586 12.9375 13.664C12.9375 13.1226 12.518 12.7031 12 12.7031C11.482 12.7031 11.0625 13.1226 11.0625 13.664C11.0625 14.1586 11.482 14.5781 12 14.5781ZM12 11.2969C12.518 11.2969 12.9375 10.8773 12.9375 10.3828C12.9375 9.84139 12.518 9.42186 12 9.42186C11.482 9.42186 11.0625 9.84139 11.0625 10.3828C11.0625 10.8773 11.482 11.2969 12 11.2969Z" fill="#0D121A"/>
<path d="M20.625 2.62498H3.375C2.96016 2.62498 2.625 2.96014 2.625 3.37498V20.625C2.625 21.0398 2.96016 21.375 3.375 21.375H20.625C21.0398 21.375 21.375 21.0398 21.375 20.625V3.37498C21.375 2.96014 21.0398 2.62498 20.625 2.62498ZM19.6875 19.6875H4.3125V4.31248H19.6875V19.6875Z" fill="#0D121A"/>
<path d="M15.1875 15.75H16.5938C16.6969 15.75 16.7812 15.6656 16.7812 15.5625V8.43748C16.7812 8.33436 16.6969 8.24998 16.5938 8.24998H15.1875C15.0844 8.24998 15 8.33436 15 8.43748V15.5625C15 15.6656 15.0844 15.75 15.1875 15.75Z" fill="#0D121A"/>
</svg>
