<svg width="24" height="24" viewBox="0 0 24 24" fill="none" xmlns="http://www.w3.org/2000/svg">
<path d="M3.55274 13.1055C4.28837 12.7377 5.12281 12.6932 5.82227 13.043C6.54552 13.4046 7.00001 14.1319 7.00001 15C7.00001 15.5762 6.71788 16.0422 6.48731 16.3496C6.3132 16.5818 6.10183 16.8039 5.90919 17H6.00001C6.55229 17 7.00001 17.4477 7.00001 18C7.00001 18.5523 6.55229 19 6.00001 19H4.00001C3.44772 19 3.00001 18.5523 3.00001 18C3.00001 17.4238 3.28214 16.9578 3.5127 16.6504C3.75118 16.3324 4.05605 16.0299 4.29298 15.793C4.55597 15.53 4.75118 15.3324 4.8877 15.1504C4.9584 15.0561 4.98646 14.9995 4.99708 14.9756C4.99376 14.9126 4.98018 14.8818 4.97364 14.8711C4.96585 14.8584 4.95351 14.8449 4.92774 14.832C4.87721 14.8068 4.71165 14.7623 4.44727 14.8945C3.95329 15.1415 3.35247 14.9412 3.10548 14.4473C2.85849 13.9533 3.05876 13.3525 3.55274 13.1055ZM21 17C21.5523 17 22 17.4477 22 18C22 18.5523 21.5523 19 21 19H10C9.44772 19 9.00001 18.5523 9.00001 18C9.00001 17.4477 9.44772 17 10 17H21ZM21 11C21.5523 11 22 11.4477 22 12C22 12.5523 21.5523 13 21 13H10C9.44772 13 9.00001 12.5523 9.00001 12C9.00001 11.4477 9.44772 11 10 11H21ZM5.00001 5C5.55229 5 6.00001 5.44772 6.00001 6V9C6.55229 9 7.00001 9.44772 7.00001 10C7.00001 10.5523 6.55229 11 6.00001 11H4.00001C3.44772 11 3.00001 10.5523 3.00001 10C3.00001 9.44772 3.44772 9 4.00001 9V7C3.44772 7 3.00001 6.55228 3.00001 6C3.00001 5.44772 3.44772 5 4.00001 5H5.00001ZM21 5C21.5523 5 22 5.44772 22 6C22 6.55228 21.5523 7 21 7H10C9.44772 7 9.00001 6.55228 9.00001 6C9.00001 5.44772 9.44772 5 10 5H21Z" fill="#0D121A"/>
</svg>
