<svg width="24" height="24" viewBox="0 0 24 24" fill="none" xmlns="http://www.w3.org/2000/svg">
<path d="M18.264 4.60859C16.0561 2.40078 12.4608 2.40078 10.2554 4.60859L4.13817 10.7211C4.09833 10.7609 4.07723 10.8148 4.07723 10.8711C4.07723 10.9273 4.09833 10.9812 4.13817 11.0211L5.00301 11.8859C5.04254 11.9253 5.09606 11.9474 5.15184 11.9474C5.20762 11.9474 5.26114 11.9253 5.30067 11.8859L11.4179 5.77343C12.1772 5.01406 13.1874 4.59687 14.2608 4.59687C15.3343 4.59687 16.3444 5.01406 17.1015 5.77343C17.8608 6.53281 18.278 7.54296 18.278 8.61406C18.278 9.68749 17.8608 10.6953 17.1015 11.4547L10.8671 17.6867L9.85692 18.6969C8.91239 19.6414 7.37723 19.6414 6.4327 18.6969C5.97567 18.2398 5.72489 17.6328 5.72489 16.9859C5.72489 16.3391 5.97567 15.732 6.4327 15.275L12.6179 9.09218C12.7749 8.93749 12.9811 8.85077 13.2015 8.85077H13.2038C13.4241 8.85077 13.628 8.93749 13.7827 9.09218C13.9397 9.24921 14.0241 9.45546 14.0241 9.67577C14.0241 9.89374 13.9374 10.1 13.7827 10.2547L8.72723 15.3055C8.68739 15.3453 8.66629 15.3992 8.66629 15.4555C8.66629 15.5117 8.68739 15.5656 8.72723 15.6055L9.59208 16.4703C9.63161 16.5097 9.68512 16.5318 9.7409 16.5318C9.79669 16.5318 9.8502 16.5097 9.88973 16.4703L14.9429 11.4172C15.4093 10.9508 15.6647 10.332 15.6647 9.67343C15.6647 9.01484 15.4069 8.39374 14.9429 7.92968C13.9796 6.9664 12.414 6.96874 11.4507 7.92968L10.8507 8.53202L5.26786 14.1125C4.88894 14.4892 4.58859 14.9374 4.3842 15.431C4.17982 15.9247 4.07548 16.454 4.07723 16.9883C4.07723 18.0734 4.50145 19.093 5.26786 19.8594C6.06239 20.6516 7.10301 21.0476 8.14364 21.0476C9.18426 21.0476 10.2249 20.6516 11.0171 19.8594L18.264 12.6172C19.3304 11.5484 19.921 10.1258 19.921 8.61406C19.9233 7.09999 19.3327 5.67734 18.264 4.60859Z" fill="#0D121A"/>
</svg>
