<svg width="24" height="24" viewBox="0 0 24 24" fill="none" xmlns="http://www.w3.org/2000/svg">
<path d="M7.125 4.3125C7.125 4.20895 7.20895 4.125 7.3125 4.125H8.8125C8.91605 4.125 9 4.20895 9 4.3125V19.6875C9 19.7911 8.91605 19.875 8.8125 19.875H7.3125C7.20895 19.875 7.125 19.7911 7.125 19.6875V4.3125ZM16.6875 4.125H15.1875C15.0844 4.125 15 4.20937 15 4.3125V19.6875C15 19.7906 15.0844 19.875 15.1875 19.875H16.6875C16.7906 19.875 16.875 19.7906 16.875 19.6875V4.3125C16.875 4.20937 16.7906 4.125 16.6875 4.125Z" fill="#0D121A"/>
</svg>
