<svg width="24" height="24" viewBox="0 0 24 24" fill="none" xmlns="http://www.w3.org/2000/svg">
<path d="M21.1426 11.9999C21.1426 6.95042 17.0495 2.8573 12.0001 2.8573C6.9506 2.8573 2.85748 6.95042 2.85748 11.9999C2.85748 17.0493 6.9506 21.1425 12.0001 21.1425C17.0495 21.1425 21.1426 17.0493 21.1426 11.9999ZM9.14264 14.9999V8.99988C9.14264 8.52649 9.52667 8.14246 10.0001 8.14246C10.4734 8.14246 10.8575 8.52649 10.8575 8.99988V14.9999C10.8575 15.4733 10.4734 15.8573 10.0001 15.8573C9.52667 15.8573 9.14264 15.4733 9.14264 14.9999ZM13.1426 14.9999V8.99988C13.1426 8.52649 13.5267 8.14246 14.0001 8.14246C14.4734 8.14246 14.8575 8.52649 14.8575 8.99988V14.9999C14.8575 15.4733 14.4734 15.8573 14.0001 15.8573C13.5267 15.8573 13.1426 15.4733 13.1426 14.9999ZM22.8575 11.9999C22.8575 17.9961 17.9963 22.8573 12.0001 22.8573C6.00383 22.8573 1.14264 17.9961 1.14264 11.9999C1.14264 6.00364 6.00383 1.14246 12.0001 1.14246C17.9963 1.14246 22.8575 6.00364 22.8575 11.9999Z" fill="#0D121A"/>
</svg>
