<svg width="24" height="24" viewBox="0 0 24 24" fill="none" xmlns="http://www.w3.org/2000/svg">
<path d="M12 1.5C6.20156 1.5 1.5 6.20156 1.5 12C1.5 17.7984 6.20156 22.5 12 22.5C17.7984 22.5 22.5 17.7984 22.5 12C22.5 6.20156 17.7984 1.5 12 1.5ZM12 20.7188C7.18594 20.7188 3.28125 16.8141 3.28125 12C3.28125 7.18594 7.18594 3.28125 12 3.28125C16.8141 3.28125 20.7188 7.18594 20.7188 12C20.7188 16.8141 16.8141 20.7188 12 20.7188ZM15.7406 7.00781H14.3461C14.2758 7.00781 14.2102 7.04766 14.1797 7.11094L12.0563 11.3297H11.9766L9.85312 7.11094C9.83758 7.08009 9.81381 7.05413 9.78445 7.03593C9.75508 7.01774 9.72126 7.008 9.68672 7.00781H8.26406C8.23359 7.00781 8.20312 7.01484 8.175 7.03125C8.08359 7.08047 8.05078 7.19531 8.1 7.28672L10.7109 12.0867H9.27188C9.16875 12.0867 9.08438 12.1711 9.08438 12.2742V12.975C9.08438 13.0781 9.16875 13.1625 9.27188 13.1625H11.1867V14.1328H9.27188C9.16875 14.1328 9.08438 14.2172 9.08438 14.3203V15.0211C9.08438 15.1242 9.16875 15.2086 9.27188 15.2086H11.1867V16.8047C11.1867 16.9078 11.2711 16.9922 11.3742 16.9922H12.6469C12.75 16.9922 12.8344 16.9078 12.8344 16.8047V15.2086H14.7562C14.8594 15.2086 14.9437 15.1242 14.9437 15.0211V14.3203C14.9437 14.2172 14.8594 14.1328 14.7562 14.1328H12.8344V13.1602H14.7562C14.8594 13.1602 14.9437 13.0758 14.9437 12.9727V12.2719C14.9437 12.1687 14.8594 12.0844 14.7562 12.0844H13.3031L15.907 7.28437C15.9211 7.25625 15.9305 7.22578 15.9305 7.19531C15.9281 7.09219 15.8437 7.00781 15.7406 7.00781Z" fill="#0D121A"/>
</svg>
