<svg viewBox="0 0 24 24" fill="none" xmlns="http://www.w3.org/2000/svg">
<path d="M15 21V19C15 18.2043 14.6837 17.4415 14.1211 16.8789C13.5585 16.3163 12.7956 16 12 16H6C5.20435 16 4.44152 16.3163 3.87891 16.8789C3.3163 17.4415 3 18.2043 3 19V21C3 21.5523 2.55228 22 2 22C1.44772 22 1 21.5523 1 21V19C1 17.6739 1.52716 16.4025 2.46484 15.4648C3.40253 14.5272 4.67392 14 6 14H12C13.3261 14 14.5975 14.5272 15.5352 15.4648C16.4728 16.4025 17 17.6739 17 19V21C17 21.5523 16.5523 22 16 22C15.4477 22 15 21.5523 15 21ZM21 21V19.001L20.9893 18.7529C20.9411 18.1768 20.7275 17.6248 20.3711 17.165C19.9639 16.6397 19.3936 16.2648 18.75 16.0986C18.2153 15.9606 17.8942 15.4146 18.0322 14.8799C18.1704 14.3453 18.7153 14.0241 19.25 14.1621C20.3226 14.4391 21.2734 15.0639 21.9521 15.9395C22.6308 16.8149 22.9991 17.8913 23 18.999V21C23 21.5523 22.5523 22 22 22C21.4477 22 21 21.5523 21 21ZM12 7C12 5.34315 10.6569 4 9 4C7.34315 4 6 5.34315 6 7C6 8.65685 7.34315 10 9 10C10.6569 10 12 8.65685 12 7ZM18.0078 7.00488C18.0078 6.3388 17.7864 5.69122 17.3779 5.16504C16.9695 4.63892 16.3972 4.26384 15.752 4.09863C15.2169 3.96163 14.8943 3.41685 15.0312 2.88184C15.1683 2.34689 15.7131 2.02417 16.248 2.16113C17.3236 2.43651 18.2773 3.06244 18.958 3.93945C19.6385 4.81636 20.0078 5.89488 20.0078 7.00488C20.0078 8.1151 19.6388 9.19428 18.958 10.0713C18.2773 10.9483 17.3235 11.5733 16.248 11.8486C15.713 11.9856 15.1682 11.663 15.0312 11.1279C14.8943 10.5929 15.217 10.0481 15.752 9.91113C16.3972 9.74591 16.9695 9.37092 17.3779 8.84473C17.7864 8.31852 18.0078 7.67101 18.0078 7.00488ZM14 7C14 9.76142 11.7614 12 9 12C6.23858 12 4 9.76142 4 7C4 4.23858 6.23858 2 9 2C11.7614 2 14 4.23858 14 7Z" fill="currentColor"/>
</svg>
