<svg width="24" height="24" viewBox="0 0 24 24" fill="none" xmlns="http://www.w3.org/2000/svg">
<path d="M20.0555 4.94063L19.0617 3.94687C19.0265 3.91198 18.9789 3.89241 18.9293 3.89241C18.8797 3.89241 18.8321 3.91198 18.7969 3.94687L3.94453 18.7945C3.90964 18.8298 3.89006 18.8774 3.89006 18.927C3.89006 18.9765 3.90964 19.0241 3.94453 19.0594L4.93828 20.0531C5.01094 20.1258 5.13047 20.1258 5.20312 20.0531L20.0531 5.20312C20.1281 5.13281 20.1281 5.01328 20.0555 4.94063ZM7.125 10.5C8.98594 10.5 10.5 8.98594 10.5 7.125C10.5 5.26406 8.98594 3.75 7.125 3.75C5.26406 3.75 3.75 5.26406 3.75 7.125C3.75 8.98594 5.26406 10.5 7.125 10.5ZM7.125 5.4375C8.05547 5.4375 8.8125 6.19453 8.8125 7.125C8.8125 8.05547 8.05547 8.8125 7.125 8.8125C6.19453 8.8125 5.4375 8.05547 5.4375 7.125C5.4375 6.19453 6.19453 5.4375 7.125 5.4375ZM16.875 13.5C15.0141 13.5 13.5 15.0141 13.5 16.875C13.5 18.7359 15.0141 20.25 16.875 20.25C18.7359 20.25 20.25 18.7359 20.25 16.875C20.25 15.0141 18.7359 13.5 16.875 13.5ZM16.875 18.5625C15.9445 18.5625 15.1875 17.8055 15.1875 16.875C15.1875 15.9445 15.9445 15.1875 16.875 15.1875C17.8055 15.1875 18.5625 15.9445 18.5625 16.875C18.5625 17.8055 17.8055 18.5625 16.875 18.5625Z" fill="#0D121A"/>
</svg>
