<svg width="24" height="24" viewBox="0 0 24 24" fill="none" xmlns="http://www.w3.org/2000/svg">
<path d="M7.60022 1.91365C8.10639 1.69279 8.69574 1.92408 8.91662 2.43025C9.13736 2.93639 8.90614 3.52579 8.40002 3.74666C7.05266 4.33463 5.86959 5.24342 4.95471 6.39412C4.03992 7.54473 3.42115 8.90215 3.15197 10.3472C2.88284 11.7925 2.9714 13.2822 3.41076 14.6851C3.85012 16.088 4.62705 17.3615 5.67248 18.3951C6.71784 19.4286 8.00012 20.1905 9.40783 20.6138C10.8157 21.0372 12.3066 21.1094 13.7487 20.8238C15.1904 20.5382 16.5403 19.9038 17.6803 18.9761C18.8205 18.0482 19.7161 16.8545 20.2887 15.5006C20.5038 14.9919 21.0906 14.7543 21.5992 14.9693C22.1079 15.1844 22.3466 15.7712 22.1315 16.2799C21.4317 17.9347 20.3365 19.3928 18.943 20.5269C17.5494 21.6611 15.8989 22.4366 14.1363 22.7857C12.3741 23.1347 10.5531 23.0471 8.83264 22.5299C7.11202 22.0125 5.54396 21.0811 4.26623 19.8179C2.98847 18.5547 2.03956 16.9975 1.50256 15.2828C0.965613 13.5683 0.85635 11.7483 1.18518 9.98201C1.5141 8.21565 2.27116 6.55639 3.38928 5.14998C4.50748 3.74352 5.95339 2.6323 7.60022 1.91365ZM13.0963 1.05623C15.6217 1.30926 17.9821 2.42781 19.777 4.22224C21.5719 6.01672 22.6913 8.37657 22.9449 10.9019C23.0656 12.1066 22.0745 12.9993 21.0006 12.9996L12.9996 13.0006C12.4694 13.0005 11.9596 12.7905 11.5846 12.4156C11.2095 12.0405 10.9987 11.531 10.9987 11.0006V3.00056C10.9989 1.92727 11.8903 0.935742 13.0963 1.05623ZM20.942 10.9996C20.7149 8.97206 19.8072 7.08023 18.3629 5.6363C16.9184 4.1923 15.0265 3.28459 12.9987 3.05818V11.0006L20.942 10.9996Z" fill="#0D121A"/>
</svg>
