<svg width="16" height="16" viewBox="0 0 16 16" fill="none" xmlns="http://www.w3.org/2000/svg">
<path d="M1.66697 14.3332L1.75486 14.9943C1.54912 15.0217 1.34206 14.9516 1.19529 14.8049C1.04854 14.6581 0.978431 14.451 1.00584 14.2453L1.66697 14.3332ZM4.00193 9.99236C4.52406 10.0085 5.02241 10.2167 5.40037 10.5773L5.40916 10.5851C6.20169 11.3676 6.19109 12.6247 5.50974 13.4308L5.50877 13.4299C5.21372 13.7804 4.80849 14.0389 4.41794 14.2297C4.01919 14.4244 3.58866 14.5722 3.20212 14.6828C2.81352 14.794 2.45505 14.8716 2.19431 14.9211C2.06347 14.9459 1.95554 14.9638 1.87986 14.9758C1.84213 14.9817 1.81206 14.9864 1.79099 14.9894C1.78075 14.9909 1.77252 14.9915 1.76658 14.9924C1.76357 14.9928 1.76058 14.9931 1.75877 14.9933L1.75681 14.9943L1.66697 14.3332L1.00584 14.2453L1.00681 14.2433V14.2414C1.00705 14.2397 1.0074 14.2374 1.00779 14.2346C1.00863 14.2285 1.01016 14.2197 1.01169 14.2092C1.01476 14.1881 1.01841 14.158 1.02439 14.1203C1.03639 14.0446 1.05521 13.9367 1.08005 13.8058C1.12957 13.5451 1.20625 13.1865 1.31736 12.798C1.42793 12.4115 1.5767 11.9809 1.77146 11.5822C1.96248 11.1912 2.22006 10.7845 2.57127 10.4894C2.97061 10.1532 3.48012 9.97634 4.00193 9.99236ZM7.33396 13.3332V10.2765L5.72459 8.66717H2.66697C2.46932 8.66717 2.28191 8.57866 2.15525 8.42693C2.02871 8.27526 1.97548 8.07539 2.01072 7.88104L2.01169 7.87908V7.87713C2.01198 7.87557 2.01223 7.8736 2.01267 7.87127C2.01365 7.86607 2.01487 7.85856 2.01658 7.84979C2.02009 7.8318 2.02555 7.80615 2.0322 7.77459C2.04554 7.71134 2.06591 7.62206 2.09275 7.51385C2.14619 7.29842 2.22847 7.00224 2.3447 6.68182C2.56102 6.0855 2.9533 5.23207 3.62986 4.77947L3.63084 4.7785C4.02743 4.5142 4.49242 4.40469 4.91502 4.36541C5.34347 4.32559 5.77895 4.35377 6.1572 4.40252C6.50766 4.44769 6.82417 4.51421 7.06345 4.57147C7.87077 3.43177 8.92647 2.48699 10.1543 1.8117C11.5374 1.05097 13.0923 0.657417 14.6709 0.667169C15.0374 0.669442 15.3339 0.966684 15.334 1.33318C15.334 3.20701 14.8071 6.47175 11.4297 8.94451C11.4865 9.1829 11.5539 9.49613 11.5986 9.84295C11.6474 10.2212 11.6745 10.6567 11.6347 11.0851C11.5955 11.5078 11.4861 11.9736 11.2217 12.3703C10.769 13.0469 9.91466 13.4391 9.31834 13.6555C8.99789 13.7717 8.70173 13.8549 8.4863 13.9084C8.37822 13.9352 8.28876 13.9546 8.22556 13.968C8.19423 13.9746 8.16928 13.9801 8.15134 13.9836C8.14254 13.9853 8.13512 13.9865 8.12986 13.9875C8.12726 13.988 8.12469 13.9881 8.12302 13.9885L8.12107 13.9894H8.11912C7.92473 14.0246 7.72488 13.9715 7.57322 13.8449C7.4215 13.7182 7.33396 13.5308 7.33396 13.3332ZM3.96091 11.3254C3.7672 11.3194 3.57787 11.385 3.42966 11.5099L3.42869 11.5109C3.28021 11.6358 3.12126 11.8559 2.96873 12.1681C2.81986 12.473 2.6973 12.8236 2.59959 13.1652C2.56863 13.2734 2.54284 13.3799 2.51755 13.4816C2.61945 13.4563 2.72647 13.4316 2.83494 13.4006C3.17671 13.3028 3.52803 13.1804 3.83298 13.0314C4.14542 12.8788 4.36542 12.72 4.49021 12.5715L4.49119 12.5695C4.7558 12.2563 4.73268 11.7941 4.47361 11.5363C4.33415 11.4061 4.1518 11.3313 3.96091 11.3254ZM10.2236 9.70037C9.71887 9.97891 9.1997 10.2304 8.66697 10.4513V12.467C8.73073 12.4461 8.79767 12.4267 8.86423 12.4025C9.43942 12.1938 9.91926 11.9191 10.1133 11.6291C10.2084 11.4857 10.2785 11.2646 10.3066 10.9621C10.3343 10.6644 10.3166 10.3339 10.2754 10.0138C10.2614 9.90529 10.2413 9.80041 10.2236 9.70037ZM13.9726 2.02557C12.8612 2.11583 11.7785 2.44075 10.7969 2.98065C9.61303 3.6318 8.61485 4.5744 7.89841 5.7199L7.89548 5.72576C7.46518 6.39785 7.09373 7.10602 6.78416 7.841L8.16111 9.21795C8.90231 8.91021 9.61662 8.54084 10.2959 8.11248C13.1186 6.21968 13.8364 3.74305 13.9726 2.02557ZM5.03806 5.69354C4.7351 5.72174 4.51338 5.79156 4.37009 5.8869C4.08017 6.08109 3.80624 6.56178 3.59763 7.1369C3.57356 7.20328 3.55396 7.26959 3.53318 7.33318H5.55076C5.77462 6.80064 6.02816 6.28123 6.31052 5.77752C6.20739 5.75916 6.09863 5.73926 5.9863 5.72479C5.66635 5.68357 5.33573 5.66587 5.03806 5.69354Z" fill="#4B4E57"/>
</svg>
