<svg width="16" height="16" viewBox="0 0 16 16" fill="none" xmlns="http://www.w3.org/2000/svg">
<path d="M7.9974 9.99996L5.9974 7.99996M7.9974 9.99996C8.92863 9.64579 9.82199 9.19911 10.6641 8.66663M7.9974 9.99996V13.3333C7.9974 13.3333 10.0174 12.9666 10.6641 12C11.3841 10.92 10.6641 8.66663 10.6641 8.66663M5.9974 7.99996C6.35216 7.07958 6.79887 6.19734 7.33073 5.36663C8.10752 4.12462 9.18914 3.10199 10.4727 2.39602C11.7563 1.69005 13.1992 1.32421 14.6641 1.3333C14.6641 3.14663 14.1441 6.33329 10.6641 8.66663M5.9974 7.99996H2.66406C2.66406 7.99996 3.03073 5.97996 3.9974 5.33329C5.0774 4.61329 7.33073 5.33329 7.33073 5.33329M2.9974 11C1.9974 11.84 1.66406 14.3333 1.66406 14.3333C1.66406 14.3333 4.1574 14 4.9974 13C5.47073 12.44 5.46406 11.58 4.9374 11.06C4.67827 10.8126 4.33692 10.6697 3.97888 10.6586C3.62084 10.6476 3.27131 10.7691 2.9974 11Z" stroke="#4B4E57" stroke-width="1.33333" stroke-linecap="round" stroke-linejoin="round"/>
</svg>
