<svg width="24" height="24" viewBox="0 0 24 24" fill="none" xmlns="http://www.w3.org/2000/svg">
<path d="M10.3664 15.8799L15.0398 12.2072C15.0711 12.1824 15.0963 12.1509 15.1137 12.115C15.131 12.0791 15.14 12.0397 15.14 11.9998C15.14 11.9599 15.131 11.9205 15.1137 11.8846C15.0963 11.8487 15.0711 11.8172 15.0398 11.7924L10.3664 8.11738C10.193 7.98144 9.9375 8.10332 9.9375 8.32363V15.6713C9.9375 15.8916 10.193 16.0158 10.3664 15.8799Z" fill="#0D121A"/>
<path d="M20.625 2.625H3.375C2.96016 2.625 2.625 2.96016 2.625 3.375V20.625C2.625 21.0398 2.96016 21.375 3.375 21.375H20.625C21.0398 21.375 21.375 21.0398 21.375 20.625V3.375C21.375 2.96016 21.0398 2.625 20.625 2.625ZM19.6875 19.6875H4.3125V4.3125H19.6875V19.6875Z" fill="#0D121A"/>
</svg>
