<svg width="24" height="24" viewBox="0 0 24 24" fill="none" xmlns="http://www.w3.org/2000/svg">
<path d="M12 1.5C6.20156 1.5 1.5 6.20156 1.5 12C1.5 17.7984 6.20156 22.5 12 22.5C17.7984 22.5 22.5 17.7984 22.5 12C22.5 6.20156 17.7984 1.5 12 1.5ZM12 20.7188C7.18594 20.7188 3.28125 16.8141 3.28125 12C3.28125 7.18594 7.18594 3.28125 12 3.28125C16.8141 3.28125 20.7188 7.18594 20.7188 12C20.7188 16.8141 16.8141 20.7188 12 20.7188ZM15.2344 15.8016H11.0109V15.6914C11.6531 15.2883 12.0398 14.5102 12.0398 13.5563C12.0398 13.2258 11.9883 12.9023 11.9156 12.5953H14.2266C14.3297 12.5953 14.4141 12.5109 14.4141 12.4078V11.7047C14.4141 11.6016 14.3297 11.5172 14.2266 11.5172H11.6016C11.4328 10.9875 11.2875 10.4461 11.2875 9.86484C11.2875 8.84531 12.0844 8.21953 13.3336 8.21953C13.8375 8.21953 14.3297 8.31563 14.7492 8.46563C14.8711 8.51016 14.9977 8.41875 14.9977 8.2875V7.36172C14.9977 7.28438 14.9484 7.21406 14.8758 7.18594C14.4352 7.01719 13.8492 6.88828 13.2281 6.88828C11.0508 6.88828 9.67734 7.93125 9.67734 9.70781C9.67734 10.3242 9.83906 10.9266 10.0195 11.5148H8.76562C8.6625 11.5148 8.57812 11.5992 8.57812 11.7023V12.4055C8.57812 12.5086 8.6625 12.593 8.76562 12.593H10.3383C10.418 12.9375 10.4766 13.282 10.4766 13.6289C10.4766 14.6883 9.80156 15.5813 8.77031 15.8367C8.68594 15.8578 8.62734 15.9328 8.62734 16.0195V16.9219C8.62734 17.025 8.71172 17.1094 8.81484 17.1094H15.2344C15.3375 17.1094 15.4219 17.025 15.4219 16.9219V15.9891C15.4219 15.8859 15.3375 15.8016 15.2344 15.8016Z" fill="#0D121A"/>
</svg>
