<svg width="24" height="24" viewBox="0 0 24 24" fill="none" xmlns="http://www.w3.org/2000/svg">
<path d="M16.5371 2.92734C16.5084 2.91289 16.4765 2.90604 16.4444 2.90747C16.4123 2.90889 16.3811 2.91854 16.3538 2.93548C16.3265 2.95242 16.304 2.97608 16.2885 3.00421C16.273 3.03233 16.265 3.06397 16.2652 3.09609V4.60078C16.2652 4.72969 16.3332 4.84922 16.441 4.91953C16.9695 5.2522 17.4586 5.64376 17.8988 6.08672C18.6652 6.85547 19.2675 7.74844 19.6871 8.74219C20.1209 9.77093 20.3433 10.8765 20.341 11.993C20.341 13.1203 20.1207 14.2148 19.6871 15.2438C19.268 16.2361 18.6607 17.1378 17.8988 17.8992C17.1394 18.6631 16.2381 19.2713 15.2457 19.6898C14.2191 20.1258 13.1246 20.3461 11.9996 20.3461C10.8746 20.3461 9.78004 20.1258 8.75347 19.6898C7.76099 19.2713 6.85975 18.6631 6.10035 17.8992C5.3384 17.1378 4.73112 16.2361 4.31207 15.2438C3.8782 14.215 3.65581 13.1095 3.65816 11.993C3.65816 10.8656 3.87847 9.77109 4.31207 8.74219C4.7316 7.74844 5.33394 6.85547 6.10035 6.08672C6.54566 5.64141 7.03316 5.25234 7.55816 4.91953C7.66832 4.85156 7.73394 4.72969 7.73394 4.60078V3.09375C7.73394 2.95312 7.58629 2.86406 7.46207 2.925C4.18316 4.575 1.92144 7.95234 1.87457 11.8664C1.80894 17.4633 6.38629 22.1133 11.9808 22.125C17.5824 22.1367 22.1246 17.5945 22.1246 11.9906C22.1246 8.025 19.8511 4.59141 16.5371 2.92734ZM11.2496 13.125H12.7496C12.8527 13.125 12.9371 13.0406 12.9371 12.9375V2.0625C12.9371 1.95937 12.8527 1.875 12.7496 1.875H11.2496C11.1464 1.875 11.0621 1.95937 11.0621 2.0625V12.9375C11.0621 13.0406 11.1464 13.125 11.2496 13.125Z" fill="#0D121A"/>
</svg>
