<svg width="24" height="24" viewBox="0 0 24 24" fill="none" xmlns="http://www.w3.org/2000/svg">
<path d="M19.2188 10.2188H18.2812C18.1781 10.2188 18.0938 10.3031 18.0938 10.4062V11.3438C18.0938 11.4469 18.1781 11.5312 18.2812 11.5312H19.2188C19.3219 11.5312 19.4062 11.4469 19.4062 11.3438V10.4062C19.4062 10.3031 19.3219 10.2188 19.2188 10.2188ZM19.9688 7.78125H17.1562V2.8125C17.1562 2.70937 17.0719 2.625 16.9688 2.625H7.03125C6.92812 2.625 6.84375 2.70937 6.84375 2.8125V7.78125H4.03125C2.99531 7.78125 2.15625 8.62031 2.15625 9.65625V17.3438C2.15625 17.7586 2.49141 18.0938 2.90625 18.0938H6.84375V21.1875C6.84375 21.2906 6.92812 21.375 7.03125 21.375H16.9688C17.0719 21.375 17.1562 21.2906 17.1562 21.1875V18.0938H21.0938C21.5086 18.0938 21.8438 17.7586 21.8438 17.3438V9.65625C21.8438 8.62031 21.0047 7.78125 19.9688 7.78125ZM8.4375 4.21875H15.5625V7.78125H8.4375V4.21875ZM15.5625 19.7812H8.4375V13.3125H15.5625V19.7812ZM20.25 16.5H17.1562V11.7188H6.84375V16.5H3.75V9.65625C3.75 9.50156 3.87656 9.375 4.03125 9.375H19.9688C20.1234 9.375 20.25 9.50156 20.25 9.65625V16.5Z" fill="#0D121A"/>
</svg>
