<svg width="24" height="24" viewBox="0 0 24 24" fill="none" xmlns="http://www.w3.org/2000/svg">
<path fill-rule="evenodd" clip-rule="evenodd" d="M10.875 3.375C11.0821 3.375 11.25 3.54288 11.25 3.75V10.875C11.25 11.0821 11.0821 11.25 10.875 11.25H3.75C3.54288 11.25 3.375 11.0821 3.375 10.875V3.75C3.375 3.54288 3.54288 3.375 3.75 3.375H10.875ZM9.65625 4.96875H4.96875V9.65625H9.65625V4.96875ZM21.2187 7.02389C21.3652 7.17033 21.3652 7.40777 21.2187 7.55421L16.9761 11.7969C16.8296 11.9433 16.5922 11.9433 16.4458 11.7969L12.2031 7.55421C12.0567 7.40777 12.0567 7.17033 12.2031 7.02389L16.4458 2.78123C16.5922 2.6348 16.8296 2.6348 16.9761 2.78123L21.2187 7.02389ZM19.23 7.28904L16.7109 4.77L14.1919 7.28906L16.7109 9.80812L19.23 7.28904ZM10.875 12.75C11.0821 12.75 11.25 12.9179 11.25 13.125V20.25C11.25 20.4571 11.0821 20.625 10.875 20.625H3.75C3.54288 20.625 3.375 20.4571 3.375 20.25V13.125C3.375 12.9179 3.54288 12.75 3.75 12.75H10.875ZM9.65625 14.3437H4.96875V19.0312H9.65625V14.3437ZM20.25 12.75C20.4571 12.75 20.625 12.9179 20.625 13.125V20.25C20.625 20.4571 20.4571 20.625 20.25 20.625H13.125C12.9179 20.625 12.75 20.4571 12.75 20.25V13.125C12.75 12.9179 12.9179 12.75 13.125 12.75H20.25ZM19.0312 14.3437H14.3438V19.0312H19.0312V14.3437Z" fill="#0D121A"/>
</svg>
