<svg width="24" height="24" viewBox="0 0 24 24" fill="none" xmlns="http://www.w3.org/2000/svg">
<path d="M20.318 3.98203L12.3539 1.26797C12.2578 1.23516 12.1289 1.21875 12 1.21875C11.8711 1.21875 11.7422 1.23516 11.6461 1.26797L3.68203 3.98203C3.4875 4.04766 3.32812 4.27266 3.32812 4.47891V15.7852C3.32812 15.9914 3.46172 16.2633 3.62344 16.3922L11.7023 22.6875C11.7844 22.7508 11.8898 22.7836 11.9977 22.7836C12.1055 22.7836 12.2133 22.7508 12.293 22.6875L20.3719 16.3922C20.5336 16.2656 20.6672 15.9937 20.6672 15.7852V4.47891C20.6719 4.27266 20.5125 4.05 20.318 3.98203ZM18.9844 15.3352L12 20.7773L5.01562 15.3352V5.31328L12 2.93203L18.9844 5.31328V15.3352ZM10.0898 7.45312H9.01172C8.97188 7.45312 8.93438 7.4625 8.89922 7.48125C8.84487 7.51143 8.80457 7.56177 8.78703 7.62141C8.76949 7.68105 8.77611 7.7452 8.80547 7.8L10.868 11.5758H9.80859C9.67969 11.5758 9.57422 11.6812 9.57422 11.8102V12.3094C9.57422 12.4383 9.67969 12.5437 9.80859 12.5437H11.2875V13.2398H9.80859C9.67969 13.2398 9.57422 13.3453 9.57422 13.4742V13.9734C9.57422 14.1023 9.67969 14.2078 9.80859 14.2078H11.2875V15.4219C11.2875 15.5508 11.393 15.6562 11.5219 15.6562H12.4898C12.6188 15.6562 12.7242 15.5508 12.7242 15.4219V14.2078H14.2102C14.3391 14.2078 14.4445 14.1023 14.4445 13.9734V13.4742C14.4445 13.3453 14.3391 13.2398 14.2102 13.2398H12.7242V12.5437H14.2102C14.3391 12.5437 14.4445 12.4383 14.4445 12.3094V11.8102C14.4445 11.6812 14.3391 11.5758 14.2102 11.5758H13.1391L15.1945 7.8C15.2137 7.76421 15.2233 7.72407 15.2224 7.68347C15.2215 7.64287 15.2102 7.60319 15.1894 7.56829C15.1687 7.53338 15.1392 7.50443 15.104 7.48425C15.0688 7.46408 15.0289 7.45335 14.9883 7.45312H13.9336C13.8445 7.45312 13.7648 7.50234 13.725 7.58203L12.0094 10.9641L10.3008 7.58203C10.2609 7.50234 10.1789 7.45312 10.0898 7.45312Z" fill="#0D121A"/>
</svg>
