<svg width="16" height="16" viewBox="0 0 16 16" fill="none" xmlns="http://www.w3.org/2000/svg">
<path d="M5.33594 4C5.33594 3.26362 4.73931 2.66699 4.00293 2.66699C3.26655 2.66699 2.66992 3.26362 2.66992 4C2.66992 4.73638 3.26655 5.33301 4.00293 5.33301C4.73931 5.33301 5.33594 4.73638 5.33594 4ZM13.3359 12C13.3359 11.2636 12.7393 10.667 12.0029 10.667C11.2666 10.667 10.6699 11.2636 10.6699 12C10.6699 12.7364 11.2666 13.333 12.0029 13.333C12.7393 13.333 13.3359 12.7364 13.3359 12ZM14.6699 12C14.6699 13.4728 13.4757 14.667 12.0029 14.667C10.5302 14.667 9.33594 13.4728 9.33594 12C9.33594 10.7579 10.1864 9.71733 11.3359 9.4209V5.33301C11.3359 5.15631 11.2656 4.98725 11.1406 4.8623C11.0157 4.73736 10.8466 4.66708 10.6699 4.66699H8.66992C8.30173 4.66699 8.00293 4.36819 8.00293 4C8.00293 3.63181 8.30173 3.33301 8.66992 3.33301H10.6699C11.2002 3.33309 11.709 3.54395 12.084 3.91895C12.459 4.29394 12.6698 4.80269 12.6699 5.33301V9.4209C13.8195 9.71733 14.6699 10.7579 14.6699 12ZM6.66992 4C6.66992 5.24206 5.81936 6.28161 4.66992 6.57812V14C4.66992 14.3682 4.37112 14.667 4.00293 14.667C3.63474 14.667 3.33594 14.3682 3.33594 14V6.57812C2.1865 6.28161 1.33594 5.24205 1.33594 4C1.33594 2.52724 2.53017 1.33301 4.00293 1.33301C5.47569 1.33301 6.66992 2.52724 6.66992 4Z" fill="#4B4E57"/>
</svg>
