<svg width="24" height="24" viewBox="0 0 24 24" fill="none" xmlns="http://www.w3.org/2000/svg">
<path d="M20.5845 9.18984L14.8095 3.41484C14.6571 3.2625 14.4579 3.1875 14.2587 3.1875C14.0595 3.1875 13.8603 3.2625 13.7079 3.41484L9.93213 7.19297C9.64619 7.16016 9.35791 7.14609 9.06963 7.14609C7.354 7.14609 5.63838 7.71094 4.22978 8.84063C4.14448 8.90912 4.07457 8.99481 4.0246 9.09212C3.97462 9.18943 3.94571 9.29618 3.93974 9.40541C3.93377 9.51464 3.95088 9.6239 3.98995 9.72608C4.02902 9.82826 4.08918 9.92106 4.1665 9.99844L8.4251 14.257L3.37666 19.3008C3.31479 19.3623 3.27661 19.4436 3.26885 19.5305L3.18916 20.4023C3.16806 20.6227 3.34385 20.8102 3.56181 20.8102C3.57353 20.8102 3.58525 20.8102 3.59697 20.8078L4.46885 20.7281C4.55556 20.7211 4.6376 20.6813 4.69853 20.6203L9.74697 15.5719L14.0056 19.8305C14.1579 19.9828 14.3571 20.0578 14.5563 20.0578C14.7837 20.0578 15.0087 19.9594 15.1634 19.7672C16.4829 18.1195 17.0313 16.057 16.8087 14.0625L20.5845 10.2867C20.8868 9.98672 20.8868 9.49453 20.5845 9.18984ZM15.6134 12.8742L15.0392 13.4484L15.1282 14.2547C15.2679 15.5017 15.019 16.7615 14.4157 17.8617L6.13994 9.58125C6.44228 9.41484 6.75635 9.27422 7.08447 9.16172C7.72197 8.94141 8.38994 8.83125 9.06963 8.83125C9.29463 8.83125 9.52197 8.84297 9.74697 8.86875L10.5532 8.95781L11.1274 8.38359L14.261 5.25L18.7493 9.73828L15.6134 12.8742Z" fill="#0D121A"/>
</svg>
