<svg width="24" height="24" viewBox="0 0 24 24" fill="none" xmlns="http://www.w3.org/2000/svg">
<path d="M21.7217 9.30784L12.4404 2.55784C12.3126 2.46418 12.1583 2.4137 11.9998 2.4137C11.8413 2.4137 11.687 2.46418 11.5592 2.55784L2.27793 9.30784C2.14976 9.40102 2.05441 9.53241 2.00556 9.68316C1.95672 9.83391 1.95689 9.99626 2.00606 10.1469L5.55215 21.0688C5.6011 21.2192 5.69637 21.3503 5.82435 21.4434C5.95232 21.5364 6.10643 21.5866 6.26465 21.5867H17.7373C18.0631 21.5867 18.349 21.3781 18.4498 21.0688L21.9959 10.1469C22.0943 9.83752 21.9842 9.50002 21.7217 9.30784ZM19.6545 9.77424L17.3459 10.5242L12.6584 7.13284V4.68596L19.6545 9.77424ZM10.9217 13.2946L8.8334 16.161L7.53965 12.1953L10.9217 13.2946ZM8.1959 11.0258L11.3436 8.75002V12.05L8.1959 11.0258ZM11.9998 14.0446L14.2006 17.0656H9.79902L11.9998 14.0446ZM12.6584 8.75002L15.8037 11.0258L12.6584 12.0477V8.75002ZM13.0779 13.2946L16.46 12.1953L15.1662 16.161L13.0779 13.2946ZM11.3436 4.68596V7.13284L6.65371 10.5242L4.34512 9.77424L11.3436 4.68596ZM3.96777 11.0352L5.99512 11.6938L7.87949 17.4688L6.61856 19.2008L3.96777 11.0352ZM7.66621 19.993L8.84512 18.3758H15.1568L16.3357 19.993H7.66621ZM17.3811 19.2008L16.1201 17.4688L18.0045 11.6938L20.0318 11.0352L17.3811 19.2008Z" fill="#0D121A"/>
</svg>
