<svg width="24" height="24" viewBox="0 0 24 24" fill="none" xmlns="http://www.w3.org/2000/svg">
<path d="M8.625 19.3125H7.3125C7.20937 19.3125 7.125 19.3969 7.125 19.5V20.8125C7.125 20.9156 7.20937 21 7.3125 21H8.625C8.72813 21 8.8125 20.9156 8.8125 20.8125V19.5C8.8125 19.3969 8.72813 19.3125 8.625 19.3125ZM7.26562 4.6875H8.57812C8.68125 4.6875 8.76562 4.60312 8.76562 4.5V3.1875C8.76562 3.08437 8.68125 3 8.57812 3H7.26562C7.1625 3 7.07812 3.08437 7.07812 3.1875V4.5C7.07812 4.60312 7.1625 4.6875 7.26562 4.6875ZM20.8125 7.07812H19.5C19.3969 7.07812 19.3125 7.1625 19.3125 7.26562V8.57812C19.3125 8.68125 19.3969 8.76562 19.5 8.76562H20.8125C20.9156 8.76562 21 8.68125 21 8.57812V7.26562C21 7.1625 20.9156 7.07812 20.8125 7.07812ZM20.8125 3H19.5C19.3969 3 19.3125 3.08437 19.3125 3.1875V4.5C19.3125 4.60312 19.3969 4.6875 19.5 4.6875H20.8125C20.9156 4.6875 21 4.60312 21 4.5V3.1875C21 3.08437 20.9156 3 20.8125 3ZM4.5 19.3125H3.1875C3.08437 19.3125 3 19.3969 3 19.5V20.8125C3 20.9156 3.08437 21 3.1875 21H4.5C4.60312 21 4.6875 20.9156 4.6875 20.8125V19.5C4.6875 19.3969 4.60312 19.3125 4.5 19.3125ZM4.5 15.2344H3.1875C3.08437 15.2344 3 15.3188 3 15.4219V16.7344C3 16.8375 3.08437 16.9219 3.1875 16.9219H4.5C4.60312 16.9219 4.6875 16.8375 4.6875 16.7344V15.4219C4.6875 15.3188 4.60312 15.2344 4.5 15.2344ZM4.5 11.1562H3.1875C3.08437 11.1562 3 11.2406 3 11.3438V12.6562C3 12.7594 3.08437 12.8438 3.1875 12.8438H4.5C4.60312 12.8438 4.6875 12.7594 4.6875 12.6562V11.3438C4.6875 11.2406 4.60312 11.1562 4.5 11.1562ZM4.5 7.07812H3.1875C3.08437 7.07812 3 7.1625 3 7.26562V8.57812C3 8.68125 3.08437 8.76562 3.1875 8.76562H4.5C4.60312 8.76562 4.6875 8.68125 4.6875 8.57812V7.26562C4.6875 7.1625 4.60312 7.07812 4.5 7.07812ZM4.5 3H3.1875C3.08437 3 3 3.08437 3 3.1875V4.5C3 4.60312 3.08437 4.6875 3.1875 4.6875H4.5C4.60312 4.6875 4.6875 4.60312 4.6875 4.5V3.1875C4.6875 3.08437 4.60312 3 4.5 3ZM11.3438 4.6875H12.6562C12.7594 4.6875 12.8438 4.60312 12.8438 4.5V3.1875C12.8438 3.08437 12.7594 3 12.6562 3H11.3438C11.2406 3 11.1562 3.08437 11.1562 3.1875V4.5C11.1562 4.60312 11.2406 4.6875 11.3438 4.6875ZM15.4219 4.6875H16.7344C16.8375 4.6875 16.9219 4.60312 16.9219 4.5V3.1875C16.9219 3.08437 16.8375 3 16.7344 3H15.4219C15.3188 3 15.2344 3.08437 15.2344 3.1875V4.5C15.2344 4.60312 15.3188 4.6875 15.4219 4.6875ZM20.8125 11.1562H19.5C19.3969 11.1562 19.3125 11.2406 19.3125 11.3438V15.6094C19.3125 17.6555 17.6555 19.3125 15.6094 19.3125H11.3438C11.2406 19.3125 11.1562 19.3969 11.1562 19.5V20.8125C11.1562 20.9156 11.2406 21 11.3438 21H15.6094C18.5859 21 21 18.5859 21 15.6094V11.3438C21 11.2406 20.9156 11.1562 20.8125 11.1562Z" fill="#0D121A"/>
</svg>
