<svg width="24" height="24" viewBox="0 0 24 24" fill="none" xmlns="http://www.w3.org/2000/svg">
<path d="M9.28125 3.28125H7.96875C7.86562 3.28125 7.78125 3.36563 7.78125 3.46875V4.78125C7.78125 4.88438 7.86562 4.96875 7.96875 4.96875H9.28125C9.38438 4.96875 9.46875 4.88438 9.46875 4.78125V3.46875C9.46875 3.36563 9.38438 3.28125 9.28125 3.28125ZM8.25 19.3125H6.9375C6.83437 19.3125 6.75 19.3969 6.75 19.5V20.8125C6.75 20.9156 6.83437 21 6.9375 21H8.25C8.35313 21 8.4375 20.9156 8.4375 20.8125V19.5C8.4375 19.3969 8.35313 19.3125 8.25 19.3125ZM20.5312 14.5312H19.2188C19.1156 14.5312 19.0312 14.6156 19.0312 14.7188V16.0312C19.0312 16.1344 19.1156 16.2188 19.2188 16.2188H20.5312C20.6344 16.2188 20.7188 16.1344 20.7188 16.0312V14.7188C20.7188 14.6156 20.6344 14.5312 20.5312 14.5312ZM4.5 8.0625H3.1875C3.08438 8.0625 3 8.14687 3 8.25V9.5625C3 9.66563 3.08438 9.75 3.1875 9.75H4.5C4.60313 9.75 4.6875 9.66563 4.6875 9.5625V8.25C4.6875 8.14687 4.60313 8.0625 4.5 8.0625ZM4.5 11.8125H3.1875C3.08438 11.8125 3 11.8969 3 12V13.3125C3 13.4156 3.08438 13.5 3.1875 13.5H4.5C4.60313 13.5 4.6875 13.4156 4.6875 13.3125V12C4.6875 11.8969 4.60313 11.8125 4.5 11.8125ZM4.5 15.5625H3.1875C3.08438 15.5625 3 15.6469 3 15.75V17.0625C3 17.1656 3.08438 17.25 3.1875 17.25H4.5C4.60313 17.25 4.6875 17.1656 4.6875 17.0625V15.75C4.6875 15.6469 4.60313 15.5625 4.5 15.5625ZM4.5 19.3125H3.1875C3.08438 19.3125 3 19.3969 3 19.5V20.8125C3 20.9156 3.08438 21 3.1875 21H4.5C4.60313 21 4.6875 20.9156 4.6875 20.8125V19.5C4.6875 19.3969 4.60313 19.3125 4.5 19.3125ZM12 19.3125H10.6875C10.5844 19.3125 10.5 19.3969 10.5 19.5V20.8125C10.5 20.9156 10.5844 21 10.6875 21H12C12.1031 21 12.1875 20.9156 12.1875 20.8125V19.5C12.1875 19.3969 12.1031 19.3125 12 19.3125ZM15.75 19.3125H14.4375C14.3344 19.3125 14.25 19.3969 14.25 19.5V20.8125C14.25 20.9156 14.3344 21 14.4375 21H15.75C15.8531 21 15.9375 20.9156 15.9375 20.8125V19.5C15.9375 19.3969 15.8531 19.3125 15.75 19.3125ZM19.0312 12.6562C19.0312 12.7594 19.1156 12.8438 19.2188 12.8438H20.5312C20.6344 12.8438 20.7188 12.7594 20.7188 12.6562V8.67188C20.7188 5.69531 18.3047 3.28125 15.3281 3.28125H11.3438C11.2406 3.28125 11.1562 3.36563 11.1562 3.46875V4.78125C11.1562 4.88438 11.2406 4.96875 11.3438 4.96875H15.3281C17.3742 4.96875 19.0312 6.62578 19.0312 8.67188V12.6562ZM5.53125 2.25H2.15625C2.05312 2.25 1.96875 2.33437 1.96875 2.4375V5.8125C1.96875 5.91563 2.05312 6 2.15625 6H5.53125C5.63438 6 5.71875 5.91563 5.71875 5.8125V2.4375C5.71875 2.33437 5.63438 2.25 5.53125 2.25ZM4.40625 4.63125C4.40625 4.66172 4.38047 4.6875 4.35 4.6875H3.3375C3.30703 4.6875 3.28125 4.66172 3.28125 4.63125V3.61875C3.28125 3.58828 3.30703 3.5625 3.3375 3.5625H4.35C4.38047 3.5625 4.40625 3.58828 4.40625 3.61875V4.63125ZM21.5625 18.2812H18.1875C18.0844 18.2812 18 18.3656 18 18.4688V21.8438C18 21.9469 18.0844 22.0312 18.1875 22.0312H21.5625C21.6656 22.0312 21.75 21.9469 21.75 21.8438V18.4688C21.75 18.3656 21.6656 18.2812 21.5625 18.2812ZM20.4375 20.6625C20.4375 20.693 20.4117 20.7188 20.3812 20.7188H19.3688C19.3383 20.7188 19.3125 20.693 19.3125 20.6625V19.65C19.3125 19.6195 19.3383 19.5938 19.3688 19.5938H20.3812C20.4117 19.5938 20.4375 19.6195 20.4375 19.65V20.6625Z" fill="#0D121A"/>
</svg>
