<svg width="24" height="24" viewBox="0 0 24 24" fill="none" xmlns="http://www.w3.org/2000/svg">
<path d="M15.375 4.6875H16.6875C16.7906 4.6875 16.875 4.60312 16.875 4.5V3.1875C16.875 3.08437 16.7906 3 16.6875 3H15.375C15.2719 3 15.1875 3.08437 15.1875 3.1875V4.5C15.1875 4.60312 15.2719 4.6875 15.375 4.6875ZM16.7344 19.3125H15.4219C15.3188 19.3125 15.2344 19.3969 15.2344 19.5V20.8125C15.2344 20.9156 15.3188 21 15.4219 21H16.7344C16.8375 21 16.9219 20.9156 16.9219 20.8125V19.5C16.9219 19.3969 16.8375 19.3125 16.7344 19.3125ZM4.5 15.2344H3.1875C3.08437 15.2344 3 15.3188 3 15.4219V16.7344C3 16.8375 3.08437 16.9219 3.1875 16.9219H4.5C4.60312 16.9219 4.6875 16.8375 4.6875 16.7344V15.4219C4.6875 15.3188 4.60312 15.2344 4.5 15.2344ZM4.5 19.3125H3.1875C3.08437 19.3125 3 19.3969 3 19.5V20.8125C3 20.9156 3.08437 21 3.1875 21H4.5C4.60312 21 4.6875 20.9156 4.6875 20.8125V19.5C4.6875 19.3969 4.60312 19.3125 4.5 19.3125ZM20.8125 3H19.5C19.3969 3 19.3125 3.08437 19.3125 3.1875V4.5C19.3125 4.60312 19.3969 4.6875 19.5 4.6875H20.8125C20.9156 4.6875 21 4.60312 21 4.5V3.1875C21 3.08437 20.9156 3 20.8125 3ZM20.8125 7.07812H19.5C19.3969 7.07812 19.3125 7.1625 19.3125 7.26562V8.57812C19.3125 8.68125 19.3969 8.76562 19.5 8.76562H20.8125C20.9156 8.76562 21 8.68125 21 8.57812V7.26562C21 7.1625 20.9156 7.07812 20.8125 7.07812ZM20.8125 11.1562H19.5C19.3969 11.1562 19.3125 11.2406 19.3125 11.3438V12.6562C19.3125 12.7594 19.3969 12.8438 19.5 12.8438H20.8125C20.9156 12.8438 21 12.7594 21 12.6562V11.3438C21 11.2406 20.9156 11.1562 20.8125 11.1562ZM20.8125 15.2344H19.5C19.3969 15.2344 19.3125 15.3188 19.3125 15.4219V16.7344C19.3125 16.8375 19.3969 16.9219 19.5 16.9219H20.8125C20.9156 16.9219 21 16.8375 21 16.7344V15.4219C21 15.3188 20.9156 15.2344 20.8125 15.2344ZM20.8125 19.3125H19.5C19.3969 19.3125 19.3125 19.3969 19.3125 19.5V20.8125C19.3125 20.9156 19.3969 21 19.5 21H20.8125C20.9156 21 21 20.9156 21 20.8125V19.5C21 19.3969 20.9156 19.3125 20.8125 19.3125ZM12.6562 19.3125H11.3438C11.2406 19.3125 11.1562 19.3969 11.1562 19.5V20.8125C11.1562 20.9156 11.2406 21 11.3438 21H12.6562C12.7594 21 12.8438 20.9156 12.8438 20.8125V19.5C12.8438 19.3969 12.7594 19.3125 12.6562 19.3125ZM8.57812 19.3125H7.26562C7.1625 19.3125 7.07812 19.3969 7.07812 19.5V20.8125C7.07812 20.9156 7.1625 21 7.26562 21H8.57812C8.68125 21 8.76562 20.9156 8.76562 20.8125V19.5C8.76562 19.3969 8.68125 19.3125 8.57812 19.3125ZM12.6562 3H8.39062C5.41406 3 3 5.41406 3 8.39062V12.6562C3 12.7594 3.08437 12.8438 3.1875 12.8438H4.5C4.60312 12.8438 4.6875 12.7594 4.6875 12.6562V8.39062C4.6875 6.34453 6.34453 4.6875 8.39062 4.6875H12.6562C12.7594 4.6875 12.8438 4.60312 12.8438 4.5V3.1875C12.8438 3.08437 12.7594 3 12.6562 3Z" fill="#0D121A"/>
</svg>
