<svg width="24" height="24" viewBox="0 0 24 24" fill="none" xmlns="http://www.w3.org/2000/svg">
<path d="M21.75 3.77341H16.3875C15.2367 3.77341 14.1117 4.10388 13.1437 4.72731L12 5.46091L10.8563 4.72731C9.88924 4.104 8.76299 3.77279 7.6125 3.77341H2.25C1.83516 3.77341 1.5 4.10856 1.5 4.52341V17.8359C1.5 18.2508 1.83516 18.5859 2.25 18.5859H7.6125C8.76328 18.5859 9.88828 18.9164 10.8563 19.5398L11.8969 20.2101C11.9273 20.2289 11.9625 20.2406 11.9977 20.2406C12.0328 20.2406 12.068 20.2312 12.0984 20.2101L13.1391 19.5398C14.1094 18.9164 15.2367 18.5859 16.3875 18.5859H21.75C22.1648 18.5859 22.5 18.2508 22.5 17.8359V4.52341C22.5 4.10856 22.1648 3.77341 21.75 3.77341ZM7.6125 16.8984H3.1875V5.46091H7.6125C8.44219 5.46091 9.24844 5.69763 9.94453 6.14528L11.0883 6.87888L11.25 6.98435V17.8125C10.1344 17.2125 8.8875 16.8984 7.6125 16.8984ZM20.8125 16.8984H16.3875C15.1125 16.8984 13.8656 17.2125 12.75 17.8125V6.98435L12.9117 6.87888L14.0555 6.14528C14.7516 5.69763 15.5578 5.46091 16.3875 5.46091H20.8125V16.8984ZM9.30234 8.46091H4.94766C4.85625 8.46091 4.78125 8.5406 4.78125 8.63669V9.69138C4.78125 9.78747 4.85625 9.86716 4.94766 9.86716H9.3C9.39141 9.86716 9.46641 9.78747 9.46641 9.69138V8.63669C9.46875 8.5406 9.39375 8.46091 9.30234 8.46091ZM14.5312 8.63669V9.69138C14.5312 9.78747 14.6062 9.86716 14.6977 9.86716H19.05C19.1414 9.86716 19.2164 9.78747 19.2164 9.69138V8.63669C19.2164 8.5406 19.1414 8.46091 19.05 8.46091H14.6977C14.6062 8.46091 14.5312 8.5406 14.5312 8.63669ZM9.30234 11.7422H4.94766C4.85625 11.7422 4.78125 11.8218 4.78125 11.9179V12.9726C4.78125 13.0687 4.85625 13.1484 4.94766 13.1484H9.3C9.39141 13.1484 9.46641 13.0687 9.46641 12.9726V11.9179C9.46875 11.8218 9.39375 11.7422 9.30234 11.7422ZM19.0523 11.7422H14.6977C14.6062 11.7422 14.5312 11.8218 14.5312 11.9179V12.9726C14.5312 13.0687 14.6062 13.1484 14.6977 13.1484H19.05C19.1414 13.1484 19.2164 13.0687 19.2164 12.9726V11.9179C19.2188 11.8218 19.1438 11.7422 19.0523 11.7422Z" fill="#0D121A"/>
</svg>
