<svg width="24" height="24" viewBox="0 0 24 24" fill="none" xmlns="http://www.w3.org/2000/svg">
<path d="M10.3266 10.8422C10.3101 10.8097 10.285 10.7824 10.254 10.7634C10.2229 10.7443 10.1872 10.7343 10.1508 10.7344H9.00703C8.97656 10.7344 8.94609 10.7437 8.91562 10.7578C8.89282 10.7701 8.87267 10.7868 8.85632 10.8068C8.83996 10.8269 8.82774 10.85 8.82033 10.8749C8.81293 10.8997 8.8105 10.9257 8.81318 10.9515C8.81585 10.9773 8.82359 11.0022 8.83594 11.025L10.8844 14.8008H9.82031C9.7125 14.8008 9.62344 14.8898 9.62344 14.9977V15.5859C9.62344 15.6938 9.7125 15.7828 9.82031 15.7828H11.2969V16.4531H9.82031C9.7125 16.4531 9.62344 16.5422 9.62344 16.65V17.2383C9.62344 17.3461 9.7125 17.4352 9.82031 17.4352H11.2969V18.6047C11.2969 18.7125 11.3859 18.8016 11.4937 18.8016H12.518C12.6258 18.8016 12.7148 18.7125 12.7148 18.6047V17.4352H14.1984C14.3086 17.4352 14.3953 17.3461 14.3906 17.2359V16.65C14.3906 16.5422 14.3016 16.4531 14.1937 16.4531H12.7102V15.7828H14.1937C14.3016 15.7828 14.3906 15.6938 14.3906 15.5859V14.9977C14.3906 14.8898 14.3016 14.8008 14.1937 14.8008H13.118L15.1617 11.0273C15.1776 10.9973 15.1855 10.9636 15.1846 10.9297C15.1837 10.8957 15.1741 10.8625 15.1567 10.8333C15.1393 10.8041 15.1146 10.7798 15.0851 10.7629C15.0556 10.746 15.0223 10.737 14.9883 10.7367H13.868C13.7953 10.7367 13.7273 10.7789 13.6922 10.8445L12.007 14.1703L10.3266 10.8422ZM19.5 1.5H4.5C4.08516 1.5 3.75 1.83516 3.75 2.25V21.75C3.75 22.1648 4.08516 22.5 4.5 22.5H19.5C19.9148 22.5 20.25 22.1648 20.25 21.75V2.25C20.25 1.83516 19.9148 1.5 19.5 1.5ZM18.5625 20.8125H5.4375V4.52578L11.5383 9.30938C11.8102 9.52266 12.1922 9.52266 12.4641 9.30938L18.5625 4.52578V20.8125ZM18.5625 3.20391H17.8195L12 7.76484L6.18047 3.20391H5.4375V3.1875H18.5625V3.20391Z" fill="#0D121A"/>
</svg>
