<svg width="24" height="24" viewBox="0 0 24 24" fill="none" xmlns="http://www.w3.org/2000/svg">
<path d="M11.9062 16.5C13.7695 16.5 15.2812 14.9883 15.2812 13.125C15.2812 11.2617 13.7695 9.74998 11.9062 9.74998C10.043 9.74998 8.53125 11.2617 8.53125 13.125C8.53125 14.9883 10.043 16.5 11.9062 16.5ZM11.9062 11.25C12.9422 11.25 13.7812 12.089 13.7812 13.125C13.7812 14.1609 12.9422 15 11.9062 15C10.8703 15 10.0312 14.1609 10.0312 13.125C10.0312 12.089 10.8703 11.25 11.9062 11.25Z" fill="#0D121A"/>
<path d="M19.5 5.99998H18.8414L18.0047 3.16639C17.9109 2.8453 17.618 2.62498 17.2852 2.62498H6.71484C6.37969 2.62498 6.08672 2.8453 5.99531 3.16639L5.15859 5.99998H4.5C4.08516 5.99998 3.75 6.33514 3.75 6.74998V7.40623C3.75 7.50936 3.83437 7.59373 3.9375 7.59373H5.01094L6.12891 20.6883C6.14477 20.8756 6.23042 21.0502 6.36889 21.1773C6.50736 21.3045 6.68855 21.3751 6.87656 21.375H16.9359C17.124 21.3751 17.3051 21.3045 17.4436 21.1773C17.5821 21.0502 17.6677 20.8756 17.6836 20.6883L18.8016 7.59373H20.0625C20.1656 7.59373 20.25 7.50936 20.25 7.40623V6.74998C20.25 6.33514 19.9148 5.99998 19.5 5.99998ZM7.34531 4.21873H16.6547L17.1797 5.99998H6.82031L7.34531 4.21873ZM16.1625 19.7812H7.65L6.60938 7.59373H17.2008L16.1625 19.7812Z" fill="#0D121A"/>
</svg>
