<svg width="24" height="24" viewBox="0 0 24 24" fill="none" xmlns="http://www.w3.org/2000/svg">
<path d="M3.1875 12.9373H4.67813C4.78125 12.9373 4.86563 12.8529 4.86563 12.7498V6.76617H17.2547V8.46773C17.2547 8.51226 17.2688 8.55445 17.2969 8.58961C17.3127 8.60985 17.3323 8.62677 17.3547 8.63938C17.377 8.652 17.4017 8.66007 17.4272 8.66312C17.4526 8.66617 17.4785 8.66414 17.5032 8.65716C17.5279 8.65017 17.551 8.63836 17.5711 8.62242L20.9297 5.9857C21.0305 5.86851 21.0141 5.74429 20.9297 5.67632L17.5711 3.04195C17.5365 3.0143 17.4935 2.99941 17.4492 2.99976C17.3414 2.99976 17.2523 3.08882 17.2523 3.19664V4.8982H4.68047C3.75469 4.8982 3 5.65289 3 6.58101V12.7498C3 12.8529 3.08437 12.9373 3.1875 12.9373ZM20.8125 11.0623H19.3219C19.2188 11.0623 19.1344 11.1466 19.1344 11.2498V17.2334H6.74531V15.5318C6.74531 15.4873 6.73125 15.4451 6.70312 15.4099C6.68734 15.3897 6.66769 15.3728 6.64534 15.3601C6.62298 15.3475 6.59834 15.3395 6.57285 15.3364C6.54736 15.3334 6.52151 15.3354 6.49681 15.3424C6.4721 15.3494 6.44903 15.3612 6.42891 15.3771L3.07031 18.0138C2.96953 18.131 2.98594 18.2552 3.07031 18.3232L6.42891 20.9576C6.46406 20.9857 6.50625 20.9998 6.55078 20.9998C6.65859 20.9998 6.74766 20.9107 6.74766 20.8029V19.1013H19.3242C20.25 19.1013 21.0047 18.3466 21.0047 17.4185V11.2498C21 11.1466 20.9156 11.0623 20.8125 11.0623Z" fill="#0D121A"/>
</svg>
