<svg width="24" height="24" viewBox="0 0 24 24" fill="none" xmlns="http://www.w3.org/2000/svg">
<path d="M21 12C21 7.02944 16.9706 3 12 3C7.02944 3 3 7.02944 3 12C3 16.9706 7.02944 21 12 21C16.9706 21 21 16.9706 21 12ZM9.29297 7.29297C9.68349 6.90244 10.3165 6.90244 10.707 7.29297L14.707 11.293C15.0976 11.6835 15.0976 12.3165 14.707 12.707L10.707 16.707C10.3165 17.0976 9.68349 17.0976 9.29297 16.707C8.90244 16.3165 8.90244 15.6835 9.29297 15.293L12.5859 12L9.29297 8.70703C8.90244 8.31651 8.90244 7.68349 9.29297 7.29297ZM23 12C23 18.0751 18.0751 23 12 23C5.92487 23 1 18.0751 1 12C1 5.92487 5.92487 1 12 1C18.0751 1 23 5.92487 23 12Z" fill="#0D121A"/>
</svg>
