<svg width="24" height="24" viewBox="0 0 24 24" fill="none" xmlns="http://www.w3.org/2000/svg">
<path d="M23 13C23 13.5523 22.5523 14 22 14C21.4477 14 21 13.5523 21 13V9.41406L14.207 16.207C13.8165 16.5976 13.1835 16.5976 12.793 16.207L8.5 11.9141L2.70703 17.707C2.31651 18.0976 1.68349 18.0976 1.29297 17.707C0.902445 17.3165 0.902445 16.6835 1.29297 16.293L7.79297 9.79297L7.86914 9.72461C8.26192 9.40426 8.84092 9.42685 9.20703 9.79297L13.5 14.0859L19.5859 8H16C15.4477 8 15 7.55228 15 7C15 6.44772 15.4477 6 16 6H22C22.5523 6 23 6.44772 23 7V13Z" fill="#0D121A"/>
</svg>
