<svg viewBox="0 0 24 24" fill="none" xmlns="http://www.w3.org/2000/svg">
<path d="M6.00293 14.988C6.6885 15.0092 7.34635 15.2518 7.87989 15.6746L8.10059 15.8669L8.11231 15.8787C9.30035 17.0517 9.28473 18.9331 8.26465 20.1423L8.26563 20.1433C7.82289 20.6703 7.21266 21.0569 6.62598 21.3435C6.02784 21.6357 5.38254 21.8583 4.80274 22.0242C4.21993 22.1909 3.68212 22.3063 3.29102 22.3806C3.09476 22.4179 2.93287 22.4456 2.81934 22.4636C2.76296 22.4726 2.71811 22.4786 2.68653 22.4832C2.67068 22.4855 2.65745 22.4878 2.64844 22.489C2.64412 22.4896 2.64035 22.4896 2.6377 22.49C2.63652 22.4901 2.6356 22.4909 2.63477 22.491H2.63282C2.32397 22.5323 2.0133 22.4271 1.79297 22.2068C1.57283 21.9866 1.46766 21.6766 1.50879 21.3679L2.5 21.4998L1.50879 21.3669V21.365C1.5089 21.3642 1.50961 21.3632 1.50977 21.3621C1.51014 21.3594 1.51013 21.3557 1.51074 21.3513C1.51199 21.3424 1.51433 21.3299 1.5166 21.3142C1.52121 21.2825 1.52811 21.2372 1.53711 21.1804C1.5551 21.0669 1.58191 20.9058 1.61914 20.7097C1.69341 20.3186 1.80882 19.7801 1.97559 19.197C2.14144 18.6173 2.36412 17.9719 2.65625 17.3738C2.94281 16.7871 3.32947 16.1768 3.85645 15.7341C4.45558 15.2297 5.22006 14.9639 6.00293 14.988ZM22.0059 0.999754C22.5556 1.00316 22.9999 1.45 23 1.99975C23 4.81003 22.2104 9.70587 17.1465 13.4148C17.2318 13.7725 17.3294 14.2436 17.3965 14.7644C17.4696 15.3317 17.5109 15.9851 17.4512 16.6277C17.3922 17.2617 17.2286 17.9595 16.832 18.5544L16.8311 18.5564C16.1521 19.5711 14.8719 20.1597 13.9775 20.4841C13.4969 20.6585 13.0526 20.7819 12.7295 20.8621C12.5674 20.9023 12.4337 20.9319 12.3389 20.9519C12.2914 20.9619 12.2526 20.9701 12.2256 20.9753C12.2123 20.9779 12.2012 20.9797 12.1934 20.9812C12.1896 20.9819 12.186 20.9827 12.1836 20.9832C12.1825 20.9834 12.1815 20.983 12.1807 20.9832L12.1797 20.9841H12.1787C11.887 21.0371 11.587 20.9573 11.3594 20.7673C11.1318 20.5773 11 20.2962 11 19.9998V15.4138L8.58594 12.9998H4C3.70353 12.9998 3.42242 12.868 3.23242 12.6404C3.04257 12.4128 2.9627 12.1126 3.01563 11.821L4 11.9998C3.09142 11.8348 3.02189 11.8222 3.0166 11.821V11.8162C3.01706 11.8137 3.01782 11.8103 3.01856 11.8064C3.02005 11.7985 3.02276 11.7876 3.02539 11.7742C3.03066 11.7472 3.03787 11.7092 3.04785 11.6619C3.06786 11.567 3.09743 11.4326 3.1377 11.2703C3.21784 10.9472 3.34235 10.5036 3.5166 10.0232C3.84106 9.12871 4.42943 7.84764 5.44434 7.1687L5.44532 7.16772C6.04026 6.77113 6.73807 6.60751 7.37207 6.54858C8.01476 6.48885 8.66798 6.53015 9.23535 6.60327C9.76095 6.67101 10.2358 6.77032 10.5947 6.8562C11.8057 5.14694 13.39 3.73034 15.2314 2.71753C17.3061 1.57656 19.6382 0.985127 22.0059 0.999754ZM5.94141 16.988C5.65079 16.979 5.36691 17.0771 5.14453 17.2644L5.14356 17.2654C4.92065 17.4526 4.68216 17.7828 4.45313 18.2517C4.2297 18.7091 4.04605 19.2352 3.89942 19.7478C3.85231 19.9125 3.80985 20.0737 3.77149 20.2283C3.92614 20.1899 4.08813 20.1485 4.25293 20.1013C4.76543 19.9547 5.29075 19.77 5.74805 19.5466C6.21682 19.3177 6.54711 19.08 6.73438 18.8572L6.73633 18.8542C7.13325 18.3845 7.09857 17.6912 6.70996 17.3044C6.5008 17.1092 6.2277 16.9969 5.94141 16.988ZM15.3398 14.5496C14.5815 14.9683 13.8005 15.3445 13 15.6765V18.7048C13.096 18.6735 13.1947 18.6396 13.2949 18.6033C14.1579 18.2902 14.8779 17.8792 15.1689 17.4441C15.3118 17.2291 15.4177 16.8973 15.46 16.4431C15.5015 15.9964 15.475 15.5004 15.4131 15.0203C15.3921 14.8574 15.3663 14.6996 15.3398 14.5496ZM20.958 3.03979C19.2911 3.17524 17.6675 3.66078 16.1953 4.47046C14.4195 5.44715 12.9224 6.86157 11.8477 8.57983L11.8418 8.5896C11.1966 9.59744 10.6391 10.6584 10.1748 11.7605L12.2412 13.8269C13.3567 13.3638 14.4312 12.8071 15.4531 12.1619C19.6782 9.32405 20.7535 5.61395 20.958 3.03979ZM7.55762 8.53979C7.10239 8.5821 6.7697 8.68848 6.55469 8.83178C6.12005 9.12337 5.70924 9.84261 5.39649 10.7048C5.36013 10.8051 5.32628 10.9038 5.29492 10.9998H8.32617C8.66249 10.1997 9.04345 9.41949 9.46778 8.66284C9.31255 8.63518 9.14863 8.60847 8.9795 8.58667C8.49958 8.52483 8.00414 8.49834 7.55762 8.53979Z" fill="currentColor"/>
</svg>
