<svg width="24" height="24" viewBox="0 0 24 24" fill="none" xmlns="http://www.w3.org/2000/svg">
<path d="M18.5859 5.67134H8.57812V3.93696C8.57812 3.77993 8.39766 3.69321 8.27578 3.78931L4.94766 6.41431C4.92525 6.43185 4.90712 6.45426 4.89466 6.47984C4.88219 6.50542 4.87572 6.53351 4.87572 6.56196C4.87572 6.59042 4.88219 6.61851 4.89466 6.64409C4.90712 6.66967 4.92525 6.69208 4.94766 6.70962L8.27578 9.33462C8.39766 9.43071 8.57812 9.34399 8.57812 9.18696V7.45259H18.3047V18.4682H4.10156C3.99844 18.4682 3.91406 18.5526 3.91406 18.6557V20.062C3.91406 20.1651 3.99844 20.2495 4.10156 20.2495H18.5859C19.4133 20.2495 20.0859 19.5768 20.0859 18.7495V7.17134C20.0859 6.34399 19.4133 5.67134 18.5859 5.67134Z" fill="#0D121A"/>
</svg>
