<svg width="24" height="24" viewBox="0 0 24 24" fill="none" xmlns="http://www.w3.org/2000/svg">
<path d="M11.2614 5.88797C11.566 5.85047 11.8684 5.83172 12.1707 5.82938V7.32703C12.1707 7.47938 12.3465 7.56375 12.466 7.47L15.4684 5.10047C15.5621 5.02547 15.5621 4.88485 15.4684 4.81219L12.4684 2.445C12.3489 2.35125 12.1731 2.43563 12.1731 2.58797L12.1684 4.08797C9.38871 4.09969 6.64183 5.33953 4.79496 7.70203C3.16371 9.79266 2.55199 12.3567 2.89418 14.7895H4.64965C4.62855 14.6653 4.6098 14.5388 4.5934 14.4122C4.47386 13.4255 4.54418 12.4411 4.80199 11.4872C5.06918 10.4981 5.52855 9.58641 6.16371 8.77313C6.80121 7.95985 7.57699 7.29188 8.46996 6.79735C9.33714 6.31453 10.2723 6.00985 11.2614 5.88797Z" fill="#0D121A"/>
<path d="M20.625 9.79686H8.24999C7.83515 9.79686 7.49999 10.132 7.49999 10.5469V20.25C7.49999 20.6648 7.83515 21 8.24999 21H20.625C21.0398 21 21.375 20.6648 21.375 20.25V10.5469C21.375 10.132 21.0398 9.79686 20.625 9.79686ZM19.5937 19.2187H9.28124V11.5781H19.5937V19.2187Z" fill="#0D121A"/>
</svg>
