<svg width="24" height="24" viewBox="0 0 24 24" fill="none" xmlns="http://www.w3.org/2000/svg">
<path d="M15.75 9.79688H3.375C2.96016 9.79688 2.625 10.132 2.625 10.5469V20.25C2.625 20.6648 2.96016 21 3.375 21H15.75C16.1648 21 16.5 20.6648 16.5 20.25V10.5469C16.5 10.132 16.1648 9.79688 15.75 9.79688ZM14.7188 19.2188H4.40625V11.5781H14.7188V19.2188Z" fill="#0D121A"/>
<path d="M19.2019 7.69971C17.355 5.33955 14.6081 4.09971 11.8284 4.08564L11.8238 2.58564C11.8238 2.4333 11.6456 2.34892 11.5284 2.44267L8.52845 4.80986C8.4347 4.88252 8.43705 5.02314 8.52845 5.09814L11.5308 7.46768C11.6503 7.56143 11.8284 7.47705 11.8261 7.32471V5.82705C12.1284 5.8294 12.4331 5.84815 12.7355 5.88565C13.7222 6.00752 14.6597 6.31221 15.5245 6.79268C16.4175 7.28955 17.1933 7.95752 17.8308 8.76846C18.4659 9.58174 18.9253 10.4958 19.1925 11.4825C19.4503 12.4364 19.5206 13.4208 19.4011 14.4075C19.3847 14.5341 19.3683 14.6606 19.3449 14.7849H21.1003C21.4472 12.3567 20.8355 9.79268 19.2019 7.69971Z" fill="#0D121A"/>
</svg>
