<svg width="24" height="24" viewBox="0 0 24 24" fill="none" xmlns="http://www.w3.org/2000/svg">
<path d="M12 1.49998L3 4.49998V13.5C3 18.4711 7.02891 22.5 12 22.5C16.9711 22.5 21 18.4711 21 13.5V4.49998L12 1.49998ZM19.3125 13.5C19.3125 17.5383 16.0383 20.8125 12 20.8125C7.96172 20.8125 4.6875 17.5383 4.6875 13.5V5.76561L12 3.18748L19.3125 5.76561V13.5Z" fill="#0D121A"/>
<path d="M8.8692 11.1351C8.791 11.0565 8.69805 10.9942 8.59568 10.9517C8.49332 10.9091 8.38356 10.8872 8.27272 10.8872C8.16187 10.8872 8.05211 10.9091 7.94975 10.9517C7.84738 10.9942 7.75443 11.0565 7.67623 11.1351C7.59767 11.2133 7.53533 11.3063 7.49279 11.4086C7.45026 11.511 7.42836 11.6207 7.42836 11.7316C7.42836 11.8424 7.45026 11.9522 7.49279 12.0545C7.53533 12.1569 7.59767 12.2499 7.67623 12.3281L10.7583 15.4101C10.8322 15.4842 10.9201 15.543 11.0168 15.5831C11.1135 15.6232 11.2172 15.6439 11.3219 15.6439C11.4267 15.6439 11.5303 15.6232 11.6271 15.5831C11.7238 15.543 11.8116 15.4842 11.8856 15.4101L17.1239 10.1718C17.198 10.0979 17.2568 10.01 17.2969 9.91327C17.3371 9.81655 17.3577 9.71286 17.3577 9.60815C17.3577 9.50344 17.3371 9.39976 17.2969 9.30304C17.2568 9.20632 17.198 9.11846 17.1239 9.04448L17.0583 8.97886C16.9843 8.90475 16.8965 8.84595 16.7997 8.80584C16.703 8.76572 16.5993 8.74507 16.4946 8.74507C16.3899 8.74507 16.2862 8.76572 16.1895 8.80584C16.0928 8.84595 16.0049 8.90475 15.9309 8.97886L11.3208 13.5867L8.8692 11.1351Z" fill="#0D121A"/>
</svg>
