<svg width="24" height="24" viewBox="0 0 24 24" fill="none" xmlns="http://www.w3.org/2000/svg">
<path d="M8 18C8 17.4524 7.77934 16.9569 7.42285 16.5957C7.41972 16.5927 7.41619 16.59 7.41309 16.5869C7.40966 16.5835 7.40669 16.5796 7.40332 16.5762C7.04223 16.2203 6.54707 16 6 16C4.89543 16 4 16.8954 4 18C4 19.1046 4.89543 20 6 20C7.10457 20 8 19.1046 8 18ZM14.0928 14.0928C14.4832 13.7023 15.1163 13.7024 15.5068 14.0928L20.707 19.293C21.0976 19.6835 21.0976 20.3165 20.707 20.707C20.3165 21.0976 19.6835 21.0976 19.293 20.707L14.0928 15.5068C13.7024 15.1163 13.7023 14.4832 14.0928 14.0928ZM8 6C8 4.89543 7.10457 4 6 4C4.89543 4 4 4.89543 4 6C4 7.10457 4.89543 8 6 8C7.10457 8 8 7.10457 8 6ZM10 6C10 6.74175 9.79715 7.43577 9.44531 8.03125L12 10.5859L19.293 3.29297C19.6835 2.90244 20.3165 2.90244 20.707 3.29297C21.0976 3.68349 21.0976 4.31651 20.707 4.70703L9.44531 15.9678C9.79741 16.5634 10 17.258 10 18C10 20.2091 8.20914 22 6 22C3.79086 22 2 20.2091 2 18C2 15.7909 3.79086 14 6 14C6.74157 14 7.43587 14.202 8.03125 14.5537L10.5859 12L8.03125 9.44531C7.43577 9.79715 6.74175 10 6 10C3.79086 10 2 8.20914 2 6C2 3.79086 3.79086 2 6 2C8.20914 2 10 3.79086 10 6Z" fill="#0D121A"/>
</svg>
