<svg width="24" height="24" viewBox="0 0 24 24" fill="none" xmlns="http://www.w3.org/2000/svg">
<path d="M20.318 3.98203L12.3539 1.26797C12.2578 1.23516 12.1289 1.21875 12 1.21875C11.8711 1.21875 11.7422 1.23516 11.6461 1.26797L3.68203 3.98203C3.4875 4.04766 3.32812 4.27266 3.32812 4.47891V15.7852C3.32812 15.9914 3.46172 16.2633 3.62344 16.3922L11.7023 22.6875C11.7844 22.7508 11.8898 22.7836 11.9977 22.7836C12.1055 22.7836 12.2133 22.7508 12.293 22.6875L20.3719 16.3922C20.5336 16.2656 20.6672 15.9937 20.6672 15.7852V4.47891C20.6719 4.27266 20.5125 4.05 20.318 3.98203ZM18.9844 15.3352L12 20.7773L5.01562 15.3352V5.31328L12 2.93203L18.9844 5.31328V15.3352ZM9.44297 12.3937L7.62656 14.2102C7.59167 14.2454 7.57209 14.293 7.57209 14.3426C7.57209 14.3922 7.59167 14.4398 7.62656 14.475L8.42344 15.2719C8.49609 15.3445 8.61563 15.3445 8.68828 15.2719L10.5047 13.4555C11.8102 14.2781 13.5539 14.1211 14.6906 12.9844C16.0102 11.6648 16.0102 9.52734 14.6906 8.20781C13.3711 6.88828 11.2336 6.88828 9.91406 8.20781C8.77734 9.34453 8.62031 11.0906 9.44297 12.3937ZM10.9758 9.26953C11.7094 8.53594 12.8977 8.53594 13.6289 9.26953C14.3625 10.0031 14.3625 11.1914 13.6289 11.9227C12.8953 12.6562 11.707 12.6562 10.9758 11.9227C10.2445 11.1891 10.2422 10.0031 10.9758 9.26953Z" fill="#0D121A"/>
</svg>
