<svg width="24" height="24" viewBox="0 0 24 24" fill="none" xmlns="http://www.w3.org/2000/svg">
<path d="M21.5297 1.0555C21.8922 0.928799 22.2953 1.02127 22.5668 1.29281C22.8383 1.56435 22.9308 1.96743 22.8041 2.32992L15.8041 22.3299C15.6687 22.7168 15.3104 22.982 14.9008 22.9989C14.4911 23.0156 14.1122 22.7808 13.9457 22.4061L10.102 13.7576L1.45352 9.9139C1.07884 9.74737 0.844032 9.3685 0.860746 8.95882C0.877561 8.54925 1.14277 8.19092 1.52969 8.0555L21.5297 1.0555ZM12.0522 13.2205L14.7484 19.2869L19.4672 5.8055L12.0522 13.2205ZM4.57168 9.11019L10.6381 11.8065L18.0531 4.39144L4.57168 9.11019Z" fill="#0D121A"/>
</svg>
