<svg viewBox="0 0 24 24" fill="none" xmlns="http://www.w3.org/2000/svg">
<path d="M13.2197 4C13.2197 3.73478 13.1143 3.48051 12.9268 3.29297C12.7392 3.10552 12.4849 3 12.2197 3H11.7803C11.5151 3 11.2608 3.10552 11.0732 3.29297C10.8857 3.48051 10.7803 3.73478 10.7803 4V4.18066C10.7797 4.70675 10.6402 5.22422 10.377 5.67969C10.1137 6.13494 9.7357 6.51341 9.28027 6.77637L9.2793 6.77539L8.85254 7.02441L8.84961 7.02637C8.39366 7.28951 7.87605 7.42773 7.34961 7.42773C6.82313 7.42767 6.30555 7.28961 5.84961 7.02637L5.72949 6.96191C5.71975 6.95672 5.70976 6.95181 5.7002 6.94629C5.47074 6.81395 5.19828 6.77825 4.94238 6.84668C4.68648 6.91512 4.46773 7.0823 4.33496 7.31152L4.11523 7.69141C3.98373 7.92042 3.94846 8.19208 4.0166 8.44727C4.07649 8.67125 4.21186 8.86674 4.39844 9.00098L4.48145 9.05469L4.53516 9.08789L4.68457 9.1875C5.11374 9.44748 5.47109 9.80977 5.72363 10.2441C5.98678 10.6968 6.12672 11.2108 6.12988 11.7344V12.2461L6.12402 12.4434C6.09554 12.9034 5.96197 13.3518 5.73145 13.7529C5.47076 14.2065 5.09502 14.5827 4.64355 14.8467L4.49414 14.9375C4.48988 14.9401 4.48574 14.9428 4.48145 14.9453C4.25221 15.0781 4.08503 15.2968 4.0166 15.5527C3.94846 15.8079 3.98373 16.0796 4.11523 16.3086L4.33398 16.6885C4.46676 16.9177 4.68648 17.0849 4.94238 17.1533C5.19828 17.2217 5.47074 17.186 5.7002 17.0537C5.70976 17.0482 5.71975 17.0433 5.72949 17.0381L5.84961 16.9736C6.30555 16.7104 6.82313 16.5723 7.34961 16.5723C7.87605 16.5723 8.39366 16.7105 8.84961 16.9736L8.85254 16.9756L9.2793 17.2236C9.73475 17.4866 10.1137 17.865 10.377 18.3203C10.6402 18.7758 10.7797 19.2932 10.7803 19.8193V20C10.7803 20.2652 10.8857 20.5195 11.0732 20.707C11.2608 20.8945 11.5151 21 11.7803 21H12.2197C12.4849 21 12.7392 20.8945 12.9268 20.707C13.1143 20.5195 13.2197 20.2652 13.2197 20V19.8193C13.2203 19.2932 13.3598 18.7758 13.623 18.3203C13.8863 17.8651 14.2643 17.4866 14.7197 17.2236L15.1475 16.9756L15.1504 16.9736C15.6063 16.7105 16.1239 16.5723 16.6504 16.5723C17.1769 16.5723 17.6944 16.7104 18.1504 16.9736L18.2998 17.0537C18.5293 17.1861 18.8017 17.2217 19.0576 17.1533C19.3135 17.0849 19.5323 16.9177 19.665 16.6885L19.8789 16.3086L19.8838 16.3008L19.9287 16.2119C20.0232 16.0026 20.0432 15.7658 19.9834 15.542C19.9149 15.2862 19.7477 15.0683 19.5186 14.9355L19.3994 14.8721C19.3897 14.8669 19.3797 14.862 19.3701 14.8564C18.9123 14.5921 18.532 14.2113 18.2686 13.7529C18.0052 13.2946 17.868 12.7747 17.8701 12.2461V11.75C17.8687 11.2228 18.0058 10.7042 18.2686 10.2471C18.5292 9.79359 18.9041 9.41629 19.3555 9.15234L19.5059 9.0625L19.5186 9.05469C19.7478 8.92191 19.915 8.70318 19.9834 8.44727C20.0515 8.19208 20.0163 7.92042 19.8848 7.69141L19.665 7.31152C19.5323 7.0823 19.3135 6.91512 19.0576 6.84668C18.8017 6.77825 18.5293 6.81395 18.2998 6.94629C18.2902 6.95181 18.2803 6.95672 18.2705 6.96191L18.1494 7.02539C17.6935 7.28857 17.1768 7.42767 16.6504 7.42773C16.1239 7.42773 15.6063 7.28951 15.1504 7.02637L15.1475 7.02441L14.7197 6.77539C14.2645 6.51245 13.8862 6.13479 13.623 5.67969C13.3598 5.22422 13.2203 4.70675 13.2197 4.18066V4ZM14 12C14 10.8954 13.1046 10 12 10C10.8954 10 10 10.8954 10 12C10 13.1046 10.8954 14 12 14C13.1046 14 14 13.1046 14 12ZM16 12C16 14.2091 14.2091 16 12 16C9.79086 16 8 14.2091 8 12C8 9.79086 9.79086 8 12 8C14.2091 8 16 9.79086 16 12ZM15.2197 4.17871C15.2199 4.35407 15.2667 4.52689 15.3545 4.67871C15.4204 4.79256 15.5076 4.89215 15.6113 4.97168L15.7227 5.0459L16.1494 5.29395C16.3014 5.38171 16.4749 5.42773 16.6504 5.42773C16.8258 5.42767 16.9985 5.38165 17.1504 5.29395L17.1797 5.27734L17.3291 5.19727C18.0115 4.81347 18.817 4.71164 19.5742 4.91406C20.3419 5.11935 20.9972 5.62093 21.3955 6.30859L21.6152 6.68945L21.6162 6.69043C22.0132 7.37867 22.1211 8.19629 21.916 8.96387C21.712 9.72683 21.2143 10.3773 20.5332 10.7764L20.5342 10.7773L20.3848 10.8672C20.38 10.8701 20.3749 10.8732 20.3701 10.876C20.2175 10.9641 20.0907 11.0914 20.0029 11.2441C19.9152 11.3968 19.8694 11.57 19.8701 11.7461V12.2539C19.8694 12.43 19.9152 12.6032 20.0029 12.7559C20.089 12.9056 20.2127 13.0303 20.3613 13.1182L20.4902 13.1875C20.5005 13.193 20.5114 13.1992 20.5215 13.2051C21.2089 13.6034 21.7107 14.2579 21.916 15.0254C22.1204 15.7898 22.013 16.6035 21.6201 17.29L21.6211 17.291L21.4014 17.6816L21.3955 17.6914C20.9972 18.3791 20.3419 18.8806 19.5742 19.0859C18.8169 19.2884 18.0116 19.1848 17.3291 18.8008V18.8027L17.1797 18.7227C17.1699 18.7174 17.16 18.7116 17.1504 18.7061C16.9985 18.6183 16.8258 18.5723 16.6504 18.5723C16.475 18.5723 16.3023 18.6184 16.1504 18.7061L16.1494 18.7051L15.7227 18.9541L15.6113 19.0283C15.5076 19.1079 15.4204 19.2074 15.3545 19.3213C15.2667 19.4731 15.2199 19.6459 15.2197 19.8213V20C15.2197 20.7955 14.9042 21.5585 14.3418 22.1211C13.7792 22.6837 13.0154 23 12.2197 23H11.7803C10.9846 23 10.2208 22.6837 9.6582 22.1211C9.09582 21.5585 8.78027 20.7955 8.78027 20V19.8213L8.77148 19.6904C8.75428 19.5609 8.71134 19.4352 8.64551 19.3213C8.57964 19.2074 8.49238 19.1079 8.38867 19.0283L8.27734 18.9541L7.84961 18.7051C7.69776 18.6176 7.52487 18.5723 7.34961 18.5723C7.17421 18.5723 7.00152 18.6183 6.84961 18.7061C6.84 18.7116 6.8301 18.7174 6.82031 18.7227L6.6709 18.8027L6.66992 18.8008C5.98761 19.1844 5.18284 19.2883 4.42578 19.0859C3.65805 18.8806 3.00282 18.3791 2.60449 17.6914L2.38477 17.3115L2.38379 17.3096C1.98681 16.6213 1.87887 15.8037 2.08398 15.0361C2.28797 14.2733 2.78488 13.6217 3.46582 13.2227L3.62988 13.124C3.78249 13.0359 3.90927 12.9086 3.99707 12.7559C4.08476 12.6032 4.13058 12.43 4.12988 12.2539V11.7461L4.12109 11.6162C4.10342 11.4873 4.05996 11.3622 3.99414 11.249C3.90644 11.0984 3.78086 10.9729 3.62988 10.8857C3.61136 10.875 3.59299 10.8634 3.5752 10.8516L3.42578 10.752C2.766 10.351 2.28384 9.71127 2.08398 8.96387C1.87887 8.19629 1.98681 7.37867 2.38379 6.69043L2.38477 6.68848L2.60449 6.30859C3.00282 5.62093 3.65805 5.11935 4.42578 4.91406C5.18268 4.71171 5.9877 4.81479 6.66992 5.19824L6.6709 5.19727L6.82031 5.27734C6.8301 5.28257 6.84 5.2884 6.84961 5.29395C7.00152 5.38165 7.17421 5.42767 7.34961 5.42773C7.52504 5.42773 7.69766 5.38161 7.84961 5.29395L8.27734 5.0459L8.38867 4.97168C8.49238 4.89215 8.57964 4.79256 8.64551 4.67871C8.73315 4.52709 8.77997 4.3548 8.78027 4.17969V4C8.78027 3.20452 9.09581 2.44148 9.6582 1.87891C10.2208 1.3163 10.9846 1 11.7803 1H12.2197C13.0154 1 13.7792 1.3163 14.3418 1.87891C14.9042 2.44148 15.2197 3.20452 15.2197 4V4.17871Z" fill="currentColor"/>
</svg>
