<svg width="24" height="24" viewBox="0 0 24 24" fill="none" xmlns="http://www.w3.org/2000/svg">
<path d="M7.5943 15.6094C7.5943 15.9077 7.71283 16.1939 7.92381 16.4049C8.13478 16.6158 8.42093 16.7344 8.7193 16.7344C9.01767 16.7344 9.30382 16.6158 9.5148 16.4049C9.72578 16.1939 9.8443 15.9077 9.8443 15.6094C9.8443 15.311 9.72578 15.0249 9.5148 14.8139C9.30382 14.6029 9.01767 14.4844 8.7193 14.4844C8.42093 14.4844 8.13478 14.6029 7.92381 14.8139C7.71283 15.0249 7.5943 15.311 7.5943 15.6094ZM22.0482 8.35312L15.6474 1.95C15.3568 1.66172 14.9701 1.5 14.5576 1.5C14.1451 1.5 13.7584 1.65937 13.4677 1.95L1.9529 13.4648C1.66365 13.7543 1.50116 14.1467 1.50116 14.5559C1.50116 14.965 1.66365 15.3575 1.9529 15.6469L8.35602 22.05C8.6443 22.3383 9.03336 22.5 9.44586 22.5C9.85836 22.5 10.2451 22.3406 10.5357 22.05L22.0506 10.5352C22.6506 9.93281 22.6506 8.95312 22.0482 8.35312ZM9.44586 20.6273L3.37321 14.5547L14.5576 3.37031L20.6279 9.44531L9.44586 20.6273ZM3.5818 8.75859C3.59901 8.77589 3.61946 8.78961 3.64198 8.79897C3.66451 8.80833 3.68866 8.81315 3.71305 8.81315C3.73744 8.81315 3.7616 8.80833 3.78412 8.79897C3.80664 8.78961 3.8271 8.77589 3.8443 8.75859L8.75915 3.84375C8.77644 3.82654 8.79016 3.80609 8.79952 3.78357C8.80888 3.76104 8.8137 3.73689 8.8137 3.7125C8.8137 3.68811 8.80888 3.66396 8.79952 3.64143C8.79016 3.61891 8.77644 3.59846 8.75915 3.58125L7.85915 2.68125C7.84194 2.66396 7.82149 2.65024 7.79896 2.64088C7.77644 2.63151 7.75229 2.62669 7.7279 2.62669C7.7035 2.62669 7.67935 2.63151 7.65683 2.64088C7.6343 2.65024 7.61385 2.66396 7.59665 2.68125L2.67946 7.59141C2.66217 7.60861 2.64845 7.62906 2.63908 7.65159C2.62972 7.67411 2.6249 7.69826 2.6249 7.72266C2.6249 7.74705 2.62972 7.7712 2.63908 7.79373C2.64845 7.81625 2.66217 7.8367 2.67946 7.85391L3.5818 8.75859ZM20.424 15.2414C20.4068 15.2241 20.3863 15.2104 20.3638 15.201C20.3413 15.1917 20.3171 15.1868 20.2927 15.1868C20.2683 15.1868 20.2442 15.1917 20.2217 15.201C20.1991 15.2104 20.1787 15.2241 20.1615 15.2414L15.242 20.1586C15.2247 20.1758 15.2109 20.1963 15.2016 20.2188C15.1922 20.2413 15.1874 20.2655 15.1874 20.2898C15.1874 20.3142 15.1922 20.3384 15.2016 20.3609C15.2109 20.3834 15.2247 20.4039 15.242 20.4211L16.142 21.3211C16.1592 21.3384 16.1796 21.3521 16.2021 21.3615C16.2247 21.3708 16.2488 21.3757 16.2732 21.3757C16.2976 21.3757 16.3218 21.3708 16.3443 21.3615C16.3668 21.3521 16.3873 21.3384 16.4045 21.3211L21.3216 16.4062C21.3389 16.389 21.3527 16.3686 21.362 16.3461C21.3714 16.3235 21.3762 16.2994 21.3762 16.275C21.3762 16.2506 21.3714 16.2265 21.362 16.2039C21.3527 16.1814 21.3389 16.161 21.3216 16.1437L20.424 15.2414Z" fill="#0D121A"/>
</svg>
