<svg viewBox="0 0 24 24" fill="none" xmlns="http://www.w3.org/2000/svg">
<path d="M19 5.99951C16.6805 5.99951 13.9706 4.66292 12.1104 3.03955C12.0796 3.01346 12.0403 2.99951 12 2.99951C11.9595 2.99951 11.9204 3.01423 11.8896 3.04053L11.8887 3.03955C10.0393 4.65195 7.32008 5.99951 5 5.99951V12.9995C5 15.2352 5.7706 16.8607 6.98633 18.106C8.22945 19.3791 9.98355 20.2996 11.9961 20.9946C12.0034 20.9971 12.0113 20.9988 12.0186 21.0015C14.0236 20.3017 15.7728 19.381 17.0137 18.1079C18.229 16.861 19 15.2354 19 12.9995V5.99951ZM14.293 9.29248C14.6834 8.90226 15.3166 8.90226 15.707 9.29248C16.0976 9.683 16.0976 10.317 15.707 10.7075L11.707 14.7075C11.3166 15.0977 10.6834 15.0977 10.293 14.7075L8.29297 12.7075C7.90244 12.317 7.90244 11.683 8.29297 11.2925C8.68344 10.9023 9.31656 10.9023 9.70703 11.2925L11 12.5854L14.293 9.29248ZM21 12.9995C21 15.7636 20.021 17.8888 18.4463 19.5044C16.8988 21.0921 14.8204 22.1441 12.6689 22.894L12.6611 22.897C12.233 23.042 11.7688 23.0368 11.3438 22.8843V22.8853C11.3379 22.8832 11.3321 22.8805 11.3262 22.8784C11.3246 22.8778 11.3228 22.878 11.3213 22.8774V22.8765C9.17204 22.132 7.09956 21.0846 5.55566 19.5034C3.97919 17.8888 3 15.7635 3 12.9995V5.99951C3.00012 5.46924 3.21097 4.96042 3.58594 4.58545C3.96099 4.21052 4.46967 3.99951 5 3.99951C6.67637 3.99951 8.95154 2.95117 10.582 1.52686L10.5908 1.52002C10.9837 1.18434 11.4832 0.999512 12 0.999512C12.5168 0.999512 13.0163 1.18434 13.4092 1.52002L13.418 1.52686C15.0575 2.96026 17.3229 3.99951 19 3.99951C19.5303 3.99951 20.039 4.21052 20.4141 4.58545C20.789 4.96042 20.9999 5.46924 21 5.99951V12.9995Z" fill="currentColor"/>
</svg>
