<svg width="24" height="24" viewBox="0 0 24 24" fill="none" xmlns="http://www.w3.org/2000/svg">
<path d="M21.6312 16.4508H7.67421L8.37499 15.0234L20.0187 15.0023C20.4125 15.0023 20.75 14.7211 20.8203 14.332L22.4328 5.30625C22.475 5.06953 22.4117 4.82578 22.257 4.64062C22.1806 4.5495 22.0852 4.4761 21.9776 4.42551C21.8699 4.37492 21.7525 4.34835 21.6336 4.34766L6.82109 4.29844L6.69452 3.70312C6.61484 3.32344 6.27265 3.04688 5.88359 3.04688H2.26249C2.04307 3.04688 1.83263 3.13404 1.67747 3.2892C1.52232 3.44436 1.43515 3.65479 1.43515 3.87422C1.43515 4.09364 1.52232 4.30408 1.67747 4.45924C1.83263 4.6144 2.04307 4.70156 2.26249 4.70156H5.21327L5.7664 7.33125L7.12812 13.9242L5.37499 16.7859C5.28395 16.9088 5.22912 17.0547 5.21669 17.2071C5.20426 17.3596 5.23474 17.5124 5.30468 17.6484C5.44531 17.9273 5.7289 18.1031 6.04296 18.1031H7.51484C7.20105 18.5199 7.03157 19.0275 7.03202 19.5492C7.03202 20.8758 8.11015 21.9539 9.43671 21.9539C10.7633 21.9539 11.8414 20.8758 11.8414 19.5492C11.8414 19.0266 11.668 18.518 11.3586 18.1031H15.1344C14.8206 18.5199 14.6511 19.0275 14.6516 19.5492C14.6516 20.8758 15.7297 21.9539 17.0562 21.9539C18.3828 21.9539 19.4609 20.8758 19.4609 19.5492C19.4609 19.0266 19.2875 18.518 18.9781 18.1031H21.6336C22.0883 18.1031 22.4609 17.7328 22.4609 17.2758C22.4596 17.0566 22.3716 16.8468 22.2161 16.6923C22.0607 16.5377 21.8504 16.4509 21.6312 16.4508ZM7.16562 5.92969L20.6609 5.97422L19.3391 13.3758L8.73827 13.3945L7.16562 5.92969ZM9.43671 20.2898C9.0289 20.2898 8.69609 19.957 8.69609 19.5492C8.69609 19.1414 9.0289 18.8086 9.43671 18.8086C9.84452 18.8086 10.1773 19.1414 10.1773 19.5492C10.1773 19.7456 10.0993 19.934 9.96041 20.0729C9.82152 20.2118 9.63314 20.2898 9.43671 20.2898ZM17.0562 20.2898C16.6484 20.2898 16.3156 19.957 16.3156 19.5492C16.3156 19.1414 16.6484 18.8086 17.0562 18.8086C17.4641 18.8086 17.7969 19.1414 17.7969 19.5492C17.7969 19.7456 17.7188 19.934 17.5799 20.0729C17.441 20.2118 17.2527 20.2898 17.0562 20.2898Z" fill="#0D121A"/>
</svg>
