<svg width="24" height="24" viewBox="0 0 24 24" fill="none" xmlns="http://www.w3.org/2000/svg">
<path d="M20.6713 6.37734V3.375C20.6713 2.96016 20.3361 2.625 19.9213 2.625H4.07753C3.66269 2.625 3.32753 2.96016 3.32753 3.375V6.37734C2.93612 6.40078 2.6244 6.72656 2.6244 7.125V10.2117C2.6229 10.779 2.73777 11.3406 2.9619 11.8617C3.06269 12.1008 3.1869 12.3258 3.32753 12.5391V20.625C3.32753 21.0375 3.66269 21.375 4.07753 21.375H19.9213C20.3361 21.375 20.6713 21.0398 20.6713 20.625V12.5391C20.8141 12.3252 20.9365 12.0985 21.0369 11.8617C21.2596 11.3391 21.3744 10.7836 21.3744 10.2117V7.125C21.3744 6.72656 21.0627 6.40078 20.6713 6.37734ZM5.01503 4.3125H18.9838V6.375H5.01503V4.3125ZM13.4994 19.6898H10.4994V17.25H13.4994V19.6898ZM18.9838 19.6898H14.9994V16.5C14.9994 16.0852 14.6642 15.75 14.2494 15.75H9.7494C9.33456 15.75 8.9994 16.0852 8.9994 16.5V19.6898H5.01503V14.0133C5.083 14.0461 5.15331 14.0789 5.22597 14.107C5.74862 14.3273 6.30409 14.4375 6.87597 14.4375C7.44784 14.4375 8.00097 14.3273 8.52597 14.107C8.8494 13.9711 9.15409 13.7977 9.433 13.5891C9.43769 13.5867 9.44237 13.5867 9.44706 13.5891C9.72683 13.7985 10.0315 13.9725 10.3541 14.107C10.8767 14.3273 11.4322 14.4375 12.0041 14.4375C12.576 14.4375 13.1291 14.3273 13.6541 14.107C13.9775 13.9711 14.2822 13.7977 14.5611 13.5891C14.5658 13.5867 14.5705 13.5867 14.5752 13.5891C14.855 13.7985 15.1596 13.9725 15.4822 14.107C16.0049 14.3273 16.5603 14.4375 17.1322 14.4375C17.7041 14.4375 18.2572 14.3273 18.7822 14.107C18.8525 14.0766 18.9228 14.0461 18.9932 14.0133V19.6898H18.9838ZM19.6869 10.2117C19.6869 11.6133 18.5385 12.75 17.1252 12.75C16.1689 12.75 15.3346 12.232 14.8939 11.4633C14.826 11.3461 14.7041 11.2734 14.5682 11.2734H14.5541C14.4205 11.2734 14.2963 11.3461 14.2283 11.4633C14.0035 11.8554 13.6788 12.1811 13.2873 12.4071C12.8958 12.6331 12.4514 12.7514 11.9994 12.75C11.0455 12.75 10.2135 12.2344 9.77284 11.468C9.70253 11.3484 9.57597 11.2734 9.43769 11.2734C9.2994 11.2734 9.1705 11.3484 9.10253 11.468C8.87636 11.8586 8.55127 12.1828 8.15998 12.4079C7.76869 12.6329 7.32502 12.7509 6.87362 12.75C5.46034 12.75 4.3119 11.6133 4.3119 10.2117V8.07422C4.3119 8.06719 4.31659 8.0625 4.32362 8.0625H19.6752C19.6822 8.0625 19.6869 8.06719 19.6869 8.07422V10.2117Z" fill="#0D121A"/>
</svg>
