<svg width="24" height="24" viewBox="0 0 24 24" fill="none" xmlns="http://www.w3.org/2000/svg">
<path d="M20.293 2.79297C20.6835 2.40245 21.3165 2.40245 21.707 2.79297C22.0976 3.18349 22.0976 3.81651 21.707 4.20703L16.4141 9.5H20C20.5523 9.5 21 9.94772 21 10.5C21 11.0523 20.5523 11.5 20 11.5H14C13.4477 11.5 13 11.0523 13 10.5V4.5C13 3.94772 13.4477 3.5 14 3.5C14.5523 3.5 15 3.94772 15 4.5V8.08594L20.293 2.79297ZM11 20.5C11 21.0523 10.5523 21.5 10 21.5C9.44772 21.5 9 21.0523 9 20.5V16.9141L3.70703 22.207C3.31651 22.5976 2.68349 22.5976 2.29297 22.207C1.90245 21.8165 1.90245 21.1835 2.29297 20.793L7.58594 15.5H4C3.44772 15.5 3 15.0523 3 14.5C3 13.9477 3.44772 13.5 4 13.5H10C10.5523 13.5 11 13.9477 11 14.5V20.5Z" fill="#0D121A"/>
</svg>
