<svg width="24" height="24" viewBox="0 0 24 24" fill="none" xmlns="http://www.w3.org/2000/svg">
<path fill-rule="evenodd" clip-rule="evenodd" d="M3.41515 17.625C3.46188 17.625 3.50862 17.6203 3.55535 17.6133L7.4973 16.9217C7.54404 16.9124 7.58843 16.8914 7.62115 16.8563L17.5567 6.92173C17.5783 6.90011 17.5955 6.87444 17.6072 6.84618C17.619 6.81791 17.625 6.78761 17.625 6.75701C17.625 6.72641 17.619 6.69611 17.6072 6.66784C17.5955 6.63958 17.5783 6.6139 17.5567 6.59229L13.6614 2.69276C13.617 2.64837 13.5586 2.625 13.4955 2.625C13.4325 2.625 13.374 2.64837 13.3296 2.69276L3.39412 12.6273C3.35908 12.6624 3.33804 12.7044 3.32871 12.7512L2.63705 16.6928C2.59265 16.9521 2.67208 17.2068 2.8567 17.3914C3.01092 17.5432 3.20719 17.625 3.41515 17.625ZM4.62787 15.6227L4.99474 13.5386L13.4955 5.03855L15.213 6.75584L6.71219 15.2558L4.62787 15.6227ZM14.035 13.3108C14.684 12.9637 15.3778 12.8221 16.0399 12.9471C16.7985 13.0903 17.4396 13.569 17.8906 14.3394C18.5931 15.5397 18.3978 16.7378 17.4573 17.7204C17.0454 18.1508 16.4948 18.541 15.8168 18.8992L15.81 18.9028L15.8298 18.9089C16.1381 19.0016 16.4646 19.0518 16.8034 19.0544L16.8309 19.0545C18.2622 19.0545 19.1977 18.5365 19.7673 17.4637C19.9859 17.0521 20.4967 16.8956 20.9082 17.1142C21.3198 17.3327 21.4763 17.8435 21.2577 18.2551C20.3839 19.9008 18.8649 20.742 16.8309 20.742C15.7133 20.742 14.6761 20.3898 13.8265 19.7725L13.8018 19.7543L13.7699 19.7654C12.6876 20.1403 11.4559 20.4672 10.1284 20.7482L10.0759 20.7593C8.93756 20.9987 7.79648 21.19 6.81452 21.3207C6.35259 21.3823 5.92828 21.0577 5.86676 20.5958C5.80523 20.1338 6.12982 19.7095 6.59173 19.648C7.53382 19.5225 8.63374 19.3382 9.7286 19.1079C10.7317 18.8969 11.6742 18.6594 12.526 18.3968L12.5315 18.395L12.5213 18.3788C12.1354 17.7588 11.9153 17.0796 11.9086 16.4278L11.9084 16.3973C11.9084 15.2276 12.8355 13.9524 14.035 13.3108ZM15.7269 14.6053C15.4752 14.5578 15.1621 14.6217 14.8309 14.7988C14.1384 15.1692 13.5959 15.9154 13.5959 16.3973C13.5959 16.824 13.8043 17.3382 14.1751 17.7974L14.1806 17.8042L14.2093 17.7922C15.1274 17.4036 15.8144 16.989 16.2233 16.5691L16.2383 16.5535C16.6774 16.0948 16.7395 15.7135 16.4342 15.1918C16.2219 14.8291 15.9882 14.6546 15.7269 14.6053Z" fill="#0D121A"/>
</svg>
