<svg width="24" height="24" viewBox="0 0 24 24" fill="none" xmlns="http://www.w3.org/2000/svg">
<path d="M20.3906 2.95307H15.5578C15.15 2.95307 14.7867 3.23197 14.6906 3.63978C14.3977 4.87728 13.2891 5.76557 12 5.76557C10.7109 5.76557 9.60234 4.87728 9.30938 3.63978C9.26367 3.44418 9.15307 3.26982 8.9956 3.14512C8.83812 3.02042 8.64306 2.95272 8.44219 2.95307H3.60938C3.33587 2.95307 3.07357 3.06171 2.88017 3.25511C2.68677 3.44851 2.57812 3.71081 2.57812 3.98432V9.89057C2.57812 10.1641 2.68677 10.4264 2.88017 10.6198C3.07357 10.8132 3.33587 10.9218 3.60938 10.9218H5.36719V20.0156C5.36719 20.2891 5.47584 20.5514 5.66923 20.7448C5.86263 20.9382 6.12493 21.0468 6.39844 21.0468H17.6016C17.8751 21.0468 18.1374 20.9382 18.3308 20.7448C18.5242 20.5514 18.6328 20.2891 18.6328 20.0156V10.9218H20.3906C20.6641 10.9218 20.9264 10.8132 21.1198 10.6198C21.3132 10.4264 21.4219 10.1641 21.4219 9.89057V3.98432C21.4219 3.71081 21.3132 3.44851 21.1198 3.25511C20.9264 3.06171 20.6641 2.95307 20.3906 2.95307ZM19.7344 9.23432H16.9453V19.3593H7.05469V9.23432H4.26562V4.64057H7.85859C8.51953 6.30932 10.1438 7.45307 12 7.45307C13.8562 7.45307 15.4805 6.30932 16.1414 4.64057H19.7344V9.23432Z" fill="#0D121A"/>
</svg>
