<svg width="24" height="24" viewBox="0 0 24 24" fill="none" xmlns="http://www.w3.org/2000/svg">
<path d="M2 19V3C2 2.44772 2.44772 2 3 2C3.55228 2 4 2.44772 4 3V19C4 19.2652 4.10543 19.5195 4.29297 19.707C4.48051 19.8946 4.73478 20 5 20H21C21.5523 20 22 20.4477 22 21C22 21.5523 21.5523 22 21 22H5C4.20435 22 3.44152 21.6837 2.87891 21.1211C2.3163 20.5585 2 19.7957 2 19ZM8 10V14H10V10H8ZM16 6V12H18V6H16ZM12 14C12 15.1046 11.1046 16 10 16V17C10 17.5523 9.55228 18 9 18C8.44772 18 8 17.5523 8 17V16C6.89543 16 6 15.1046 6 14V10C6 8.89543 6.89543 8 8 8V5C8 4.44772 8.44772 4 9 4C9.55228 4 10 4.44772 10 5V8C11.1046 8 12 8.89543 12 10V14ZM20 12C20 13.1046 19.1046 14 18 14V16C18 16.5523 17.5523 17 17 17C16.4477 17 16 16.5523 16 16V14C14.8954 14 14 13.1046 14 12V6C14 4.89543 14.8954 4 16 4V3C16 2.44772 16.4477 2 17 2C17.5523 2 18 2.44772 18 3V4C19.1046 4 20 4.89543 20 6V12Z" fill="#0D121A"/>
</svg>
