<svg width="24" height="24" viewBox="0 0 24 24" fill="none" xmlns="http://www.w3.org/2000/svg">
<path d="M5.99999 4.5C5.99999 3.94772 6.4477 3.5 6.99999 3.5C7.55227 3.5 7.99999 3.94772 7.99999 4.5V18.0859L10.293 15.793C10.6835 15.4024 11.3165 15.4024 11.707 15.793C12.0975 16.1835 12.0975 16.8165 11.707 17.207L7.70702 21.207C7.31649 21.5976 6.68348 21.5976 6.29295 21.207L2.29295 17.207C1.90243 16.8165 1.90243 16.1835 2.29295 15.793C2.68348 15.4024 3.31649 15.4024 3.70702 15.793L5.99999 18.0859V4.5ZM20 13.5C20.388 13.5 20.7407 13.7248 20.9053 14.0762C21.0698 14.4275 21.0169 14.8426 20.7685 15.1406L17.1357 19.5H20C20.5523 19.5 21 19.9477 21 20.5C21 21.0523 20.5523 21.5 20 21.5H15C14.612 21.5 14.2593 21.2752 14.0947 20.9238C13.9302 20.5725 13.9831 20.1574 14.2314 19.8594L17.8642 15.5H15C14.4477 15.5 14 15.0523 14 14.5C14 13.9477 14.4477 13.5 15 13.5H20ZM19 7C19 6.60218 18.8418 6.22076 18.5605 5.93945C18.2792 5.65815 17.8978 5.5 17.5 5.5C17.1022 5.5 16.7207 5.65815 16.4394 5.93945C16.1581 6.22076 16 6.60218 16 7V7.5H19V7ZM21 10.5C21 11.0523 20.5523 11.5 20 11.5C19.4477 11.5 19 11.0523 19 10.5V9.5H16V10.5C16 11.0523 15.5523 11.5 15 11.5C14.4477 11.5 14 11.0523 14 10.5V7C14 6.07174 14.369 5.18177 15.0254 4.52539C15.6818 3.86901 16.5717 3.5 17.5 3.5C18.4282 3.5 19.3182 3.86901 19.9746 4.52539C20.631 5.18177 21 6.07174 21 7V10.5Z" fill="#0D121A"/>
</svg>
