<svg width="24" height="24" viewBox="0 0 24 24" fill="none" xmlns="http://www.w3.org/2000/svg">
<path d="M5.99999 20.5V6.91406L3.70702 9.20703C3.31649 9.59756 2.68348 9.59756 2.29295 9.20703C1.90243 8.81651 1.90243 8.18349 2.29295 7.79297L6.29295 3.79297L6.36913 3.72461C6.7619 3.40426 7.3409 3.42685 7.70702 3.79297L11.707 7.79297C12.0975 8.18349 12.0975 8.81651 11.707 9.20703C11.3165 9.59756 10.6835 9.59756 10.293 9.20703L7.99999 6.91406V20.5C7.99999 21.0523 7.55227 21.5 6.99999 21.5C6.4477 21.5 5.99999 21.0523 5.99999 20.5ZM20 13.5C20.388 13.5 20.7407 13.7248 20.9053 14.0762C21.0698 14.4275 21.0169 14.8426 20.7685 15.1406L17.1357 19.5H20C20.5523 19.5 21 19.9477 21 20.5C21 21.0523 20.5523 21.5 20 21.5H15C14.612 21.5 14.2593 21.2752 14.0947 20.9238C13.9302 20.5725 13.9831 20.1574 14.2314 19.8594L17.8642 15.5H15C14.4477 15.5 14 15.0523 14 14.5C14 13.9477 14.4477 13.5 15 13.5H20ZM19 7C19 6.60218 18.8418 6.22076 18.5605 5.93945C18.2792 5.65815 17.8978 5.5 17.5 5.5C17.1022 5.5 16.7207 5.65815 16.4394 5.93945C16.1581 6.22076 16 6.60218 16 7V7.5H19V7ZM21 10.5C21 11.0523 20.5523 11.5 20 11.5C19.4477 11.5 19 11.0523 19 10.5V9.5H16V10.5C16 11.0523 15.5523 11.5 15 11.5C14.4477 11.5 14 11.0523 14 10.5V7C14 6.07174 14.369 5.18177 15.0254 4.52539C15.6818 3.86901 16.5717 3.5 17.5 3.5C18.4282 3.5 19.3182 3.86901 19.9746 4.52539C20.631 5.18177 21 6.07174 21 7V10.5Z" fill="#0D121A"/>
</svg>
