<svg width="24" height="24" viewBox="0 0 24 24" fill="none" xmlns="http://www.w3.org/2000/svg">
<path d="M21.9882 11.9156L18.4515 9.11719C18.3812 9.06094 18.2804 9.1125 18.2804 9.20156V11.2031H14.9054V4.3125H19.6866V7.3125C19.6866 7.36406 19.7288 7.40625 19.7804 7.40625H21.1866C21.2382 7.40625 21.2804 7.36406 21.2804 7.3125V3.375C21.2804 3.01172 20.9874 2.71875 20.6241 2.71875H13.9679C13.6046 2.71875 13.3116 3.01172 13.3116 3.375V20.625C13.3116 20.9883 13.6046 21.2812 13.9679 21.2812H20.6241C20.9874 21.2812 21.2804 20.9883 21.2804 20.625V16.6875C21.2804 16.6359 21.2382 16.5938 21.1866 16.5938H19.7804C19.7288 16.5938 19.6866 16.6359 19.6866 16.6875V19.6875H14.9054V12.7969H18.2804V14.7984C18.2804 14.8875 18.3835 14.9391 18.4515 14.8828L21.9882 12.0844C22.0444 12.0422 22.0444 11.9578 21.9882 11.9156ZM10.0304 2.71875H3.37412C3.01084 2.71875 2.71787 3.01172 2.71787 3.375V7.3125C2.71787 7.36406 2.76006 7.40625 2.81162 7.40625H4.21787C4.26943 7.40625 4.31162 7.36406 4.31162 7.3125V4.3125H9.09287V11.2031H5.71787V9.20156C5.71787 9.1125 5.61709 9.06094 5.54678 9.11719L2.00771 11.9156C1.95381 11.9578 1.95381 12.0398 2.00771 12.082L5.54678 14.8828C5.61475 14.9367 5.71787 14.8875 5.71787 14.7984V12.7969H9.09287V19.6875H4.31162V16.6875C4.31162 16.6359 4.26943 16.5938 4.21787 16.5938H2.81162C2.76006 16.5938 2.71787 16.6359 2.71787 16.6875V20.625C2.71787 20.9883 3.01084 21.2812 3.37412 21.2812H10.0304C10.3937 21.2812 10.6866 20.9883 10.6866 20.625V3.375C10.6866 3.01172 10.3937 2.71875 10.0304 2.71875Z" fill="#0D121A"/>
</svg>
