<svg viewBox="0 0 24 24" fill="none" xmlns="http://www.w3.org/2000/svg">
<path d="M11.293 11.293C11.5757 11.0102 11.9998 10.9229 12.3711 11.0713L22.3711 15.0713C22.7514 15.2234 23.0008 15.5923 23 16.002C22.9992 16.4116 22.7481 16.7791 22.3672 16.9297L18.4697 18.4697L16.9297 22.3672C16.7791 22.7481 16.4116 22.9992 16.002 23C15.5923 23.0008 15.2234 22.7514 15.0713 22.3711L11.0713 12.3711C10.9229 11.9998 11.0102 11.5757 11.293 11.293ZM15.9941 19.2939L16.7705 17.332L16.8125 17.2383C16.923 17.0259 17.1073 16.8595 17.332 16.7705L19.2939 15.9941L13.7949 13.7949L15.9941 19.2939ZM20 11V5C20 4.73478 19.8946 4.48051 19.707 4.29297C19.5195 4.10543 19.2652 4 19 4H5C4.73478 4 4.4805 4.10543 4.29297 4.29297C4.10543 4.4805 4 4.73478 4 5V19C4 19.2652 4.10543 19.5195 4.29297 19.707C4.48051 19.8946 4.73478 20 5 20H11C11.5523 20 12 20.4477 12 21C12 21.5523 11.5523 22 11 22H5C4.20435 22 3.44152 21.6837 2.87891 21.1211C2.3163 20.5585 2 19.7957 2 19V5C2 4.20435 2.3163 3.44152 2.87891 2.87891C3.44152 2.3163 4.20435 2 5 2H19C19.7957 2 20.5585 2.3163 21.1211 2.87891C21.6837 3.44152 22 4.20435 22 5V11C22 11.5523 21.5523 12 21 12C20.4477 12 20 11.5523 20 11Z" fill="currentColor"/>
</svg>
