<svg width="24" height="24" viewBox="0 0 24 24" fill="none" xmlns="http://www.w3.org/2000/svg">
<path d="M4.56641 2.84857C4.91287 2.68205 5.32483 2.72855 5.625 2.96869L15.625 10.9687C15.8622 11.1585 16 11.4462 16 11.7499C16 12.0537 15.8622 12.3414 15.625 12.5312L5.625 20.5312C5.32483 20.7713 4.91287 20.8178 4.56641 20.6513C4.22012 20.4847 4 20.1342 4 19.7499V3.74994C4 3.36565 4.22012 3.01515 4.56641 2.84857ZM18 18.7499V4.74994C18 4.19766 18.4477 3.74994 19 3.74994C19.5523 3.74994 20 4.19766 20 4.74994V18.7499C20 19.3022 19.5523 19.7499 19 19.7499C18.4477 19.7499 18 19.3022 18 18.7499ZM6 17.6679L13.3984 11.7499L6 5.83099V17.6679Z" fill="#0D121A"/>
</svg>
