<svg width="24" height="24" viewBox="0 0 24 24" fill="none" xmlns="http://www.w3.org/2000/svg">
<path d="M18.375 2.96869C18.6752 2.72855 19.0871 2.68205 19.4336 2.84857C19.7799 3.01515 20 3.36565 20 3.74994V19.7499C20 20.1342 19.7799 20.4847 19.4336 20.6513C19.0871 20.8178 18.6752 20.7713 18.375 20.5312L8.375 12.5312C8.13778 12.3414 8 12.0537 8 11.7499C8 11.4462 8.13778 11.1585 8.375 10.9687L18.375 2.96869ZM4 18.7499V4.74994C4 4.19766 4.44772 3.74994 5 3.74994C5.55228 3.74994 6 4.19766 6 4.74994V18.7499C6 19.3022 5.55228 19.7499 5 19.7499C4.44772 19.7499 4 19.3022 4 18.7499ZM10.6016 11.7499L18 17.6679V5.83099L10.6016 11.7499Z" fill="#0D121A"/>
</svg>
