<svg width="24" height="24" viewBox="0 0 24 24" fill="none" xmlns="http://www.w3.org/2000/svg">
<path d="M2.99999 21V18C2.99999 17.4477 3.4477 17 3.99999 17C4.55227 17 4.99999 17.4477 4.99999 18V21C4.99999 21.5523 4.55227 22 3.99999 22C3.4477 22 2.99999 21.5523 2.99999 21ZM6.99999 21V14C6.99999 13.4477 7.4477 13 7.99999 13C8.55227 13 8.99999 13.4477 8.99999 14V21C8.99999 21.5523 8.55227 22 7.99999 22C7.4477 22 6.99999 21.5523 6.99999 21ZM11 21V16C11 15.4477 11.4477 15 12 15C12.5523 15 13 15.4477 13 16V21C13 21.5523 12.5523 22 12 22C11.4477 22 11 21.5523 11 21ZM15 21V14C15 13.4477 15.4477 13 16 13C16.5523 13 17 13.4477 17 14V21C17 21.5523 16.5523 22 16 22C15.4477 22 15 21.5523 15 21ZM19 21V9.99999C19 9.4477 19.4477 8.99999 20 8.99999C20.5523 8.99999 21 9.4477 21 9.99999V21C21 21.5523 20.5523 22 20 22C19.4477 22 19 21.5523 19 21ZM21.293 2.29295C21.6835 1.90243 22.3165 1.90243 22.707 2.29295C23.0975 2.68348 23.0975 3.31649 22.707 3.70702L14.0615 12.3535L14.0605 12.3525C13.9214 12.4918 13.757 12.6032 13.5752 12.6787C13.393 12.7543 13.1973 12.793 13 12.793C12.8027 12.793 12.607 12.7543 12.4248 12.6787C12.2428 12.6032 12.0777 12.492 11.9385 12.3525L8.99999 9.41502L2.70702 15.707C2.31648 16.0975 1.68346 16.0975 1.29296 15.707C0.902481 15.3165 0.902458 14.6835 1.29296 14.293L7.94042 7.64647L8.04979 7.54686C8.31668 7.32825 8.65294 7.20799 9.00097 7.20799L9.14843 7.21483C9.49168 7.24884 9.81438 7.40057 10.0605 7.64647H10.0615L13 10.5849L21.293 2.29295Z" fill="#0D121A"/>
</svg>
