<svg width="24" height="24" viewBox="0 0 24 24" fill="none" xmlns="http://www.w3.org/2000/svg">
<path d="M22.3125 11.1094H13.357C13.1227 11.0625 12.8766 11.0156 12.6164 10.9688C12.2437 10.9008 12.0961 10.8727 11.8945 10.8328C10.6922 10.5984 9.96797 10.3641 9.39141 10.0313C8.56875 9.55078 8.16797 8.89922 8.16797 8.03672C8.16797 7.16953 8.52422 6.45 9.19922 5.95078C9.86484 5.45859 10.8117 5.19844 11.9367 5.19844C13.2211 5.19844 14.2125 5.53594 14.8852 6.20156C15.2273 6.53906 15.4781 6.95391 15.6305 7.43438C15.6609 7.53047 15.6961 7.66875 15.7313 7.85156C15.7523 7.96406 15.8531 8.04375 15.9633 8.04375H17.6695C17.8008 8.04375 17.9062 7.93594 17.9062 7.80703V7.78359C17.8898 7.62422 17.8758 7.5 17.8594 7.40859C17.6883 6.38906 17.2031 5.49375 16.4602 4.82344C15.4195 3.87422 13.8891 3.375 12.0375 3.375C10.343 3.375 8.81719 3.79922 7.74141 4.56797C7.14141 4.99922 6.67734 5.53359 6.36797 6.15469C6.05156 6.78984 5.89219 7.52344 5.89219 8.33203C5.89219 9.02344 6.02578 9.60938 6.29766 10.125C6.49219 10.493 6.75703 10.8164 7.09687 11.1094H1.6875C1.58437 11.1094 1.5 11.1938 1.5 11.2969V12.7031C1.5 12.8063 1.58437 12.8906 1.6875 12.8906H11.8406C11.8898 12.9 11.932 12.9094 11.9789 12.9188C12.7031 13.0641 13.1391 13.1625 13.5398 13.275C14.0789 13.4273 14.4914 13.5867 14.8336 13.7789C15.6727 14.2523 16.0828 14.932 16.0828 15.8648C16.0828 16.6922 15.7195 17.4305 15.0609 17.9461C14.3461 18.5063 13.2891 18.7992 12.0023 18.7992C10.9781 18.7992 10.1109 18.6 9.41953 18.2133C8.7375 17.8313 8.26875 17.2805 8.02031 16.5844C8.00156 16.5328 7.98047 16.4625 7.95703 16.3734C7.92891 16.2703 7.83281 16.1977 7.72969 16.1977H5.86172C5.73047 16.1977 5.625 16.3055 5.625 16.4344V16.4578C5.62969 16.5117 5.63438 16.5563 5.63906 16.5914C5.79141 17.7352 6.34922 18.6727 7.29609 19.3758C8.4 20.1914 9.95391 20.6227 11.7914 20.6227C13.7648 20.6227 15.4195 20.1586 16.5773 19.2797C17.1633 18.8367 17.6133 18.2906 17.9156 17.6625C18.2203 17.0273 18.3773 16.3055 18.3773 15.518C18.3773 14.7727 18.2414 14.1492 17.9602 13.6102C17.8242 13.3477 17.6531 13.1063 17.4492 12.8883H22.3125C22.4156 12.8883 22.5 12.8039 22.5 12.7008V11.2945C22.4994 11.2452 22.4794 11.1981 22.4443 11.1635C22.4092 11.1288 22.3618 11.1094 22.3125 11.1094Z" fill="#0D121A"/>
</svg>
