<svg width="24" height="24" viewBox="0 0 24 24" fill="none" xmlns="http://www.w3.org/2000/svg">
<path fill-rule="evenodd" clip-rule="evenodd" d="M12.8438 19.1719V22.125C12.8438 22.3321 12.6759 22.5 12.4688 22.5H11.5312C11.3241 22.5 11.1562 22.3321 11.1562 22.125V19.1719C11.5276 19.2104 11.8089 19.2296 12 19.2296C12.1911 19.2296 12.4724 19.2104 12.8438 19.1719ZM17.6543 16.4611L19.7425 18.5493C19.8889 18.6957 19.8889 18.9332 19.7425 19.0796L19.0796 19.7425C18.9331 19.8889 18.6957 19.8889 18.5493 19.7425L16.4611 17.6543C16.7509 17.4189 16.9634 17.2337 17.0985 17.0985C17.2337 16.9634 17.4189 16.7509 17.6543 16.4611M6.34568 16.4611C6.58106 16.7509 6.76631 16.9634 6.90145 17.0985C7.03662 17.2337 7.2491 17.4189 7.53891 17.6543L5.45074 19.7425C5.3043 19.8889 5.06684 19.8889 4.92042 19.7425L4.25749 19.0796C4.11105 18.9331 4.11105 18.6957 4.25749 18.5492L6.34568 16.4611ZM12 6.51562C15.0289 6.51562 17.4844 8.97105 17.4844 12C17.4844 15.0289 15.0289 17.4844 12 17.4844C8.97105 17.4844 6.51562 15.0289 6.51562 12C6.51562 8.97105 8.97105 6.51562 12 6.51562ZM12 8.20312C9.90305 8.20312 8.20312 9.90305 8.20312 12C8.20312 14.097 9.90305 15.7969 12 15.7969C14.097 15.7969 15.7969 14.097 15.7969 12C15.7969 9.90305 14.097 8.20312 12 8.20312ZM4.82812 11.1562C4.78962 11.5276 4.77037 11.8089 4.77037 12C4.77037 12.1911 4.78962 12.4724 4.82812 12.8438H1.875C1.66788 12.8438 1.5 12.6759 1.5 12.4688V11.5312C1.5 11.3241 1.66788 11.1562 1.875 11.1562H4.82812ZM22.125 11.1562C22.3321 11.1562 22.5 11.3241 22.5 11.5312V12.4688C22.5 12.6759 22.3321 12.8438 22.125 12.8438H19.1719C19.2104 12.4724 19.2296 12.1911 19.2296 12C19.2296 11.8089 19.2104 11.5276 19.1719 11.1562H22.125ZM19.0796 4.23405L19.7425 4.89698C19.8889 5.04342 19.8889 5.28087 19.7425 5.4273L17.6543 7.51547C17.4189 7.22566 17.2337 7.01318 17.0985 6.87802C16.9634 6.74288 16.7509 6.55762 16.4611 6.32224L18.5492 4.23405C18.6957 4.08762 18.9331 4.08762 19.0796 4.23405M5.45072 4.23405L7.53888 6.32224C7.24908 6.55762 7.03659 6.74288 6.90143 6.87802C6.76629 7.01318 6.58104 7.22566 6.34566 7.51547L4.25747 5.4273C4.11103 5.28087 4.11103 5.0434 4.25747 4.89698L4.9204 4.23405C5.06684 4.08762 5.30428 4.08762 5.45072 4.23405ZM12.4688 1.5C12.6759 1.5 12.8438 1.66788 12.8438 1.875V4.82812C12.4724 4.78962 12.1911 4.77037 12 4.77037C11.8089 4.77037 11.5276 4.78962 11.1562 4.82812V1.875C11.1562 1.66788 11.3241 1.5 11.5312 1.5H12.4688Z" fill="#0D121A"/>
</svg>
