<svg width="24" height="24" viewBox="0 0 24 24" fill="none" xmlns="http://www.w3.org/2000/svg">
<path d="M2 21V16C2 15.4477 2.44772 15 3 15H8C8.55228 15 9 15.4477 9 16C9 16.5523 8.55228 17 8 17H5.41406L5.95508 17.541L6.26562 17.8271C7.84922 19.2168 9.88571 19.9906 12.002 19.999C14.123 19.9985 16.1574 19.1571 17.6572 17.6572C19.1575 16.1569 20 14.1217 20 12C20 11.4477 20.4477 11 21 11C21.5523 11 22 11.4477 22 12C22 14.6522 20.9467 17.1959 19.0713 19.0713C17.1959 20.9467 14.6522 22 12 22H11.9961C9.39524 21.9902 6.89242 21.038 4.94629 19.3301L4.55273 18.9668L4 18.4141V21C4 21.5523 3.55228 22 3 22C2.44772 22 2 21.5523 2 21ZM2 12C2 9.34784 3.05335 6.80407 4.92871 4.92871C6.80407 3.05335 9.34784 2 12 2H12.0039L12.5225 2.01465C14.9359 2.14027 17.2373 3.07585 19.0537 4.66992L19.4473 5.0332L20 5.58594V3C20 2.44772 20.4477 2 21 2C21.5523 2 22 2.44772 22 3V8C22 8.55228 21.5523 9 21 9H16C15.4477 9 15 8.55228 15 8C15 7.44772 15.4477 7 16 7H18.5859L18.0449 6.45898L17.7344 6.17285C16.1505 4.78301 14.1137 4.00816 11.9971 4C9.8764 4.00078 7.84237 4.84317 6.34277 6.34277C4.84248 7.84306 4 9.87827 4 12C4 12.5523 3.55228 13 3 13C2.44772 13 2 12.5523 2 12Z" fill="#0D121A"/>
</svg>
