<svg width="24" height="24" viewBox="0 0 24 24" fill="none" xmlns="http://www.w3.org/2000/svg">
<path d="M6.5 10C6.77614 10 7 9.77614 7 9.5C7 9.22386 6.77614 9 6.5 9C6.22386 9 6 9.22386 6 9.5C6 9.77614 6.22386 10 6.5 10Z" fill="#0D121A"/>
<path d="M21.0059 13C21.0059 12.8157 20.9691 12.6331 20.8984 12.4629C20.8278 12.2929 20.7242 12.1388 20.5938 12.0088L20.5928 12.0068L14.293 5.70703C13.9024 5.31651 13.9024 4.68349 14.293 4.29297C14.6835 3.90244 15.3165 3.90244 15.707 4.29297L22.0059 10.5918L22.1221 10.7129C22.3848 11.0019 22.596 11.3348 22.7461 11.6963C22.9177 12.1095 23.0059 12.5526 23.0059 13C23.0059 13.4474 22.9177 13.8905 22.7461 14.3037C22.5747 14.7165 22.3223 15.0906 22.0059 15.4062L22.0068 15.4072L17.707 19.707C17.3165 20.0976 16.6835 20.0976 16.293 19.707C15.9024 19.3165 15.9024 18.6835 16.293 18.293L20.5928 13.9932L20.5938 13.9912C20.7242 13.8612 20.8278 13.7071 20.8984 13.5371C20.9691 13.3669 21.0059 13.1843 21.0059 13ZM1 11.1719V6C1 5.46957 1.21086 4.96101 1.58594 4.58594C1.96101 4.21087 2.46957 4 3 4H8.17188C8.96738 4.00017 9.73051 4.31636 10.293 4.87891L15.999 10.585C16.6368 11.2268 16.9951 12.0951 16.9951 13C16.9951 13.9049 16.6368 14.7732 15.999 15.415L12.415 18.999C11.7732 19.6368 10.9049 19.9951 10 19.9951C9.09513 19.9951 8.22683 19.6368 7.58496 18.999L1.87891 13.293C1.31636 12.7305 1.00017 11.9674 1 11.1719ZM6.5 9C6.22386 9 6 9.22386 6 9.5C6 9.77614 6.22386 10 6.5 10C6.77614 10 7 9.77614 7 9.5C7 9.22386 6.77614 9 6.5 9ZM8 9.5C8 10.3284 7.32843 11 6.5 11C5.67157 11 5 10.3284 5 9.5C5 8.67157 5.67157 8 6.5 8C7.32843 8 8 8.67157 8 9.5ZM3 11.1719L3.00488 11.2705C3.02764 11.4994 3.12884 11.7148 3.29297 11.8789L8.99512 17.5811L9.09961 17.6748C9.35286 17.8811 9.67055 17.9951 10 17.9951C10.3765 17.9951 10.7378 17.8463 11.0049 17.5811L14.583 14.0029C14.8471 13.736 14.9951 13.3756 14.9951 13C14.9951 12.6244 14.8471 12.264 14.583 11.9971L8.87891 6.29297C8.71482 6.12884 8.49945 6.02764 8.27051 6.00488L8.17188 6H3V11.1719Z" fill="#0D121A"/>
</svg>
