<svg viewBox="0 0 24 24" fill="none" xmlns="http://www.w3.org/2000/svg">
<path d="M15.2932 1.29297C15.6838 0.902582 16.3168 0.902491 16.7073 1.29297L22.7073 7.29297C23.0976 7.68346 23.0976 8.31654 22.7073 8.70703C22.3168 9.09751 21.6838 9.09742 21.2932 8.70703L20.9993 8.41309L12.7122 16.7002C12.7083 16.7041 12.7044 16.708 12.7005 16.7119L7.52273 21.8906C6.8034 22.602 5.83225 23.0005 4.82058 22.998C3.80896 22.9955 2.83908 22.5928 2.12331 21.8779L2.12234 21.877C1.40499 21.1588 1.00222 20.185 1.00222 19.1699C1.00224 18.1549 1.40501 17.181 2.12234 16.4629L15.5862 3L15.2932 2.70703C14.9027 2.31651 14.9027 1.68349 15.2932 1.29297ZM6.41433 15H11.5852L19.5852 6.99903L17.0003 4.41406L6.41433 15ZM3.00222 19.1699C3.00222 19.6548 3.19479 20.1198 3.53738 20.4629C3.87938 20.8045 4.34206 20.9968 4.82546 20.998C5.30884 20.9993 5.77277 20.8086 6.11648 20.4688L9.58523 17H4.41433L3.53738 17.877C3.19476 18.2201 3.00224 18.685 3.00222 19.1699Z" fill="currentColor"/>
</svg>
