<svg width="24" height="24" viewBox="0 0 24 24" fill="none" xmlns="http://www.w3.org/2000/svg">
<path d="M20.5461 5.61257C20.5344 5.59147 20.518 5.57038 20.4993 5.55397C20.3821 5.43678 20.1922 5.43678 20.0751 5.55397L16.0368 9.59225L14.4454 8.00085L18.486 3.96022C18.5047 3.94147 18.5188 3.92272 18.5329 3.90163C18.6172 3.75866 18.5704 3.57585 18.4274 3.49147C16.1258 2.1321 13.1118 2.44382 11.1313 4.42194C9.56099 5.99225 9.04068 8.21882 9.57271 10.2204L2.70552 17.0876C2.63521 17.1579 2.6399 17.2727 2.71255 17.3454L6.6899 21.3227C6.76255 21.3954 6.87974 21.4001 6.94771 21.3298L13.8126 14.4649C15.8165 14.9993 18.043 14.4813 19.6157 12.9087C21.5938 10.9282 21.9055 7.91413 20.5461 5.61257ZM18.4227 11.7133C17.061 13.0751 15.0172 13.3376 13.393 12.5008L13.1868 12.7071L13.1844 12.7048L6.76255 19.129L4.9063 17.2727L10.2993 11.8798C10.2993 11.8798 10.2993 11.8821 10.3016 11.8821L11.5391 10.6446C10.7024 9.02038 10.9649 6.97663 12.3266 5.61491C12.7658 5.17533 13.2947 4.83574 13.8772 4.61934C14.4596 4.40293 15.082 4.31481 15.7016 4.361L12.5868 7.4735C12.4461 7.61435 12.3671 7.80529 12.3671 8.00436C12.3671 8.20344 12.4461 8.39437 12.5868 8.53522L15.5047 11.4532C15.6456 11.5939 15.8365 11.6729 16.0356 11.6729C16.2347 11.6729 16.4256 11.5939 16.5665 11.4532L19.679 8.34069C19.7657 9.55475 19.3415 10.7969 18.4227 11.7133Z" fill="#0D121A"/>
</svg>
