<svg width="24" height="24" viewBox="0 0 24 24" fill="none" xmlns="http://www.w3.org/2000/svg">
<path d="M12 1.5C6.20156 1.5 1.5 6.20156 1.5 12C1.5 17.7984 6.20156 22.5 12 22.5C17.7984 22.5 22.5 17.7984 22.5 12C22.5 6.20156 17.7984 1.5 12 1.5ZM12 20.7188C7.18594 20.7188 3.28125 16.8141 3.28125 12C3.28125 7.18594 7.18594 3.28125 12 3.28125C16.8141 3.28125 20.7188 7.18594 20.7188 12C20.7188 16.8141 16.8141 20.7188 12 20.7188ZM14.0508 12.8742C14.8664 12.5742 15.8883 11.7258 15.8883 10.0805C15.8883 8.41172 14.8219 7.00781 12.5086 7.00781H8.85938C8.75625 7.00781 8.67188 7.09219 8.67188 7.19531V16.8047C8.67188 16.9078 8.75625 16.9922 8.85938 16.9922H10.1367C10.2398 16.9922 10.3242 16.9078 10.3242 16.8047V13.1531H12.4031L14.1516 16.8844C14.182 16.95 14.2477 16.9922 14.3203 16.9922H15.7734C15.8053 16.9925 15.8367 16.9845 15.8645 16.9691C15.8924 16.9537 15.9159 16.9314 15.9326 16.9043C15.9493 16.8772 15.9588 16.8463 15.96 16.8144C15.9613 16.7826 15.9544 16.751 15.9398 16.7227L14.0508 12.8742ZM12.2344 11.8359H10.3242V8.36719H12.2789C13.4039 8.36719 14.175 8.96016 14.175 10.1367C14.175 11.2359 13.4766 11.8359 12.2344 11.8359Z" fill="#0D121A"/>
</svg>
