<svg width="24" height="24" viewBox="0 0 24 24" fill="none" xmlns="http://www.w3.org/2000/svg">
<path d="M3.28125 4.40623H16.9688V8.24998H18.75V3.37498C18.75 2.96014 18.4148 2.62498 18 2.62498H2.25C1.83516 2.62498 1.5 2.96014 1.5 3.37498V20.625C1.5 21.0398 1.83516 21.375 2.25 21.375H15V19.5937H3.28125V4.40623Z" fill="#0D121A"/>
<path d="M9.71016 5.99998H8.28984C8.21016 5.99998 8.13984 6.05155 8.11172 6.12655L5.13281 14.7515C5.12578 14.7703 5.12344 14.7914 5.12344 14.8125C5.12344 14.9156 5.20781 15 5.31094 15H6.60234C6.68203 15 6.75234 14.9484 6.78047 14.8734L7.54688 12.6562H12.1453L9.89062 6.12655C9.86016 6.05155 9.78984 5.99998 9.71016 5.99998ZM10.0008 11.3437H7.99688L9 8.44217L10.0008 11.3437ZM21.9375 12.375H18.75V10.1953C18.75 10.0922 18.6656 10.0078 18.5625 10.0078H17.25C17.1469 10.0078 17.0625 10.0922 17.0625 10.1953V12.375H13.875C13.5633 12.375 13.3125 12.6258 13.3125 12.9375V17.0625C13.3125 17.3742 13.5633 17.625 13.875 17.625H17.0625V21.1875C17.0625 21.2906 17.1469 21.375 17.25 21.375H18.5625C18.6656 21.375 18.75 21.2906 18.75 21.1875V17.625H21.9375C22.2492 17.625 22.5 17.3742 22.5 17.0625V12.9375C22.5 12.6258 22.2492 12.375 21.9375 12.375ZM17.0625 15.9375H15V14.0625H17.0625V15.9375ZM20.8125 15.9375H18.75V14.0625H20.8125V15.9375Z" fill="#0D121A"/>
</svg>
