<svg width="24" height="24" viewBox="0 0 24 24" fill="none" xmlns="http://www.w3.org/2000/svg">
<path d="M15.6698 7.5C15.6698 7.39687 15.5854 7.3125 15.4823 7.3125H14.2049C14.1346 7.3125 14.069 7.35234 14.0385 7.41562L12.0534 11.3719H11.976L9.99085 7.41562C9.97531 7.38477 9.95154 7.35882 9.92218 7.34062C9.89281 7.32242 9.85899 7.31269 9.82445 7.3125H8.51898C8.48851 7.3125 8.45804 7.31953 8.42992 7.33594C8.33851 7.38516 8.3057 7.5 8.35492 7.58906L10.7901 12.0797H9.45414C9.35101 12.0797 9.26664 12.1641 9.26664 12.2672V12.9023C9.26664 13.0055 9.35101 13.0898 9.45414 13.0898H11.2354V14.0039H9.45414C9.35101 14.0039 9.26664 14.0883 9.26664 14.1914V14.8266C9.26664 14.9297 9.35101 15.0141 9.45414 15.0141H11.2354V16.5C11.2354 16.6031 11.3198 16.6875 11.4229 16.6875H12.5924C12.6955 16.6875 12.7799 16.6031 12.7799 16.5V15.0117H14.5682C14.6713 15.0117 14.7557 14.9273 14.7557 14.8242V14.1891C14.7557 14.0859 14.6713 14.0016 14.5682 14.0016H12.7799V13.0875H14.5682C14.6713 13.0875 14.7557 13.0031 14.7557 12.9V12.2648C14.7557 12.1617 14.6713 12.0773 14.5682 12.0773H13.2182L15.6487 7.58672C15.6604 7.56094 15.6698 7.53047 15.6698 7.5ZM3.70023 11.8172C3.74425 9.68111 4.61362 7.64505 6.12601 6.13594C6.88773 5.37422 7.77367 4.77422 8.76039 4.35703C9.78226 3.92578 10.8674 3.70547 11.9854 3.70547C13.1057 3.70547 14.1909 3.92344 15.2104 4.35703C16.1971 4.77422 17.083 5.37422 17.8448 6.13594C18.0791 6.37031 18.2971 6.61641 18.4987 6.87188L17.3268 7.78828C17.2989 7.80988 17.2776 7.83891 17.2655 7.87205C17.2533 7.90519 17.2508 7.94108 17.2581 7.97561C17.2655 8.01013 17.2824 8.04188 17.307 8.0672C17.3316 8.09252 17.3628 8.11039 17.3971 8.11875L21.0721 9.01641C21.1893 9.04453 21.3041 8.95547 21.3041 8.83594L21.3229 5.05078C21.3229 4.89375 21.1424 4.80469 21.0205 4.90312L19.9002 5.77969C18.0627 3.42891 15.201 1.92188 11.9877 1.92188C6.49164 1.92188 2.0221 6.33047 1.92132 11.8078C1.9207 11.8328 1.92509 11.8577 1.93423 11.881C1.94337 11.9043 1.95708 11.9255 1.97456 11.9434C1.99203 11.9613 2.01291 11.9756 2.03597 11.9853C2.05903 11.995 2.0838 12 2.10882 12H3.51507C3.61585 12 3.69789 11.918 3.70023 11.8172ZM21.8901 12H20.4838C20.383 12 20.2987 12.082 20.2963 12.1828C20.2523 14.3189 19.3829 16.355 17.8705 17.8641C17.1158 18.6219 16.2211 19.2261 15.2362 19.643C14.2143 20.0742 13.1291 20.2945 12.0112 20.2945C10.8932 20.2945 9.8057 20.0766 8.78617 19.643C7.80119 19.2261 6.90652 18.6219 6.15179 17.8641C5.91742 17.6297 5.69945 17.3836 5.49789 17.1281L6.66742 16.2117C6.69533 16.1901 6.71659 16.1611 6.72874 16.1279C6.74088 16.0948 6.74343 16.0589 6.73609 16.0244C6.72874 15.9899 6.7118 15.9581 6.68722 15.9328C6.66263 15.9075 6.63139 15.8896 6.5971 15.8812L2.9221 14.9836C2.80492 14.9555 2.69007 15.0445 2.69007 15.1641L2.67132 18.9539C2.67132 19.1109 2.85179 19.2 2.97367 19.1016L4.09398 18.225C5.93617 20.5711 8.79789 22.0781 12.0112 22.0781C17.5073 22.0781 21.9768 17.6695 22.0776 12.1922C22.0782 12.1672 22.0738 12.1423 22.0647 12.119C22.0555 12.0957 22.0418 12.0745 22.0243 12.0566C22.0069 12.0387 21.986 12.0244 21.9629 12.0147C21.9399 12.005 21.9151 12 21.8901 12Z" fill="#0D121A"/>
</svg>
