<svg width="24" height="24" viewBox="0 0 24 24" fill="none" xmlns="http://www.w3.org/2000/svg">
<path fill-rule="evenodd" clip-rule="evenodd" d="M14.25 4.5C14.6642 4.5 15 4.83579 15 5.25V9H19.0972C19.2211 9 19.343 9.03067 19.4521 9.08926C19.5612 9.14786 19.6541 9.23255 19.7224 9.33579L22.3752 13.34C22.4566 13.4628 22.5 13.6069 22.5 13.7542V15.75C22.5 16.1642 22.1642 16.5 21.75 16.5H19.5C19.5 18.1568 18.1568 19.5 16.5 19.5C14.8432 19.5 13.5 18.1568 13.5 16.5H9C9 18.1568 7.65684 19.5 6 19.5C4.34316 19.5 3 18.1568 3 16.5H2.25C1.83579 16.5 1.5 16.1642 1.5 15.75V5.25C1.5 4.83579 1.83579 4.5 2.25 4.5H14.25ZM6 15C5.17158 15 4.5 15.6716 4.5 16.5C4.5 17.3284 5.17158 18 6 18L6.0248 17.9998C6.84178 17.9865 7.5 17.3201 7.5 16.5C7.5 15.6716 6.82842 15 6 15ZM16.5 15C15.6716 15 15 15.6716 15 16.5C15 17.3284 15.6716 18 16.5 18L16.5248 17.9998C17.3418 17.9865 18 17.3201 18 16.5C18 15.6716 17.3284 15 16.5 15ZM13.5 6H3V15H3.40134C3.92004 14.1033 4.88958 13.5 6 13.5C7.11042 13.5 8.07996 14.1033 8.59866 15H13.5V6ZM18.6944 10.5H15V13.9013C15.4413 13.6461 15.9536 13.5 16.5 13.5C17.6104 13.5 18.58 14.1033 19.0987 15H21V13.9801L18.6944 10.5ZM11.7188 10.5C11.8741 10.5 12 10.6259 12 10.7812V11.7188C12 11.8741 11.8741 12 11.7188 12H7.78125C7.62593 12 7.5 11.8741 7.5 11.7188V10.7812C7.5 10.6259 7.62593 10.5 7.78125 10.5H11.7188ZM7.21875 7.5C7.37407 7.5 7.5 7.62593 7.5 7.78125V8.71875C7.5 8.87407 7.37407 9 7.21875 9H4.78125C4.62593 9 4.5 8.87407 4.5 8.71875V7.78125C4.5 7.62593 4.62593 7.5 4.78125 7.5H7.21875Z" fill="#0D121A"/>
</svg>
