<svg width="24" height="24" viewBox="0 0 24 24" fill="none" xmlns="http://www.w3.org/2000/svg">
<path d="M20 19C20.5523 19 21 19.4477 21 20C21 20.5523 20.5523 21 20 21H4C3.44772 21 3 20.5523 3 20C3 19.4477 3.44772 19 4 19H20ZM5 10V4C5 3.44772 5.44772 3 6 3C6.55228 3 7 3.44772 7 4V10C7 11.3261 7.52716 12.5975 8.46484 13.5352C9.40253 14.4728 10.6739 15 12 15C13.3261 15 14.5975 14.4728 15.5352 13.5352C16.4728 12.5975 17 11.3261 17 10V4C17 3.44772 17.4477 3 18 3C18.5523 3 19 3.44772 19 4V10C19 11.8565 18.2629 13.6374 16.9502 14.9502C15.6374 16.2629 13.8565 17 12 17C10.1435 17 8.36256 16.2629 7.0498 14.9502C5.73705 13.6374 5 11.8565 5 10Z" fill="#0D121A"/>
</svg>
