<svg width="24" height="24" viewBox="0 0 24 24" fill="none" xmlns="http://www.w3.org/2000/svg">
<path d="M20 12.0002C20 11.4479 19.5523 11.0002 19 11.0002H5C4.44772 11.0002 4 11.4479 4 12.0002V20.0002C4.00012 20.5524 4.44779 21.0002 5 21.0002H19C19.5522 21.0002 19.9999 20.5524 20 20.0002V12.0002ZM10 16.0002C10 14.8956 10.8954 14.0002 12 14.0002C13.1046 14.0002 14 14.8956 14 16.0002C13.9999 17.1047 13.1045 18.0002 12 18.0002C10.8955 18.0002 10.0001 17.1047 10 16.0002ZM22 20.0002C21.9999 21.657 20.6568 23.0002 19 23.0002H5C3.34322 23.0002 2.00012 21.657 2 20.0002V12.0002C2 10.3433 3.34315 9.0002 5 9.0002H6V7.0002C6.00006 5.67947 6.43622 4.39566 7.24023 3.34786C8.04428 2.30005 9.17151 1.54615 10.4473 1.2043C11.7229 0.86255 13.0758 0.951872 14.2959 1.45723C15.5161 1.96264 16.5359 2.85646 17.1963 4.0002C17.4722 4.47843 17.3083 5.09031 16.8301 5.36641C16.3518 5.64244 15.74 5.47837 15.4639 5.0002C15.0236 4.23769 14.3438 3.64182 13.5303 3.30489C12.7168 2.96804 11.8153 2.90905 10.9648 3.13692C10.1144 3.36481 9.3622 3.86614 8.82617 4.56466C8.29014 5.2632 8.00004 6.1197 8 7.0002V9.0002H19C20.6569 9.0002 22 10.3433 22 12.0002V20.0002Z" fill="#0D121A"/>
</svg>
