<svg width="24" height="24" viewBox="0 0 24 24" fill="none" xmlns="http://www.w3.org/2000/svg">
<path d="M3.00977 17C3.56205 17 4.00977 17.4477 4.00977 18C4.00977 18.5523 3.56205 19 3.00977 19H3C2.44772 19 2 18.5523 2 18C2 17.4477 2.44772 17 3 17H3.00977ZM21 17C21.5523 17 22 17.4477 22 18C22 18.5523 21.5523 19 21 19H8C7.44772 19 7 18.5523 7 18C7 17.4477 7.44772 17 8 17H21ZM3.00977 11C3.56205 11 4.00977 11.4477 4.00977 12C4.00977 12.5523 3.56205 13 3.00977 13H3C2.44772 13 2 12.5523 2 12C2 11.4477 2.44772 11 3 11H3.00977ZM21 11C21.5523 11 22 11.4477 22 12C22 12.5523 21.5523 13 21 13H8C7.44772 13 7 12.5523 7 12C7 11.4477 7.44772 11 8 11H21ZM3.00977 5C3.56205 5 4.00977 5.44772 4.00977 6C4.00977 6.55228 3.56205 7 3.00977 7H3C2.44772 7 2 6.55228 2 6C2 5.44772 2.44772 5 3 5H3.00977ZM21 5C21.5523 5 22 5.44772 22 6C22 6.55228 21.5523 7 21 7H8C7.44772 7 7 6.55228 7 6C7 5.44772 7.44772 5 8 5H21Z" fill="#0D121A"/>
</svg>
