<svg width="24" height="24" viewBox="0 0 24 24" fill="none" xmlns="http://www.w3.org/2000/svg">
<path d="M21 12C21 7.02944 16.9706 3 12 3C7.02944 3 3 7.02944 3 12C3 16.9706 7.02944 21 12 21C16.9706 21 21 16.9706 21 12ZM11.3691 9.22461C11.7619 8.90426 12.3409 8.92685 12.707 9.29297L16.707 13.293C17.0976 13.6835 17.0976 14.3165 16.707 14.707C16.3165 15.0976 15.6835 15.0976 15.293 14.707L12 11.4141L8.70703 14.707C8.31651 15.0976 7.68349 15.0976 7.29297 14.707C6.90244 14.3165 6.90244 13.6835 7.29297 13.293L11.293 9.29297L11.3691 9.22461ZM23 12C23 18.0751 18.0751 23 12 23C5.92487 23 1 18.0751 1 12C1 5.92487 5.92487 1 12 1C18.0751 1 23 5.92487 23 12Z" fill="#0D121A"/>
</svg>
