<svg width="24" height="24" viewBox="0 0 24 24" fill="none" xmlns="http://www.w3.org/2000/svg">
<path d="M2 19V15C2 14.4477 2.44772 14 3 14C3.55228 14 4 14.4477 4 15V19C4 19.2652 4.10543 19.5195 4.29297 19.707C4.48051 19.8946 4.73478 20 5 20H19C19.2652 20 19.5195 19.8946 19.707 19.707C19.8946 19.5195 20 19.2652 20 19V15C20 14.4477 20.4477 14 21 14C21.5523 14 22 14.4477 22 15V19C22 19.7957 21.6837 20.5585 21.1211 21.1211C20.5585 21.6837 19.7957 22 19 22H5C4.20435 22 3.44152 21.6837 2.87891 21.1211C2.3163 20.5585 2 19.7957 2 19ZM11 15V5.41406L7.70703 8.70703C7.31651 9.09756 6.68349 9.09756 6.29297 8.70703C5.90244 8.31651 5.90244 7.68349 6.29297 7.29297L11.293 2.29297L11.3691 2.22461C11.7619 1.90426 12.3409 1.92685 12.707 2.29297L17.707 7.29297C18.0976 7.68349 18.0976 8.31651 17.707 8.70703C17.3165 9.09756 16.6835 9.09756 16.293 8.70703L13 5.41406V15C13 15.5523 12.5523 16 12 16C11.4477 16 11 15.5523 11 15Z" fill="#0D121A"/>
</svg>
