<svg width="24" height="24" viewBox="0 0 24 24" fill="none" xmlns="http://www.w3.org/2000/svg">
<path d="M20 5C20 4.44771 19.5523 4 19 4H5C4.44772 4 4 4.44772 4 5V19C4 19.5523 4.44771 20 5 20H19C19.5523 20 20 19.5523 20 19V5ZM11.3691 9.22461C11.7619 8.90426 12.3409 8.92685 12.707 9.29297L16.707 13.293C17.0976 13.6835 17.0976 14.3165 16.707 14.707C16.3165 15.0976 15.6835 15.0976 15.293 14.707L12 11.4141L8.70703 14.707C8.31651 15.0976 7.68349 15.0976 7.29297 14.707C6.90244 14.3165 6.90244 13.6835 7.29297 13.293L11.293 9.29297L11.3691 9.22461ZM22 19C22 20.6569 20.6569 22 19 22H5C3.34315 22 2 20.6569 2 19V5C2 3.34315 3.34315 2 5 2H19C20.6569 2 22 3.34315 22 5V19Z" fill="#0D121A"/>
</svg>
