<svg width="24" height="24" viewBox="0 0 24 24" fill="none" xmlns="http://www.w3.org/2000/svg">
<path d="M16 8C16 5.79086 14.2091 4 12 4C9.79086 4 8 5.79086 8 8C8 10.2091 9.79086 12 12 12C14.2091 12 16 10.2091 16 8ZM18 8C18 9.94598 17.0726 11.6742 15.6367 12.7705C16.6434 13.2154 17.571 13.8424 18.3643 14.6357C20.0521 16.3236 21 18.6131 21 21C21 21.5523 20.5523 22 20 22C19.4477 22 19 21.5523 19 21C19 19.1435 18.2629 17.3626 16.9502 16.0498C15.6374 14.7371 13.8565 14 12 14C10.1435 14 8.36256 14.7371 7.0498 16.0498C5.73705 17.3626 5 19.1435 5 21C5 21.5523 4.55228 22 4 22C3.44772 22 3 21.5523 3 21C3 18.6131 3.94791 16.3236 5.63574 14.6357C6.42882 13.8427 7.35593 13.2153 8.3623 12.7705C6.92681 11.6742 6 9.9457 6 8C6 4.68629 8.68629 2 12 2C15.3137 2 18 4.68629 18 8Z" fill="#0D121A"/>
</svg>
