<svg viewBox="0 0 24 24" fill="none" xmlns="http://www.w3.org/2000/svg">
<path d="M14 8C14 5.79086 12.2091 4 10 4C7.79086 4 6 5.79086 6 8C6 10.2091 7.79086 12 10 12C12.2091 12 14 10.2091 14 8ZM21.293 16.293C21.6835 15.9024 22.3165 15.9024 22.707 16.293C23.0976 16.6835 23.0976 17.3165 22.707 17.707L18.707 21.707C18.3165 22.0976 17.6835 22.0976 17.293 21.707L15.293 19.707C14.9024 19.3165 14.9024 18.6835 15.293 18.293C15.6835 17.9024 16.3165 17.9024 16.707 18.293L18 19.5859L21.293 16.293ZM16 8C16 9.945 15.0733 11.6722 13.6387 12.7686C14.4772 13.1392 15.2585 13.6374 15.9531 14.25C16.3672 14.6153 16.4071 15.2469 16.042 15.6611C15.6767 16.0752 15.045 16.1151 14.6309 15.75C13.6205 14.8588 12.3742 14.2777 11.042 14.0771C9.70986 13.8766 8.34798 14.0649 7.12012 14.6191C5.89221 15.1734 4.84995 16.0704 4.11914 17.2021C3.38833 18.3339 2.99993 19.6528 3 21C3 21.5523 2.55227 22 2 22C1.44774 22 1.00003 21.5523 1 21C0.999916 19.2679 1.49985 17.5723 2.43945 16.1172C3.37899 14.6623 4.71838 13.5095 6.29688 12.7969C6.31788 12.7874 6.33929 12.7779 6.36035 12.7686C4.9261 11.6722 4 9.94472 4 8C4 4.68629 6.68629 2 10 2C13.3137 2 16 4.68629 16 8Z" fill="currentColor"/>
</svg>
