<svg width="24" height="24" viewBox="0 0 24 24" fill="none" xmlns="http://www.w3.org/2000/svg">
<path d="M20.9063 18.7505H15.6563C15.5532 18.7505 15.4688 18.8349 15.4688 18.938V20.063C15.4688 20.1662 15.5532 20.2505 15.6563 20.2505H20.9063C21.0094 20.2505 21.0938 20.1662 21.0938 20.063V18.938C21.0938 18.8349 21.0094 18.7505 20.9063 18.7505ZM8.84771 12.338C8.82662 12.1341 8.8149 11.9279 8.8149 11.7193C8.8149 11.3466 8.85006 10.9834 8.91568 10.6295C8.93209 10.5451 8.88756 10.4584 8.81021 10.4232C8.49146 10.2802 8.1985 10.0834 7.94537 9.83493C7.64711 9.54572 7.4124 9.19752 7.25623 8.81254C7.10005 8.42756 7.02585 8.01425 7.03834 7.59899C7.05943 6.84664 7.36178 6.1318 7.88912 5.59274C8.46803 4.99977 9.24615 4.67633 10.0735 4.68571C10.8212 4.69274 11.543 4.98102 12.0891 5.49196C12.2743 5.66539 12.4337 5.85758 12.5672 6.06383C12.6141 6.13649 12.7055 6.16696 12.7852 6.13883C13.1977 5.99586 13.6337 5.89508 14.0813 5.84821C14.2126 5.83414 14.2876 5.69352 14.229 5.57633C13.4672 4.0693 11.911 3.02867 10.111 3.00055C7.51178 2.96071 5.34615 5.09118 5.34615 7.68571C5.34615 9.15758 6.0235 10.4701 7.08521 11.3302C6.3399 11.6748 5.65318 12.1505 5.05787 12.7459C3.7735 14.0279 3.04693 15.7201 3.00006 17.5271C2.99943 17.5521 3.00382 17.577 3.01296 17.6003C3.02211 17.6236 3.03582 17.6448 3.05329 17.6627C3.07076 17.6806 3.09165 17.6949 3.11471 17.7046C3.13777 17.7143 3.16254 17.7193 3.18756 17.7193H4.5024C4.60318 17.7193 4.68756 17.6396 4.6899 17.5388C4.73443 16.1795 5.28521 14.9068 6.25318 13.9412C6.94225 13.2521 7.786 12.774 8.70709 12.542C8.7985 12.5185 8.85943 12.4318 8.84771 12.338ZM19.4063 11.7193C19.4063 9.15524 17.3462 7.07164 14.7915 7.0318C12.1946 6.99196 10.0313 9.12243 10.0313 11.7193C10.0313 13.1912 10.711 14.5037 11.7704 15.3638C11.0173 15.7129 10.3318 16.1921 9.74537 16.7795C8.461 18.0615 7.73443 19.7537 7.68756 21.5584C7.68693 21.5834 7.69132 21.6083 7.70046 21.6316C7.70961 21.6548 7.72332 21.6761 7.74079 21.694C7.75826 21.7119 7.77915 21.7261 7.80221 21.7358C7.82527 21.7456 7.85004 21.7506 7.87506 21.7505H9.18756C9.28834 21.7505 9.37271 21.6709 9.37506 21.5701C9.41959 20.2107 9.97037 18.938 10.9383 17.9724C11.9485 16.9623 13.2891 16.4068 14.7188 16.4068C17.3063 16.4068 19.4063 14.3091 19.4063 11.7193ZM16.8399 13.8404C16.2727 14.4076 15.5204 14.7193 14.7188 14.7193C13.9172 14.7193 13.1649 14.4076 12.5977 13.8404C12.3147 13.5588 12.091 13.2233 11.9401 12.8537C11.7891 12.4842 11.7139 12.088 11.7188 11.6888C11.7258 10.9201 12.0329 10.1771 12.5696 9.62633C13.1321 9.04977 13.8844 8.72867 14.6883 8.7193C15.4829 8.71227 16.254 9.02164 16.8212 9.57711C17.4024 10.1466 17.7212 10.9084 17.7212 11.7193C17.7188 12.5209 17.4071 13.2732 16.8399 13.8404Z" fill="#0D121A"/>
</svg>
