<svg width="24" height="24" viewBox="0 0 24 24" fill="none" xmlns="http://www.w3.org/2000/svg">
<path d="M20.9061 18.0937H19.0311V16.2187C19.0311 16.1156 18.9467 16.0312 18.8436 16.0312H17.7186C17.6155 16.0312 17.5311 16.1156 17.5311 16.2187V18.0937H15.6561C15.553 18.0937 15.4686 18.1781 15.4686 18.2812V19.4062C15.4686 19.5093 15.553 19.5937 15.6561 19.5937H17.5311V21.4687C17.5311 21.5718 17.6155 21.6562 17.7186 21.6562H18.8436C18.9467 21.6562 19.0311 21.5718 19.0311 21.4687V19.5937H20.9061C21.0092 19.5937 21.0936 19.5093 21.0936 19.4062V18.2812C21.0936 18.1781 21.0092 18.0937 20.9061 18.0937ZM8.75376 11.6812C8.73266 11.4773 8.72094 11.2711 8.72094 11.0625C8.72094 10.6898 8.7561 10.3265 8.82173 9.97263C8.83813 9.88825 8.7936 9.80153 8.71626 9.76638C8.39751 9.62341 8.10454 9.42653 7.85141 9.1781C7.55315 8.88889 7.31844 8.54069 7.16227 8.15571C7.0061 7.77073 6.93189 7.35742 6.94438 6.94216C6.96548 6.18981 7.26782 5.47497 7.79516 4.93591C8.37407 4.34294 9.15219 4.0195 9.97954 4.02888C10.7272 4.03591 11.4491 4.32419 11.9952 4.83513C12.1803 5.00856 12.3397 5.20075 12.4733 5.407C12.5202 5.47966 12.6116 5.51013 12.6913 5.482C13.1038 5.33903 13.5397 5.23825 13.9874 5.19138C14.1186 5.17731 14.1936 5.03669 14.135 4.9195C13.3733 3.41247 11.817 2.37185 10.017 2.34372C7.42016 2.30388 5.25454 4.43435 5.25454 7.03122C5.25454 8.5031 5.93188 9.8156 6.9936 10.6758C6.24829 11.0203 5.56157 11.4961 4.96626 12.0914C3.68188 13.3734 2.95532 15.0656 2.90844 16.8726C2.90782 16.8976 2.91221 16.9225 2.92135 16.9458C2.93049 16.9691 2.9442 16.9903 2.96168 17.0082C2.97915 17.0262 3.00003 17.0404 3.02309 17.0501C3.04615 17.0598 3.07092 17.0648 3.09595 17.0648H4.41079C4.51157 17.0648 4.59594 16.9851 4.59829 16.8843C4.64282 15.525 5.1936 14.2523 6.16157 13.2867C6.85063 12.5976 7.69438 12.1195 8.61548 11.8875C8.70454 11.8617 8.76548 11.775 8.75376 11.6812ZM19.3124 11.0625C19.3124 8.49841 17.2522 6.41481 14.6975 6.37497C12.1006 6.33513 9.93735 8.4656 9.93735 11.0625C9.93735 12.5343 10.617 13.8468 11.6764 14.707C10.9234 15.0561 10.2379 15.5353 9.65141 16.1226C8.36704 17.4047 7.64048 19.0968 7.5936 20.9015C7.59298 20.9265 7.59736 20.9514 7.60651 20.9747C7.61565 20.998 7.62936 21.0192 7.64683 21.0372C7.66431 21.0551 7.68519 21.0693 7.70825 21.079C7.73131 21.0887 7.75608 21.0937 7.7811 21.0937H9.0936C9.19438 21.0937 9.27876 21.014 9.2811 20.9132C9.32563 19.5539 9.87641 18.2812 10.8444 17.3156C11.8545 16.3054 13.1952 15.75 14.6249 15.75C17.2124 15.75 19.3124 13.6523 19.3124 11.0625ZM16.7459 13.1836C16.1788 13.7508 15.4264 14.0625 14.6249 14.0625C13.8233 14.0625 13.0709 13.7508 12.5038 13.1836C12.2207 12.902 11.9971 12.5665 11.8461 12.1969C11.6951 11.8273 11.6199 11.4312 11.6249 11.032C11.6319 10.2633 11.9389 9.52028 12.4756 8.9695C13.0381 8.39294 13.7905 8.07185 14.5944 8.06247C15.3889 8.05544 16.16 8.36481 16.7272 8.92028C17.3084 9.48981 17.6272 10.2515 17.6272 11.0625C17.6249 11.864 17.3131 12.6164 16.7459 13.1836Z" fill="#0D121A"/>
</svg>
