<svg width="24" height="24" viewBox="0 0 24 24" fill="none" xmlns="http://www.w3.org/2000/svg">
<path d="M17.7887 7.85156C17.7887 4.64062 15.1872 2.03906 11.9762 2.03906C8.76531 2.03906 6.16374 4.64062 6.16374 7.85156C6.16374 9.79219 7.11531 11.5125 8.57781 12.5672C8.56843 12.5719 8.5614 12.5742 8.55671 12.5766C7.50906 13.0195 6.56921 13.6547 5.76062 14.4656C4.95203 15.2742 4.31921 16.2164 3.87624 17.2664C3.44265 18.293 3.21062 19.3828 3.18718 20.5031C3.18484 20.6086 3.26921 20.6953 3.37468 20.6953H4.77859C4.87937 20.6953 4.96374 20.6133 4.96609 20.5125C5.01296 18.7031 5.73718 17.0086 7.01921 15.7242C8.34343 14.3953 10.1012 13.6641 11.9762 13.6641C15.1872 13.6641 17.7887 11.0625 17.7887 7.85156ZM11.9762 11.8828C9.74968 11.8828 7.94499 10.0781 7.94499 7.85156C7.94499 5.625 9.74968 3.82031 11.9762 3.82031C14.2028 3.82031 16.0075 5.625 16.0075 7.85156C16.0075 10.0781 14.2028 11.8828 11.9762 11.8828ZM14.4372 17.0625H20.6247C20.7278 17.0625 20.8122 16.9781 20.8122 16.875V15.5625C20.8122 15.4594 20.7278 15.375 20.6247 15.375H16.488L17.5942 13.9664C17.62 13.9336 17.6341 13.8914 17.6341 13.8516C17.6341 13.7484 17.5497 13.6641 17.4466 13.6641H15.745C15.6301 13.6641 15.5223 13.718 15.4497 13.807L13.8442 15.8484C13.7411 15.9797 13.6848 16.1438 13.6848 16.3125C13.6872 16.7273 14.0223 17.0625 14.4372 17.0625ZM20.0622 18.5625H13.8747C13.7716 18.5625 13.6872 18.6469 13.6872 18.75V20.0625C13.6872 20.1656 13.7716 20.25 13.8747 20.25H18.0114L16.9051 21.6586C16.8794 21.6914 16.8653 21.7336 16.8653 21.7734C16.8653 21.8766 16.9497 21.9609 17.0528 21.9609H18.7544C18.8692 21.9609 18.977 21.907 19.0497 21.818L20.6551 19.7766C20.7583 19.6453 20.8145 19.4813 20.8145 19.3125C20.8122 18.8977 20.477 18.5625 20.0622 18.5625Z" fill="#0D121A"/>
</svg>
