<svg width="24" height="24" viewBox="0 0 24 24" fill="none" xmlns="http://www.w3.org/2000/svg">
<path d="M10.4953 13.8004L10.3242 13.0387C10.3195 13.0152 10.3102 12.9941 10.2984 12.9754C10.2398 12.8887 10.125 12.8652 10.0383 12.9238L9.49219 13.2894V9.6332C9.49219 9.53007 9.40781 9.4457 9.30469 9.4457H7.40625C7.30313 9.4457 7.21875 9.53007 7.21875 9.6332V10.4769C7.21875 10.5801 7.30313 10.6644 7.40625 10.6644H8.27344V15.1738C8.27344 15.2137 8.28515 15.2512 8.30859 15.284C8.36953 15.3683 8.48672 15.3871 8.57109 15.3262L10.4227 13.9949C10.4836 13.9504 10.5117 13.8754 10.4953 13.8004ZM9.1664 8.72382L9.17109 8.72851C9.24609 8.79882 9.36562 8.79414 9.43594 8.71679L10.0008 8.10273C10.0687 8.02773 10.0664 7.91289 9.99375 7.84023L8.73515 6.61914C8.6625 6.54882 8.54531 6.54882 8.47265 6.62148L7.89375 7.20039C7.82109 7.27304 7.82109 7.39257 7.89609 7.46523L9.1664 8.72382Z" fill="#0D121A"/>
<path d="M20.318 3.98202L12.3539 1.26795C12.2578 1.23514 12.1289 1.21873 12 1.21873C11.8711 1.21873 11.7422 1.23514 11.6461 1.26795L3.68203 3.98202C3.4875 4.04764 3.32812 4.27264 3.32812 4.47889V15.7851C3.32812 15.9914 3.46172 16.2633 3.62344 16.3922L11.7023 22.6875C11.7844 22.7508 11.8898 22.7836 11.9977 22.7836C12.1055 22.7836 12.2133 22.7508 12.293 22.6875L20.3719 16.3922C20.5336 16.2656 20.6672 15.9937 20.6672 15.7851V4.47889C20.6719 4.27264 20.5125 4.04998 20.318 3.98202ZM18.9844 15.3351L12 20.7773L5.01563 15.3351V5.31327L12 2.93202L18.9844 5.31327V15.3351Z" fill="#0D121A"/>
<path d="M10.5938 6.96092V7.80467C10.5938 7.9078 10.6781 7.99217 10.7812 7.99217H13.3125V14.414H12.4219V9.49217C12.4219 9.38905 12.3375 9.30467 12.2344 9.30467H11.4141C11.3109 9.30467 11.2266 9.38905 11.2266 9.49217V14.414H10.5C10.3969 14.414 10.3125 14.4984 10.3125 14.6015V15.4687C10.3125 15.5719 10.3969 15.6562 10.5 15.6562H16.2188C16.3219 15.6562 16.4062 15.5719 16.4062 15.4687V14.6015C16.4062 14.4984 16.3219 14.414 16.2188 14.414H14.5312V11.5547H15.8906C15.9937 11.5547 16.0781 11.4703 16.0781 11.3672V10.5469C16.0781 10.4437 15.9937 10.3594 15.8906 10.3594H14.5312V7.99217H16.0078C16.1109 7.99217 16.1953 7.9078 16.1953 7.80467V6.96092C16.1953 6.8578 16.1109 6.77342 16.0078 6.77342H10.7812C10.6781 6.77342 10.5938 6.8578 10.5938 6.96092Z" fill="#0D121A"/>
</svg>
