<svg width="24" height="24" viewBox="0 0 24 24" fill="none" xmlns="http://www.w3.org/2000/svg">
<path d="M6 18.5V6.5C6 5.94772 6.44772 5.5 7 5.5C7.55228 5.5 8 5.94772 8 6.5V18.5C8 19.0523 7.55228 19.5 7 19.5C6.44772 19.5 6 19.0523 6 18.5ZM16.293 5.79297C16.6835 5.40244 17.3165 5.40244 17.707 5.79297C18.0976 6.18349 18.0976 6.81651 17.707 7.20703L12.4141 12.5L17.707 17.793C18.0976 18.1835 18.0976 18.8165 17.707 19.207C17.3165 19.5976 16.6835 19.5976 16.293 19.207L10.293 13.207C9.90244 12.8165 9.90244 12.1835 10.293 11.793L16.293 5.79297Z" fill="#0D121A"/>
</svg>
