<svg width="24" height="24" viewBox="0 0 24 24" fill="none" xmlns="http://www.w3.org/2000/svg">
<path d="M6.29297 5.79297C6.68349 5.40244 7.31651 5.40244 7.70703 5.79297L13.707 11.793C14.0976 12.1835 14.0976 12.8165 13.707 13.207L7.70703 19.207C7.31651 19.5976 6.68349 19.5976 6.29297 19.207C5.90244 18.8165 5.90244 18.1835 6.29297 17.793L11.5859 12.5L6.29297 7.20703C5.90244 6.81651 5.90244 6.18349 6.29297 5.79297ZM16 18.5V6.5C16 5.94772 16.4477 5.5 17 5.5C17.5523 5.5 18 5.94772 18 6.5V18.5C18 19.0523 17.5523 19.5 17 19.5C16.4477 19.5 16 19.0523 16 18.5Z" fill="#0D121A"/>
</svg>
