<svg width="24" height="24" viewBox="0 0 24 24" fill="none" xmlns="http://www.w3.org/2000/svg">
<path d="M11 7.5C11 6.94772 11.4477 6.5 12 6.5C12.5523 6.5 13 6.94772 13 7.5V19.0859L17.293 14.793C17.6835 14.4024 18.3165 14.4024 18.707 14.793C19.0976 15.1835 19.0976 15.8165 18.707 16.207L12.707 22.207C12.3165 22.5976 11.6835 22.5976 11.293 22.207L5.29297 16.207C4.90244 15.8165 4.90244 15.1835 5.29297 14.793C5.68349 14.4024 6.31651 14.4024 6.70703 14.793L11 19.0859V7.5ZM19 2.5C19.5523 2.5 20 2.94772 20 3.5C20 4.05228 19.5523 4.5 19 4.5H5C4.44772 4.5 4 4.05228 4 3.5C4 2.94772 4.44772 2.5 5 2.5H19Z" fill="#0D121A"/>
</svg>
