<svg width="24" height="24" viewBox="0 0 24 24" fill="none" xmlns="http://www.w3.org/2000/svg">
<path d="M11.3691 1.72462C11.7619 1.40427 12.3409 1.42686 12.707 1.79298L16.707 5.79298C17.0976 6.1835 17.0976 6.81652 16.707 7.20704C16.3165 7.59757 15.6835 7.59757 15.293 7.20704L13 4.91407V20.0859L15.293 17.793C15.6835 17.4025 16.3165 17.4025 16.707 17.793C17.0976 18.1835 17.0976 18.8165 16.707 19.207L12.707 23.207C12.3165 23.5976 11.6835 23.5976 11.293 23.207L7.29297 19.207C6.90245 18.8165 6.90245 18.1835 7.29297 17.793C7.68349 17.4025 8.31651 17.4025 8.70703 17.793L11 20.0859V4.91407L8.70703 7.20704C8.31651 7.59757 7.68349 7.59757 7.29297 7.20704C6.90245 6.81652 6.90245 6.1835 7.29297 5.79298L11.293 1.79298L11.3691 1.72462Z" fill="#0D121A"/>
</svg>
