<svg width="24" height="24" viewBox="0 0 24 24" fill="none" xmlns="http://www.w3.org/2000/svg">
<path d="M19 20.5C19.5523 20.5 20 20.9477 20 21.5C20 22.0523 19.5523 22.5 19 22.5H5C4.44772 22.5 4 22.0523 4 21.5C4 20.9477 4.44772 20.5 5 20.5H19ZM11 17.5V5.91407L6.70703 10.207C6.31651 10.5976 5.68349 10.5976 5.29297 10.207C4.90244 9.81652 4.90244 9.1835 5.29297 8.79298L11.293 2.79298L11.3691 2.72462C11.7619 2.40427 12.3409 2.42686 12.707 2.79298L18.707 8.79298C19.0976 9.1835 19.0976 9.81652 18.707 10.207C18.3165 10.5976 17.6835 10.5976 17.293 10.207L13 5.91407V17.5C13 18.0523 12.5523 18.5 12 18.5C11.4477 18.5 11 18.0523 11 17.5Z" fill="#0D121A"/>
</svg>
