<svg width="24" height="24" viewBox="0 0 24 24" fill="none" xmlns="http://www.w3.org/2000/svg">
<path d="M8.625 16.9687H5.90625V14.25C5.90625 14.1469 5.82188 14.0625 5.71875 14.0625H4.59375C4.49062 14.0625 4.40625 14.1469 4.40625 14.25V16.9687H1.6875C1.58437 16.9687 1.5 17.0531 1.5 17.1562V18.2812C1.5 18.3844 1.58437 18.4687 1.6875 18.4687H4.40625V21.1875C4.40625 21.2906 4.49062 21.375 4.59375 21.375H5.71875C5.82188 21.375 5.90625 21.2906 5.90625 21.1875V18.4687H8.625C8.72813 18.4687 8.8125 18.3844 8.8125 18.2812V17.1562C8.8125 17.0531 8.72813 16.9687 8.625 16.9687Z" fill="#0D121A"/>
<path d="M21.375 7.08514L18.375 8.81248V5.24998C18.375 4.42264 17.7023 3.74998 16.875 3.74998H3C2.17266 3.74998 1.5 4.42264 1.5 5.24998V13.5H3.1875V5.43748H16.6875V18.5625H10.5V20.25H16.875C17.7023 20.25 18.375 19.5773 18.375 18.75V15.1875L21.375 16.9148C21.8742 17.2031 22.5 16.8422 22.5 16.268V7.73436C22.5 7.1578 21.8742 6.79686 21.375 7.08514ZM20.8125 14.6484L18.375 13.2469V10.7555L20.8125 9.35155V14.6484Z" fill="#0D121A"/>
<path d="M7.5 8.43748C7.60313 8.43748 7.6875 8.35311 7.6875 8.24998V7.12498C7.6875 7.02186 7.60313 6.93748 7.5 6.93748H4.875C4.77187 6.93748 4.6875 7.02186 4.6875 7.12498V8.24998C4.6875 8.35311 4.77187 8.43748 4.875 8.43748H7.5Z" fill="#0D121A"/>
</svg>
