<svg width="24" height="24" viewBox="0 0 24 24" fill="none" xmlns="http://www.w3.org/2000/svg">
<path d="M16.9453 14.543C15.6281 13.3969 13.9078 12.7031 12.0234 12.7031C10.139 12.7031 8.41873 13.3969 7.0992 14.5453C7.06276 14.5782 7.04046 14.6238 7.03696 14.6728C7.03347 14.7217 7.04905 14.7701 7.08045 14.8078L7.9242 15.8133C7.99217 15.893 8.1117 15.9023 8.19139 15.8344C9.21327 14.9344 10.5539 14.3906 12.0234 14.3906C13.493 14.3906 14.8336 14.9344 15.8555 15.832C15.9351 15.9 16.0547 15.8906 16.1226 15.8109L16.9664 14.8055C17.032 14.7281 17.0226 14.6109 16.9453 14.543ZM19.6969 11.2594C17.618 9.52734 14.9437 8.48438 12.0234 8.48438C9.10311 8.48438 6.42889 9.52734 4.34764 11.2594C4.30957 11.2915 4.28574 11.3374 4.28135 11.387C4.27695 11.4366 4.29236 11.4859 4.3242 11.5242L5.16795 12.5297C5.23358 12.6094 5.35311 12.6187 5.43045 12.5531C7.21873 11.0672 9.51795 10.1719 12.0234 10.1719C14.5289 10.1719 16.8281 11.0672 18.614 12.5531C18.6937 12.6187 18.8109 12.6094 18.8765 12.5297L19.7203 11.5242C19.7859 11.4445 19.7765 11.325 19.6969 11.2594ZM22.432 8.00156C19.5867 5.66719 15.9445 4.26562 11.9765 4.26562C8.03436 4.26562 4.41561 5.64844 1.57733 7.95469C1.55783 7.97035 1.54166 7.98976 1.52978 8.01177C1.51789 8.03378 1.51053 8.05795 1.50813 8.08285C1.50573 8.10775 1.50833 8.13287 1.51579 8.15675C1.52324 8.18063 1.5354 8.20277 1.55155 8.22187L2.3953 9.22734C2.46092 9.30469 2.57811 9.31641 2.65545 9.25312C5.20311 7.18828 8.44452 5.95312 11.9765 5.95312C15.5344 5.95312 18.7969 7.20703 21.3515 9.29766C21.4312 9.36328 21.5484 9.35156 21.614 9.27188L22.4578 8.26641C22.5258 8.18672 22.514 8.06719 22.432 8.00156ZM10.5 18.2344C10.5 18.6322 10.658 19.0137 10.9393 19.295C11.2206 19.5763 11.6022 19.7344 12 19.7344C12.3978 19.7344 12.7793 19.5763 13.0606 19.295C13.3419 19.0137 13.5 18.6322 13.5 18.2344C13.5 17.8366 13.3419 17.455 13.0606 17.1737C12.7793 16.8924 12.3978 16.7344 12 16.7344C11.6022 16.7344 11.2206 16.8924 10.9393 17.1737C10.658 17.455 10.5 17.8366 10.5 18.2344Z" fill="#0D121A"/>
</svg>
