<svg width="24" height="24" viewBox="0 0 24 24" fill="none" xmlns="http://www.w3.org/2000/svg">
<path d="M18 11.25C18 7.38401 14.866 4.25 11 4.25C7.13401 4.25 4 7.38401 4 11.25C4 15.116 7.13401 18.25 11 18.25C12.89 18.25 14.6038 17.4997 15.8633 16.2822C15.8877 16.2512 15.9148 16.2219 15.9434 16.1934C15.9719 16.1648 16.0012 16.1377 16.0322 16.1133C17.2497 14.8538 18 13.14 18 11.25ZM14 10.25C14.5523 10.25 15 10.6977 15 11.25C15 11.8023 14.5523 12.25 14 12.25H8C7.44772 12.25 7 11.8023 7 11.25C7 10.6977 7.44772 10.25 8 10.25H14ZM20 11.25C20 13.375 19.2619 15.3266 18.0303 16.8662L21.707 20.543C22.0976 20.9335 22.0976 21.5665 21.707 21.957C21.3165 22.3476 20.6835 22.3476 20.293 21.957L16.6162 18.2803C15.0766 19.5119 13.125 20.25 11 20.25C6.02944 20.25 2 16.2206 2 11.25C2 6.27944 6.02944 2.25 11 2.25C15.9706 2.25 20 6.27944 20 11.25Z" fill="#0D121A"/>
</svg>
