<svg width="150" height="150" viewBox="0 0 150 150" fill="none" xmlns="http://www.w3.org/2000/svg">
<path d="M111.217 9.65917C114.681 1.45758 124.577 -0.00771052 129.971 6.88378C139.615 19.2082 144.896 43.0432 146.708 59.7408C147.504 67.0807 147.763 73.8296 147.192 79.6388C147.489 89.5887 145.386 100.461 141.492 109.721C134.264 126.909 116.409 139.506 103.278 143.456C94.5194 146.09 84.0093 147.499 74.9779 147.5C65.9465 147.5 56.0156 146.265 46.6729 143.456C33.5419 139.506 15.6869 126.909 8.45857 109.721C4.50661 100.322 2.38909 89.2616 2.76383 79.1911C2.24911 73.4845 2.51976 66.8928 3.29591 59.7408C5.10812 43.0432 10.3883 19.2082 20.0325 6.88378C25.4264 -0.00851117 35.3228 1.4573 38.7866 9.65917C41.2151 15.4093 42.7496 22.7784 43.6227 30.5992C52.5933 27.6196 62.7233 26.1189 74.9779 26.1189C87.2541 26.1191 97.3941 27.626 106.375 30.6162C107.248 22.789 108.787 15.4135 111.217 9.65917Z" fill="black"/>
<path d="M59.8742 112.244C65.3294 112.244 69.7518 105.179 69.7518 96.4637C69.7518 87.7487 65.3294 80.6838 59.8742 80.6838C54.4189 80.6838 49.9966 87.7487 49.9966 96.4637C49.9966 105.179 54.4189 112.244 59.8742 112.244Z" fill="#F8F8F9"/>
<path d="M91.9882 112.244C97.4434 112.244 101.866 105.179 101.866 96.4637C101.866 87.7487 97.4434 80.6838 91.9882 80.6838C86.5329 80.6838 82.1106 87.7487 82.1106 96.4637C82.1106 105.179 86.5329 112.244 91.9882 112.244Z" fill="#F8F8F9"/>
</svg>
